<svg width="20" height="19" viewBox="0 0 20 19" fill="none" xmlns="http://www.w3.org/2000/svg">
<g id="LinkedIn" clip-path="url(#clip0_28_2125)">
<g id="Group">
<path id="Vector" d="M17.68 0H1.52466C0.750774 0 0.125 0.610875 0.125 1.36614V17.5858C0.125 18.3411 0.750774 18.9556 1.52466 18.9556H17.68C18.4539 18.9556 19.0834 18.3411 19.0834 17.5895V1.36614C19.0834 0.610875 18.4539 0 17.68 0ZM5.74956 16.153H2.93543V7.10466H5.74956V16.153ZM4.3425 5.8718C3.43901 5.8718 2.70956 5.14245 2.70956 4.2428C2.70956 3.34315 3.43901 2.6138 4.3425 2.6138C5.24228 2.6138 5.97173 3.34315 5.97173 4.2428C5.97173 5.13875 5.24228 5.8718 4.3425 5.8718ZM16.2803 16.153H13.4699V11.7547C13.4699 10.707 13.4514 9.35564 12.0073 9.35564C10.5447 9.35564 10.3225 10.4996 10.3225 11.6807V16.153H7.5158V7.10466H10.2114V8.34122H10.2485C10.6225 7.63038 11.5408 6.87882 12.9071 6.87882C15.7546 6.87882 16.2803 8.75217 16.2803 11.1883V16.153Z" fill="white"/>
</g>
</g>
<defs>
<clipPath id="clip0_28_2125">
<rect width="18.9584" height="18.9556" fill="white" transform="translate(0.125)"/>
</clipPath>
</defs>
</svg>
