<?xml version="1.0" encoding="utf-8"?>
<!-- Generator: Adobe Illustrator 27.0.0, SVG Export Plug-In . SVG Version: 6.00 Build 0)  -->
<svg version="1.1" id="Layer_1" xmlns="http://www.w3.org/2000/svg" xmlns:xlink="http://www.w3.org/1999/xlink" x="0px" y="0px"
	 viewBox="0 0 128 128" style="enable-background:new 0 0 128 128;" xml:space="preserve">
<style type="text/css">
	.st0{fill:#FFFFFF;}
	.st1{fill:#57B35C;}
</style>
<g>
	<circle class="st0" cx="64" cy="64" r="60"/>
	<circle class="st1" cx="64" cy="64" r="54.9"/>
</g>
<g>
	<path class="st0" d="M86.5,64.3L86.5,64.3c-3-2.5-6.1-5.2-9.4-8c-2-1.7-4.1-3.5-6.1-5.2c-1.9-1.6-3.8-3.3-5.8-4.9
		c-1-0.8-1.4-0.8-2.4,0c-0.1,0.1-0.1,0.1-0.2,0.1c0,0-0.1,0-0.1,0.1c-3.8,3.2-7.7,6.5-11.4,9.7c-2,1.7-4.1,3.5-6.1,5.2
		c-1.2,1-2.4,2.1-3.6,3.1c-0.5,0.5-0.7,0.9-0.6,1.5c0.1,0.4,0.4,0.7,0.8,0.8c0.4,0.1,0.9,0,1.3-0.3c0.3-0.2,0.6-0.5,1-0.8
		c0.2-0.1,0.3-0.3,0.5-0.4v22.4c0,0.3,0,0.5,0.1,0.8c0.1,0.6,0.5,1,1.1,1.1c0.2,0,0.5,0,0.7,0h35.5l0.1,0c0,0,0.1,0,0.1,0
		c0.2,0,0.4,0,0.6,0c0.6-0.1,0.9-0.5,1-1.1c0-0.3,0-0.5,0-0.8V65.2c0.2,0.2,0.4,0.3,0.6,0.5c0.3,0.3,0.6,0.5,0.9,0.8
		c0.4,0.3,0.9,0.4,1.3,0.2c0.4-0.1,0.7-0.5,0.8-0.9C87.3,65.1,86.9,64.7,86.5,64.3z M68.8,73.8v13.1h-9.6V73.8H68.8z"/>
	<path class="st0" d="M92.6,62.7c-0.1-0.1-0.1-0.2-0.2-0.3c-0.2-0.2-0.4-0.5-0.6-0.7l0,0c-3.5-3-7.1-6-9.8-8.3
		c-0.3-0.2-0.4-0.4-0.4-0.8c0-3.7,0-7.5,0-11.2c0-1.1-0.5-1.6-1.6-1.6c-1.8,0-3.5,0-5.3,0c-1,0-1.5,0.5-1.6,1.6v4.1
		c0,0.1,0,0.2,0,0.4l0,0.1c-0.1-0.1-0.1-0.1-0.2-0.1c-0.1,0-0.1-0.1-0.2-0.1c-1.3-1.1-2.6-2.2-3.9-3.4c-1.2-1.1-2.5-2.1-3.7-3.2
		c-0.9-0.8-1.4-0.8-2.3,0c-2.9,2.4-5.7,4.9-8.6,7.3c-6,5.1-12.1,10.3-18.2,15.5c-0.2,0.1-0.3,0.3-0.5,0.5c-0.3,0.4-0.3,0.8-0.1,1.3
		c0.3,0.5,0.7,0.8,1.1,0.7c0.4-0.1,0.9-0.3,1.2-0.6c8.2-7,16.9-14.3,25.8-21.9c0.1-0.1,0.2-0.1,0.3-0.2c0,0,0.1-0.1,0.1-0.1
		c0,0,0.1,0.1,0.1,0.1c0.1,0.1,0.2,0.1,0.2,0.2c6.1,5.2,12.5,10.6,19,16.2c1.1,1,2.3,2,3.4,2.9c1.1,1,2.3,1.9,3.4,2.9
		c0.4,0.4,0.8,0.5,1.2,0.5c0.2,0,0.4-0.1,0.6-0.2c0.2-0.1,0.3-0.3,0.4-0.4c0.1-0.1,0.1-0.1,0.2-0.2l0,0L92.6,62.7L92.6,62.7z"/>
</g>
</svg>
