<svg width="20" height="19" viewBox="0 0 20 19" fill="none" xmlns="http://www.w3.org/2000/svg">
<g id="Instagram" clip-path="url(#clip0_28_2128)">
<g id="Group">
<path id="Vector" d="M9.89713 1.70675C12.4298 1.70675 12.7298 1.71785 13.7258 1.76228C14.6515 1.80301 15.1514 1.9585 15.4846 2.08808C15.9253 2.25839 16.2437 2.46571 16.5733 2.79521C16.9065 3.12842 17.1102 3.44311 17.2805 3.88368C17.4101 4.21689 17.5656 4.7204 17.6063 5.64226C17.6508 6.64187 17.6619 6.94176 17.6619 9.47041C17.6619 12.0028 17.6508 12.3026 17.6063 13.2986C17.5656 14.2241 17.4101 14.7239 17.2805 15.0571C17.1102 15.4977 16.9028 15.8161 16.5733 16.1456C16.24 16.4788 15.9253 16.6824 15.4846 16.8527C15.1514 16.9823 14.6478 17.1378 13.7258 17.1785C12.7261 17.223 12.4261 17.2341 9.89713 17.2341C7.36441 17.2341 7.06449 17.223 6.06844 17.1785C5.14274 17.1378 4.64286 16.9823 4.30961 16.8527C3.86897 16.6824 3.55053 16.4751 3.22099 16.1456C2.88773 15.8124 2.68408 15.4977 2.51375 15.0571C2.38415 14.7239 2.22864 14.2204 2.18791 13.2986C2.14347 12.2989 2.13236 11.9991 2.13236 9.47041C2.13236 6.93806 2.14347 6.63817 2.18791 5.64226C2.22864 4.71669 2.38415 4.21689 2.51375 3.88368C2.68408 3.44311 2.89144 3.12472 3.22099 2.79521C3.55424 2.46201 3.86897 2.25839 4.30961 2.08808C4.64286 1.9585 5.14644 1.80301 6.06844 1.76228C7.06449 1.71785 7.36441 1.70675 9.89713 1.70675ZM9.89713 0C7.32368 0 7.00154 0.0111068 5.99068 0.0555341C4.98352 0.0999613 4.29109 0.262861 3.69124 0.496104C3.06547 0.740454 2.53597 1.06255 2.01017 1.59198C1.48067 2.1177 1.15853 2.64712 0.914143 3.26911C0.680867 3.87258 0.517944 4.5612 0.473511 5.56822C0.429077 6.58264 0.417969 6.90474 0.417969 9.47781C0.417969 12.0509 0.429077 12.373 0.473511 13.3837C0.517944 14.3907 0.680867 15.0831 0.914143 15.6828C1.15853 16.3085 1.48067 16.8379 2.01017 17.3637C2.53597 17.8894 3.06547 18.2152 3.68754 18.4558C4.29109 18.6891 4.97981 18.852 5.98697 18.8964C6.99784 18.9408 7.31998 18.9519 9.89342 18.9519C12.4669 18.9519 12.789 18.9408 13.7999 18.8964C14.807 18.852 15.4995 18.6891 16.0993 18.4558C16.7214 18.2152 17.2509 17.8894 17.7767 17.3637C18.3025 16.8379 18.6283 16.3085 18.869 15.6865C19.1023 15.0831 19.2652 14.3944 19.3096 13.3874C19.3541 12.3767 19.3652 12.0546 19.3652 9.48152C19.3652 6.90844 19.3541 6.58634 19.3096 5.57562C19.2652 4.5686 19.1023 3.87628 18.869 3.27651C18.6357 2.64712 18.3136 2.1177 17.7841 1.59198C17.2583 1.06625 16.7288 0.740454 16.1067 0.499807C15.5032 0.266564 14.8144 0.103664 13.8073 0.0592363C12.7927 0.0111068 12.4706 0 9.89713 0Z" fill="white"/>
<path id="Vector_2" d="M9.8975 4.60931C7.20927 4.60931 5.02832 6.78995 5.02832 9.4778C5.02832 12.1656 7.20927 14.3463 9.8975 14.3463C12.5857 14.3463 14.7667 12.1656 14.7667 9.4778C14.7667 6.78995 12.5857 4.60931 9.8975 4.60931ZM9.8975 12.6358C8.15348 12.6358 6.73901 11.2216 6.73901 9.4778C6.73901 7.73403 8.15348 6.31976 9.8975 6.31976C11.6415 6.31976 13.056 7.73403 13.056 9.4778C13.056 11.2216 11.6415 12.6358 9.8975 12.6358Z" fill="white"/>
<path id="Vector_3" d="M16.0958 4.41678C16.0958 5.04617 15.5848 5.55338 14.959 5.55338C14.3295 5.55338 13.8223 5.04246 13.8223 4.41678C13.8223 3.78739 14.3333 3.28018 14.959 3.28018C15.5848 3.28018 16.0958 3.7911 16.0958 4.41678Z" fill="white"/>
</g>
</g>
<defs>
<clipPath id="clip0_28_2128">
<rect width="18.9583" height="18.9556" fill="white" transform="translate(0.417969)"/>
</clipPath>
</defs>
</svg>
