<svg width="20" height="19" viewBox="0 0 20 19" fill="none" xmlns="http://www.w3.org/2000/svg">
<g id="Twitter" clip-path="url(#clip0_28_2133)">
<path id="Vector" d="M6.67112 17.1786C13.8234 17.1786 17.7366 11.2524 17.7366 6.11476C17.7366 5.94816 17.7329 5.77785 17.7254 5.61125C18.4867 5.06083 19.1436 4.37905 19.6653 3.59796C18.9564 3.91333 18.2037 4.1193 17.4329 4.20883C18.2445 3.72244 18.8521 2.95834 19.1432 2.05818C18.3798 2.51058 17.5448 2.82971 16.6742 3.00189C16.0876 2.37868 15.312 1.96605 14.4674 1.82778C13.6227 1.68951 12.756 1.83331 12.0012 2.23694C11.2465 2.64057 10.6458 3.28156 10.2919 4.0608C9.93807 4.84004 9.85081 5.71413 10.0436 6.54792C8.49771 6.47036 6.98534 6.06883 5.60458 5.36936C4.22382 4.66989 3.00548 3.6881 2.02856 2.48764C1.53203 3.34359 1.3801 4.35645 1.60363 5.32038C1.82716 6.28431 2.40938 7.12698 3.23197 7.67712C2.61442 7.65751 2.0104 7.49127 1.46981 7.19212V7.24025C1.46925 8.1385 1.77983 9.00922 2.34875 9.70441C2.91767 10.3996 3.70981 10.8763 4.59052 11.0536C4.01846 11.2101 3.41806 11.2329 2.83577 11.1202C3.08429 11.8927 3.56782 12.5684 4.21888 13.0529C4.86994 13.5374 5.65604 13.8066 6.46747 13.8229C5.0899 14.9048 3.38819 15.4917 1.63643 15.4889C1.32577 15.4884 1.01542 15.4694 0.707031 15.4319C2.48663 16.5734 4.55678 17.1797 6.67112 17.1786Z" fill="white"/>
</g>
<defs>
<clipPath id="clip0_28_2133">
<rect width="18.9583" height="18.9556" fill="white" transform="translate(0.707031)"/>
</clipPath>
</defs>
</svg>
