<?xml version="1.0" encoding="utf-8"?>
<!-- Generator: Adobe Illustrator 25.2.3, SVG Export Plug-In . SVG Version: 6.00 Build 0)  -->
<svg version="1.1" id="Layer_1" xmlns="http://www.w3.org/2000/svg" xmlns:xlink="http://www.w3.org/1999/xlink" x="0px" y="0px"
	 viewBox="0 0 576 432" style="enable-background:new 0 0 576 432;" xml:space="preserve">
<style type="text/css">
	.st0{fill:url(#SVGID_1_);}
	.st1{fill:url(#SVGID_2_);}
	.st2{fill:url(#SVGID_3_);}
	.st3{fill:url(#SVGID_4_);}
	.st4{fill:url(#SVGID_5_);}
	.st5{opacity:0.4;}
	.st6{fill:url(#SVGID_6_);}
	.st7{fill:#FFFFFF;}
	.st8{fill:#57B25C;}
	.st9{opacity:0.6;fill:url(#SVGID_7_);}
</style>
<g>
	<g>
		<g>
			<g>
				<linearGradient id="SVGID_1_" gradientUnits="userSpaceOnUse" x1="299.1976" y1="295.0317" x2="306.4415" y2="32.8026">
					<stop  offset="0" style="stop-color:#8D9195"/>
					<stop  offset="0.0231" style="stop-color:#909497"/>
					<stop  offset="0.2992" style="stop-color:#B2B3B6"/>
					<stop  offset="0.5614" style="stop-color:#CCCCCE"/>
					<stop  offset="0.8018" style="stop-color:#DBDBDD"/>
					<stop  offset="1" style="stop-color:#E1E1E2"/>
				</linearGradient>
				<polygon class="st0" points="334.87,291.54 243.3,132.94 268.5,118.39 360.07,276.99 				"/>
				<g>
					<linearGradient id="SVGID_2_" gradientUnits="userSpaceOnUse" x1="335.1897" y1="296.0259" x2="342.4336" y2="33.7969">
						<stop  offset="0" style="stop-color:#8D9195"/>
						<stop  offset="0.0231" style="stop-color:#909497"/>
						<stop  offset="0.2992" style="stop-color:#B2B3B6"/>
						<stop  offset="0.5614" style="stop-color:#CCCCCE"/>
						<stop  offset="0.8018" style="stop-color:#DBDBDD"/>
						<stop  offset="1" style="stop-color:#E1E1E2"/>
					</linearGradient>
					<polygon class="st1" points="255.9,154.77 287.52,99.99 317.54,151.99 277.6,221.18 357.73,221.59 378.86,258.19 
						378.87,258.19 402.32,298.82 435.91,298.82 374.58,192.59 327.84,192.34 351.14,151.99 287.52,41.8 239.1,125.67 					"/>
					<linearGradient id="SVGID_3_" gradientUnits="userSpaceOnUse" x1="336.4457" y1="296.0606" x2="343.6896" y2="33.8316">
						<stop  offset="0" style="stop-color:#8D9195"/>
						<stop  offset="0.0231" style="stop-color:#909497"/>
						<stop  offset="0.2992" style="stop-color:#B2B3B6"/>
						<stop  offset="0.5614" style="stop-color:#CCCCCE"/>
						<stop  offset="0.8018" style="stop-color:#DBDBDD"/>
						<stop  offset="1" style="stop-color:#E1E1E2"/>
					</linearGradient>
					<polygon class="st2" points="317.67,298.82 372.67,298.82 355.87,269.72 300.87,269.72 					"/>
					<linearGradient id="SVGID_4_" gradientUnits="userSpaceOnUse" x1="150.9594" y1="304.7324" x2="234.6264" y2="164.563">
						<stop  offset="0" style="stop-color:#3DB289"/>
						<stop  offset="0.0808" style="stop-color:#4BB37F"/>
						<stop  offset="0.3406" style="stop-color:#69B763"/>
						<stop  offset="0.5873" style="stop-color:#7ABA4C"/>
						<stop  offset="0.8135" style="stop-color:#83BC3D"/>
						<stop  offset="1" style="stop-color:#86BD38"/>
					</linearGradient>
					<polygon class="st3" points="224.27,151.35 139.14,298.82 172.73,298.82 241.07,180.45 					"/>
				</g>
			</g>
			<linearGradient id="SVGID_5_" gradientUnits="userSpaceOnUse" x1="212.1063" y1="341.231" x2="295.7733" y2="201.0616">
				<stop  offset="0" style="stop-color:#3DB289"/>
				<stop  offset="0.0808" style="stop-color:#4BB37F"/>
				<stop  offset="0.3406" style="stop-color:#69B763"/>
				<stop  offset="0.5873" style="stop-color:#7ABA4C"/>
				<stop  offset="0.8135" style="stop-color:#83BC3D"/>
				<stop  offset="1" style="stop-color:#86BD38"/>
			</linearGradient>
			<polygon class="st4" points="308.36,334.07 226.03,191.48 200.83,206.03 274.76,334.07 			"/>
			<g class="st5">
				<linearGradient id="SVGID_6_" gradientUnits="userSpaceOnUse" x1="213.5668" y1="237.1704" x2="213.5668" y2="295.9663">
					<stop  offset="0" style="stop-color:#FFFFFF"/>
					<stop  offset="1" style="stop-color:#FFFFFF;stop-opacity:0"/>
				</linearGradient>
				<polygon class="st6" points="177.53,298.82 249.61,298.82 213.57,236.39 				"/>
			</g>
		</g>
		<g>
			<path class="st7" d="M95.57,367.86h-7.81v21.62h-7.96v-21.62H72v-7.13h23.57V367.86z"/>
			<path class="st7" d="M107.03,378.35v-17.63h8.09v17.48c0,2.81,1.81,4.62,4.46,4.62c2.64,0,4.45-1.82,4.45-4.62v-17.48h8.09v17.63
				c0,7.07-5.22,11.85-12.55,11.85C112.25,390.2,107.03,385.43,107.03,378.35z"/>
			<path class="st7" d="M167.19,367.86h-7.81v21.62h-7.96v-21.62h-7.81v-7.13h23.57V367.86z"/>
			<path class="st7" d="M178.65,378.35v-17.63h8.09v17.48c0,2.81,1.81,4.62,4.46,4.62c2.64,0,4.45-1.82,4.45-4.62v-17.48h8.09v17.63
				c0,7.07-5.22,11.85-12.55,11.85C183.87,390.2,178.65,385.43,178.65,378.35z"/>
			<path class="st7" d="M242.89,360.72v28.75h-6.55l-11.42-15.6v15.6h-7.68v-28.75h6.93l11.04,15.08v-15.08H242.89z"/>
			<path class="st7" d="M254.56,379.62v-1.13h7.98v0.73c0,2.2,1.3,3.62,3.26,3.62c1.87,0,3.17-1.39,3.17-3.62v-18.49h7.98v18.89
				c0,6.23-4.49,10.59-11.15,10.59C259.18,390.2,254.56,385.87,254.56,379.62z"/>
			<path class="st7" d="M290.47,360.72h8.02v28.75h-8.02V360.72z"/>
			<path class="st8" d="M323.07,380.68h-2.87v8.8h-7.92v-28.75h12.46c6.2,0,10.69,4.16,10.69,10.17c0,3.53-1.72,6.42-4.56,8.12
				l5.71,10.46h-8.84L323.07,380.68z M320.2,374.01h3.62c2.21,0,3.49-1.33,3.49-3.13c0-1.8-1.27-3.11-3.49-3.11h-3.62V374.01z"/>
			<path class="st8" d="M367.02,382.61v6.87h-18.74v-28.75h18.4v6.85h-10.51v4.23h9.44v6.5h-9.44v4.31H367.02z"/>
			<path class="st8" d="M397.27,384.8h-10.19l-1.59,4.67H377l11.29-28.75h7.74l11.54,28.75h-8.72L397.27,384.8z M392.16,369.7
				l-3.15,8.91h6.33L392.16,369.7z"/>
			<path class="st8" d="M436.83,382.22v7.25h-18.26v-28.75h8.02v21.5H436.83z"/>
			<path class="st8" d="M466.6,367.86h-7.81v21.62h-7.96v-21.62h-7.81v-7.13h23.57V367.86z"/>
			<path class="st8" d="M493.96,378.23v11.25h-8.07v-11.26l-9.97-17.49h8.78l5.26,10.39l5.26-10.39H504L493.96,378.23z"/>
		</g>
	</g>
	<g>
		<path class="st7" d="M211.84,269.51L211.84,269.51v13.47h-13.37v-0.11C198.47,275.49,204.45,269.51,211.84,269.51z"/>
		<path class="st7" d="M214.2,269.51L214.2,269.51c7.38,0,13.37,5.98,13.37,13.37v0.11H214.2V269.51z"/>
		<rect x="198.47" y="285.34" class="st7" width="13.37" height="13.47"/>
		<rect x="214.2" y="285.34" class="st7" width="13.37" height="13.47"/>
	</g>
	<linearGradient id="SVGID_7_" gradientUnits="userSpaceOnUse" x1="274.119" y1="222.8949" x2="221.7077" y2="143.5698">
		<stop  offset="0" style="stop-color:#FFFFFF"/>
		<stop  offset="0.0174" style="stop-color:#F5F4F5"/>
		<stop  offset="0.1768" style="stop-color:#A09DA1"/>
		<stop  offset="0.3346" style="stop-color:#636166"/>
		<stop  offset="0.4869" style="stop-color:#3A393F"/>
		<stop  offset="0.6327" style="stop-color:#1F2025"/>
		<stop  offset="0.7702" style="stop-color:#0D0E12"/>
		<stop  offset="0.8962" style="stop-color:#030406"/>
		<stop  offset="1" style="stop-color:#020203"/>
	</linearGradient>
	<path class="st9" d="M287.52,50.37l-43.47,75.31l46.82,81.09l-4.72,8.19c23.73-17.98,43.4-41.02,57.42-67.52L287.52,50.37z
		 M302.72,186.24l-34.97-60.57l19.77-34.25l34.97,60.57L302.72,186.24z M236.12,180.45l-11.85-20.53l-55.56,96.25
		c8.45-0.24,16.78-0.93,24.94-2.16l19.92-34.49l14.99,25.96c6.59-2.23,13.02-4.79,19.28-7.66l-22.42-38.83L236.12,180.45z"/>
</g>
</svg>
