<?xml version="1.0" encoding="utf-8"?>
<!-- Generator: Adobe Illustrator 25.2.3, SVG Export Plug-In . SVG Version: 6.00 Build 0)  -->
<svg version="1.1" id="Layer_1" xmlns="http://www.w3.org/2000/svg" xmlns:xlink="http://www.w3.org/1999/xlink" x="0px" y="0px"
	 viewBox="0 0 576 432" style="enable-background:new 0 0 576 432;" xml:space="preserve">
<style type="text/css">
	.st0{fill:#9FA1A1;}
	.st1{fill:#FBC010;}
	.st2{fill:#BBB230;}
	.st3{fill:#D8DC49;}
	.st4{fill:#EC692E;}
	.st5{fill:#1D1D1B;}
	.st6{fill:#FFFFFF;}
</style>
<g>
	<g>
		<polygon class="st0" points="112.8,177.5 134.6,197.9 134.6,259.7 86.4,259.7 87.7,201 		"/>
	</g>
	<g>
		<rect x="156.9" y="149.9" class="st1" width="55.6" height="90.4"/>
	</g>
	<g>
		<rect x="232.3" y="90.2" class="st2" width="40.6" height="160.4"/>
	</g>
	<g>
		<polygon class="st0" points="282.8,157.9 282.8,223.2 338,223.2 338,112.2 310.4,112.2 310.4,128.8 307.9,128.8 307.9,157.5 		"/>
	</g>
	<g>
		<polygon class="st3" points="375.3,164.6 392.6,180 392.6,229.3 361.9,229.3 361.9,176.7 		"/>
	</g>
	<g>
		<polygon class="st4" points="462.9,209.9 499.2,226.8 499.2,260.9 423,260.9 423,228.3 		"/>
	</g>
	<g>
		<g>
			<g>
				<path class="st5" d="M96.2,337.8c-4.6,1.7-9.4,2.6-14.3,2.6c-18.2,0-28.2-13-28.2-27.4c0-10.8,4.8-19.7,12.7-24.5
					c5-3.1,9.7-3.6,15.1-3.6c5.2,0,10.2,2,12.6,2c0.8,0,1.3-0.3,1.7-0.6h1.1v11.5h-1c-3.7-3.3-8.1-4.8-14-4.8
					c-10.3,0-17.8,8-17.8,19.8c0,10.9,6.8,19.6,18.2,19.6c5,0,10.3-1.7,14-5.4l1,0.2L96.2,337.8z"/>
			</g>
			<g>
				<path class="st5" d="M122,338.9c-3.3,0-6.3,0.1-9.2,0.2v-1c3.6-0.8,4-4.4,4-11.5v-28c0-6.9-0.3-10.8-4-11.4v-1
					c3.1,0.1,6.3,0.2,9.2,0.2c2.8,0,5.9-0.1,9-0.2v1c-3.5,0.6-4,4.3-4,11.4v28c0,7.4,0.6,10.7,4,11.5v1
					C128.1,339,125,338.9,122,338.9z"/>
			</g>
			<g>
				<path class="st5" d="M182.8,297.7c-1.3-2.9-3.8-3.6-9-3.6h-4.3v32.6c0,7.5,0.6,10.7,4.3,11.5v1c-2.9-0.1-6.1-0.2-9.4-0.2
					c-3.1,0-6.2,0.1-9,0.2v-1c3.6-0.8,4-4.3,4-11.5V294h-4c-5.2,0-7.7,0.9-9,3.6h-1l1-11.5h36.3l1,11.5H182.8z"/>
			</g>
			<g>
				<path class="st5" d="M240,293.1l-13.2,22.7v10.9c0,7.3,0.4,10.7,3.9,11.5v1c-2.9-0.1-5.9-0.2-9-0.2s-6.2,0.1-9,0.2v-1
					c3.6-0.8,4-4.3,4-11.5v-10.9l-12.7-22c-2.2-3.8-4-5.7-6.2-6.5v-1c2.3,0.1,4.9,0.2,7.3,0.2c3.1,0,6.3-0.1,9.5-0.2v1
					c-1.1,0.1-1.7,0.7-1.7,1.4c0,0.9,0.3,1.5,0.6,1.9l8.6,16l8.6-15.9c0.2-0.5,0.7-1.4,0.7-2.1c0-1-1-1.2-1.7-1.3v-1
					c2.9,0.1,5.9,0.2,8.8,0.2c2.3,0,4.8-0.1,7.1-0.2v1C243.4,288,242.1,289.4,240,293.1z"/>
			</g>
			<g>
				<path class="st5" d="M271.9,340.3c-4.2,0-8.5-0.9-12.8-2.5l-1-10.8l1-0.1c2.9,3.8,7.5,5.6,12.5,5.6c5.1,0,9.6-2.9,9.6-8.1
					c0-4.4-2.9-6.3-16-13.3c-3.3-1.8-6.3-6.7-6.3-11.4c0-8.9,6.8-15,16-15c5.7,0,9.4,1.8,11,1.8c0.7,0,1.3-0.2,1.7-0.5h1.1v11.5
					h-1.1c-2.6-3.5-6.7-5.2-11.1-5.2c-4.8,0-7.9,2.9-7.9,6.3c0,9.1,22.3,7.8,22.3,25.1C291,334.2,283.4,340.3,271.9,340.3z"/>
			</g>
			<g>
				<path class="st5" d="M350.1,337.8c-4.6,1.7-9.4,2.6-14.3,2.6c-18.2,0-28.1-13-28.1-27.4c0-10.8,4.8-19.7,12.7-24.5
					c5-3.1,9.7-3.6,15.1-3.6c5.2,0,10.2,2,12.6,2c0.8,0,1.3-0.3,1.7-0.6h1.1v11.5h-1c-3.7-3.3-8.1-4.8-14-4.8
					c-10.3,0-17.8,8-17.8,19.8c0,10.9,6.8,19.6,18.2,19.6c5,0,10.3-1.7,14-5.4l1,0.2L350.1,337.8z"/>
			</g>
			<g>
				<path class="st5" d="M411.1,338.9c-3.1,0-6.4,0.1-9.6,0.2v-1c1.4-0.3,2.1-1,2.1-2.6c0-0.6-0.4-1.9-0.7-2.7l-2.5-6h-19.9
					l-2.8,6.4c-0.3,0.7-0.8,1.9-0.8,2.7c0,1.3,0.7,1.9,2,2.2v1c-2.9-0.1-6-0.2-9-0.2c-2,0-4.3,0.1-6.5,0.2v-1c2.2-1,3-2.8,4.5-6
					l22.2-48.5h1.3l22.3,49.2c1.2,2.6,2.5,4.4,4.3,5.4v1C415.9,339,413.4,338.9,411.1,338.9z M390.6,302.2l-7,16.7h13.9L390.6,302.2
					z"/>
			</g>
			<g>
				<path class="st5" d="M453.6,318.4c-1.4,0-2.8-0.2-3.6-0.4l-2.3-7.8l1-0.2c0.9,0.2,1.9,0.3,2.9,0.3c4.8,0,9.3-2.7,9.3-8.6
					c0-4.7-3.6-8.2-10.7-8.2c-2.2,0-3.9,0.4-5,0.6v32.5c0,7.5,0.6,10.9,4,11.5v1c-3.1-0.1-6.3-0.2-9.3-0.2c-2.9,0-6,0.1-8.9,0.2v-1
					c3.6-0.8,4-4.5,4-11.5v-28c0-6.7-0.3-10.8-4-11.4v-1h17.9c5.2,0,9.4,0.2,12.2,1.2c6.4,2.1,10.1,7.3,10.1,14.4
					C471.2,311.9,463.8,318.4,453.6,318.4z"/>
			</g>
			<g>
				<path class="st5" d="M520.9,339.1h-34.3v-1c3.6-0.8,4-4.6,4-11.5v-27.9c0-6.9-0.2-10.8-4-11.5v-1h34.5v11.6h-1
					c-1.3-3.2-3.8-3.7-9-3.7h-10.4v13.2h8.7c5.2,0,7.5-1,8.6-3.9h1c-0.1,2.5-0.2,5.2-0.2,7.8c0,2.5,0.1,5.2,0.2,7.7h-1
					c-0.9-2.9-3.5-3.7-8.5-3.7h-8.9v11.9c0,4.2,1.5,4.3,5.6,4.3h5.3c5.9,0,8.5-1.3,9.5-4.3l1,0.2L520.9,339.1z"/>
			</g>
		</g>
		<g>
			<g>
				<path class="st5" d="M63.9,358.7c3.6,0,5.1,1.5,5.1,4.3v1.5c0,2.1-0.9,3.4-2.9,3.9c2.1,0.5,2.9,1.9,2.9,4v3c0,0.8,0,1.6,0.5,2.3
					h-2.6c-0.3-0.5-0.4-1-0.4-2.3v-3c0-2.1-1.2-2.8-3.4-2.8h-1.8v8.1h-2.6v-19H63.9z M63.3,367.7c2,0,3.3-0.5,3.3-2.6v-1.8
					c0-1.7-0.8-2.6-2.7-2.6h-2.5v7H63.3z"/>
			</g>
			<g>
				<path class="st5" d="M86.2,367.2v1.9h-5.6v6.8h6.9v1.9H78v-19h9.5v1.9h-6.9v6.5H86.2z"/>
			</g>
			<g>
				<path class="st5" d="M98.8,373.9l-0.9,3.8h-2.4l4.4-19h3.7l4.4,19h-2.6l-0.9-3.8H98.8z M99.1,372.1h5.1l-2.6-11L99.1,372.1z"/>
			</g>
			<g>
				<path class="st5" d="M116.4,377.8v-19h2.6v17.1h6.6v1.9H116.4z"/>
			</g>
			<g>
				<path class="st5" d="M153.3,367.2v1.9h-5.6v6.8h6.9v1.9h-9.5v-19h9.5v1.9h-6.9v6.5H153.3z"/>
			</g>
			<g>
				<path class="st5" d="M173.2,363.3v0.5h-2.4v-0.6c0-1.7-0.8-2.7-2.6-2.7c-1.8,0-2.6,1-2.6,2.7c0,4.3,7.7,4.7,7.7,10
					c0,2.9-1.7,4.8-5.2,4.8s-5.2-1.9-5.2-4.8v-1.1h2.4v1.2c0,1.7,0.9,2.7,2.7,2.7c1.8,0,2.7-1,2.7-2.7c0-4.2-7.7-4.6-7.7-10
					c0-2.9,1.6-4.8,5.1-4.8C171.6,358.6,173.2,360.4,173.2,363.3z"/>
			</g>
			<g>
				<path class="st5" d="M185.1,377.8v-17.1h-4.2v-1.9H192v1.9h-4.2v17.1H185.1z"/>
			</g>
			<g>
				<path class="st5" d="M201.4,373.9l-0.9,3.8h-2.4l4.4-19h3.7l4.4,19h-2.6l-0.9-3.8H201.4z M201.7,372.1h5.1l-2.6-11L201.7,372.1z
					"/>
			</g>
			<g>
				<path class="st5" d="M222.3,377.8v-17.1h-4.2v-1.9h11.1v1.9h-4.2v17.1H222.3z"/>
			</g>
			<g>
				<path class="st5" d="M245.4,367.2v1.9h-5.6v6.8h6.9v1.9h-9.5v-19h9.5v1.9h-6.9v6.5H245.4z"/>
			</g>
			<g>
				<path class="st5" d="M266.7,377.8v-19h2.6v17.1h6.6v1.9H266.7z"/>
			</g>
			<g>
				<path class="st5" d="M285.8,377.8v-17.1h-4.2v-1.9h11.1v1.9h-4.2v17.1H285.8z"/>
			</g>
			<g>
				<path class="st5" d="M306.1,358.7c3.6,0,5.2,1.8,5.2,4.7v9.6c0,2.9-1.6,4.7-5.2,4.7h-5.4v-19H306.1z M306,375.8
					c1.8,0,2.7-1,2.7-2.7v-9.8c0-1.7-0.9-2.7-2.8-2.7h-2.8v15.2H306z"/>
			</g>
			<g>
				<path class="st5" d="M324.1,377.8h-1v-2.6h2.5v2.4l-1.3,2.6h-1.1L324.1,377.8z"/>
			</g>
			<g>
				<path class="st5" d="M359.2,358.7c3.6,0,5,1.4,5,4.2v0.9c0,2-0.7,3.3-2.7,3.8c2.2,0.5,3.1,2,3.1,4.1v1.6c0,2.9-1.7,4.5-5.3,4.5
					H354v-19H359.2z M358.5,366.8c2,0,3.1-0.5,3.1-2.5v-1.1c0-1.7-0.7-2.5-2.5-2.5h-2.5v6.1H358.5z M359.3,375.8
					c1.9,0,2.7-0.8,2.7-2.6v-1.7c0-2.1-1-2.8-3.2-2.8h-2.2v7.1H359.3z"/>
			</g>
			<g>
				<path class="st5" d="M378.3,358.7c3.6,0,5.1,1.5,5.1,4.3v1.5c0,2.1-0.9,3.4-2.9,3.9c2.1,0.5,2.9,1.9,2.9,4v3
					c0,0.8,0,1.6,0.5,2.3h-2.6c-0.3-0.5-0.4-1-0.4-2.3v-3c0-2.1-1.2-2.8-3.4-2.8h-1.8v8.1h-2.6v-19H378.3z M377.7,367.7
					c2,0,3.3-0.5,3.3-2.6v-1.8c0-1.7-0.8-2.6-2.7-2.6h-2.5v7H377.7z"/>
			</g>
			<g>
				<path class="st5" d="M392.2,363.3c0-2.9,1.7-4.8,5.3-4.8c3.6,0,5.3,1.9,5.3,4.8v9.8c0,2.9-1.7,4.8-5.3,4.8
					c-3.5,0-5.3-1.9-5.3-4.8V363.3z M394.8,373.3c0,1.7,0.9,2.7,2.7,2.7c1.9,0,2.7-1,2.7-2.7v-10.1c0-1.7-0.9-2.7-2.7-2.7
					c-1.8,0-2.7,1-2.7,2.7V373.3z"/>
			</g>
			<g>
				<path class="st5" d="M415.4,369.5l-1.3,1.9v6.4h-2.6v-19h2.6v9.2l6.1-9.2h2.6l-5.8,8.7l6,10.3h-2.6L415.4,369.5z"/>
			</g>
			<g>
				<path class="st5" d="M439.5,367.2v1.9h-5.6v6.8h6.9v1.9h-9.5v-19h9.5v1.9h-6.9v6.5H439.5z"/>
			</g>
			<g>
				<path class="st5" d="M454.5,358.7c3.6,0,5.1,1.5,5.1,4.3v1.5c0,2.1-0.9,3.4-2.9,3.9c2.1,0.5,2.9,1.9,2.9,4v3
					c0,0.8,0,1.6,0.5,2.3h-2.6c-0.3-0.5-0.4-1-0.4-2.3v-3c0-2.1-1.2-2.8-3.4-2.8H452v8.1h-2.6v-19H454.5z M453.9,367.7
					c2,0,3.3-0.5,3.3-2.6v-1.8c0-1.7-0.8-2.6-2.7-2.6H452v7H453.9z"/>
			</g>
			<g>
				<path class="st5" d="M471.3,373.9l-0.9,3.8H468l4.4-19h3.7l4.4,19H478l-0.9-3.8H471.3z M471.6,372.1h5.1l-2.6-11L471.6,372.1z"
					/>
			</g>
			<g>
				<path class="st5" d="M499,363.3v1.6h-2.4v-1.7c0-1.7-0.8-2.7-2.7-2.7c-1.8,0-2.7,1-2.7,2.7v10.1c0,1.7,0.9,2.7,2.7,2.7
					c1.9,0,2.7-1,2.7-2.7v-3.8h-2.4v-1.9h4.8v5.6c0,2.9-1.6,4.8-5.2,4.8c-3.5,0-5.2-1.9-5.2-4.8v-9.8c0-2.9,1.6-4.8,5.2-4.8
					C497.4,358.6,499,360.5,499,363.3z"/>
			</g>
			<g>
				<path class="st5" d="M515.9,367.2v1.9h-5.6v6.8h6.9v1.9h-9.5v-19h9.5v1.9h-6.9v6.5H515.9z"/>
			</g>
			<g>
				<circle class="st5" cx="319.7" cy="376.5" r="1.2"/>
			</g>
		</g>
	</g>
	<g>
		<g>
			<rect x="53.7" y="257.6" class="st5" width="468.5" height="6.5"/>
		</g>
		<g>
			<path class="st5" d="M245.6,262.3h-85.3v-80.1h39.3v26.5h18.5v-44.4h-19.5v-24.8h-14.7v-19.9h-21.1v19.9h-14.9v98.3h-24.6v-34.1
				l-16.9-15.4L88.9,204v56.9h-6.5v-59.7l23.9-21.8l23.4,21.3v30.4h11.5v-98.3h14.9V113h34.2v19.9h14.7v24.8h19.5v57.5h-31.5v-26.5
				h-26.2v67.1h72.2V74.6h46.2v77.3h19.3v-26.3h17.9v-22H353v98.6h9.9v-24.3l20.1-18.7l20.5,18.2v24.8h17.9v21.4l32.7-14.6
				l38.8,17.9v33.8h-6.5v-29.6L454,216l-39.1,17.5v-24.9h-11.4v32.6H273.3v-39.2h73.1v-92H329v22h-17.9v26.3h-32.3V81.1h-33.2V262.3
				z M279.8,234.7h117.1v-26.1h-27.6v19.7h-22.9v-19.7h-66.6V234.7z M353,221.8h9.9v-13.2H353V221.8z M369.3,202.1h27.6v-21.9
				L383,168l-13.7,12.7V202.1z"/>
		</g>
		<g>
			<rect x="475.1" y="208.4" class="st5" width="6.5" height="16.7"/>
		</g>
		<g>
			<rect x="259" y="51.9" class="st5" width="6.5" height="25"/>
		</g>
		<g>
			<rect x="87.7" y="182.3" class="st5" width="6.5" height="15.6"/>
		</g>
	</g>
	<g>
		<rect x="94.4" y="205.4" class="st6" width="11.9" height="11.9"/>
	</g>
	<g>
		<rect x="177.7" y="215.5" class="st6" width="11.9" height="11.9"/>
	</g>
	<g>
		<rect x="163" y="159.9" class="st6" width="11.9" height="11.9"/>
	</g>
	<g>
		<rect x="250.7" y="223.2" class="st6" width="11.9" height="11.9"/>
	</g>
	<g>
		<rect x="250.7" y="203.5" class="st6" width="11.9" height="11.9"/>
	</g>
	<g>
		<rect x="250.7" y="183.8" class="st6" width="11.9" height="11.9"/>
	</g>
	<g>
		<rect x="250.7" y="164.1" class="st6" width="11.9" height="11.9"/>
	</g>
	<g>
		<rect x="291.8" y="178.8" class="st6" width="11.9" height="11.9"/>
	</g>
	<g>
		<rect x="314" y="159.7" class="st6" width="11.9" height="11.9"/>
	</g>
	<g>
		<rect x="372.4" y="181.7" class="st6" width="11.9" height="11.9"/>
	</g>
	<g>
		<rect x="439.2" y="233.3" class="st6" width="11.9" height="11.9"/>
	</g>
	<g>
		<rect x="460.3" y="233.3" class="st6" width="11.9" height="11.9"/>
	</g>
	<g>
		<rect x="250.7" y="144.4" class="st6" width="11.9" height="11.9"/>
	</g>
	<g>
		<rect x="250.7" y="124.7" class="st6" width="11.9" height="11.9"/>
	</g>
	<g>
		<rect x="250.7" y="105.1" class="st6" width="11.9" height="11.9"/>
	</g>
	<g>
		<rect x="94.4" y="232.5" class="st6" width="11.9" height="11.9"/>
	</g>
</g>
</svg>
