<?xml version="1.0" encoding="UTF-8"?>
<!DOCTYPE svg PUBLIC "-//W3C//DTD SVG 1.1//EN" "http://www.w3.org/Graphics/SVG/1.1/DTD/svg11.dtd">
<svg xmlns="http://www.w3.org/2000/svg" version="1.1" width="3889px" height="2917px" style="shape-rendering:geometricPrecision; text-rendering:geometricPrecision; image-rendering:optimizeQuality; fill-rule:evenodd; clip-rule:evenodd" xmlns:xlink="http://www.w3.org/1999/xlink">
<g><path style="opacity:0.969" fill="#252221" d="M 164.5,1605.5 C 236.404,1510.72 308.57,1416.06 381,1321.5C 467.307,1215.51 556.973,1112.17 650,1011.5C 716.823,940.665 787.323,874.165 861.5,812C 881.576,798.868 899.743,801.035 916,818.5C 924.752,831.818 926.752,846.151 922,861.5C 918.049,874.406 912.715,886.739 906,898.5C 777.675,1118.49 648.342,1337.83 518,1556.5C 517.333,1557.17 517.333,1557.83 518,1558.5C 647.14,1408.35 778.14,1259.68 911,1112.5C 1016.91,995.911 1125.75,881.744 1237.5,770C 1266.9,741.266 1296.9,713.266 1327.5,686C 1348.06,668.045 1371.4,654.712 1397.5,646C 1438.83,636.008 1458.33,652.174 1456,694.5C 1448.1,736.635 1434.77,776.968 1416,815.5C 1397.61,853.293 1377.94,890.293 1357,926.5C 1305.09,1014 1252.42,1101 1199,1187.5C 978.583,1541.35 755.916,1893.69 531,2244.5C 525.22,2253.28 519.054,2261.78 512.5,2270C 505.304,2273.71 498.471,2273.21 492,2268.5C 488.483,2261.66 488.816,2255 493,2248.5C 544.499,2169.51 595.499,2090.17 646,2010.5C 823.585,1729.67 999.918,1448.01 1175,1165.5C 1227.03,1082.8 1276.03,998.13 1322,911.5C 1350.4,857.367 1376.07,802.034 1399,745.5C 1407.15,725.242 1411.98,704.242 1413.5,682.5C 1393.6,688.118 1375.26,696.952 1358.5,709C 1300.19,752.958 1244.52,800.291 1191.5,851C 1116.07,923.757 1044.23,999.59 976,1078.5C 800.456,1285.35 629.456,1495.69 463,1709.5C 446.281,1731.22 429.948,1753.22 414,1775.5C 408.323,1782.52 401.489,1788.02 393.5,1792C 376.572,1794.76 367.572,1787.43 366.5,1770C 367.631,1758.23 371.464,1747.4 378,1737.5C 466.252,1590.67 554.252,1443.67 642,1296.5C 696.437,1205.31 749.104,1112.97 800,1019.5C 824.305,972.226 846.972,924.226 868,875.5C 869.803,870.59 871.303,865.59 872.5,860.5C 872.308,858.143 871.142,856.476 869,855.5C 862.34,858.167 856.173,861.667 850.5,866C 819.551,888.322 789.885,912.322 761.5,938C 699.5,996.329 640.667,1057.5 585,1121.5C 515.144,1206.68 446.81,1293.02 380,1380.5C 288.405,1500.43 198.738,1621.76 111,1744.5C 100.273,1760.23 89.9393,1776.23 80,1792.5C 71.5335,1803.66 60.7002,1807.16 47.5,1803C 41.7134,1797.36 39.5467,1790.53 41,1782.5C 42.9537,1769.97 47.2871,1758.31 54,1747.5C 196.148,1493.86 339.815,1241.19 485,989.5C 491.926,979.239 500.76,971.073 511.5,965C 517.345,962.752 523.012,963.085 528.5,966C 529.167,967 529.833,968 530.5,969C 417.285,1166.61 303.451,1363.77 189,1560.5C 180.576,1575.41 172.409,1590.41 164.5,1605.5 Z M 164.5,1605.5 C 164.573,1607.03 163.906,1608.03 162.5,1608.5C 162.427,1606.97 163.094,1605.97 164.5,1605.5 Z"/></g>
<g><path style="opacity:0.963" fill="#252221" d="M 2800.5,746.5 C 3068.88,743.828 3336.55,756.328 3603.5,784C 3671.86,791.147 3739.86,800.814 3807.5,813C 3820.82,815.159 3833.48,819.159 3845.5,825C 3848.17,828 3848.17,831 3845.5,834C 3834.77,839.577 3823.44,843.577 3811.5,846C 3781.41,852.896 3751.07,854.562 3720.5,851C 3710.97,848.237 3701.64,844.904 3692.5,841C 3658.93,833.061 3624.93,827.727 3590.5,825C 3234.98,787.005 2878.65,776.338 2521.5,793C 2406.26,798.567 2291.59,809.901 2177.5,827C 2089.4,839.952 2003.07,860.285 1918.5,888C 1863.71,905.892 1813.38,931.892 1767.5,966C 1741.97,986.244 1723.14,1011.41 1711,1041.5C 1701.35,1065.13 1702.68,1088.13 1715,1110.5C 1720.84,1120.18 1727.17,1129.51 1734,1138.5C 1750.13,1156.97 1767.3,1174.47 1785.5,1191C 1826.88,1225.85 1869.88,1258.52 1914.5,1289C 2024.27,1360.11 2131.27,1435.11 2235.5,1514C 2278.59,1547.42 2318.26,1584.75 2354.5,1626C 2358.88,1630.05 2363.55,1633.71 2368.5,1637C 2376.65,1642.08 2384.31,1641.41 2391.5,1635C 2399.73,1627.68 2406.89,1619.51 2413,1610.5C 2479.91,1512.34 2546.58,1414.01 2613,1315.5C 2670.52,1228.49 2724.52,1139.16 2775,1047.5C 2792.09,1014.65 2808.09,981.32 2823,947.5C 2829.2,932.91 2834.2,917.91 2838,902.5C 2841.75,879.509 2845.42,856.509 2849,833.5C 2851.62,821.986 2855.62,810.986 2861,800.5C 2865.37,792.14 2871.37,790.473 2879,795.5C 2883.55,804.042 2885.72,813.208 2885.5,823C 2884.88,835.681 2883.05,848.181 2880,860.5C 2860.97,925.258 2836.64,987.924 2807,1048.5C 2761.98,1139.58 2712.64,1227.91 2659,1313.5C 2635.06,1351.77 2610.73,1389.77 2586,1427.5C 2532.67,1506.83 2479.33,1586.17 2426,1665.5C 2420.64,1675.38 2417.14,1685.88 2415.5,1697C 2417.16,1706.8 2418.49,1716.63 2419.5,1726.5C 2614.07,1717.93 2808.74,1714.43 3003.5,1716C 3079.88,1716.81 3156.21,1718.81 3232.5,1722C 3267.67,1684.17 3304.17,1647.67 3342,1612.5C 3355.49,1586.2 3367.82,1559.53 3379,1532.5C 3350.43,1549.36 3319.93,1561.53 3287.5,1569C 3267.23,1573.05 3258.06,1564.88 3260,1544.5C 3261.41,1537.45 3262.91,1530.45 3264.5,1523.5C 3257.35,1524.57 3250.68,1527.07 3244.5,1531C 3223.67,1544.92 3202.67,1558.58 3181.5,1572C 3166.45,1575.72 3159.95,1569.89 3162,1554.5C 3164.18,1548.28 3166.51,1542.28 3169,1536.5C 3149.51,1548.99 3128.35,1557.16 3105.5,1561C 3097.83,1561.67 3090.17,1561.67 3082.5,1561C 3067.6,1558.78 3061.1,1550.28 3063,1535.5C 3042.53,1554.82 3018.37,1566.82 2990.5,1571.5C 2982.98,1571.58 2975.98,1569.75 2969.5,1566C 2962.92,1559.85 2960.26,1552.35 2961.5,1543.5C 2941.11,1558.03 2919.44,1570.53 2896.5,1581C 2883.62,1586.59 2870.28,1588.26 2856.5,1586C 2838.16,1580.01 2828.16,1567.35 2826.5,1548C 2827.34,1540.1 2828.17,1532.27 2829,1524.5C 2804.26,1542.78 2776.76,1554.95 2746.5,1561C 2738.83,1561.67 2731.17,1561.67 2723.5,1561C 2708.63,1558.81 2702.13,1550.31 2704,1535.5C 2683.53,1554.82 2659.37,1566.82 2631.5,1571.5C 2606.75,1570.93 2598.25,1558.93 2606,1535.5C 2611.73,1522.53 2619.56,1511.03 2629.5,1501C 2635.46,1497.92 2640.96,1498.75 2646,1503.5C 2647.03,1508.28 2646.03,1512.61 2643,1516.5C 2636.94,1519.56 2632.61,1524.22 2630,1530.5C 2627.91,1534.45 2626.41,1538.62 2625.5,1543C 2626.53,1548.53 2629.87,1551.36 2635.5,1551.5C 2646.21,1550.09 2656.21,1546.59 2665.5,1541C 2680.88,1530.97 2695.55,1519.97 2709.5,1508C 2718.82,1501 2725.16,1503 2728.5,1514C 2727.66,1519.19 2725.82,1524.02 2723,1528.5C 2721.35,1533.94 2722.85,1538.1 2727.5,1541C 2737.86,1542.89 2748.19,1542.56 2758.5,1540C 2777.1,1535.36 2794.76,1528.36 2811.5,1519C 2818.67,1514.58 2826,1510.41 2833.5,1506.5C 2843.52,1482.34 2855.86,1459.51 2870.5,1438C 2854.13,1438.93 2837.79,1440.6 2821.5,1443C 2812.85,1444 2804.18,1444.33 2795.5,1444C 2790.3,1442.3 2787.96,1438.64 2788.5,1433C 2788.54,1431.03 2789.04,1429.2 2790,1427.5C 2806.54,1414.65 2825.04,1405.65 2845.5,1400.5C 2852.04,1402.03 2854.21,1406.03 2852,1412.5C 2851.22,1414.29 2850.05,1415.79 2848.5,1417C 2845.17,1418.67 2841.83,1420.33 2838.5,1422C 2854.15,1420.29 2869.82,1418.29 2885.5,1416C 2910.07,1379.09 2936.57,1343.59 2965,1309.5C 2976.6,1296.9 2989.1,1285.4 3002.5,1275C 3013.47,1266.67 3025.81,1262.67 3039.5,1263C 3047.58,1266.09 3052.42,1271.92 3054,1280.5C 3055.4,1289.59 3054.07,1298.26 3050,1306.5C 3030.22,1345.27 3005.39,1380.44 2975.5,1412C 2987.26,1412.71 2998.93,1414.04 3010.5,1416C 3013,1417.17 3014.83,1419 3016,1421.5C 3018.02,1430.15 3014.85,1435.98 3006.5,1439C 3001.03,1441.29 2995.36,1441.95 2989.5,1441C 2982.08,1433.44 2973.08,1430.77 2962.5,1433C 2958.81,1433 2955.47,1434 2952.5,1436C 2921.13,1465.49 2888.47,1493.33 2854.5,1519.5C 2847.76,1532.64 2847.92,1545.64 2855,1558.5C 2859.04,1563.68 2864.38,1566.02 2871,1565.5C 2881.99,1564.46 2892.49,1561.63 2902.5,1557C 2917.32,1549.76 2931.65,1541.76 2945.5,1533C 2961.72,1521.73 2977.72,1510.23 2993.5,1498.5C 3004.97,1499.11 3008.14,1504.44 3003,1514.5C 2993.32,1521.83 2987.16,1531.5 2984.5,1543.5C 2985.75,1548.75 2989.08,1551.41 2994.5,1551.5C 3005.21,1550.09 3015.21,1546.59 3024.5,1541C 3039.88,1530.97 3054.55,1519.97 3068.5,1508C 3077.78,1500.98 3084.12,1502.98 3087.5,1514C 3086.63,1519.23 3084.8,1524.06 3082,1528.5C 3079.83,1534.94 3081.83,1539.27 3088,1541.5C 3106.13,1542.95 3123.63,1540.12 3140.5,1533C 3160.05,1524.89 3178.71,1515.23 3196.5,1504C 3204.57,1503.07 3207.73,1506.57 3206,1514.5C 3201.16,1522.19 3195.82,1529.52 3190,1536.5C 3188.7,1538.94 3187.53,1541.44 3186.5,1544C 3187.1,1545.3 3188.1,1546.13 3189.5,1546.5C 3209.7,1533.8 3230.03,1521.3 3250.5,1509C 3258.33,1504.78 3266.66,1502.28 3275.5,1501.5C 3280.82,1500.74 3284.65,1502.74 3287,1507.5C 3287.6,1512.88 3287.26,1518.21 3286,1523.5C 3283.75,1530.91 3281.92,1538.41 3280.5,1546C 3280.41,1550.08 3282.41,1551.91 3286.5,1551.5C 3292.6,1550.87 3298.6,1549.7 3304.5,1548C 3334.65,1538.26 3363.32,1525.26 3390.5,1509C 3393.12,1504.45 3396.45,1500.45 3400.5,1497C 3416.77,1496.67 3420.93,1503.84 3413,1518.5C 3410.52,1521.07 3407.85,1523.4 3405,1525.5C 3395.45,1543.91 3386.62,1562.25 3378.5,1580.5C 3414.99,1555.42 3452.32,1531.59 3490.5,1509C 3494.96,1504.05 3499.62,1499.39 3504.5,1495C 3511.95,1489.24 3519.95,1488.24 3528.5,1492C 3532.26,1495.74 3533.43,1500.24 3532,1505.5C 3530.4,1508.22 3528.24,1510.39 3525.5,1512C 3517.74,1516.1 3510.24,1520.6 3503,1525.5C 3499.56,1532.26 3498.56,1539.26 3500,1546.5C 3501.54,1548.38 3503.38,1549.88 3505.5,1551C 3523.15,1551.87 3540.15,1548.87 3556.5,1542C 3582.59,1532.64 3607.59,1520.97 3631.5,1507C 3636.02,1505.51 3638.35,1507.18 3638.5,1512C 3637.84,1514.46 3637.34,1516.96 3637,1519.5C 3630.96,1525.44 3624.12,1530.27 3616.5,1534C 3589.54,1549.48 3560.87,1560.48 3530.5,1567C 3519.91,1569.07 3509.25,1569.74 3498.5,1569C 3488.44,1566.61 3481.94,1560.44 3479,1550.5C 3478.67,1545.17 3478.33,1539.83 3478,1534.5C 3436.3,1562.19 3396.3,1592.19 3358,1624.5C 3340.44,1658.54 3322.27,1692.21 3303.5,1725.5C 3375.33,1730.83 3446.99,1738 3518.5,1747C 3542.96,1750.24 3567.29,1754.24 3591.5,1759C 3607.55,1761.85 3622.89,1766.85 3637.5,1774C 3645.48,1780.38 3645.48,1786.71 3637.5,1793C 3634.17,1794.67 3630.83,1796.33 3627.5,1798C 3590.26,1808.45 3552.43,1815.95 3514,1820.5C 3509.83,1819.79 3505.66,1819.12 3501.5,1818.5C 3501.03,1813.46 3503.36,1810.63 3508.5,1810C 3528.88,1807.06 3549.22,1803.72 3569.5,1800C 3581.68,1797.29 3593.68,1793.96 3605.5,1790C 3608.91,1788.55 3612.08,1786.71 3615,1784.5C 3615.45,1782.41 3614.61,1780.91 3612.5,1780C 3602.3,1776.53 3591.97,1773.53 3581.5,1771C 3486.89,1753.74 3391.55,1743.07 3295.5,1739C 3265.83,1790.53 3232.33,1839.36 3195,1885.5C 3184.44,1896.73 3173.27,1907.23 3161.5,1917C 3152.11,1924.02 3141.61,1928.52 3130,1930.5C 3119,1930.85 3112,1925.85 3109,1915.5C 3108.24,1909.11 3108.58,1902.78 3110,1896.5C 3115.98,1876.55 3124.64,1857.88 3136,1840.5C 3160.92,1802.87 3189.09,1767.7 3220.5,1735C 3021.51,1728.07 2822.51,1727.73 2623.5,1734C 2556.15,1736.12 2488.82,1738.62 2421.5,1741.5C 2430.02,1789.64 2424.19,1835.97 2404,1880.5C 2368.33,1954.17 2316.83,2014.34 2249.5,2061C 2235.6,2070.12 2220.6,2076.78 2204.5,2081C 2197.75,2081.88 2191.08,2081.54 2184.5,2080C 2179.03,2077.19 2175.86,2072.69 2175,2066.5C 2174.43,2058.8 2174.76,2051.14 2176,2043.5C 2191.76,1990.98 2212.76,1940.64 2239,1892.5C 2265.61,1842.77 2294.11,1794.27 2324.5,1747C 2050.61,1761.19 1777.95,1788.19 1506.5,1828C 1470.07,1833.79 1433.74,1840.13 1397.5,1847C 1412.65,1846.87 1427.65,1848.21 1442.5,1851C 1447.33,1852.49 1449.16,1855.66 1448,1860.5C 1447.25,1861.13 1446.42,1861.63 1445.5,1862C 1435.67,1864.65 1425.67,1866.31 1415.5,1867C 1373.26,1871.29 1330.93,1873.29 1288.5,1873C 1278.88,1872.8 1269.55,1871.13 1260.5,1868C 1247.5,1862.68 1247.17,1856.68 1259.5,1850C 1263.72,1848.06 1268.06,1846.39 1272.5,1845C 1350.76,1829.62 1429.43,1816.62 1508.5,1806C 1714.53,1778.9 1921.2,1758.06 2128.5,1743.5C 2197.17,1738.86 2265.84,1734.36 2334.5,1730C 2341.14,1720.01 2346.97,1709.51 2352,1698.5C 2358.64,1683.96 2357.64,1669.96 2349,1656.5C 2334.32,1637.14 2318.15,1618.98 2300.5,1602C 2259.88,1563.7 2217.21,1528.03 2172.5,1495C 2088.28,1432.78 2002.95,1372.11 1916.5,1313C 1870.11,1279.95 1825.44,1244.62 1782.5,1207C 1755.02,1181.54 1730.52,1153.71 1709,1123.5C 1685.82,1085.98 1684.49,1047.65 1705,1008.5C 1716.7,986.12 1732.2,966.62 1751.5,950C 1786.76,921.144 1825.42,897.477 1867.5,879C 1948.82,845.451 2032.82,820.784 2119.5,805C 2233.28,783.445 2347.94,768.778 2463.5,761C 2575.86,753.113 2688.2,748.279 2800.5,746.5 Z M 3023.5,1283.5 C 3031.43,1282.93 3035.27,1286.6 3035,1294.5C 3033.89,1298.73 3032.22,1302.73 3030,1306.5C 3010.96,1337.24 2989.96,1366.58 2967,1394.5C 2961.83,1401 2956,1406.83 2949.5,1412C 2936.86,1413.5 2924.2,1414.16 2911.5,1414C 2933.84,1380.49 2958.01,1348.32 2984,1317.5C 2991.61,1308.76 2999.78,1300.6 3008.5,1293C 3013.23,1289.31 3018.23,1286.14 3023.5,1283.5 Z M 2864.5,1487.5 C 2874.43,1470.47 2884.77,1453.64 2895.5,1437C 2906.19,1436.06 2916.86,1435.4 2927.5,1435C 2907.21,1453.46 2886.21,1470.96 2864.5,1487.5 Z M 3313.5,1665.5 C 3301.94,1685.61 3290.11,1705.61 3278,1725.5C 3270.85,1724.86 3263.69,1724.03 3256.5,1723C 3271.47,1706.36 3286.8,1690.03 3302.5,1674C 3306.06,1670.93 3309.73,1668.09 3313.5,1665.5 Z M 2390.5,1724.5 C 2392.84,1724.5 2394.84,1725.34 2396.5,1727C 2392.82,1727.72 2389.16,1728.05 2385.5,1728C 2387.35,1726.97 2389.01,1725.8 2390.5,1724.5 Z M 3244.5,1736.5 C 3253.23,1736.16 3261.89,1736.66 3270.5,1738C 3240.78,1787.05 3207.95,1833.88 3172,1878.5C 3164.47,1886.36 3156.64,1893.86 3148.5,1901C 3128.21,1913.72 3123.04,1908.88 3133,1886.5C 3148.04,1859.8 3165.04,1834.47 3184,1810.5C 3203.94,1785.62 3224.1,1760.95 3244.5,1736.5 Z M 2396.5,1742.5 C 2398.83,1742.5 2401.17,1742.5 2403.5,1742.5C 2417.33,1799.49 2407.83,1852.16 2375,1900.5C 2354.52,1931.32 2330.02,1958.82 2301.5,1983C 2276.09,2004.54 2249.09,2023.87 2220.5,2041C 2215.8,2044.05 2210.8,2045.22 2205.5,2044.5C 2204.35,2041.55 2204.18,2038.55 2205,2035.5C 2219.38,1997.74 2236.71,1961.4 2257,1926.5C 2293.25,1864.99 2331.25,1804.65 2371,1745.5C 2379.55,1744.07 2388.05,1743.07 2396.5,1742.5 Z"/></g>
<g><path style="opacity:0.909" fill="#252221" d="M 3551.5,1447.5 C 3561.86,1446 3567.86,1450.33 3569.5,1460.5C 3568.58,1466.88 3564.91,1469.38 3558.5,1468C 3550.3,1464.84 3546.8,1459 3548,1450.5C 3549.15,1449.36 3550.31,1448.36 3551.5,1447.5 Z"/></g>
<g><path style="opacity:0.918" fill="#252221" d="M 3415.5,1464.5 C 3425.87,1462.39 3430.03,1466.39 3428,1476.5C 3424.31,1483.76 3418.47,1486.93 3410.5,1486C 3407.07,1480.87 3406.57,1475.37 3409,1469.5C 3410.97,1467.45 3413.13,1465.78 3415.5,1464.5 Z"/></g>
<g><path style="opacity:0.951" fill="#252221" d="M 1147.5,1484.5 C 1153.18,1484.33 1158.84,1484.5 1164.5,1485C 1173.23,1487.62 1176.4,1493.45 1174,1502.5C 1173.05,1504.46 1171.71,1506.12 1170,1507.5C 1168.63,1515.12 1168.29,1522.79 1169,1530.5C 1170.16,1537.35 1173.99,1541.85 1180.5,1544C 1187.89,1544.8 1195.22,1544.47 1202.5,1543C 1233.88,1533.76 1264.04,1521.6 1293,1506.5C 1296.56,1503.27 1300.39,1500.44 1304.5,1498C 1314.5,1495.67 1318,1499.51 1315,1509.5C 1308.33,1519.5 1301.67,1529.5 1295,1539.5C 1292.23,1544.71 1289.73,1550.05 1287.5,1555.5C 1291.96,1555.65 1296.29,1554.49 1300.5,1552C 1305.83,1548.67 1311.17,1545.33 1316.5,1542C 1336.81,1525.85 1357.47,1510.18 1378.5,1495C 1387.55,1488.65 1397.22,1487.31 1407.5,1491C 1411.79,1493.29 1414.62,1496.79 1416,1501.5C 1418.78,1517.18 1417.45,1532.51 1412,1547.5C 1408.66,1557.03 1404.82,1566.37 1400.5,1575.5C 1400.83,1575.83 1401.17,1576.17 1401.5,1576.5C 1439.43,1551.74 1477.77,1527.57 1516.5,1504C 1533.06,1494.55 1550.72,1488.22 1569.5,1485C 1577.03,1483.93 1584.36,1484.59 1591.5,1487C 1594.6,1489.79 1596.27,1493.29 1596.5,1497.5C 1595.75,1502.34 1593.91,1506.67 1591,1510.5C 1588.35,1520.26 1589.35,1529.6 1594,1538.5C 1595.94,1541.11 1598.44,1542.94 1601.5,1544C 1607.17,1544.67 1612.83,1544.67 1618.5,1544C 1652.05,1535.54 1684.05,1523.04 1714.5,1506.5C 1718.85,1499.54 1724.35,1498.2 1731,1502.5C 1732.48,1505.7 1732.82,1509.04 1732,1512.5C 1727.91,1520.68 1723.91,1528.68 1720,1536.5C 1732.45,1526.52 1746.29,1519.02 1761.5,1514C 1783.46,1515.49 1805.46,1516.16 1827.5,1516C 1842.05,1514.7 1856.05,1511.2 1869.5,1505.5C 1876.69,1505.89 1879.52,1509.56 1878,1516.5C 1874.79,1520.19 1870.96,1523.02 1866.5,1525C 1850.48,1532.38 1833.64,1536.55 1816,1537.5C 1800.78,1536.79 1785.61,1535.46 1770.5,1533.5C 1768.08,1533.59 1765.74,1534.09 1763.5,1535C 1755.87,1538.82 1748.54,1543.15 1741.5,1548C 1729.78,1557.38 1717.78,1566.38 1705.5,1575C 1695.76,1579.05 1688.42,1576.38 1683.5,1567C 1688.63,1555.73 1694.3,1544.73 1700.5,1534C 1683.03,1541.72 1665.2,1548.89 1647,1555.5C 1630.09,1562.55 1612.59,1565.05 1594.5,1563C 1584.86,1560.69 1578.36,1554.86 1575,1545.5C 1573.48,1540.19 1572.15,1534.86 1571,1529.5C 1556.48,1542.84 1541.31,1555.34 1525.5,1567C 1513.15,1574.76 1499.82,1577.42 1485.5,1575C 1479.17,1572.2 1475.34,1567.37 1474,1560.5C 1473.82,1557.77 1473.32,1555.11 1472.5,1552.5C 1440.83,1572.33 1411,1594.67 1383,1619.5C 1340.2,1691.94 1293.87,1761.94 1244,1829.5C 1221.27,1859.4 1196.77,1887.9 1170.5,1915C 1160.13,1924.38 1149.46,1933.38 1138.5,1942C 1132.99,1945.25 1127.32,1948.25 1121.5,1951C 1113.44,1954.2 1105.11,1955.2 1096.5,1954C 1088.34,1950.2 1084.34,1943.7 1084.5,1934.5C 1086.24,1919.13 1091.07,1904.79 1099,1891.5C 1114.11,1867.05 1130.78,1843.72 1149,1821.5C 1216.2,1743.63 1288.2,1670.3 1365,1601.5C 1378.08,1576.93 1388.41,1551.26 1396,1524.5C 1396.67,1520.17 1396.67,1515.83 1396,1511.5C 1393.85,1509.56 1391.35,1509.06 1388.5,1510C 1384.67,1511.75 1381.01,1513.75 1377.5,1516C 1355.41,1534.76 1332.74,1552.76 1309.5,1570C 1301.57,1575.13 1292.9,1578.3 1283.5,1579.5C 1268.73,1577.31 1263.56,1568.98 1268,1554.5C 1269.72,1548.01 1272.22,1541.84 1275.5,1536C 1254.6,1544.75 1233.27,1552.75 1211.5,1560C 1197.65,1564.65 1183.65,1565.32 1169.5,1562C 1161.61,1558.44 1156.11,1552.61 1153,1544.5C 1151.61,1539.24 1150.61,1533.91 1150,1528.5C 1135.33,1543.17 1119.5,1556.34 1102.5,1568C 1091.65,1574.3 1079.98,1576.96 1067.5,1576C 1058.8,1573.5 1053.63,1567.66 1052,1558.5C 1050.54,1546.88 1053.87,1536.88 1062,1528.5C 1086.33,1505.75 1114.83,1491.09 1147.5,1484.5 Z M 1142.5,1507.5 C 1143.55,1507.35 1144.55,1507.52 1145.5,1508C 1132.42,1520.42 1118.75,1532.08 1104.5,1543C 1096.08,1549.38 1086.75,1553.88 1076.5,1556.5C 1074.63,1556.61 1073.13,1555.94 1072,1554.5C 1072.13,1544.33 1076.63,1536.49 1085.5,1531C 1102.93,1519.14 1121.93,1511.31 1142.5,1507.5 Z M 1563.5,1507.5 C 1568.42,1507.11 1568.76,1508.28 1564.5,1511C 1552.17,1521.33 1539.83,1531.67 1527.5,1542C 1518.93,1548.95 1509.26,1553.79 1498.5,1556.5C 1496.41,1556.51 1494.57,1555.85 1493,1554.5C 1492.6,1550.68 1493.27,1547.02 1495,1543.5C 1505.77,1531.02 1518.93,1521.85 1534.5,1516C 1544.08,1512.41 1553.75,1509.58 1563.5,1507.5 Z M 1341.5,1649.5 C 1291.39,1731.79 1235.22,1809.79 1173,1883.5C 1161.8,1895.03 1150.3,1906.2 1138.5,1917C 1132.36,1921.8 1125.69,1925.8 1118.5,1929C 1114.62,1930.64 1110.62,1931.31 1106.5,1931C 1105.75,1925.38 1106.58,1919.88 1109,1914.5C 1118.36,1895.49 1129.69,1877.82 1143,1861.5C 1175.51,1821.65 1209.51,1782.98 1245,1745.5C 1277.03,1713.3 1309.2,1681.3 1341.5,1649.5 Z"/></g>
<g><path style="opacity:0.843" fill="#252221" d="M 3073.5,2066.5 C 3096.84,2064.57 3112.34,2074.57 3120,2096.5C 3123.92,2120.17 3114.75,2136.34 3092.5,2145C 3067.02,2149.69 3050.19,2139.85 3042,2115.5C 3038.94,2090.25 3049.44,2073.91 3073.5,2066.5 Z M 3074.5,2072.5 C 3096.59,2070.96 3110.09,2080.96 3115,2102.5C 3115.46,2122.08 3106.29,2134.58 3087.5,2140C 3063.5,2141.5 3049.84,2130.34 3046.5,2106.5C 3048.27,2088.74 3057.6,2077.41 3074.5,2072.5 Z M 3077.5,2092.5 C 3084.94,2091.92 3087.28,2094.92 3084.5,2101.5C 3082.25,2102.37 3079.92,2102.71 3077.5,2102.5C 3077.5,2099.17 3077.5,2095.83 3077.5,2092.5 Z"/></g>
<g><path style="opacity:0.886" fill="#252221" d="M 3069.5,2085.5 C 3075.18,2085.33 3080.84,2085.5 3086.5,2086C 3089.58,2086.79 3091.75,2088.62 3093,2091.5C 3095.59,2099.69 3093.09,2105.53 3085.5,2109C 3090.03,2114.69 3094.36,2120.53 3098.5,2126.5C 3095.5,2127.83 3092.5,2127.83 3089.5,2126.5C 3085.33,2120.83 3081.17,2115.17 3077,2109.5C 3076.5,2115.49 3076.33,2121.49 3076.5,2127.5C 3074.17,2127.5 3071.83,2127.5 3069.5,2127.5C 3069.5,2113.5 3069.5,2099.5 3069.5,2085.5 Z M 3077.5,2092.5 C 3077.5,2095.83 3077.5,2099.17 3077.5,2102.5C 3079.92,2102.71 3082.25,2102.37 3084.5,2101.5C 3087.28,2094.92 3084.94,2091.92 3077.5,2092.5 Z"/></g>
<g><path style="opacity:0.937" fill="#252221" d="M 1916.5,2141.5 C 1918.47,2143.43 1919.97,2145.76 1921,2148.5C 1936.23,2181.95 1951.73,2215.29 1967.5,2248.5C 1961.17,2249.83 1954.83,2249.83 1948.5,2248.5C 1944.26,2240.03 1940.6,2231.37 1937.5,2222.5C 1924.16,2222.33 1910.83,2222.5 1897.5,2223C 1893.37,2231.42 1889.37,2239.92 1885.5,2248.5C 1879.17,2249.83 1872.83,2249.83 1866.5,2248.5C 1883.17,2212.8 1899.84,2177.14 1916.5,2141.5 Z M 1916.5,2176.5 C 1921.05,2186.62 1925.72,2196.79 1930.5,2207C 1921.81,2207.83 1913.15,2207.67 1904.5,2206.5C 1909.1,2196.7 1913.1,2186.7 1916.5,2176.5 Z"/></g>
<g><path style="opacity:0.946" fill="#252221" d="M 2686.5,2143.5 C 2714.4,2140.36 2734.9,2151.03 2748,2175.5C 2758.29,2206.98 2749.12,2230.81 2720.5,2247C 2691.21,2257.34 2667.38,2250.18 2649,2225.5C 2635.29,2196.59 2640.79,2172.09 2665.5,2152C 2672.19,2148.06 2679.19,2145.22 2686.5,2143.5 Z M 2690.5,2159.5 C 2712.58,2158.43 2726.75,2168.43 2733,2189.5C 2735.59,2211.15 2726.76,2225.98 2706.5,2234C 2683.07,2237.54 2667.91,2228.04 2661,2205.5C 2658.2,2181.85 2668.03,2166.51 2690.5,2159.5 Z"/></g>
<g><path style="opacity:0.959" fill="#252221" d="M 1362.5,2145.5 C 1374.5,2145.33 1386.5,2145.5 1398.5,2146C 1410.13,2147.73 1417.63,2154.23 1421,2165.5C 1425.51,2184.99 1418.35,2197.49 1399.5,2203C 1410.96,2218.08 1422.29,2233.24 1433.5,2248.5C 1426.83,2249.83 1420.17,2249.83 1413.5,2248.5C 1402.14,2233.48 1390.8,2218.48 1379.5,2203.5C 1378.5,2218.82 1378.17,2234.15 1378.5,2249.5C 1373.17,2249.5 1367.83,2249.5 1362.5,2249.5C 1362.5,2214.83 1362.5,2180.17 1362.5,2145.5 Z M 1379.5,2160.5 C 1385.64,2160.36 1391.64,2161.19 1397.5,2163C 1403.6,2168.66 1405.1,2175.49 1402,2183.5C 1400.05,2185.89 1397.55,2187.39 1394.5,2188C 1389.52,2188.75 1384.52,2189.25 1379.5,2189.5C 1379.5,2179.83 1379.5,2170.17 1379.5,2160.5 Z"/></g>
<g><path style="opacity:0.957" fill="#252221" d="M 1623.5,2145.5 C 1642.83,2145.5 1662.17,2145.5 1681.5,2145.5C 1681.5,2150.5 1681.5,2155.5 1681.5,2160.5C 1668.17,2160.5 1654.83,2160.5 1641.5,2160.5C 1641.5,2168.83 1641.5,2177.17 1641.5,2185.5C 1654.83,2185.5 1668.17,2185.5 1681.5,2185.5C 1681.5,2190.5 1681.5,2195.5 1681.5,2200.5C 1668.17,2200.5 1654.83,2200.5 1641.5,2200.5C 1641.5,2211.5 1641.5,2222.5 1641.5,2233.5C 1654.83,2233.5 1668.17,2233.5 1681.5,2233.5C 1681.5,2238.83 1681.5,2244.17 1681.5,2249.5C 1662.17,2249.5 1642.83,2249.5 1623.5,2249.5C 1623.5,2214.83 1623.5,2180.17 1623.5,2145.5 Z"/></g>
<g><path style="opacity:0.941" fill="#252221" d="M 2156.5,2145.5 C 2162.5,2145.5 2168.5,2145.5 2174.5,2145.5C 2174.5,2174.83 2174.5,2204.17 2174.5,2233.5C 2186.83,2233.5 2199.17,2233.5 2211.5,2233.5C 2211.5,2238.83 2211.5,2244.17 2211.5,2249.5C 2193.17,2249.5 2174.83,2249.5 2156.5,2249.5C 2156.5,2214.83 2156.5,2180.17 2156.5,2145.5 Z"/></g>
<g><path style="opacity:0.948" fill="#252221" d="M 2386.5,2145.5 C 2410.5,2145.5 2434.5,2145.5 2458.5,2145.5C 2458.5,2150.5 2458.5,2155.5 2458.5,2160.5C 2449.5,2160.5 2440.5,2160.5 2431.5,2160.5C 2431.5,2190.17 2431.5,2219.83 2431.5,2249.5C 2425.5,2249.5 2419.5,2249.5 2413.5,2249.5C 2413.5,2219.83 2413.5,2190.17 2413.5,2160.5C 2404.5,2160.5 2395.5,2160.5 2386.5,2160.5C 2386.5,2155.5 2386.5,2150.5 2386.5,2145.5 Z"/></g>
<g><path style="opacity:0.942" fill="#252221" d="M 2951.5,2145.5 C 2963.5,2145.33 2975.5,2145.5 2987.5,2146C 3003.32,2148.77 3011.32,2158.27 3011.5,2174.5C 3011.28,2190.16 3003.61,2199.66 2988.5,2203C 2999.67,2217.5 3010.83,2232 3022,2246.5C 3022.48,2247.45 3022.65,2248.45 3022.5,2249.5C 3016.16,2249.67 3009.82,2249.5 3003.5,2249C 2991.64,2234.1 2980.14,2218.94 2969,2203.5C 2968.5,2218.83 2968.33,2234.16 2968.5,2249.5C 2962.83,2249.5 2957.17,2249.5 2951.5,2249.5C 2951.5,2214.83 2951.5,2180.17 2951.5,2145.5 Z M 2969.5,2160.5 C 2976.09,2160.38 2982.42,2161.54 2988.5,2164C 2994.46,2171.57 2994.46,2178.9 2988.5,2186C 2982.4,2188.32 2976.07,2189.49 2969.5,2189.5C 2969.5,2179.83 2969.5,2170.17 2969.5,2160.5 Z"/></g>
</svg>
