<?xml version="1.0" encoding="UTF-8"?>
<!DOCTYPE svg PUBLIC "-//W3C//DTD SVG 1.1//EN" "http://www.w3.org/Graphics/SVG/1.1/DTD/svg11.dtd">
<svg xmlns="http://www.w3.org/2000/svg" version="1.1" width="4000px" height="3000px" style="shape-rendering:geometricPrecision; text-rendering:geometricPrecision; image-rendering:optimizeQuality; fill-rule:evenodd; clip-rule:evenodd" xmlns:xlink="http://www.w3.org/1999/xlink">
<g><path style="opacity:0.978" fill="#edeeed" d="M 1061.5,818.5 C 1071.96,818.461 1077.96,823.627 1079.5,834C 1078.32,839.862 1076.15,845.362 1073,850.5C 1065.75,861 1059.59,872 1054.5,883.5C 1142.02,875.582 1229.69,869.748 1317.5,866C 1388.56,863.518 1459.56,864.518 1530.5,869C 1567.43,871.988 1603.76,878.321 1639.5,888C 1662.52,894.751 1682.68,906.251 1700,922.5C 1705.56,930.332 1709.06,938.999 1710.5,948.5C 1709.18,948.67 1708.01,948.337 1707,947.5C 1700.93,929.758 1689.09,917.591 1671.5,911C 1647.61,901.861 1622.94,895.861 1597.5,893C 1531.05,885.068 1464.39,882.401 1397.5,885C 1280.5,888.59 1163.83,896.923 1047.5,910C 1040.97,910.948 1035.3,913.615 1030.5,918C 934.268,1071.6 841.435,1227.44 752,1385.5C 718.313,1447.54 685.646,1510.2 654,1573.5C 629.544,1625.08 604.544,1676.41 579,1727.5C 576.803,1733.09 574.803,1738.76 573,1744.5C 559.956,1808.63 540.29,1870.63 514,1930.5C 477.334,2014.67 435.834,2096.17 389.5,2175C 381.807,2180.34 373.473,2181.67 364.5,2179C 363.299,2178.1 362.465,2176.93 362,2175.5C 361.333,2171.5 361.333,2167.5 362,2163.5C 368.874,2137.21 377.541,2111.54 388,2086.5C 401.781,2051.6 416.114,2016.94 431,1982.5C 469.118,1895.6 507.784,1808.93 547,1722.5C 553.231,1694.69 556.065,1666.52 555.5,1638C 556.954,1537.89 515.954,1460.89 432.5,1407C 411.831,1394.16 390.164,1383.16 367.5,1374C 303.5,1349 239.5,1324 175.5,1299C 153.128,1289.98 132.128,1278.65 112.5,1265C 86.2774,1246.1 81.1107,1222.6 97,1194.5C 104.005,1183.49 112.505,1173.65 122.5,1165C 165.596,1127.93 213.263,1097.59 265.5,1074C 366.819,1027.56 471.485,990.225 579.5,962C 679.766,935.147 781.433,915.48 884.5,903C 925.825,897.834 967.158,892.834 1008.5,888C 1011.6,886.561 1014.44,884.727 1017,882.5C 1031.12,860.577 1045.95,839.243 1061.5,818.5 Z M 985.5,916.5 C 987.714,916.291 989.381,917.124 990.5,919C 922.037,1023.83 855.537,1129.99 791,1237.5C 743.454,1320.58 698.454,1405.25 656,1491.5C 632.757,1540.99 609.257,1590.32 585.5,1639.5C 581.409,1556.16 548.076,1487.33 485.5,1433C 452.52,1406.16 416.52,1383.82 377.5,1366C 322.119,1341.32 265.786,1318.98 208.5,1299C 186.936,1290.55 165.603,1281.55 144.5,1272C 112.286,1257.94 106.453,1236.44 127,1207.5C 156.172,1175.99 189.672,1150.15 227.5,1130C 309.144,1085.45 394.478,1049.45 483.5,1022C 647.425,970.116 814.758,934.949 985.5,916.5 Z"/></g>
<g><path style="opacity:0.972" fill="#edeeed" d="M 2552.5,862.5 C 2603.98,860.934 2654.98,865.101 2705.5,875C 2748.86,883.437 2787.86,901.104 2822.5,928C 2868,969.009 2892.33,1020.34 2895.5,1082C 2894.24,1113.89 2887.07,1144.39 2874,1173.5C 2852.03,1220.47 2823.36,1262.8 2788,1300.5C 2693.02,1401.12 2579.85,1474.29 2448.5,1520C 2342.35,1557.5 2235.02,1591.16 2126.5,1621C 2116.61,1625.89 2109.94,1633.56 2106.5,1644C 2107.43,1646.6 2109.1,1648.6 2111.5,1650C 2124.73,1656.23 2137.73,1662.9 2150.5,1670C 2181.17,1688.67 2211.83,1707.33 2242.5,1726C 2407.86,1725.5 2573.2,1723.67 2738.5,1720.5C 2747.51,1693.48 2757.51,1666.81 2768.5,1640.5C 2768.15,1639.3 2767.65,1639.3 2767,1640.5C 2754.31,1658.86 2739.81,1675.69 2723.5,1691C 2715.98,1698.39 2706.98,1701.39 2696.5,1700C 2685.92,1694 2681.25,1684.83 2682.5,1672.5C 2683.01,1663.09 2684.18,1653.75 2686,1644.5C 2688.89,1631.93 2692.22,1619.6 2696,1607.5C 2678.07,1627.77 2658.57,1646.27 2637.5,1663C 2618.26,1673.05 2607.26,1667.21 2604.5,1645.5C 2603.91,1645.29 2603.41,1644.96 2603,1644.5C 2592.55,1657.95 2581.05,1670.45 2568.5,1682C 2550.77,1689.39 2538.93,1683.89 2533,1665.5C 2532.33,1658.5 2532.33,1651.5 2533,1644.5C 2534.01,1639.82 2534.68,1635.16 2535,1630.5C 2516.89,1652.29 2496.06,1670.79 2472.5,1686C 2464.53,1690.28 2456.03,1692.78 2447,1693.5C 2426.09,1689.9 2416.26,1677.4 2417.5,1656C 2421.84,1621.99 2436.51,1593.32 2461.5,1570C 2467.97,1564.87 2474.97,1560.54 2482.5,1557C 2510.45,1551.39 2519.28,1561.89 2509,1588.5C 2496.43,1616.4 2475.1,1633.07 2445,1638.5C 2438.68,1649.38 2437.35,1660.72 2441,1672.5C 2444.33,1676.42 2448.49,1677.92 2453.5,1677C 2458.28,1676.07 2462.95,1674.74 2467.5,1673C 2484.23,1663.94 2499.56,1652.94 2513.5,1640C 2523.97,1630.53 2534.14,1620.7 2544,1610.5C 2552.52,1591.97 2565.36,1577.14 2582.5,1566C 2598.89,1557.09 2615.55,1556.43 2632.5,1564C 2638.38,1568.01 2640.38,1573.51 2638.5,1580.5C 2641.26,1584.77 2642.09,1589.43 2641,1594.5C 2637.11,1601.72 2632.45,1608.39 2627,1614.5C 2621.19,1626.55 2618.86,1639.21 2620,1652.5C 2620.67,1654.5 2622,1655.83 2624,1656.5C 2629.05,1654.06 2633.88,1651.23 2638.5,1648C 2663.33,1627.17 2686.17,1604.33 2707,1579.5C 2744.79,1485.93 2791.12,1396.6 2846,1311.5C 2856.02,1296.47 2867.19,1282.3 2879.5,1269C 2885.15,1264.11 2891.49,1262.78 2898.5,1265C 2905.51,1269.9 2907.34,1276.4 2904,1284.5C 2868.35,1350.48 2830.19,1414.82 2789.5,1477.5C 2806.16,1478.67 2822.82,1478.83 2839.5,1478C 2851.05,1457.74 2862.21,1437.24 2873,1416.5C 2884.58,1394.49 2898.75,1374.33 2915.5,1356C 2922.49,1351.18 2929.33,1351.35 2936,1356.5C 2938.4,1361.23 2939.07,1366.23 2938,1371.5C 2917.61,1408.03 2895.45,1443.36 2871.5,1477.5C 2909.51,1478.18 2947.51,1479.01 2985.5,1480C 2989.67,1480.38 2993.67,1481.38 2997.5,1483C 3001.45,1490.59 2999.12,1495.09 2990.5,1496.5C 2986.19,1496.17 2984.52,1493.84 2985.5,1489.5C 2944.5,1485.97 2903.5,1486.13 2862.5,1490C 2858.05,1495.06 2854.22,1500.56 2851,1506.5C 2845.67,1517.17 2840.33,1527.83 2835,1538.5C 2832.8,1560.62 2827.47,1581.95 2819,1602.5C 2802.88,1642.58 2784.71,1681.75 2764.5,1720C 2813.17,1719.44 2861.83,1718.44 2910.5,1717C 2916.2,1716.83 2921.86,1716.33 2927.5,1715.5C 2937.32,1694.01 2945.32,1671.85 2951.5,1649C 2951.13,1645.99 2949.46,1644.65 2946.5,1645C 2931.05,1662.7 2913.05,1677.03 2892.5,1688C 2874.81,1696.29 2859.31,1693.46 2846,1679.5C 2839.89,1669.68 2837.89,1659.02 2840,1647.5C 2842.85,1624.59 2851.68,1604.42 2866.5,1587C 2878.71,1582.1 2886.04,1586.1 2888.5,1599C 2888.37,1601.25 2887.87,1603.42 2887,1605.5C 2874.89,1621.49 2868.56,1639.49 2868,1659.5C 2868.44,1662.65 2870.27,1664.31 2873.5,1664.5C 2882.67,1661.48 2891.01,1656.98 2898.5,1651C 2924.73,1627.78 2947.73,1601.78 2967.5,1573C 2980.31,1566.91 2988.31,1570.74 2991.5,1584.5C 2988.44,1613.39 2981.61,1641.39 2971,1668.5C 2964.99,1682.83 2959.32,1697.16 2954,1711.5C 3019.8,1650.01 3097.3,1610.85 3186.5,1594C 3245.93,1584.59 3305.59,1582.92 3365.5,1589C 3404.04,1592.88 3441.04,1602.55 3476.5,1618C 3485.53,1622.69 3493.03,1629.19 3499,1637.5C 3501,1642.83 3501,1648.17 3499,1653.5C 3495.83,1658 3492,1661.83 3487.5,1665C 3472.67,1673.17 3457,1679.17 3440.5,1683C 3391.7,1693.88 3342.37,1701.21 3292.5,1705C 3180.99,1714.28 3069.33,1720.95 2957.5,1725C 2952.21,1728.62 2947.21,1732.62 2942.5,1737C 3100.85,1740.39 3259.18,1745.06 3417.5,1751C 3508.65,1754.8 3599.65,1760.8 3690.5,1769C 3732.35,1773.36 3774.01,1779.03 3815.5,1786C 3835.14,1789.41 3854.47,1794.08 3873.5,1800C 3886.67,1804.16 3898.17,1811 3908,1820.5C 3913.28,1829.89 3912.11,1838.39 3904.5,1846C 3901.14,1847.14 3899.14,1845.97 3898.5,1842.5C 3900.21,1838.48 3901.88,1834.48 3903.5,1830.5C 3902.14,1826.94 3900.14,1823.78 3897.5,1821C 3883.59,1812.21 3868.59,1805.88 3852.5,1802C 3826.45,1795.26 3800.12,1789.92 3773.5,1786C 3643.95,1770.11 3513.95,1759.78 3383.5,1755C 3234.21,1749.55 3084.88,1746.88 2935.5,1747C 2893.58,1826.22 2843.08,1899.39 2784,1966.5C 2771.32,1980.86 2757.15,1993.36 2741.5,2004C 2736,2007.59 2730,2009.75 2723.5,2010.5C 2716.05,2009.85 2711.55,2005.85 2710,1998.5C 2708.91,1990.89 2709.91,1983.55 2713,1976.5C 2719.99,1962.5 2727.99,1949.17 2737,1936.5C 2790.69,1871.79 2848.36,1810.46 2910,1752.5C 2910.91,1750.34 2912.08,1748.34 2913.5,1746.5C 2859.83,1745.17 2806.17,1745.17 2752.5,1746.5C 2748.06,1755.72 2743.89,1765.05 2740,1774.5C 2734.45,1779.77 2730.12,1778.77 2727,1771.5C 2726.39,1762.74 2727.56,1754.24 2730.5,1746C 2578.5,1745.43 2426.5,1745.77 2274.5,1747C 2383.74,1818.48 2487.41,1897.48 2585.5,1984C 2610.64,2006.8 2634.8,2030.64 2658,2055.5C 2675.92,2075.08 2691.92,2096.08 2706,2118.5C 2716.91,2136.39 2723.74,2155.73 2726.5,2176.5C 2723.9,2176.45 2721.73,2175.45 2720,2173.5C 2714.11,2155.06 2705.11,2138.39 2693,2123.5C 2672.24,2098.74 2650.07,2075.24 2626.5,2053C 2496.37,1939.28 2357.7,1837.28 2210.5,1747C 2158.82,1746.11 2107.15,1746.61 2055.5,1748.5C 2029.79,1801.26 2004.62,1854.26 1980,1907.5C 1979.66,1910.04 1979.16,1912.54 1978.5,1915C 1990.28,1951.17 1991.45,1987.67 1982,2024.5C 1967.26,2080.51 1939.76,2129.01 1899.5,2170C 1884.72,2179.23 1870.55,2178.4 1857,2167.5C 1855.16,2164.25 1854.32,2160.75 1854.5,2157C 1860.12,2122.68 1868.96,2089.18 1881,2056.5C 1899.29,2008.26 1918.95,1960.6 1940,1913.5C 1942.13,1908.34 1942.8,1903 1942,1897.5C 1939.8,1890.77 1936.8,1884.44 1933,1878.5C 1912.83,1847.65 1888.33,1820.48 1859.5,1797C 1839.5,1781 1819.5,1765 1799.5,1749C 1619.5,1749.02 1439.5,1750.02 1259.5,1752C 1229.08,1811.03 1193.91,1866.87 1154,1919.5C 1139.09,1938.8 1122.26,1956.3 1103.5,1972C 1092.65,1980.76 1080.32,1986.26 1066.5,1988.5C 1058.7,1987.43 1054.37,1982.93 1053.5,1975C 1054.23,1966.59 1056.73,1958.76 1061,1951.5C 1081.99,1917.87 1105.66,1886.2 1132,1856.5C 1162.76,1821.07 1194.26,1786.24 1226.5,1752C 1097.16,1752.68 967.829,1754.35 838.5,1757C 835.809,1762.73 833.309,1768.57 831,1774.5C 825.656,1779.98 821.322,1779.32 818,1772.5C 817.324,1767.13 817.491,1761.8 818.5,1756.5C 756.154,1757.52 693.82,1758.69 631.5,1760C 623.567,1756.41 621.4,1750.58 625,1742.5C 627.594,1738.95 631.094,1737.12 635.5,1737C 698.504,1736.03 761.504,1734.87 824.5,1733.5C 835.782,1700.49 847.949,1667.82 861,1635.5C 861.667,1634.5 861.667,1633.5 861,1632.5C 853.386,1641.24 845.219,1649.4 836.5,1657C 828.719,1663.15 819.885,1666.99 810,1668.5C 799.089,1667.56 792.089,1661.89 789,1651.5C 787.355,1645.61 786.355,1639.61 786,1633.5C 776.35,1648.49 765.184,1662.32 752.5,1675C 745.44,1681.53 737.107,1685.36 727.5,1686.5C 708.121,1682.46 699.455,1670.46 701.5,1650.5C 703.481,1617.05 714.814,1587.22 735.5,1561C 744.504,1556.56 751.338,1558.72 756,1567.5C 756.667,1570.83 756.667,1574.17 756,1577.5C 744.973,1593.22 736.306,1610.22 730,1628.5C 726.8,1638.95 725.8,1649.62 727,1660.5C 727.414,1660.96 727.914,1661.29 728.5,1661.5C 738.73,1655.11 747.563,1647.11 755,1637.5C 772.16,1613.85 788.826,1589.85 805,1565.5C 809.195,1559.4 814.695,1557.9 821.5,1561C 824.665,1563.83 825.831,1567.33 825,1571.5C 818.491,1582.52 812.491,1593.85 807,1605.5C 802.597,1616.45 799.763,1627.78 798.5,1639.5C 798.869,1645.11 800.536,1650.27 803.5,1655C 806.05,1656.44 808.716,1657.61 811.5,1658.5C 818.824,1656.67 825.491,1653.5 831.5,1649C 846.371,1637.13 859.538,1623.63 871,1608.5C 885.15,1577.53 899.317,1546.53 913.5,1515.5C 907.516,1505.17 898.516,1499.33 886.5,1498C 874.274,1497.15 862.274,1498.48 850.5,1502C 838,1504.17 832.833,1499 835,1486.5C 837.936,1481.3 842.436,1479.13 848.5,1480C 875.82,1478.87 903.153,1478.2 930.5,1478C 931.333,1477.17 932.167,1476.33 933,1475.5C 948.811,1443.2 966.144,1411.87 985,1381.5C 991.75,1372.08 999.25,1363.25 1007.5,1355C 1015.3,1350.86 1022.14,1352.03 1028,1358.5C 1029.53,1362.71 1029.87,1367.04 1029,1371.5C 1009,1407.52 986.998,1442.19 963,1475.5C 962.517,1476.45 962.351,1477.45 962.5,1478.5C 1000.18,1478.17 1037.85,1478.67 1075.5,1480C 1080.85,1480.04 1085.69,1481.54 1090,1484.5C 1091.27,1491.58 1088.27,1495.58 1081,1496.5C 1077.08,1495.79 1075.58,1493.62 1076.5,1490C 1035.52,1485.97 994.522,1485.97 953.5,1490C 950.547,1493.41 947.713,1496.91 945,1500.5C 938.667,1512.83 932.333,1525.17 926,1537.5C 923.076,1564.27 916.076,1589.94 905,1614.5C 887.66,1655.01 868.827,1694.85 848.5,1734C 980.501,1733.79 1112.5,1732.95 1244.5,1731.5C 1264.57,1689.13 1279.73,1645.13 1290,1599.5C 1268.88,1623.63 1245.05,1644.46 1218.5,1662C 1191.08,1676.06 1178.24,1667.89 1180,1637.5C 1181.33,1624.33 1184.17,1611.5 1188.5,1599C 1188.17,1598.5 1187.83,1598 1187.5,1597.5C 1164.22,1620.74 1141.38,1644.41 1119,1668.5C 1115.93,1674.9 1111.43,1680.07 1105.5,1684C 1095.72,1687.85 1088.89,1685.02 1085,1675.5C 1084.34,1670.44 1084.67,1665.44 1086,1660.5C 1088.37,1652.73 1090.7,1645.07 1093,1637.5C 1083.24,1649.6 1071.4,1659.1 1057.5,1666C 1042.27,1671.15 1031.77,1666.32 1026,1651.5C 1024.36,1645.61 1023.36,1639.61 1023,1633.5C 1013.35,1648.49 1002.18,1662.32 989.5,1675C 982.44,1681.53 974.107,1685.36 964.5,1686.5C 950.787,1684.62 942.287,1676.95 939,1663.5C 937.436,1625.14 948.603,1590.97 972.5,1561C 981.481,1556.55 988.314,1558.72 993,1567.5C 993.667,1570.5 993.667,1573.5 993,1576.5C 982.24,1592.69 973.573,1610.02 967,1628.5C 963.613,1639.03 962.613,1649.7 964,1660.5C 964.414,1660.96 964.914,1661.29 965.5,1661.5C 975.73,1655.11 984.563,1647.11 992,1637.5C 1007.45,1616.72 1022.11,1595.38 1036,1573.5C 1039.48,1568.72 1043.31,1564.22 1047.5,1560C 1060.78,1558.61 1064.95,1564.11 1060,1576.5C 1044.07,1597.95 1036.4,1621.95 1037,1648.5C 1038.71,1654.27 1042.55,1657.61 1048.5,1658.5C 1057.5,1656.17 1065.5,1652 1072.5,1646C 1084.46,1634.92 1095.63,1623.09 1106,1610.5C 1114.15,1595.19 1121.49,1579.53 1128,1563.5C 1135.63,1556.62 1142.96,1556.95 1150,1564.5C 1151.55,1569.05 1151.88,1573.71 1151,1578.5C 1140.88,1601.07 1130.55,1623.4 1120,1645.5C 1136.13,1628.54 1151.8,1611.21 1167,1593.5C 1174.5,1586 1182,1578.5 1189.5,1571C 1195.36,1566.24 1201.69,1562.24 1208.5,1559C 1222.69,1557.54 1227.86,1563.71 1224,1577.5C 1214.22,1597.5 1205.22,1617.83 1197,1638.5C 1194.94,1644.02 1194.28,1649.69 1195,1655.5C 1199.12,1656.41 1203.29,1656.24 1207.5,1655C 1220.74,1650.09 1232.74,1643.09 1243.5,1634C 1260.97,1618.87 1277.47,1602.7 1293,1585.5C 1293.45,1578.17 1295.12,1571.17 1298,1564.5C 1306.28,1557.59 1314.28,1557.93 1322,1565.5C 1323.34,1568.01 1324.17,1570.68 1324.5,1573.5C 1318.38,1608.03 1308.71,1641.53 1295.5,1674C 1296.01,1675.17 1296.84,1676 1298,1676.5C 1321.67,1652.17 1345.33,1627.83 1369,1603.5C 1376.44,1585.74 1387.94,1571.24 1403.5,1560C 1418.66,1556.83 1425.16,1562.99 1423,1578.5C 1416.36,1584.81 1410.02,1591.48 1404,1598.5C 1392.48,1614.53 1384.48,1632.2 1380,1651.5C 1379.33,1655.5 1379.33,1659.5 1380,1663.5C 1384.23,1664.42 1388.39,1663.92 1392.5,1662C 1402,1657.42 1411,1652.09 1419.5,1646C 1449.65,1622.86 1478.31,1597.86 1505.5,1571C 1509.62,1570.49 1511.12,1572.32 1510,1576.5C 1480.01,1608.16 1448.51,1637.99 1415.5,1666C 1407.52,1672.66 1398.85,1678.33 1389.5,1683C 1373.49,1688.56 1362.66,1683.39 1357,1667.5C 1356.17,1663.54 1355.67,1659.54 1355.5,1655.5C 1356.18,1644.97 1357.68,1634.64 1360,1624.5C 1333.77,1651.31 1307.77,1678.31 1282,1705.5C 1277.56,1714.04 1273.39,1722.71 1269.5,1731.5C 1278.17,1731.83 1286.83,1732.17 1295.5,1732.5C 1455.17,1731.65 1614.83,1730.82 1774.5,1730C 1742.21,1704.72 1711.71,1677.22 1683,1647.5C 1662.16,1625.16 1645.82,1599.83 1634,1571.5C 1620.26,1530.95 1618.92,1489.95 1630,1448.5C 1643.44,1401.29 1664.11,1357.62 1692,1317.5C 1730.41,1264.74 1774.24,1216.57 1823.5,1173C 1991.81,1030.68 2184.14,934.01 2400.5,883C 2450.78,872.173 2501.45,865.34 2552.5,862.5 Z M 2572.5,889.5 C 2638.78,886.035 2703.45,894.535 2766.5,915C 2787.88,923.184 2807.55,934.184 2825.5,948C 2848.42,971.022 2861.26,998.855 2864,1031.5C 2867.32,1073.9 2859.65,1114.23 2841,1152.5C 2820.52,1194.63 2794.18,1232.63 2762,1266.5C 2657.13,1376.22 2533.63,1458.39 2391.5,1513C 2305.99,1544.78 2219.65,1574.28 2132.5,1601.5C 2131.06,1601.28 2129.73,1600.78 2128.5,1600C 2201.87,1454.09 2275.37,1308.26 2349,1162.5C 2364.41,1133.34 2380.08,1104.34 2396,1075.5C 2412.59,1047.33 2428.92,1019 2445,990.5C 2446.29,984.982 2445.29,979.982 2442,975.5C 2438.45,972.281 2434.61,969.448 2430.5,967C 2428.83,966.333 2427.17,966.333 2425.5,967C 2421.8,969.203 2418.64,972.037 2416,975.5C 2397.33,1002.83 2379.67,1030.83 2363,1059.5C 2314.81,1145.88 2268.14,1233.21 2223,1321.5C 2177.52,1412.13 2132.85,1503.13 2089,1594.5C 2085.2,1603.28 2080.03,1611.11 2073.5,1618C 2066.96,1622.79 2059.63,1625.29 2051.5,1625.5C 2040.12,1623.99 2028.79,1622.16 2017.5,1620C 2005.1,1617.64 1993.77,1619.97 1983.5,1627C 1976.7,1633.71 1974.7,1641.55 1977.5,1650.5C 1978.03,1651.19 1978.69,1651.69 1979.5,1652C 1985.62,1651.44 1991.78,1650.94 1998,1650.5C 2002.56,1650.53 2007.06,1651.03 2011.5,1652C 2023.88,1655.79 2036.22,1659.79 2048.5,1664C 2051.35,1666.56 2052.18,1669.73 2051,1673.5C 2042.17,1691.83 2033.33,1710.17 2024.5,1728.5C 1949.51,1729.96 1874.51,1730.46 1799.5,1730C 1767.58,1705.76 1737.74,1678.93 1710,1649.5C 1690.65,1628.15 1675.32,1604.15 1664,1577.5C 1653.7,1546.39 1651.37,1514.72 1657,1482.5C 1660.34,1462.16 1666,1442.49 1674,1423.5C 1695.54,1373.69 1723.88,1328.35 1759,1287.5C 1831.07,1206.8 1912.9,1138.3 2004.5,1082C 2141.6,996.968 2289.27,937.635 2447.5,904C 2489.04,896.781 2530.71,891.948 2572.5,889.5 Z M 920.5,1491.5 C 922.252,1491.42 923.252,1492.25 923.5,1494C 921.803,1497.89 919.97,1501.73 918,1505.5C 913.457,1500.81 908.291,1496.98 902.5,1494C 908.659,1493.25 914.659,1492.42 920.5,1491.5 Z M 2829.5,1491.5 C 2831.09,1491.63 2832.42,1492.29 2833.5,1493.5C 2831.59,1497.66 2829.42,1501.66 2827,1505.5C 2822.81,1500.33 2817.65,1496.49 2811.5,1494C 2817.66,1493.25 2823.66,1492.42 2829.5,1491.5 Z M 2779.5,1497.5 C 2792.04,1496.24 2803.71,1498.74 2814.5,1505C 2819.21,1508 2821.71,1512.16 2822,1517.5C 2808.51,1545.48 2795.84,1573.81 2784,1602.5C 2766.35,1629.26 2746.18,1654.09 2723.5,1677C 2719.5,1679.67 2715.5,1682.33 2711.5,1685C 2702.33,1690.17 2698,1687.5 2698.5,1677C 2702.88,1648.85 2710.71,1621.69 2722,1595.5C 2728.39,1580.38 2735.06,1565.38 2742,1550.5C 2752.92,1534.34 2763.58,1518 2774,1501.5C 2775.46,1499.53 2777.29,1498.2 2779.5,1497.5 Z M 909.5,1571.5 C 905.563,1585.14 900.73,1598.48 895,1611.5C 882.92,1637.99 870.087,1663.99 856.5,1689.5C 872.553,1649.4 890.219,1610.07 909.5,1571.5 Z M 2818.5,1572.5 C 2814.29,1587.64 2808.79,1602.3 2802,1616.5C 2790.27,1642.29 2777.77,1667.63 2764.5,1692.5C 2780.38,1651.51 2798.38,1611.51 2818.5,1572.5 Z M 2486.5,1578.5 C 2487.38,1578.37 2488.04,1578.7 2488.5,1579.5C 2485.36,1595.46 2476.03,1605.79 2460.5,1610.5C 2462.03,1594.28 2470.69,1583.62 2486.5,1578.5 Z M 2608.5,1586.5 C 2610.76,1587.22 2613.1,1587.55 2615.5,1587.5C 2615.51,1589.31 2615.01,1590.98 2614,1592.5C 2596.85,1614.44 2578.51,1635.44 2559,1655.5C 2559.13,1643.78 2562.13,1632.78 2568,1622.5C 2573.98,1611.85 2581.48,1602.35 2590.5,1594C 2596.03,1590.06 2602.03,1587.56 2608.5,1586.5 Z M 3285.5,1594.5 C 3344.25,1592.92 3401.59,1601.08 3457.5,1619C 3470.11,1623.21 3480.94,1630.04 3490,1639.5C 3493.84,1645.97 3492.67,1651.47 3486.5,1656C 3472.69,1663.94 3458.03,1669.94 3442.5,1674C 3392.69,1685.02 3342.36,1692.69 3291.5,1697C 3183.64,1705.8 3075.64,1711.8 2967.5,1715C 3006.13,1680 3049.47,1652 3097.5,1631C 3158.32,1608.6 3220.98,1596.44 3285.5,1594.5 Z M 2089.5,1682.5 C 2097.13,1684.81 2104.47,1687.98 2111.5,1692C 2133.33,1703.41 2154.99,1715.08 2176.5,1727C 2139.5,1728.55 2102.5,1729.05 2065.5,1728.5C 2071.67,1715.5 2077.83,1702.5 2084,1689.5C 2085.38,1686.69 2087.22,1684.36 2089.5,1682.5 Z M 2907.5,1726.5 C 2912.51,1726.33 2917.51,1726.5 2922.5,1727C 2921.1,1730.46 2919.44,1733.79 2917.5,1737C 2864.16,1737.08 2810.83,1736.41 2757.5,1735C 2758.17,1734 2758.83,1733 2759.5,1732C 2809,1730.37 2858.33,1728.54 2907.5,1726.5 Z M 2703.5,1732.5 C 2713.84,1732.33 2724.17,1732.5 2734.5,1733C 2734.04,1733.41 2733.71,1733.91 2733.5,1734.5C 2722.33,1734.83 2711.17,1735.17 2700,1735.5C 2687.12,1735.62 2674.29,1735.12 2661.5,1734C 2675.67,1733.83 2689.67,1733.33 2703.5,1732.5 Z M 1855.5,1747.5 C 1908.83,1747.33 1962.17,1747.5 2015.5,1748C 1996.76,1788.82 1977.76,1829.48 1958.5,1870C 1956.63,1870.71 1955.13,1870.21 1954,1868.5C 1936.98,1846.14 1917.81,1825.64 1896.5,1807C 1872.71,1786.94 1848.38,1767.61 1823.5,1749C 1834.34,1748.83 1845.01,1748.33 1855.5,1747.5 Z M 1218.5,1774.5 C 1220.35,1774.22 1221.68,1774.89 1222.5,1776.5C 1196.17,1828.53 1165.33,1877.53 1130,1923.5C 1118.5,1937.37 1106,1950.2 1092.5,1962C 1085.53,1967.07 1078.03,1971.24 1070,1974.5C 1068.76,1973.6 1067.93,1972.43 1067.5,1971C 1074.58,1953.6 1083.75,1937.43 1095,1922.5C 1133.55,1871.1 1174.72,1821.77 1218.5,1774.5 Z M 2878.5,1796.5 C 2882.51,1796.01 2884.34,1797.68 2884,1801.5C 2852.01,1857.16 2815.34,1909.49 2774,1958.5C 2765.5,1968.33 2756.33,1977.5 2746.5,1986C 2741.51,1990.16 2736.18,1993.83 2730.5,1997C 2727.59,1998.32 2724.59,1998.65 2721.5,1998C 2720.68,1996.08 2720.02,1994.08 2719.5,1992C 2722.11,1981.51 2726.28,1971.67 2732,1962.5C 2738.94,1951.89 2746.28,1941.56 2754,1931.5C 2792.08,1883.57 2833.58,1838.57 2878.5,1796.5 Z M 1956.5,1960.5 C 1958.52,1992.05 1953.69,2022.72 1942,2052.5C 1928.71,2085.77 1910.38,2115.77 1887,2142.5C 1896.93,2099.39 1911.26,2057.72 1930,2017.5C 1938.84,1998.48 1947.68,1979.48 1956.5,1960.5 Z"/></g>
<g><path style="opacity:0.962" fill="#edeeed" d="M 1313.5,1496.5 C 1324.56,1495.72 1330.56,1500.89 1331.5,1512C 1329.55,1521.31 1327.05,1530.47 1324,1539.5C 1323.04,1540.89 1321.71,1541.56 1320,1541.5C 1299.62,1534.72 1294.95,1522.05 1306,1503.5C 1308.4,1500.93 1310.9,1498.6 1313.5,1496.5 Z"/></g>
<g><path style="opacity:0.958" fill="#edeeed" d="M 1419.5,1496.5 C 1430.23,1496.22 1435.89,1501.55 1436.5,1512.5C 1434.8,1520.95 1432.64,1529.28 1430,1537.5C 1429.2,1539.97 1427.54,1541.3 1425,1541.5C 1404.43,1534 1400.09,1521 1412,1502.5C 1414.11,1499.88 1416.61,1497.88 1419.5,1496.5 Z"/></g>
</svg>
