<?xml version="1.0" encoding="utf-8"?>
<!-- Generator: Adobe Illustrator 27.0.0, SVG Export Plug-In . SVG Version: 6.00 Build 0)  -->
<svg version="1.1" id="Layer_1" xmlns="http://www.w3.org/2000/svg" xmlns:xlink="http://www.w3.org/1999/xlink" x="0px" y="0px"
	 viewBox="0 0 576 432" style="enable-background:new 0 0 576 432;" xml:space="preserve">
<style type="text/css">
	.st0{fill:#EEEEEE;}
	.st1{fill:#57B35C;}
	.st2{fill:#FFFFFF;}
</style>
<g>
	<rect x="287.1" y="113.1" transform="matrix(0.866 -0.5 0.5 0.866 -61.9064 178.2604)" class="st0" width="29.1" height="183.1"/>
	<polygon class="st0" points="255.9,154.5 287.5,99.7 317.5,151.7 277.6,220.9 357.7,221.3 378.9,257.9 378.9,257.9 402.3,298.5 
		435.9,298.5 374.6,192.3 327.8,192 351.1,151.7 287.5,41.5 239.1,125.4 	"/>
	<polygon class="st0" points="317.7,298.5 372.7,298.5 355.9,269.4 300.9,269.4 	"/>
	<polygon class="st1" points="224.3,151 139.1,298.5 172.7,298.5 241.1,180.1 	"/>
	<polygon class="st1" points="308.4,333.8 226,191.2 200.8,205.7 274.8,333.8 	"/>
	<g>
		<path class="st2" d="M211.8,269.2L211.8,269.2v13.5h-13.4v-0.1C198.5,275.2,204.5,269.2,211.8,269.2z"/>
		<path class="st2" d="M214.2,269.2L214.2,269.2c7.4,0,13.4,6,13.4,13.4v0.1h-13.4V269.2z"/>
		<rect x="198.5" y="285" class="st2" width="13.4" height="13.5"/>
		<rect x="214.2" y="285" class="st2" width="13.4" height="13.5"/>
	</g>
	<g>
		<path class="st0" d="M97,360.6v6.9H89v22.3h-8v-22.3h-8v-6.9H97z"/>
		<path class="st0" d="M129.8,387.6c-1.8,1.9-4.9,2.9-9.1,2.9c-4.2,0-7.2-1-9.1-2.9c-1.8-1.9-2.7-5-2.7-9.1v-17.9h8v17.9
			c0,1.8,0.3,3.1,0.8,3.9s1.6,1.1,3,1.1c1.4,0,2.4-0.4,3-1.1s0.8-2,0.8-3.9v-17.9h8v17.9C132.5,382.7,131.6,385.7,129.8,387.6z"/>
		<path class="st0" d="M168.4,360.6v6.9h-8.1v22.3h-8v-22.3h-8v-6.9H168.4z"/>
		<path class="st0" d="M201.2,387.6c-1.8,1.9-4.9,2.9-9.1,2.9c-4.2,0-7.2-1-9.1-2.9c-1.8-1.9-2.7-5-2.7-9.1v-17.9h8v17.9
			c0,1.8,0.3,3.1,0.8,3.9s1.6,1.1,3,1.1c1.4,0,2.4-0.4,3-1.1s0.8-2,0.8-3.9v-17.9h8v17.9C203.9,382.7,203,385.7,201.2,387.6z"/>
		<path class="st0" d="M242,360.6v29.3h-7.2l-9.3-15.8h-0.1v15.8h-7.8v-29.3h7.1l9.4,15.8h0.1v-15.8H242z"/>
		<path class="st0" d="M261.8,379v1c0,1.2,0.2,2.1,0.6,2.7s1,0.9,1.9,0.9s1.5-0.3,1.9-0.8c0.4-0.5,0.6-1.4,0.6-2.6v-19.5h8v19.6
			c0,3.4-0.8,6-2.5,7.7c-1.6,1.7-4.3,2.6-8,2.6c-3.6,0-6.1-0.9-7.7-2.7c-1.6-1.8-2.4-4.4-2.4-7.8v-1H261.8z"/>
		<path class="st0" d="M296.6,360.6v29.3h-8v-29.3H296.6z"/>
		<path class="st1" d="M318.6,380.5v9.4h-8v-29.3h11.6c4.1,0,7,0.8,8.8,2.4c1.7,1.6,2.6,4.1,2.6,7.7v0.1c0,4.6-1.9,7.5-5.6,8.8
			l6.6,10.4h-8.4l-5.7-9.4H318.6z M318.5,374.4h3.6c1.4,0,2.3-0.3,2.8-0.9c0.5-0.6,0.8-1.5,0.8-2.7v-0.1c0-1.2-0.3-2.1-0.8-2.7
			c-0.5-0.5-1.5-0.8-2.8-0.8h-3.6V374.4z"/>
		<path class="st1" d="M366.7,360.6v6.7h-12.1v4.5h10.9v6.3h-10.9v5h12.3v6.7h-20.3v-29.3H366.7z"/>
		<path class="st1" d="M387.4,360.6h8.3l10,29.3h-8.1l-1.6-5.5h-9.1l-1.6,5.5h-8.1L387.4,360.6z M388.9,378.3h5.4l-2.6-9.6h-0.1
			L388.9,378.3z"/>
		<path class="st1" d="M435.7,382.9v7H417v-29.3h8v22.3H435.7z"/>
		<path class="st1" d="M466.1,360.6v6.9H458v22.3h-8v-22.3h-8v-6.9H466.1z"/>
		<path class="st1" d="M489.2,371.8l5.2-11.1h8.6l-9.8,18.5v10.8h-8v-10.8l-9.8-18.5h8.6L489.2,371.8z"/>
	</g>
</g>
</svg>
