<?xml version="1.0" encoding="utf-8"?>
<!-- Generator: Adobe Illustrator 27.0.0, SVG Export Plug-In . SVG Version: 6.00 Build 0)  -->
<svg version="1.1" id="Layer_1" xmlns="http://www.w3.org/2000/svg" xmlns:xlink="http://www.w3.org/1999/xlink" x="0px" y="0px"
	 viewBox="0 0 576 495" style="enable-background:new 0 0 576 495;" xml:space="preserve">
<style type="text/css">
	.st0{fill:#9FA1A1;}
	.st1{fill:#FBC010;}
	.st2{fill:#BBB230;}
	.st3{fill:#D8DC49;}
	.st4{fill:#EC692E;}
	.st5{fill:#FFFFFF;}
	.st6{fill:#EEEEEE;}
	.st7{fill:#57B35C;}
</style>
<g>
	<polygon class="st0" points="449,418.2 451.9,420.9 451.9,429.2 445.5,429.2 445.6,421.3 	"/>
</g>
<g>
	<rect x="454.9" y="414.5" class="st1" width="7.5" height="12.1"/>
</g>
<g>
	<rect x="465.1" y="406.4" class="st2" width="5.5" height="21.5"/>
</g>
<g>
	<polygon class="st0" points="471.8,415.5 471.8,424.3 479.2,424.3 479.2,409.4 475.5,409.4 475.5,411.6 475.2,411.6 475.2,415.5 	
		"/>
</g>
<g>
	<polygon class="st3" points="484.3,416.4 486.6,418.5 486.6,425.1 482.5,425.1 482.5,418.1 	"/>
</g>
<g>
	<polygon class="st4" points="496,422.5 500.9,424.8 500.9,429.4 490.7,429.4 490.7,425 	"/>
</g>
<g>
	<g>
		<g>
			<path class="st5" d="M446.8,439.7c-0.6,0.2-1.3,0.4-1.9,0.4c-2.4,0-3.8-1.7-3.8-3.7c0-1.4,0.6-2.6,1.7-3.3c0.7-0.4,1.3-0.5,2-0.5
				c0.7,0,1.4,0.3,1.7,0.3c0.1,0,0.2,0,0.2-0.1h0.1v1.5h-0.1c-0.5-0.4-1.1-0.6-1.9-0.6c-1.4,0-2.4,1.1-2.4,2.7
				c0,1.5,0.9,2.6,2.4,2.6c0.7,0,1.4-0.2,1.9-0.7l0.1,0L446.8,439.7z"/>
		</g>
		<g>
			<path class="st5" d="M450.2,439.8c-0.4,0-0.9,0-1.2,0v-0.1c0.5-0.1,0.5-0.6,0.5-1.5v-3.8c0-0.9,0-1.4-0.5-1.5v-0.1
				c0.4,0,0.8,0,1.2,0c0.4,0,0.8,0,1.2,0v0.1c-0.5,0.1-0.5,0.6-0.5,1.5v3.8c0,1,0.1,1.4,0.5,1.5v0.1
				C451.1,439.9,450.6,439.8,450.2,439.8z"/>
		</g>
		<g>
			<path class="st5" d="M458.4,434.3c-0.2-0.4-0.5-0.5-1.2-0.5h-0.6v4.4c0,1,0.1,1.4,0.6,1.5v0.1c-0.4,0-0.8,0-1.3,0
				c-0.4,0-0.8,0-1.2,0v-0.1c0.5-0.1,0.5-0.6,0.5-1.5v-4.4h-0.5c-0.7,0-1,0.1-1.2,0.5h-0.1l0.1-1.5h4.9l0.1,1.5H458.4z"/>
		</g>
		<g>
			<path class="st5" d="M466.1,433.7l-1.8,3v1.5c0,1,0.1,1.4,0.5,1.5v0.1c-0.4,0-0.8,0-1.2,0s-0.8,0-1.2,0v-0.1
				c0.5-0.1,0.5-0.6,0.5-1.5v-1.5l-1.7-3c-0.3-0.5-0.5-0.8-0.8-0.9v-0.1c0.3,0,0.7,0,1,0c0.4,0,0.9,0,1.3,0v0.1
				c-0.1,0-0.2,0.1-0.2,0.2c0,0.1,0,0.2,0.1,0.3l1.2,2.2l1.2-2.1c0-0.1,0.1-0.2,0.1-0.3c0-0.1-0.1-0.2-0.2-0.2v-0.1
				c0.4,0,0.8,0,1.2,0c0.3,0,0.6,0,1,0v0.1C466.5,433,466.4,433.2,466.1,433.7z"/>
		</g>
		<g>
			<path class="st5" d="M470.4,440c-0.6,0-1.1-0.1-1.7-0.3l-0.1-1.4l0.1,0c0.4,0.5,1,0.8,1.7,0.8c0.7,0,1.3-0.4,1.3-1.1
				c0-0.6-0.4-0.8-2.2-1.8c-0.4-0.2-0.8-0.9-0.8-1.5c0-1.2,0.9-2,2.2-2c0.8,0,1.3,0.2,1.5,0.2c0.1,0,0.2,0,0.2-0.1h0.1v1.5h-0.1
				c-0.4-0.5-0.9-0.7-1.5-0.7c-0.6,0-1.1,0.4-1.1,0.9c0,1.2,3,1,3,3.4C472.9,439.2,471.9,440,470.4,440z"/>
		</g>
		<g>
			<path class="st5" d="M480.9,439.7c-0.6,0.2-1.3,0.4-1.9,0.4c-2.4,0-3.8-1.7-3.8-3.7c0-1.4,0.6-2.6,1.7-3.3c0.7-0.4,1.3-0.5,2-0.5
				c0.7,0,1.4,0.3,1.7,0.3c0.1,0,0.2,0,0.2-0.1h0.1v1.5h-0.1c-0.5-0.4-1.1-0.6-1.9-0.6c-1.4,0-2.4,1.1-2.4,2.7
				c0,1.5,0.9,2.6,2.4,2.6c0.7,0,1.4-0.2,1.9-0.7l0.1,0L480.9,439.7z"/>
		</g>
		<g>
			<path class="st5" d="M489.1,439.8c-0.4,0-0.9,0-1.3,0v-0.1c0.2,0,0.3-0.1,0.3-0.4c0-0.1-0.1-0.3-0.1-0.4l-0.3-0.8H485l-0.4,0.9
				c0,0.1-0.1,0.3-0.1,0.4c0,0.2,0.1,0.3,0.3,0.3v0.1c-0.4,0-0.8,0-1.2,0c-0.3,0-0.6,0-0.9,0v-0.1c0.3-0.1,0.4-0.4,0.6-0.8l3-6.5
				h0.2l3,6.6c0.2,0.4,0.3,0.6,0.6,0.7v0.1C489.7,439.9,489.4,439.8,489.1,439.8z M486.3,434.9l-0.9,2.2h1.9L486.3,434.9z"/>
		</g>
		<g>
			<path class="st5" d="M494.8,437.1c-0.2,0-0.4,0-0.5-0.1l-0.3-1l0.1,0c0.1,0,0.3,0,0.4,0c0.6,0,1.2-0.4,1.2-1.2
				c0-0.6-0.5-1.1-1.4-1.1c-0.3,0-0.5,0.1-0.7,0.1v4.4c0,1,0.1,1.5,0.5,1.5v0.1c-0.4,0-0.9,0-1.2,0c-0.4,0-0.8,0-1.2,0v-0.1
				c0.5-0.1,0.5-0.6,0.5-1.5v-3.8c0-0.9,0-1.4-0.5-1.5v-0.1h2.4c0.7,0,1.3,0,1.6,0.2c0.9,0.3,1.4,1,1.4,1.9
				C497.1,436.2,496.1,437.1,494.8,437.1z"/>
		</g>
		<g>
			<path class="st5" d="M503.8,439.9h-4.6v-0.1c0.5-0.1,0.5-0.6,0.5-1.5v-3.7c0-0.9,0-1.4-0.5-1.5v-0.1h4.6v1.6h-0.1
				c-0.2-0.4-0.5-0.5-1.2-0.5h-1.4v1.8h1.2c0.7,0,1-0.1,1.2-0.5h0.1c0,0.3,0,0.7,0,1c0,0.3,0,0.7,0,1h-0.1c-0.1-0.4-0.5-0.5-1.1-0.5
				h-1.2v1.6c0,0.6,0.2,0.6,0.8,0.6h0.7c0.8,0,1.1-0.2,1.3-0.6l0.1,0L503.8,439.9z"/>
		</g>
	</g>
	<g>
		<g>
			<path class="st5" d="M442.4,442.5c0.5,0,0.7,0.2,0.7,0.6v0.2c0,0.3-0.1,0.5-0.4,0.5c0.3,0.1,0.4,0.3,0.4,0.5v0.4
				c0,0.1,0,0.2,0.1,0.3h-0.3c0-0.1-0.1-0.1-0.1-0.3v-0.4c0-0.3-0.2-0.4-0.5-0.4h-0.2v1.1h-0.3v-2.6H442.4z M442.4,443.7
				c0.3,0,0.4-0.1,0.4-0.4v-0.2c0-0.2-0.1-0.4-0.4-0.4h-0.3v0.9H442.4z"/>
		</g>
		<g>
			<path class="st5" d="M445.4,443.6v0.3h-0.8v0.9h0.9v0.3h-1.3v-2.6h1.3v0.3h-0.9v0.9H445.4z"/>
		</g>
		<g>
			<path class="st5" d="M447.1,444.6l-0.1,0.5h-0.3l0.6-2.6h0.5l0.6,2.6H448l-0.1-0.5H447.1z M447.2,444.3h0.7l-0.3-1.5L447.2,444.3
				z"/>
		</g>
		<g>
			<path class="st5" d="M449.5,445.1v-2.6h0.3v2.3h0.9v0.3H449.5z"/>
		</g>
		<g>
			<path class="st5" d="M454.4,443.6v0.3h-0.8v0.9h0.9v0.3h-1.3v-2.6h1.3v0.3h-0.9v0.9H454.4z"/>
		</g>
		<g>
			<path class="st5" d="M457.1,443.1L457.1,443.1l-0.3,0.1v-0.1c0-0.2-0.1-0.4-0.4-0.4c-0.2,0-0.4,0.1-0.4,0.4c0,0.6,1,0.6,1,1.3
				c0,0.4-0.2,0.6-0.7,0.6c-0.5,0-0.7-0.3-0.7-0.6v-0.1h0.3v0.2c0,0.2,0.1,0.4,0.4,0.4c0.2,0,0.4-0.1,0.4-0.4c0-0.6-1-0.6-1-1.3
				c0-0.4,0.2-0.6,0.7-0.6C456.9,442.5,457.1,442.7,457.1,443.1z"/>
		</g>
		<g>
			<path class="st5" d="M458.7,445.1v-2.3h-0.6v-0.3h1.5v0.3h-0.6v2.3H458.7z"/>
		</g>
		<g>
			<path class="st5" d="M460.9,444.6l-0.1,0.5h-0.3l0.6-2.6h0.5l0.6,2.6h-0.3l-0.1-0.5H460.9z M460.9,444.3h0.7l-0.3-1.5
				L460.9,444.3z"/>
		</g>
		<g>
			<path class="st5" d="M463.7,445.1v-2.3h-0.6v-0.3h1.5v0.3h-0.6v2.3H463.7z"/>
		</g>
		<g>
			<path class="st5" d="M466.8,443.6v0.3h-0.8v0.9h0.9v0.3h-1.3v-2.6h1.3v0.3h-0.9v0.9H466.8z"/>
		</g>
		<g>
			<path class="st5" d="M469.7,445.1v-2.6h0.3v2.3h0.9v0.3H469.7z"/>
		</g>
		<g>
			<path class="st5" d="M472.2,445.1v-2.3h-0.6v-0.3h1.5v0.3h-0.6v2.3H472.2z"/>
		</g>
		<g>
			<path class="st5" d="M475,442.5c0.5,0,0.7,0.2,0.7,0.6v1.3c0,0.4-0.2,0.6-0.7,0.6h-0.7v-2.6H475z M475,444.8
				c0.2,0,0.4-0.1,0.4-0.4v-1.3c0-0.2-0.1-0.4-0.4-0.4h-0.4v2H475z"/>
		</g>
		<g>
			<path class="st5" d="M477.4,445.1h-0.1v-0.4h0.3v0.3l-0.2,0.3h-0.1L477.4,445.1z"/>
		</g>
		<g>
			<path class="st5" d="M482.1,442.5c0.5,0,0.7,0.2,0.7,0.6v0.1c0,0.3-0.1,0.4-0.4,0.5c0.3,0.1,0.4,0.3,0.4,0.5v0.2
				c0,0.4-0.2,0.6-0.7,0.6h-0.7v-2.6H482.1z M482,443.6c0.3,0,0.4-0.1,0.4-0.3v-0.1c0-0.2-0.1-0.3-0.3-0.3h-0.3v0.8H482z
				 M482.1,444.8c0.3,0,0.4-0.1,0.4-0.3v-0.2c0-0.3-0.1-0.4-0.4-0.4h-0.3v1H482.1z"/>
		</g>
		<g>
			<path class="st5" d="M484.7,442.5c0.5,0,0.7,0.2,0.7,0.6v0.2c0,0.3-0.1,0.5-0.4,0.5c0.3,0.1,0.4,0.3,0.4,0.5v0.4
				c0,0.1,0,0.2,0.1,0.3h-0.3c0-0.1-0.1-0.1-0.1-0.3v-0.4c0-0.3-0.2-0.4-0.5-0.4h-0.2v1.1H484v-2.6H484.7z M484.6,443.7
				c0.3,0,0.4-0.1,0.4-0.4v-0.2c0-0.2-0.1-0.4-0.4-0.4h-0.3v0.9H484.6z"/>
		</g>
		<g>
			<path class="st5" d="M486.5,443.1c0-0.4,0.2-0.6,0.7-0.6c0.5,0,0.7,0.3,0.7,0.6v1.3c0,0.4-0.2,0.6-0.7,0.6
				c-0.5,0-0.7-0.3-0.7-0.6V443.1z M486.9,444.5c0,0.2,0.1,0.4,0.4,0.4c0.3,0,0.4-0.1,0.4-0.4v-1.3c0-0.2-0.1-0.4-0.4-0.4
				c-0.2,0-0.4,0.1-0.4,0.4V444.5z"/>
		</g>
		<g>
			<path class="st5" d="M489.7,444l-0.2,0.3v0.9h-0.3v-2.6h0.3v1.2l0.8-1.2h0.3l-0.8,1.2l0.8,1.4h-0.4L489.7,444z"/>
		</g>
		<g>
			<path class="st5" d="M492.9,443.6v0.3h-0.8v0.9h0.9v0.3h-1.3v-2.6h1.3v0.3h-0.9v0.9H492.9z"/>
		</g>
		<g>
			<path class="st5" d="M494.9,442.5c0.5,0,0.7,0.2,0.7,0.6v0.2c0,0.3-0.1,0.5-0.4,0.5c0.3,0.1,0.4,0.3,0.4,0.5v0.4
				c0,0.1,0,0.2,0.1,0.3h-0.3c0-0.1-0.1-0.1-0.1-0.3v-0.4c0-0.3-0.2-0.4-0.5-0.4h-0.2v1.1h-0.3v-2.6H494.9z M494.8,443.7
				c0.3,0,0.4-0.1,0.4-0.4v-0.2c0-0.2-0.1-0.4-0.4-0.4h-0.3v0.9H494.8z"/>
		</g>
		<g>
			<path class="st5" d="M497.2,444.6l-0.1,0.5h-0.3l0.6-2.6h0.5l0.6,2.6h-0.3l-0.1-0.5H497.2z M497.2,444.3h0.7l-0.3-1.5
				L497.2,444.3z"/>
		</g>
		<g>
			<path class="st5" d="M500.9,443.1v0.2h-0.3v-0.2c0-0.2-0.1-0.4-0.4-0.4c-0.2,0-0.4,0.1-0.4,0.4v1.3c0,0.2,0.1,0.4,0.4,0.4
				c0.3,0,0.4-0.1,0.4-0.4V444h-0.3v-0.3h0.6v0.8c0,0.4-0.2,0.6-0.7,0.6c-0.5,0-0.7-0.3-0.7-0.6v-1.3c0-0.4,0.2-0.6,0.7-0.6
				C500.7,442.5,500.9,442.7,500.9,443.1z"/>
		</g>
		<g>
			<path class="st5" d="M503.2,443.6v0.3h-0.8v0.9h0.9v0.3h-1.3v-2.6h1.3v0.3h-0.9v0.9H503.2z"/>
		</g>
		<g>
			<circle class="st5" cx="476.8" cy="444.9" r="0.2"/>
		</g>
	</g>
</g>
<g>
	<g>
		<rect x="441.1" y="428.9" class="st5" width="62.9" height="0.9"/>
	</g>
	<g>
		<path class="st5" d="M466.8,429.6h-11.5v-10.8h5.3v3.6h2.5v-6h-2.6V413h-2v-2.7h-2.8v2.7h-2v13.2h-3.3v-4.6l-2.3-2.1l-2.3,2.1v7.6
			h-0.9v-8l3.2-2.9l3.1,2.9v4.1h1.5v-13.2h2v-2.7h4.6v2.7h2v3.3h2.6v7.7h-4.2v-3.6h-3.5v9h9.7v-24.3h6.2v10.4h2.6v-3.5h2.4v-3h4.1
			v13.2h1.3v-3.3l2.7-2.5l2.8,2.4v3.3h2.4v2.9l4.4-2l5.2,2.4v4.5h-0.9v-4l-4.3-2l-5.3,2.3v-3.3H488v4.4h-17.5v-5.3h9.8v-12.4H478v3
			h-2.4v3.5h-4.3v-10.4h-4.5V429.6z M471.4,425.9h15.7v-3.5h-3.7v2.6h-3.1v-2.6h-8.9V425.9z M481.3,424.1h1.3v-1.8h-1.3V424.1z
			 M483.5,421.5h3.7v-2.9l-1.9-1.6l-1.8,1.7V421.5z"/>
	</g>
	<g>
		<rect x="497.7" y="422.3" class="st5" width="0.9" height="2.2"/>
	</g>
	<g>
		<rect x="468.6" y="401.3" class="st5" width="0.9" height="3.4"/>
	</g>
	<g>
		<rect x="445.6" y="418.8" class="st5" width="0.9" height="2.1"/>
	</g>
</g>
<g>
	<rect x="446.5" y="421.9" class="st5" width="1.6" height="1.6"/>
</g>
<g>
	<rect x="457.7" y="423.3" class="st5" width="1.6" height="1.6"/>
</g>
<g>
	<rect x="455.7" y="415.8" class="st5" width="1.6" height="1.6"/>
</g>
<g>
	<rect x="467.5" y="424.3" class="st5" width="1.6" height="1.6"/>
</g>
<g>
	<rect x="467.5" y="421.7" class="st5" width="1.6" height="1.6"/>
</g>
<g>
	<rect x="467.5" y="419" class="st5" width="1.6" height="1.6"/>
</g>
<g>
	<rect x="467.5" y="416.4" class="st5" width="1.6" height="1.6"/>
</g>
<g>
	<rect x="473" y="418.3" class="st5" width="1.6" height="1.6"/>
</g>
<g>
	<rect x="476" y="415.8" class="st5" width="1.6" height="1.6"/>
</g>
<g>
	<rect x="483.9" y="418.7" class="st5" width="1.6" height="1.6"/>
</g>
<g>
	<rect x="492.8" y="425.7" class="st5" width="1.6" height="1.6"/>
</g>
<g>
	<rect x="495.7" y="425.7" class="st5" width="1.6" height="1.6"/>
</g>
<g>
	<rect x="467.5" y="413.7" class="st5" width="1.6" height="1.6"/>
</g>
<g>
	<rect x="467.5" y="411.1" class="st5" width="1.6" height="1.6"/>
</g>
<g>
	<rect x="467.5" y="408.4" class="st5" width="1.6" height="1.6"/>
</g>
<g>
	<rect x="446.5" y="425.6" class="st5" width="1.6" height="1.6"/>
</g>
<g>
	<rect x="287.1" y="120.2" transform="matrix(0.866 -0.5 0.5 0.866 -65.4736 179.2162)" class="st6" width="29.1" height="183.1"/>
	<polygon class="st6" points="255.9,161.6 287.5,106.8 317.5,158.8 277.6,228 357.7,228.4 378.9,265 378.9,265 402.3,305.6 
		435.9,305.6 374.6,199.4 327.8,199.2 351.1,158.8 287.5,48.6 239.1,132.5 	"/>
	<polygon class="st6" points="317.7,305.6 372.7,305.6 355.9,276.5 300.9,276.5 	"/>
	<polygon class="st7" points="224.3,158.2 139.1,305.6 172.7,305.6 241.1,187.3 	"/>
	<polygon class="st7" points="308.4,340.9 226,198.3 200.8,212.8 274.8,340.9 	"/>
	<g>
		<path class="st5" d="M211.8,276.3L211.8,276.3v13.5h-13.4v-0.1C198.5,282.3,204.5,276.3,211.8,276.3z"/>
		<path class="st5" d="M214.2,276.3L214.2,276.3c7.4,0,13.4,6,13.4,13.4v0.1h-13.4V276.3z"/>
		<rect x="198.5" y="292.2" class="st5" width="13.4" height="13.5"/>
		<rect x="214.2" y="292.2" class="st5" width="13.4" height="13.5"/>
	</g>
	<g>
		<path class="st6" d="M97,367.8v6.9H89V397h-8v-22.3h-8v-6.9H97z"/>
		<path class="st6" d="M129.8,394.8c-1.8,1.9-4.9,2.9-9.1,2.9c-4.2,0-7.2-1-9.1-2.9c-1.8-1.9-2.7-5-2.7-9.1v-17.9h8v17.9
			c0,1.8,0.3,3.1,0.8,3.9s1.6,1.1,3,1.1c1.4,0,2.4-0.4,3-1.1s0.8-2,0.8-3.9v-17.9h8v17.9C132.5,389.8,131.6,392.8,129.8,394.8z"/>
		<path class="st6" d="M168.4,367.8v6.9h-8.1V397h-8v-22.3h-8v-6.9H168.4z"/>
		<path class="st6" d="M201.2,394.8c-1.8,1.9-4.9,2.9-9.1,2.9c-4.2,0-7.2-1-9.1-2.9c-1.8-1.9-2.7-5-2.7-9.1v-17.9h8v17.9
			c0,1.8,0.3,3.1,0.8,3.9s1.6,1.1,3,1.1c1.4,0,2.4-0.4,3-1.1s0.8-2,0.8-3.9v-17.9h8v17.9C203.9,389.8,203,392.8,201.2,394.8z"/>
		<path class="st6" d="M242,367.8V397h-7.2l-9.3-15.8h-0.1V397h-7.8v-29.3h7.1l9.4,15.8h0.1v-15.8H242z"/>
		<path class="st6" d="M261.8,386.2v1c0,1.2,0.2,2.1,0.6,2.7s1,0.9,1.9,0.9s1.5-0.3,1.9-0.8c0.4-0.5,0.6-1.4,0.6-2.6v-19.5h8v19.6
			c0,3.4-0.8,6-2.5,7.7c-1.6,1.7-4.3,2.6-8,2.6c-3.6,0-6.1-0.9-7.7-2.7c-1.6-1.8-2.4-4.4-2.4-7.8v-1H261.8z"/>
		<path class="st6" d="M296.6,367.8V397h-8v-29.3H296.6z"/>
		<path class="st7" d="M318.6,387.6v9.4h-8v-29.3h11.6c4.1,0,7,0.8,8.8,2.4c1.7,1.6,2.6,4.1,2.6,7.7v0.1c0,4.6-1.9,7.5-5.6,8.8
			l6.6,10.4h-8.4l-5.7-9.4H318.6z M318.5,381.5h3.6c1.4,0,2.3-0.3,2.8-0.9c0.5-0.6,0.8-1.5,0.8-2.7v-0.1c0-1.2-0.3-2.1-0.8-2.7
			c-0.5-0.5-1.5-0.8-2.8-0.8h-3.6V381.5z"/>
		<path class="st7" d="M366.7,367.8v6.7h-12.1v4.5h10.9v6.3h-10.9v5h12.3v6.7h-20.3v-29.3H366.7z"/>
		<path class="st7" d="M387.4,367.8h8.3l10,29.3h-8.1l-1.6-5.5h-9.1l-1.6,5.5h-8.1L387.4,367.8z M388.9,385.4h5.4l-2.6-9.6h-0.1
			L388.9,385.4z"/>
		<path class="st7" d="M435.7,390.1v7H417v-29.3h8v22.3H435.7z"/>
		<path class="st7" d="M466.1,367.8v6.9H458V397h-8v-22.3h-8v-6.9H466.1z"/>
		<path class="st7" d="M489.2,378.9l5.2-11.1h8.6l-9.8,18.5V397h-8v-10.8l-9.8-18.5h8.6L489.2,378.9z"/>
	</g>
</g>
<g>
	<path class="st6" d="M250.2,432v-17.2h6.8c2.4,0,4.1,0.4,5.3,1.1c1.1,0.7,1.7,1.9,1.7,3.5v0c0,1-0.2,1.8-0.7,2.4
		c-0.5,0.6-1.1,1-1.8,1.3v0c0.9,0.2,1.6,0.7,2.2,1.3c0.6,0.6,0.9,1.4,0.9,2.5v0c0,1.8-0.6,3.1-1.8,3.8c-1.2,0.8-3,1.2-5.3,1.2H250.2
		z M254.9,418.5v3.1h2.3c0.8,0,1.3-0.1,1.6-0.3c0.3-0.2,0.4-0.6,0.4-1.2v0c0-0.5-0.2-0.9-0.5-1.1c-0.4-0.2-0.9-0.3-1.6-0.3H254.9z
		 M254.9,424.9v3.4h2.6c0.8,0,1.4-0.1,1.7-0.4c0.4-0.3,0.5-0.7,0.5-1.3v-0.1c0-0.6-0.2-1.1-0.5-1.3s-0.9-0.4-1.8-0.4H254.9z"/>
	<path class="st6" d="M272,426.5v5.5h-4.8v-17.2h7.1c2.5,0,4.3,0.5,5.4,1.4c1.1,0.9,1.6,2.4,1.6,4.5v0.1c0,2.7-1.2,4.4-3.6,5.2
		l4.2,6.1h-5l-3.6-5.5H272z M271.9,422.9h2.3c0.8,0,1.4-0.2,1.8-0.5c0.4-0.4,0.5-0.9,0.5-1.6v-0.1c0-0.7-0.2-1.2-0.5-1.6
		c-0.3-0.3-1-0.5-1.8-0.5h-2.3V422.9z"/>
	<path class="st6" d="M292.1,432.4c-5.5,0-8.3-3-8.3-8.9v0c0-6,2.8-8.9,8.3-8.9c5.5,0,8.2,3,8.2,8.9v0
		C300.3,429.4,297.6,432.4,292.1,432.4z M292.1,428.3c1.3,0,2.2-0.4,2.7-1.3c0.5-0.8,0.7-2,0.7-3.6v0c0-1.6-0.2-2.8-0.7-3.6
		c-0.5-0.8-1.4-1.3-2.7-1.3c-1.3,0-2.2,0.4-2.7,1.3c-0.5,0.8-0.7,2-0.7,3.6v0c0,1.6,0.2,2.8,0.7,3.6
		C289.9,427.9,290.8,428.3,292.1,428.3z"/>
	<path class="st6" d="M318.8,414.8l-6.6,7.3l6.9,9.9H314l-4.7-6.5l-1.4,1.6v4.9h-4.8v-17.2h4.8v6.4l5.6-6.4H318.8z"/>
	<path class="st6" d="M333.4,414.8v3.9h-7.7v2.7h6.9v3.7h-6.9v3h7.8v3.9H321v-17.2H333.4z"/>
	<path class="st6" d="M341.3,426.5v5.5h-4.8v-17.2h7.1c2.5,0,4.3,0.5,5.4,1.4c1.1,0.9,1.6,2.4,1.6,4.5v0.1c0,2.7-1.2,4.4-3.6,5.2
		l4.2,6.1h-5l-3.6-5.5H341.3z M341.2,422.9h2.3c0.8,0,1.4-0.2,1.8-0.5c0.4-0.4,0.5-0.9,0.5-1.6v-0.1c0-0.7-0.2-1.2-0.5-1.6
		c-0.3-0.3-1-0.5-1.8-0.5h-2.3V422.9z"/>
	<path class="st6" d="M366.1,414.8v3.9h-7.7v2.7h6.9v3.7h-6.9v3h7.8v3.9h-12.5v-17.2H366.1z"/>
	<path class="st6" d="M376,432h-6.7v-17.2h6.6c3.1,0,5.3,0.7,6.6,2.2c1.3,1.5,2,3.6,2,6.4v0c0,2.8-0.6,5-1.9,6.4
		C381.2,431.3,379.1,432,376,432z M374,428h1.9c1.4,0,2.4-0.3,2.9-1c0.5-0.7,0.7-1.8,0.7-3.5v0c0-1.7-0.3-2.8-0.8-3.5
		c-0.5-0.7-1.5-1-3-1H374V428z"/>
	<path class="st6" d="M395.8,432v-17.2h6.8c2.4,0,4.1,0.4,5.3,1.1c1.1,0.7,1.7,1.9,1.7,3.5v0c0,1-0.2,1.8-0.7,2.4
		c-0.5,0.6-1.1,1-1.8,1.3v0c0.9,0.2,1.6,0.7,2.2,1.3c0.6,0.6,0.9,1.4,0.9,2.5v0c0,1.8-0.6,3.1-1.8,3.8c-1.2,0.8-3,1.2-5.3,1.2H395.8
		z M400.4,418.5v3.1h2.3c0.8,0,1.3-0.1,1.6-0.3c0.3-0.2,0.4-0.6,0.4-1.2v0c0-0.5-0.2-0.9-0.5-1.1c-0.4-0.2-0.9-0.3-1.6-0.3H400.4z
		 M400.4,424.9v3.4h2.6c0.8,0,1.4-0.1,1.7-0.4c0.4-0.3,0.5-0.7,0.5-1.3v-0.1c0-0.6-0.2-1.1-0.5-1.3s-0.9-0.4-1.8-0.4H400.4z"/>
	<path class="st6" d="M419.3,421.4l3.4-6.6h5.1l-6.1,10.9v6.3h-4.8v-6.3l-6.1-10.9h5.1L419.3,421.4z"/>
</g>
</svg>
