<?xml version="1.0" encoding="utf-8"?>
<!-- Svg Vector Icons : http://www.onlinewebfonts.com/icon -->
<!DOCTYPE svg PUBLIC "-//W3C//DTD SVG 1.1//EN" "http://www.w3.org/Graphics/SVG/1.1/DTD/svg11.dtd">
<svg version="1.1" xmlns="http://www.w3.org/2000/svg" xmlns:xlink="http://www.w3.org/1999/xlink" x="0px" y="0px" viewBox="0 0 1000 1000" enable-background="new 0 0 1000 1000" xml:space="preserve">
<metadata> Svg Vector Icons : http://www.onlinewebfonts.com/icon </metadata>
<g><g transform="translate(0.000000,511.000000) scale(0.100000,-0.100000)"><path d="M933.5,4967c-121.2-83.3-123.8-96-126.3-593.6v-474.8H5000h4192.8v469.8c0,272.8-10.1,487.5-25.3,517.8C9096.8,5015,9306.4,5010,4994.9,5010C1266.9,5010,991.6,5007.4,933.5,4967z"/><path d="M1413.4,3651.1c-252.6-138.9-295.5-479.9-85.9-679.4c138.9-131.3,383.9-144,543-32.8c90.9,65.7,174.3,227.3,174.3,341c0,113.7-85.9,275.3-179.3,341C1751.9,3704.1,1534.6,3716.8,1413.4,3651.1z"/><path d="M7280.8,3507.1c-80.8-35.4-159.1-149-159.1-232.4c0-141.4,171.7-267.7,320.8-240c149,27.8,227.3,212.2,156.6,366.2C7551,3509.7,7399.5,3560.2,7280.8,3507.1z"/><path d="M8371.9,3517.2c-103.6-30.3-164.2-116.2-164.2-239.9c0-262.7,346-341,462.2-106.1c40.4,80.8,42.9,108.6,17.7,184.4C8642.2,3492,8510.8,3560.2,8371.9,3517.2z"/><path d="M807.2-1064.5V-4790H5000h4192.8v3725.5V2661H5000H807.2V-1064.5z M5558.2,1585c462.2-85.9,969.9-305.6,1310.9-563.2c212.2-159.1,565.8-527.9,704.7-732.5c161.6-237.4,348.5-646.6,424.3-929.5c63.2-227.3,68.2-285.4,68.2-740c0-454.6-5-512.7-68.2-740c-75.8-282.9-262.7-692.1-424.3-929.5c-149-219.7-477.4-558.2-707.2-729.9C6490.2-4060,6007.8-4267.2,5538-4348c-280.4-48-800.7-48-1083.6,0c-772.9,136.4-1482.6,573.4-1970.1,1212.4c-169.2,222.3-404.1,714.8-479.9,1010.3c-98.5,368.8-113.7,949.7-35.4,1326c146.5,719.8,560.7,1369,1159.3,1821.1c199.5,149,628.9,373.8,868.9,452.1C4462,1625.4,5103.6,1670.9,5558.2,1585z M8427.5-3517c325.8-245,214.7-742.6-176.8-785.5c-222.3-25.3-409.2,101-474.9,320.8c-53,179.3,60.6,414.2,242.5,495C8121.8-3436.2,8344.1-3453.9,8427.5-3517z"/><path d="M4517.6,1180.9C3525,1001.6,2694,228.7,2431.3-764c-55.6-219.7-65.7-300.5-65.7-641.5c0-338.5,10.1-424.3,65.7-634c133.9-505.1,361.2-904.2,722.4-1260.3c464.7-462.2,1050.7-719.8,1710-750.2c366.2-17.7,644.1,17.7,957.3,121.2c1515.5,502.6,2253,2220.2,1566,3649.7c-371.3,770.4-1091.1,1315.9-1929.7,1462.4C5199.5,1228.9,4775.2,1228.9,4517.6,1180.9z M5530.4,688.4c745.1-186.9,1361.4-795.6,1568.5-1550.8c42.9-151.5,55.6-275.3,58.1-505.1l2.5-303.1l-75.8,5.1c-588.5,48-757.7,32.8-1000.2-88.4l-144-70.7l-83.3,60.6c-245,166.7-808.3,250.1-1197.2,174.3c-313.2-60.6-484.9-133.9-618.8-267.8l-118.7-118.7l-106.1,48c-169.2,73.3-517.8,108.6-737.5,75.8c-103.6-17.7-189.4-25.3-197-20.2c-22.7,25.3-50.5,260.1-50.5,442c-5.1,649.1,293,1283.1,795.6,1692.3C4156.4,693.4,4868.7,852.5,5530.4,688.4z"/></g></g>
</svg>