<?xml version="1.0" encoding="utf-8"?>
<!-- Svg Vector Icons : http://www.onlinewebfonts.com/icon -->
<!DOCTYPE svg PUBLIC "-//W3C//DTD SVG 1.1//EN" "http://www.w3.org/Graphics/SVG/1.1/DTD/svg11.dtd">
<svg version="1.1" xmlns="http://www.w3.org/2000/svg" xmlns:xlink="http://www.w3.org/1999/xlink" x="0px" y="0px" viewBox="0 0 1000 1000" enable-background="new 0 0 1000 1000" xml:space="preserve">
<metadata> Svg Vector Icons : http://www.onlinewebfonts.com/icon </metadata>
<g><path d="M844.8,716.2l52.8-256.2l-21.5-2c-3.9,0-82.1-7.8-121.2,48.9l-129.1-27.4l52.8-58.7c3.9-3.9,13.7-13.7,13.7-31.3c2-17.6-5.9-35.2-21.5-52.8c-29.3-33.2-168.2-162.3-195.5-185.8c-7.8-23.5-45-111.5-174-140.8h-2c-2,0-154.5-15.6-205.3,174v2c-11.7,90-27.4,191.6-33.2,205.3c-17.6,27.4-7.8,62.6,7.8,76.3l264,264c2,2,17.6,19.6,45,19.6l0,0c19.6,0,39.1-11.7,56.7-31.3c31.3-39.1,70.4-91.9,86-111.5l217.1,25.4c9.8,29.3,37.2,70.4,89.9,78.2L844.8,716.2z M772.4,616.5l-2-13.7l-267.9-31.3l-5.9,9.8c0,0-52.8,72.4-91.9,119.3c-5.9,7.8-17.6,17.6-27.4,17.6c-7.8,0-15.6-5.9-15.6-7.8l-265.9-264c-2-2-7.8-17.6-2-27.4c13.7-21.5,31.3-158.4,39.1-219C174,49.4,283.5,53.3,295.3,55.3C416.5,84.6,440,168.7,440,172.6l2,5.9l3.9,3.9c2,2,164.3,152.5,195.5,187.7c13.7,15.6,13.7,25.4,9.8,27.4L549.5,509l224.9,46.9l5.9-13.7c13.7-29.3,45-37.2,66.5-41.1l-35.2,172.1C780.2,657.6,772.4,616.5,772.4,616.5z"/><path d="M236.6,153.1c-91.9,48.9-86,224.9-86,230.7l2,39.1l265.9-209.2L406.7,198C381.3,166.8,312.9,112,236.6,153.1z M191.6,344.7c3.9-54.8,19.6-131,64.5-156.4c13.7-7.8,27.4-9.8,39.1-9.8c29.3,0,54.8,17.6,70.4,31.3L191.6,344.7z"/><path d="M936.7,874.6c-5.9-5.9-27.4-48.9-45-84.1L876,759.3l-17.6,29.3c-11.7,17.6-41.1,66.5-50.8,78.2c-15.6,21.5-11.7,54.8-11.7,58.7v3.9c2,3.9,13.7,41.1,45,54.8c7.8,3.9,17.6,5.9,27.4,5.9c7.8,0,17.6-2,27.4-5.9c29.3-11.7,46.9-31.3,52.8-58.7C950.3,905.9,944.5,884.4,936.7,874.6z M905.4,925.5c-3.9,11.7-13.7,19.6-27.4,25.4c-11.7,3.9-17.6,2-21.5,0c-11.7-5.9-21.5-23.5-23.5-31.3c0-7.8,0-21.5,3.9-27.4c7.8-9.8,21.5-33.2,35.2-52.8c13.7,27.4,27.4,52.8,35.2,60.6C907.3,904,909.3,913.7,905.4,925.5z"/></g>
</svg>