<?xml version="1.0" encoding="utf-8"?>
<!-- Svg Vector Icons : http://www.onlinewebfonts.com/icon -->
<!DOCTYPE svg PUBLIC "-//W3C//DTD SVG 1.1//EN" "http://www.w3.org/Graphics/SVG/1.1/DTD/svg11.dtd">
<svg version="1.1" xmlns="http://www.w3.org/2000/svg" xmlns:xlink="http://www.w3.org/1999/xlink" x="0px" y="0px" viewBox="0 0 1000 1000" enable-background="new 0 0 1000 1000" xml:space="preserve">
<metadata> Svg Vector Icons : http://www.onlinewebfonts.com/icon </metadata>
<g><g transform="translate(0.000000,511.000000) scale(0.100000,-0.100000)"><path d="M4913.7,4844c-30.7-19.2-1106.3-1087.1-2389-2371.7C-88.6-146.9,103.1,66,103.1-229.3c0-126.6,7.7-172.6,49.9-262.7c151.5-324,542.6-462.1,862.8-301c57.5,26.8,686.4,642.3,2034.3,1988.3L5000,3145.2l1951.8-1949.9C8318.9-169.9,8926.7-766.2,8984.2-794.9c320.2-159.2,713.3-19.2,862.8,302.9c42.2,90.1,49.9,136.1,49.9,262.7c0,295.3,191.7,80.5-2431.2,2709.2C6177.3,3770.3,5101.6,4838.2,5072.9,4853.5C5005.8,4888.1,4982.7,4888.1,4913.7,4844z"/><path d="M3086.5,733.2l-1902-1902v-1691.1V-4551l46-53.7l46-53.7H5000h3723.5l46,53.7l46,53.7v1691.1v1691.1L6911.6,735.1c-1045,1045-1905.8,1902-1911.6,1902S4133.4,1780.1,3086.5,733.2z M3730.7,6.5c17.3-17.2,23-164.9,24.9-540.7v-519.6l90.1-57.5c61.4-40.3,105.5-88.2,141.9-161.1l53.7-101.6v-1102.5V-3577l-47.9-46c-46-47.9-47.9-47.9-427.6-47.9h-381.6l-51.8,49.8l-49.9,51.7v1073.7c0,772.7,5.7,1094.8,23,1148.5c24.9,84.4,166.8,255,226.2,274.2c36.4,11.5,38.3,32.6,38.3,534.9c0,379.6,5.7,527.3,23,544.5c13.4,13.4,80.5,23,168.7,23S3717.3,20,3730.7,6.5z M5168.7,6.5c17.3-17.2,23-163,23-542.6v-517.7l67.1-36.4c36.4-21.1,90.1-65.2,117-101.6c105.4-139.9,103.5-107.4,103.5-1290.3V-3577l-47.9-46c-46-47.9-47.9-47.9-427.6-47.9c-377.7,0-381.6,0-433.3,47.9l-49.9,46v1079.4c0,646.1,7.7,1106.3,19.2,1144.6c26.8,97.8,105.5,199.4,191.7,251.2l74.8,47.9l1.9,519.6c0,375.8,5.7,523.4,23,540.7c13.4,13.4,80.5,23,168.7,23C5088.2,29.6,5155.3,20,5168.7,6.5z M6606.7,6.5c17.3-17.2,23-164.9,23-544.5c0-502.3,1.9-523.4,38.3-534.9c59.4-19.2,201.3-189.8,226.3-274.2c17.3-53.7,23-375.8,23-1148.5v-1073.7l-49.8-51.7l-51.8-49.8h-381.6c-379.6,0-381.5,0-427.6,47.9l-47.9,46v1100.5V-1374l53.7,101.6c36.4,72.9,80.5,120.8,141.9,161.1l90.1,57.5v519.6c1.9,375.8,7.7,523.4,24.9,540.7c13.4,13.4,80.5,23,168.7,23S6593.3,20,6606.7,6.5z"/><path d="M3216.9-2175.4v-115H3562h345.1v115v115H3562h-345.1V-2175.4z"/><path d="M3216.9-2798.5v-335.5H3562h345.1v335.5v335.5H3562h-345.1V-2798.5z"/><path d="M4654.9-2175.4v-115H5000h345.1v115v115H5000h-345.1V-2175.4z"/><path d="M4654.9-2798.5v-335.5H5000h345.1v335.5v335.5H5000h-345.1V-2798.5z"/><path d="M6092.9-2175.4v-115H6438h345.1v115v115H6438h-345.1V-2175.4z"/><path d="M6092.9-2798.5v-335.5H6438h345.1v335.5v335.5H6438h-345.1V-2798.5z"/></g></g>
</svg>