<?xml version="1.0" encoding="utf-8"?>
<!-- Svg Vector Icons : http://www.onlinewebfonts.com/icon -->
<!DOCTYPE svg PUBLIC "-//W3C//DTD SVG 1.1//EN" "http://www.w3.org/Graphics/SVG/1.1/DTD/svg11.dtd">
<svg version="1.1" xmlns="http://www.w3.org/2000/svg" xmlns:xlink="http://www.w3.org/1999/xlink" x="0px" y="0px" viewBox="0 0 1000 1000" enable-background="new 0 0 1000 1000" xml:space="preserve">
<metadata> Svg Vector Icons : http://www.onlinewebfonts.com/icon </metadata>
<g><g transform="translate(0.000000,511.000000) scale(0.100000,-0.100000)"><path d="M4769.6,5013.9C2503.9,4898.3,583.1,3216.4,176.6,989.2C74.5,426.6,74.5-201.4,176.6-764c144.5-795.7,485.5-1531.7,1021.1-2206c177.2-223.5,631.9-668.5,855.4-836.2c926.7-699.4,2127-1059.6,3250.2-978.7c680.1,50.1,1227.3,194.6,1826.4,483.6c516.3,250.5,857.3,491.3,1271.6,899.7c485.5,479.7,822.7,959.4,1086.6,1549c551,1221.5,549.1,2708.8-3.9,3939.9C9046.7,3062.3,8283.8,3892.6,7355.2,4407c-558.7,310.2-1173.3,506.7-1805.2,578C5347.6,5008.1,4948.8,5021.6,4769.6,5013.9z M5675.2,4688.3C7725.1,4378.1,9264.4,2833,9580.4,767.6c46.2-310.2,46.2-1001.8,0-1310.1c-156.1-1001.8-583.8-1878.5-1258.1-2572L8172-3268.6l-13.5,77.1c-7.7,42.4-15.4,138.7-15.4,213.8c-1.9,196.5-38.5,539.5-71.3,670.5c-15.4,63.6-50.1,144.5-79,181.1c-121.4,159.9-448.9,306.3-1065.4,479.7c-206.2,57.8-468.2,131-581.8,163.8l-208.1,59.7l-23.1,79c-13.5,44.3-23.1,206.2-23.1,377.6l-1.9,298.6l65.5,106c90.5,148.3,184.9,358.3,271.6,608.8c44.3,131,100.2,250.5,140.6,304.4c84.8,109.8,136.8,246.6,179.2,468.2c42.4,225.4,28.9,387.2-40.4,526l-53.9,106l32.8,173.4c50.1,285.1,55.9,360.3,32.7,576.1c-48.2,447-165.7,757.2-356.4,947.9c-256.2,254.3-641.6,354.5-1369.8,354.5c-1181,0-1577.9-273.6-1714.7-1184.9c-38.5-256.2-36.6-366.1,11.6-637.7l38.5-227.3l-54-107.9c-69.4-134.9-80.9-317.9-36.6-539.5c42.4-210,96.3-348.7,175.3-450.8c36.6-50.1,92.5-169.6,134.9-292.9c84.8-244.7,190.7-483.6,292.9-649.2l73.2-119.5l-1.9-269.7c-1.9-289-25-421.9-84.8-452.8c-19.3-11.6-256.2-80.9-526-154.1c-736-202.3-1048.1-321.7-1219.6-470.1c-146.4-125.2-185-275.5-217.7-847.7c-11.6-190.7-25.1-350.6-30.8-354.5c-5.8-5.8-75.1,59.7-156,142.6c-674.3,703.2-1102,1577.9-1254.2,2570.1C375-234.2,375,459.4,421.3,767.6c134.9,874.7,477.8,1658.8,1011.5,2298.5c803.4,965.2,1915.1,1541.3,3202,1658.8C4814,4740.3,5480.6,4717.2,5675.2,4688.3z M5617.4,3185.6c100.2-13.5,221.6-40.5,269.7-57.8c129.1-44.3,281.3-156.1,344.9-254.3c113.7-169.5,211.9-554.9,213.8-828.4v-136.8l-100.2-23.1c-242.7-52-662.7-115.6-917.1-136.8c-549.1-46.2-1273.5,1.9-1737.8,111.8l-144.5,34.7l-5.8,148.4c-5.8,159.9,48.2,466.2,111.7,639.6c115.6,306.3,335.2,458.5,737.9,510.6C4604,3222.2,5417,3216.4,5617.4,3185.6z M6366.8,1470.9c-21.2-115.6-21.2-131,5.8-146.4c17.3-9.6,50.1-46.2,71.3-82.8c100.2-161.8,3.8-684-140.7-762.9c-32.7-15.4-59.7-80.9-115.6-256.2c-204.2-658.9-508.6-1107.8-867-1277.4C4763.9-1318.9,4207.1-914.3,3864.1,6.6c-38.5,106-86.7,250.5-106,319.8c-25,98.3-44.3,134.9-80.9,154.1c-86.7,46.2-148.3,213.9-179.2,472c-19.3,173.4,0,254.3,79,344.9c57.8,65.5,57.8,69.4,38.5,163.8c-28.9,131-27,140.6,13.5,125.2c90.6-34.7,614.6-107.9,926.7-127.2c512.5-32.8,1269.6,21.2,1716.6,125.2c57.8,13.5,107.9,23.1,111.7,19.3C6388,1601.9,6378.4,1542.1,6366.8,1470.9z M5858.2-1438.3c25-84.8,23.1-98.3-3.9-129.1c-79-88.6-556.8-285.1-693.6-285.1c-19.3,0-25,48.2-25,219.6v221.6l111.7,30.8c134.9,40.5,327.5,138.7,456.6,237l96.3,73.2l13.5-134.9C5823.5-1280.3,5842.8-1384.4,5858.2-1438.3z M4509.6-1291.9c63.6-30.8,169.5-71.3,237-90.6l119.5-32.7v-210v-208.1h-59.7c-92.5,0-396.9,107.9-552.9,198.4c-117.5,67.4-138.7,86.7-129.1,119.5c25,82.8,67.4,323.7,67.4,377.6v55.9l100.2-77.1C4347.7-1201.4,4446-1261.1,4509.6-1291.9z M3983.6-1796.7c235-159.9,660.8-325.6,840-325.6h42.4l-3.9-1188.7l-5.8-1190.6l-134.9,5.8c-423.9,19.3-911.3,121.4-1356.3,285.1C2991.4-4072,2471.2-3785,2213-3573l-82.8,65.5v244.7c1.9,296.7,28.9,707.1,59.7,849.6c44.3,219.6,200.4,294.8,1123.2,543.3c275.5,73.2,504.8,138.7,510.6,142.6C3841-1708.1,3869.9-1719.6,3983.6-1796.7z M6686.6-1869.9c928.6-250.5,1080.8-325.6,1125.1-547.1c28.9-136.8,59.7-589.6,59.7-865.1v-225.4l-80.9-65.5c-635.8-510.6-1651.1-884.3-2500.7-922.9l-144.5-5.8l-5.8,1190.6l-3.9,1188.7h53.9c181.1,0,568.4,148.4,786.1,300.5c84.8,57.8,165.7,100.2,181.1,96.3C6172.2-1729.3,6411.1-1794.8,6686.6-1869.9z"/><path d="M4249.5,1201.1c-192.7-42.4-258.2-138.7-171.5-250.5c34.7-42.4,53.9-50.1,115.6-44.3c71.3,5.8,75.1,3.8,75.1-48.2c0-75.1,50.1-142.6,127.2-167.6c113.7-38.5,227.3,28.9,250.5,148.3c11.6,59.7,17.3,65.5,67.4,53.9c53.9-11.6,129.1,15.4,156.1,55.9c34.7,50.1,15.4,144.5-34.7,183C4731.1,1214.6,4453.7,1247.4,4249.5,1201.1z"/><path d="M5357.3,1208.8c-210-34.7-308.3-123.3-258.2-235c28.9-65.5,119.4-104,179.2-75.1c42.4,19.3,46.2,15.4,57.8-52c25-165.7,211.9-223.5,321.7-102.1c32.7,36.6,55.9,84.8,55.9,115.6c0,50.1,3.9,52,73.2,46.2c88.6-7.7,144.5,44.3,144.5,132.9c0,84.8-55.9,129.1-208.1,161.8C5575,1232,5503.7,1233.9,5357.3,1208.8z"/><path d="M4908.4,382.3c-73.2-30.8-90.5-98.3-61.7-235c42.4-196.5,156.1-265.9,262-158c42.4,40.5,48.2,59.7,36.6,119.5c-27,154.1-52,215.8-100.2,252.4C4991.2,405.4,4973.9,407.4,4908.4,382.3z"/><path d="M4540.4-274.7c-71.3-67.4-50.1-163.8,52-242.7c121.4-92.5,262-127.1,475.9-117.5c140.6,5.8,196.5,17.3,281.3,59.7c134.9,65.5,196.5,131,196.5,206.2c0,136.8-138.7,177.2-265.9,77.1c-73.2-57.8-175.3-96.3-260.1-96.3c-84.8,0-186.9,38.5-260.1,96.3C4675.3-224.6,4602-218.8,4540.4-274.7z"/><path d="M4318.8-2355.4c-65.5-77.1-63.6-142.6,5.8-211.9c69.4-69.4,152.2-73.2,221.6-11.6c77.1,65.5,82.8,148.3,21.2,221.6C4494.1-2270.6,4390.1-2270.6,4318.8-2355.4z"/><path d="M4363.1-2844.8c-61.7-32.8-100.2-121.4-84.8-188.8c19.3-75.1,79-119.5,163.8-119.5c127.2,0,200.4,109.8,152.2,225.4c-21.2,53.9-104,111.7-156.1,111.7C4424.8-2817.8,4390.1-2829.4,4363.1-2844.8z"/><path d="M4340-3393.9c-63.6-50.1-82.8-134.9-44.3-208.1c32.8-63.6,65.5-80.9,152.2-80.9c69.4,1.9,111.8,28.9,146.4,92.5c52,96.3-38.5,235-152.2,235C4413.2-3355.3,4367-3372.7,4340-3393.9z"/><path d="M4316.9-3956.4c-61.7-73.2-55.9-156.1,21.2-221.6c94.4-84.8,244.7-28.9,269.7,102.1c17.3,88.6-67.4,181.1-165.7,181.1C4382.4-3894.8,4357.4-3906.3,4316.9-3956.4z"/><path d="M5395.8-2345.8c-100.2-107.9-27-275.5,121.4-277.4c144.5,0,219.6,200.4,107.9,287.1C5551.9-2278.3,5453.6-2282.2,5395.8-2345.8z"/><path d="M5451.7-2835.1c-111.7-44.3-134.9-183-48.2-271.6c63.6-61.7,111.7-69.4,192.7-27c61.7,30.8,79,63.6,79,150.3c-1.9,75.1-34.7,121.4-104,148.3C5509.5-2812,5505.6-2812,5451.7-2835.1z"/><path d="M5403.5-3411.2c-109.8-111.7-44.3-271.6,113.7-271.6c98.3,0,158,61.7,158,161.8C5675.2-3366.9,5513.3-3301.4,5403.5-3411.2z"/><path d="M5395.8-3942.9c-67.4-65.5-63.6-150.3,7.7-223.5c111.7-109.8,271.7-44.3,271.7,113.7C5675.2-3906.3,5499.8-3837,5395.8-3942.9z"/></g></g>
</svg>