<?xml version="1.0" encoding="utf-8"?>
<!-- Svg Vector Icons : http://www.onlinewebfonts.com/icon -->
<!DOCTYPE svg PUBLIC "-//W3C//DTD SVG 1.1//EN" "http://www.w3.org/Graphics/SVG/1.1/DTD/svg11.dtd">
<svg version="1.1" xmlns="http://www.w3.org/2000/svg" xmlns:xlink="http://www.w3.org/1999/xlink" x="0px" y="0px" viewBox="0 0 1000 1000" enable-background="new 0 0 1000 1000" xml:space="preserve">
<metadata> Svg Vector Icons : http://www.onlinewebfonts.com/icon </metadata>
<g><g transform="translate(0.000000,511.000000) scale(0.100000,-0.100000)"><path d="M442.8,4999.1c-8.3-6.2-14.6-1558.5-14.6-3449.6v-3435h1205.3h1205.3l12.5-56.1c49.9-236.9,257.7-1036.9,372-1429.7c268.1-935.1,423.9-1342.4,529.9-1396.4c41.6-20.8,313.8-24.9,1259.3-20.8c1176.2,4.2,1211.5,6.2,1255.1,45.7c25,22.9,64.4,79,89.4,124.7c118.5,232.7,409.4,1194.9,658.7,2171.6l139.2,550.7l1207.3,6.2l1209.4,4.2l-4.2,3445.4l-6.2,3443.3l-4553,6.2C2504.3,5011.5,449.1,5007.4,442.8,4999.1z M9343.1,1553.7v-3231.4H8333.2H7325.4l-52,60.3c-99.8,118.5-438.5,203.7-1047.3,263.9c-459.2,45.7-1924.3,54-2389.8,12.5c-617.2-56.1-993.3-145.5-1113.8-268.1l-68.6-68.6h-999.5H656.9v3231.4V4785H5000h4343.1V1553.7z M5633.8-1532.2c498.7-22.9,791.7-47.8,1080.6-95.6c222.4-37.4,344.9-70.6,332.5-91.4c-6.2-10.4-91.4-31.2-191.2-49.9c-719-128.8-1945-168.3-2915.5-93.5c-345,24.9-818.8,91.4-926.8,130.9l-81,27l155.9,35.3C3622.3-1546.8,4677.9-1490.7,5633.8-1532.2z M3296-2010.2c74.8-12.5,261.8-35.3,415.6-47.8l280.5-24.9l6.2-411.5l4.2-409.4l-347,4.2l-347,6.2l-49.9,176.6c-27,97.7-79,305.5-118.5,463.4c-66.5,284.7-68.6,288.9-22.9,276.4C3140.1-1981.1,3221.2-1997.7,3296-2010.2z M6847.4-2294.9c-43.7-180.8-95.6-388.6-116.4-463.4l-37.4-135.1l-349.1-6.2l-347-4.2l4.2,409.4l6.2,411.5l290.9,24.9c160,14.5,357.4,39.5,436.4,56.1c81,14.6,155.8,29.1,168.3,31.2C6918-1968.6,6895.2-2095.4,6847.4-2294.9z M4663.4-2107.9l232.7-12.5v-392.8v-390.7h-342.9h-342.9v405.2v405.2h110.1C4378.7-2093.3,4534.5-2099.5,4663.4-2107.9z M5789.7-2498.5v-405.2h-342.9h-342.9v394.8v392.7l266,8.3c145.5,2.1,299.3,8.3,342.9,10.4l76.9,4.2V-2498.5z M4002.5-3454.4v-345l-220.3,6.2l-220.3,6.2l-58.2,187c-31.2,103.9-76.9,255.6-99.7,338.7l-41.6,149.6h320h320V-3454.4z M4896.1-3454.4v-342.9h-342.9h-342.9v342.9v342.9h342.9h342.9V-3454.4z M5789.7-3454.4v-342.9h-342.9h-342.9v342.9v342.9h342.9h342.9V-3454.4z M6587.6-3240.4c-16.6-72.7-60.3-226.5-95.6-342.9l-64.4-214h-216.1h-214v342.9v342.9h309.6h309.6L6587.6-3240.4z M4002.5-4285.7v-280.5h-81h-83.1l-81,214c-45.7,116.4-89.4,243.1-97.7,280.5l-14.6,66.5h178.7h178.7V-4285.7z M4896.1-4285.7v-280.5h-342.9h-342.9v280.5v280.5h342.9h342.9V-4285.7z M5789.7-4285.7v-280.5h-342.9h-342.9v280.5v280.5h342.9h342.9V-4285.7z M6350.7-4021.7c0-22.9-110.1-342.9-155.8-455.1c-33.2-83.1-41.6-89.3-116.4-89.3h-81v280.5v280.5h176.6C6271.8-4005.1,6350.7-4013.4,6350.7-4021.7z"/><path d="M2921.9,556.2v-1589.7H5000h2078.1V556.2v1589.7H5000H2921.9V556.2z M6870.3,556.2V-825.7H5000H3129.8V556.2v1381.9H5000h1870.3V556.2z"/></g></g>
</svg>