<?xml version="1.0" encoding="utf-8"?>
<!-- Svg Vector Icons : http://www.onlinewebfonts.com/icon -->
<!DOCTYPE svg PUBLIC "-//W3C//DTD SVG 1.1//EN" "http://www.w3.org/Graphics/SVG/1.1/DTD/svg11.dtd">
<svg version="1.1" xmlns="http://www.w3.org/2000/svg" xmlns:xlink="http://www.w3.org/1999/xlink" x="0px" y="0px" viewBox="0 0 1000 1000" enable-background="new 0 0 1000 1000" xml:space="preserve">
<metadata> Svg Vector Icons : http://www.onlinewebfonts.com/icon </metadata>
<g><path d="M969.2,713.8c-1.6,0-3.1,0.6-4.6,1c-0.9-0.2-1.3-1-2.3-1c0,0-25.3-13.7-68.2-13.7c-35.4,0-82.8,41.4-137.8,41.4c-42.6,0-89.8-41.4-139.4-41.4c-44.3,0-90.9,41.4-137.9,41.4c-45.9,0-92.2-41.4-137.9-41.4c-47.2,0-93.6,41.4-137.6,41.4c-49.9,0-96.8-41.4-138.4-41.4c-11.9,0-23.3,2-34.3,4.8v1.3c-11.5,0.1-20.8,9.3-20.8,20.7c0,11.5,9.2,20.8,20.7,20.8c2.1,0,3.5-1.6,5.4-2.2c9.2-2.1,18.6-3.9,28.5-3.9c41.4,0,88.2,41.4,137.9,41.4c44.3,0,91-41.4,138.6-41.4c45.9,0,92.7,41.4,138.9,41.4c46.7,0,93-41.4,137.2-41.4c49.4,0,96.2,41.4,138.6,41.4c55.2,0,102.9-41.4,138.4-41.4c42.9,0,68.2,13.8,68.2,13.8c0.9,0,1.4-0.8,2.3-1c1.5,0.4,3,1,4.6,1c11.5,0,20.7-9.2,20.7-20.8C989.9,723,980.7,713.8,969.2,713.8z M969.2,851.8c-1.6,0-3.1,0.6-4.6,1c-0.9-0.2-1.3-1-2.3-1c0,0-25.3-13.8-68.2-13.8c-35.4,0-82.8,41.4-137.8,41.4c-42.6,0-89.8-41.4-139.4-41.4c-44.3,0-90.9,41.4-137.9,41.4c-45.9,0-92.2-41.4-137.9-41.4c-47.2,0-93.6,41.4-137.6,41.4c-49.9,0-96.8-41.4-138.4-41.4c-11.9,0-23.3,2-34.3,4.8v0.4c-11.5,0-20.8,9.2-20.8,20.7c0,11.4,9.2,20.6,20.7,20.6c0.8,0,1.2-0.7,2-0.9c10.3-2.4,20.8-4.3,31.9-4.3c41.4,0,88.2,41.5,137.9,41.5c44.3,0,91-41.5,138.6-41.5c45.9,0,92.7,41.5,138.9,41.5c46.7,0,93-41.5,137.2-41.5c49.4,0,96.2,41.5,138.6,41.5c55.2,0,102.9-41.5,138.4-41.5c42.9,0,68.2,13.8,68.2,13.8c0.9,0,1.4-0.8,2.3-1c1.5,0.4,3,1,4.6,1c11.5,0,20.7-9.2,20.7-20.6C989.9,861,980.7,851.8,969.2,851.8z M30.7,608.6c0.7,0,1.1-0.7,1.7-0.7c10.3-2.4,21-4.4,32.1-4.4c41.4,0,88.2,41.4,137.9,41.4c44.3,0,91-41.4,138.6-41.4c45.9,0,92.7,41.4,138.9,41.4c46.7,0,93-41.4,137.2-41.4c49.4,0,96.2,41.4,138.6,41.4c55.2,0,102.9-41.4,138.4-41.4c42.9,0,68.2,13.7,68.2,13.7c0.9,0,1.4-0.8,2.3-1c1.5,0.4,3,1,4.6,1c11.5,0,20.7-9.2,20.7-20.6c0-11.4-9.2-20.7-20.7-20.7c-1.6,0-3.1,0.6-4.6,1c-0.9-0.2-1.3-1-2.3-1c0,0-25.3-13.8-68.2-13.8c-35.4,0-82.8,41.4-137.8,41.4c-13.7,0-27.8-4.4-42.3-10.2V437.9V295.3v-23v-27.6v-48.1h0.7c3.5-42.5,38.7-76.1,82.1-76.1c43.4,0,78.6,33.5,82.1,76.1h0.7v6.7v41.4V293c0,11.4,9.3,20.7,20.7,20.7c11.5,0,20.7-9.3,20.7-20.7v-89.7c0-68.5-55.5-124.1-124.1-124.1c-68.5,0-124.1,55.6-124.1,124.1v96.6h-276v-69c0-61,49.4-110.4,110.3-110.4c1.3,0,2.6,0.4,4,0.4v-0.4h37.4c11.4,0,20.6-9.2,20.6-20.6c0-11.5-9.2-20.7-20.6-20.7h-45.1v0.4c-82.1,2-148.1,68.8-148.1,151.4v332.5c-4.8-0.8-9.5-1.5-14.3-1.5c-47.2,0-93.6,41.4-137.6,41.4c-49.9,0-96.8-41.4-138.4-41.4c-11.9,0-23.3,2-34.3,4.8v0.4c-11.5,0-20.7,9.3-20.7,20.7C10,599.4,19.2,608.6,30.7,608.6z M396.8,341.3h275.9v96.6H396.8V341.3z M396.8,574.7v-95.5h275.9v96.3c-18.1-7.5-36.8-13.6-55.7-13.6c-44.3,0-90.9,41.4-137.9,41.4c-29,0-58.2-16.6-87.3-28.7L396.8,574.7L396.8,574.7z"/></g>
</svg>