<?xml version="1.0" standalone="no"?>
<!DOCTYPE svg PUBLIC "-//W3C//DTD SVG 20010904//EN"
 "http://www.w3.org/TR/2001/REC-SVG-20010904/DTD/svg10.dtd">
<svg version="1.0" xmlns="http://www.w3.org/2000/svg"
 width="512.000000pt" height="512.000000pt" viewBox="0 0 512.000000 512.000000"
 preserveAspectRatio="xMidYMid meet">

<g transform="translate(0.000000,512.000000) scale(0.100000,-0.100000)"
fill="#000000" stroke="none">
<path d="M845 4904 c-195 -47 -376 -195 -465 -379 -73 -152 -70 -111 -70
-1074 l0 -863 -48 -56 c-136 -159 -222 -352 -252 -567 -8 -54 -10 -303 -8
-771 l3 -690 38 -76 c43 -88 107 -152 195 -195 52 -26 67 -28 167 -28 99 0
116 3 168 27 81 38 161 117 199 197 29 60 32 77 36 184 l4 117 1748 0 1748 0
4 -118 c4 -106 7 -123 36 -183 38 -80 118 -159 199 -197 52 -24 69 -27 168
-27 100 0 115 2 167 28 88 43 152 107 195 195 l38 76 3 695 c2 579 0 712 -12
791 -33 212 -128 412 -265 562 l-51 56 0 849 c0 818 -1 853 -20 929 -53 209
-190 377 -384 468 -148 70 -24 66 -1842 65 -1395 -1 -1648 -3 -1699 -15z
m3376 -200 c30 -9 76 -28 104 -42 62 -31 172 -141 207 -208 59 -109 58 -100
58 -926 0 -417 -1 -758 -3 -758 -1 0 -38 18 -82 40 -44 22 -85 40 -92 40 -10
0 -13 43 -13 188 0 218 -9 279 -56 380 -39 86 -147 200 -230 244 -106 57 -122
58 -689 58 -572 0 -569 0 -687 -62 -32 -17 -85 -57 -118 -90 l-60 -60 -59 59
c-63 64 -144 112 -230 137 -80 23 -1066 24 -1156 1 -84 -22 -150 -61 -228
-134 -53 -50 -77 -82 -107 -145 -51 -107 -60 -164 -60 -386 l0 -187 -41 -13
c-22 -8 -70 -31 -105 -51 l-64 -38 0 773 c0 681 2 779 16 827 49 164 171 291
334 346 l65 22 1621 1 c1461 0 1626 -2 1675 -16z m-1946 -1216 c62 -32 129
-103 158 -166 19 -41 22 -68 25 -219 l4 -172 -749 -4 c-411 -2 -758 -7 -770
-12 l-23 -7 0 159 c0 171 11 234 55 302 39 62 114 120 185 142 14 4 259 7 545
6 l520 -2 50 -27z m1733 4 c70 -37 127 -96 158 -165 28 -60 29 -68 32 -241 l4
-179 -24 8 c-13 5 -360 10 -771 12 l-749 4 4 172 c3 151 6 178 25 219 39 85
125 161 213 189 14 4 259 7 545 6 l520 -2 43 -23z m92 -772 c227 -24 432 -124
579 -286 69 -76 104 -128 151 -226 70 -146 83 -213 88 -460 l4 -217 -522 -3
-522 -3 -29 -33 c-40 -44 -40 -93 0 -133 l29 -29 521 0 521 0 0 -200 0 -200
-2360 0 -2360 0 0 200 0 200 1378 0 c1524 0 1409 -5 1432 65 16 50 -11 105
-60 122 -26 9 -368 12 -1394 12 l-1358 1 4 223 c5 205 7 229 32 311 75 250
226 437 448 555 93 50 220 89 323 100 122 13 2972 13 3095 1z m-3490 -2075 c0
-125 -30 -184 -114 -227 -59 -30 -151 -22 -207 17 -63 45 -83 92 -87 203 l-4
92 206 0 206 0 0 -85z m4308 -7 c-4 -111 -24 -158 -87 -203 -56 -39 -148 -47
-207 -17 -84 43 -114 102 -114 227 l0 85 206 0 206 0 -4 -92z"/>
<path d="M3393 1522 c-34 -5 -73 -58 -73 -99 0 -50 45 -93 97 -93 75 0 118 65
90 133 -8 19 -20 38 -26 42 -20 12 -65 21 -88 17z"/>
</g>
</svg>
