<?xml version="1.0" encoding="UTF-8"?>
<!DOCTYPE svg PUBLIC "-//W3C//DTD SVG 1.1//EN" "http://www.w3.org/Graphics/SVG/1.1/DTD/svg11.dtd">
<svg xmlns="http://www.w3.org/2000/svg" version="1.1" width="512px" height="512px" style="shape-rendering:geometricPrecision; text-rendering:geometricPrecision; image-rendering:optimizeQuality; fill-rule:evenodd; clip-rule:evenodd" xmlns:xlink="http://www.w3.org/1999/xlink">
<g><path style="opacity:0.977" fill="#000000" d="M 511.5,181.5 C 511.5,183.833 511.5,186.167 511.5,188.5C 509.427,197.079 504.26,203.079 496,206.5C 495.667,301.167 495.333,395.833 495,490.5C 493.167,497.667 488.667,502.167 481.5,504C 330.833,504.667 180.167,504.667 29.5,504C 22.3333,502.167 17.8333,497.667 16,490.5C 15.6667,395.833 15.3333,301.167 15,206.5C 6.74004,203.079 1.57337,197.079 -0.5,188.5C -0.5,186.167 -0.5,183.833 -0.5,181.5C 1.65467,170.513 8.32133,164.013 19.5,162C 176.833,161.333 334.167,161.333 491.5,162C 502.666,164 509.332,170.5 511.5,181.5 Z M 20.5,174.5 C 177.167,174.333 333.834,174.5 490.5,175C 497.125,177.886 499.292,182.719 497,189.5C 495.457,191.378 493.624,192.878 491.5,194C 334.167,194.667 176.833,194.667 19.5,194C 10.031,187.03 10.3643,180.53 20.5,174.5 Z M 51.5,227.5 C 124.167,227.333 196.834,227.5 269.5,228C 270.667,229.167 271.833,230.333 273,231.5C 273.667,309.833 273.667,388.167 273,466.5C 272.535,467.931 271.701,469.097 270.5,470C 198.224,471.657 125.89,471.99 53.5,471C 51.1523,470.654 49.3189,469.487 48,467.5C 47.3333,388.833 47.3333,310.167 48,231.5C 48.6897,229.65 49.8564,228.316 51.5,227.5 Z M 391.5,243.5 C 403.327,243.829 407.16,249.496 403,260.5C 395.815,266.525 389.815,265.525 385,257.5C 383.398,250.972 385.565,246.305 391.5,243.5 Z M 317.5,302.5 C 368.834,302.333 420.168,302.5 471.5,303C 474.778,305.288 475.278,308.121 473,311.5C 471.933,312.191 470.766,312.691 469.5,313C 419.5,313.667 369.5,313.667 319.5,313C 313.791,310.345 313.124,306.845 317.5,302.5 Z M 458.5,392.5 C 470.089,392.005 474.255,397.339 471,408.5C 463.415,415.521 457.082,414.521 452,405.5C 450.973,399.554 453.14,395.221 458.5,392.5 Z"/></g>
<g><path style="opacity:0.9" fill="#000000" d="M 243.5,341.5 C 255.842,340.997 260.675,346.664 258,358.5C 252.963,364.99 246.796,366.156 239.5,362C 233.813,353.873 235.147,347.04 243.5,341.5 Z"/></g>
</svg>
