<?xml version="1.0" standalone="no"?>
<!DOCTYPE svg PUBLIC "-//W3C//DTD SVG 20010904//EN"
 "http://www.w3.org/TR/2001/REC-SVG-20010904/DTD/svg10.dtd">
<svg version="1.0" xmlns="http://www.w3.org/2000/svg"
 width="512.000000pt" height="512.000000pt" viewBox="0 0 512.000000 512.000000"
 preserveAspectRatio="xMidYMid meet">

<g transform="translate(0.000000,512.000000) scale(0.100000,-0.100000)"
fill="#000000" stroke="none">
<path d="M1750 4972 c-32 -34 -50 -63 -58 -95 -17 -65 -15 -83 13 -182 l26
-88 -26 -36 c-26 -38 -30 -57 -19 -86 7 -17 54 -45 78 -45 24 0 78 52 97 95
25 54 24 86 -6 186 -29 95 -27 118 16 166 35 41 37 76 4 108 -38 39 -71 33
-125 -23z"/>
<path d="M3846 4990 c-56 -49 -78 -107 -74 -187 3 -38 13 -98 23 -134 l19 -66
-22 -28 c-31 -39 -29 -88 4 -114 46 -36 88 -21 135 49 36 53 38 115 9 208 -28
89 -26 121 10 162 38 46 40 91 4 119 -37 29 -67 26 -108 -9z"/>
<path d="M1374 4898 c-67 -62 -88 -108 -81 -182 3 -34 17 -90 32 -125 l26 -64
-30 -31 c-40 -41 -42 -86 -5 -115 15 -12 36 -21 47 -21 35 0 95 50 118 97 26
54 22 101 -16 194 -34 84 -32 99 15 143 47 43 54 92 20 126 -33 33 -74 26
-126 -22z"/>
<path d="M3479 4917 c-52 -35 -97 -101 -105 -153 -5 -36 -1 -62 20 -122 41
-119 41 -115 7 -150 -38 -37 -40 -74 -6 -107 30 -31 62 -32 105 -2 85 57 100
136 51 262 -17 44 -31 86 -31 93 0 7 20 32 45 56 52 51 58 84 20 121 -30 31
-62 32 -106 2z"/>
<path d="M1020 4282 c-19 -10 -42 -32 -50 -49 -13 -27 -21 -31 -63 -36 -102
-9 -177 -100 -185 -224 -4 -53 0 -72 22 -118 47 -95 163 -173 295 -197 49 -9
66 -18 82 -39 l20 -28 -458 -3 c-413 -3 -462 -5 -497 -21 -234 -105 -247 -426
-23 -537 52 -25 80 -32 154 -37 l91 -6 4 -126 c3 -114 6 -132 31 -183 33 -67
90 -121 166 -157 l56 -26 768 -3 767 -3 -2 -932 -3 -932 -400 -5 c-449 -6
-440 -4 -511 -82 -49 -54 -67 -101 -67 -174 -1 -122 82 -229 198 -254 35 -8
400 -10 1220 -8 l1170 3 40 22 c185 100 195 356 17 460 l-47 28 -415 5 -415 5
-3 362 -2 362 -26 20 c-15 12 -33 21 -40 21 -26 0 -62 -23 -73 -47 -7 -16 -11
-139 -11 -373 l0 -350 -240 0 -240 0 0 935 0 935 240 0 239 0 3 -429 c3 -406
4 -430 22 -450 25 -27 79 -28 106 -1 19 19 20 33 20 450 l0 429 738 3 737 3
56 26 c76 36 133 90 166 157 25 51 28 69 31 183 l4 126 89 6 c199 13 313 121
314 297 0 62 -5 85 -28 132 -32 64 -80 111 -146 142 -44 20 -64 21 -429 24
l-383 3 20 28 c16 21 33 30 82 39 132 24 248 102 295 197 69 143 -16 324 -161
341 -43 5 -52 11 -65 37 -9 16 -31 38 -50 49 -33 17 -66 18 -627 16 l-592 -3
-30 -29 c-17 -16 -36 -45 -42 -64 -21 -65 11 -257 65 -391 29 -72 92 -187 106
-196 35 -22 -28 -25 -495 -25 -278 0 -505 2 -505 4 0 3 14 25 31 50 78 116
141 306 154 461 7 94 -8 135 -64 172 l-34 23 -581 0 c-544 0 -584 -1 -616 -18z
m1144 -179 c-21 -173 -99 -358 -193 -455 l-57 -58 -280 0 -279 0 -37 30 c-104
86 -218 345 -218 496 l0 34 535 0 535 0 -6 -47z m2006 17 c0 -53 -30 -182 -61
-259 -37 -93 -108 -201 -158 -241 l-39 -30 -278 0 -278 0 -56 58 c-93 96 -176
286 -194 445 l-6 57 535 0 535 0 0 -30z m-3216 -82 c2 -7 13 -49 24 -93 11
-44 24 -91 28 -104 l7 -24 -52 29 c-29 15 -61 40 -72 55 -25 36 -24 89 2 123
21 27 57 35 63 14z m3425 -14 c45 -58 16 -132 -69 -178 -47 -25 -52 -27 -48
-10 3 10 16 57 28 104 12 47 24 91 26 98 6 21 42 13 63 -14z m483 -594 c20 -6
50 -26 67 -45 54 -62 51 -143 -10 -201 l-30 -29 -1087 -5 c-598 -3 -1088 -6
-1089 -8 -1 -1 -11 -12 -23 -24 -37 -40 -21 -97 34 -118 18 -7 330 -10 932
-10 l904 0 0 -103 c0 -125 -21 -178 -86 -214 l-39 -23 -1875 0 -1875 0 -39 23
c-65 36 -86 89 -86 213 l0 104 929 2 c897 3 930 4 950 22 29 26 29 86 0 112
-20 18 -57 19 -1108 24 -840 4 -1091 8 -1108 17 -56 32 -84 105 -64 166 14 41
58 85 97 97 43 12 4560 12 4606 0z m-1056 -2994 c38 -38 44 -77 19 -126 -33
-64 41 -61 -1236 -58 l-1161 3 -29 33 c-41 46 -41 111 0 153 l29 29 1172 0
1172 0 34 -34z"/>
</g>
</svg>
