<?xml version="1.0" standalone="no"?>
<!DOCTYPE svg PUBLIC "-//W3C//DTD SVG 20010904//EN"
 "http://www.w3.org/TR/2001/REC-SVG-20010904/DTD/svg10.dtd">
<svg version="1.0" xmlns="http://www.w3.org/2000/svg"
 width="512.000000pt" height="512.000000pt" viewBox="0 0 512.000000 512.000000"
 preserveAspectRatio="xMidYMid meet">

<g transform="translate(0.000000,512.000000) scale(0.100000,-0.100000)"
fill="#000000" stroke="none">
<path d="M2400 4471 l0 -329 -32 -7 c-174 -37 -390 -196 -491 -362 -64 -105
-117 -277 -117 -379 l0 -34 800 0 800 0 0 34 c0 58 -27 180 -58 258 -77 199
-248 369 -455 452 -36 14 -80 29 -97 32 l-30 7 0 328 0 329 -160 0 -160 0 0
-329z"/>
<path d="M4565 3341 c-62 -37 -81 -73 -113 -208 -79 -331 -114 -612 -128
-1012 l-7 -200 -521 -3 -521 -3 -63 -34 c-70 -38 -100 -69 -140 -145 l-27 -51
-3 -682 -3 -683 161 0 160 0 0 480 0 480 480 0 480 0 0 -480 0 -480 160 0 160
0 0 858 c0 471 5 934 10 1027 19 324 58 593 122 839 36 140 35 197 -5 249 -49
64 -141 86 -202 48z"/>
<path d="M404 3331 c-47 -21 -84 -84 -84 -142 0 -19 18 -105 40 -192 40 -157
78 -394 101 -617 8 -75 13 -451 16 -1088 l5 -972 159 0 159 0 0 480 0 480 480
0 480 0 0 -480 0 -480 160 0 161 0 -3 682 -3 683 -27 51 c-28 53 -87 112 -138
139 -47 24 -87 26 -625 28 l-500 2 -7 220 c-10 356 -52 686 -125 989 -40 169
-62 204 -138 225 -53 14 -63 14 -111 -8z"/>
<path d="M1202 2700 c-71 -32 -82 -69 -82 -282 l0 -178 1440 0 1440 0 0 178
c0 213 -11 250 -82 282 -42 19 -77 20 -1358 20 -1281 0 -1316 -1 -1358 -20z"/>
<path d="M2320 1200 l0 -880 240 0 240 0 0 880 0 880 -240 0 -240 0 0 -880z"/>
</g>
</svg>
