<?xml version="1.0" standalone="no"?>
<!DOCTYPE svg PUBLIC "-//W3C//DTD SVG 20010904//EN"
 "http://www.w3.org/TR/2001/REC-SVG-20010904/DTD/svg10.dtd">
<svg version="1.0" xmlns="http://www.w3.org/2000/svg"
 width="512.000000pt" height="512.000000pt" viewBox="0 0 512.000000 512.000000"
 preserveAspectRatio="xMidYMid meet">

<g transform="translate(0.000000,512.000000) scale(0.100000,-0.100000)"
fill="#000000" stroke="none">
<path d="M3410 4440 l0 -170 -253 0 -252 0 -173 -345 -172 -345 0 -170 0 -170
1025 0 1025 0 0 170 0 170 -172 345 -173 345 -257 0 -258 0 0 170 0 170 -170
0 -170 0 0 -170z m727 -675 c45 -88 82 -166 83 -172 0 -10 -133 -13 -635 -13
-422 0 -635 3 -635 10 0 12 147 309 162 328 8 9 111 12 477 10 l466 -3 82
-160z"/>
<path d="M891 2938 c21 -167 40 -320 44 -340 l5 -38 -215 0 -215 0 0 -170 0
-170 1025 0 1025 0 0 -855 0 -855 1025 0 1025 0 0 1025 0 1025 -1365 0 -1365
0 0 170 0 170 -170 0 -170 0 0 -170 0 -170 -131 0 -131 0 6 38 c12 73 76 600
76 621 0 21 -2 21 -253 21 l-253 0 37 -302z m3377 -1400 l-3 -683 -682 -3
-683 -2 0 685 0 685 685 0 685 0 -2 -682z"/>
<path d="M3185 1935 c-66 -65 9 -173 92 -133 15 7 34 26 41 41 40 83 -68 158
-133 92z"/>
<path d="M3525 1935 c-35 -34 -33 -78 5 -117 26 -25 36 -29 63 -24 36 7 77 47
77 77 0 28 -26 75 -45 83 -35 13 -76 6 -100 -19z"/>
<path d="M3865 1935 c-35 -34 -33 -78 4 -116 38 -38 74 -38 112 0 56 57 23
141 -56 141 -25 0 -44 -8 -60 -25z"/>
<path d="M3160 1365 l0 -255 425 0 425 0 0 255 0 255 -425 0 -425 0 0 -255z"/>
<path d="M1197 1873 c-4 -3 -7 -80 -7 -169 l0 -164 173 -2 172 -3 3 -513 2
-512 170 0 170 0 0 515 0 515 170 0 170 0 0 170 0 170 -508 0 c-280 0 -512 -3
-515 -7z"/>
</g>
</svg>
