<?xml version="1.0" standalone="no"?>
<!DOCTYPE svg PUBLIC "-//W3C//DTD SVG 20010904//EN"
 "http://www.w3.org/TR/2001/REC-SVG-20010904/DTD/svg10.dtd">
<svg version="1.0" xmlns="http://www.w3.org/2000/svg"
 width="512.000000pt" height="512.000000pt" viewBox="0 0 512.000000 512.000000"
 preserveAspectRatio="xMidYMid meet">

<g transform="translate(0.000000,512.000000) scale(0.100000,-0.100000)"
fill="#000000" stroke="none">
<path d="M78 4889 c-23 -12 -46 -35 -58 -59 -20 -39 -20 -54 -18 -588 l3 -547
22 -31 c49 -69 -59 -64 1490 -64 1311 0 1400 1 1433 18 19 9 45 32 57 51 l23
34 0 552 0 552 -23 34 c-12 19 -38 42 -57 51 -33 17 -122 18 -1435 18 -1374
-1 -1401 -1 -1437 -21z"/>
<path d="M4096 4640 c-35 -11 -81 -53 -95 -89 -18 -44 -241 -978 -241 -1009 0
-34 33 -86 73 -116 26 -20 44 -21 243 -24 l214 -3 0 -175 0 -175 65 -61 c48
-44 75 -81 103 -136 l37 -76 3 -293 3 -293 45 0 44 0 0 605 0 605 200 0 c147
0 209 4 233 14 43 17 85 68 93 111 8 46 -221 1004 -251 1049 -11 16 -33 39
-48 50 -27 20 -41 21 -360 23 -183 1 -345 -2 -361 -7z"/>
<path d="M815 2796 c-16 -7 -38 -23 -48 -34 -40 -45 -46 -87 -47 -333 l0 -237
58 -7 c134 -16 234 -69 304 -161 68 -90 81 -137 86 -316 l4 -158 1293 0 1293
0 4 158 c5 180 20 234 89 320 72 91 170 142 302 158 l58 6 -3 252 c-3 230 -5
254 -23 285 -11 19 -33 43 -48 55 l-28 21 -1632 2 c-1339 2 -1637 0 -1662 -11z"/>
<path d="M200 1884 c-41 -15 -60 -30 -75 -59 -13 -29 -15 -127 -15 -780 0
-819 -2 -788 60 -820 44 -23 597 -22 641 1 60 31 59 12 59 825 0 638 -2 745
-15 773 -29 60 -32 61 -350 63 -159 1 -297 0 -305 -3z"/>
<path d="M4150 1884 c-41 -15 -60 -30 -75 -59 -13 -29 -15 -127 -15 -780 0
-819 -2 -788 60 -820 44 -23 597 -22 641 1 60 31 59 12 59 825 0 638 -2 745
-15 773 -29 60 -32 61 -350 63 -159 1 -297 0 -305 -3z"/>
<path d="M1170 780 l0 -470 1295 0 1295 0 0 470 0 470 -1295 0 -1295 0 0 -470z"/>
</g>
</svg>
