<?xml version="1.0" standalone="no"?>
<!DOCTYPE svg PUBLIC "-//W3C//DTD SVG 20010904//EN"
 "http://www.w3.org/TR/2001/REC-SVG-20010904/DTD/svg10.dtd">
<svg version="1.0" xmlns="http://www.w3.org/2000/svg"
 width="512.000000pt" height="512.000000pt" viewBox="0 0 512.000000 512.000000"
 preserveAspectRatio="xMidYMid meet">

<g transform="translate(0.000000,512.000000) scale(0.100000,-0.100000)"
fill="#000000" stroke="none">
<path d="M2166 4600 c-34 -11 -82 -54 -102 -92 -12 -23 -14 -148 -14 -754 0
-714 0 -727 21 -763 11 -20 36 -48 56 -61 33 -22 49 -25 150 -28 l113 -4 0
291 c0 173 4 311 11 343 15 72 78 204 122 256 85 101 224 185 345 211 34 7
200 11 461 11 373 0 414 -2 485 -20 201 -51 357 -198 423 -395 26 -78 27 -87
31 -387 l4 -308 96 0 c137 1 191 27 227 113 13 31 15 130 15 742 0 612 -2 711
-15 742 -21 50 -42 72 -90 94 -38 18 -94 19 -1175 18 -624 0 -1148 -5 -1164
-9z"/>
<path d="M948 4260 c-122 -22 -233 -82 -308 -168 -52 -58 -105 -169 -119 -246
-7 -40 -11 -400 -11 -1098 l0 -1038 685 0 685 0 0 255 0 255 383 -2 382 -3 3
-167 2 -168 -172 -2 -173 -3 -3 -168 -2 -167 450 0 450 0 -2 -302 -3 -302
-315 -126 -315 -126 -3 -86 -3 -87 33 9 c366 98 600 160 604 160 2 0 4 -38 4
-85 l0 -86 128 3 127 3 3 83 c2 45 6 82 10 82 4 -1 146 -38 315 -84 217 -58
310 -79 313 -71 3 7 4 45 2 85 l-3 74 -315 126 -315 126 -3 302 -2 302 445 0
445 0 0 170 0 170 -170 0 -170 0 0 170 0 170 300 0 300 0 0 170 0 170 -300 0
-299 0 -3 468 -3 467 -33 67 c-39 81 -102 139 -179 168 -54 20 -72 21 -482 18
-425 -3 -426 -3 -471 -27 -61 -32 -126 -96 -158 -156 l-27 -50 -3 -477 -3
-478 -939 0 -940 0 0 618 c0 394 4 630 10 654 16 55 68 117 125 147 40 21 64
26 122 26 39 0 74 -2 76 -5 3 -3 -4 -32 -15 -65 -31 -93 -23 -228 19 -315 17
-36 42 -78 56 -95 l24 -29 303 303 c345 346 327 312 195 377 -113 56 -246 63
-352 19 -30 -13 -36 -12 -67 6 -87 51 -223 76 -318 59z"/>
<path d="M517 1363 c-4 -3 -7 -120 -7 -260 l0 -253 515 0 515 0 0 -170 0 -170
170 0 170 0 -2 428 -3 427 -676 3 c-371 1 -679 -1 -682 -5z"/>
</g>
</svg>
