<?xml version="1.0" standalone="no"?>
<!DOCTYPE svg PUBLIC "-//W3C//DTD SVG 20010904//EN"
 "http://www.w3.org/TR/2001/REC-SVG-20010904/DTD/svg10.dtd">
<svg version="1.0" xmlns="http://www.w3.org/2000/svg"
 width="512.000000pt" height="512.000000pt" viewBox="0 0 512.000000 512.000000"
 preserveAspectRatio="xMidYMid meet">

<g transform="translate(0.000000,512.000000) scale(0.100000,-0.100000)"
fill="#000000" stroke="none">
<path d="M1355 5079 c-86 -12 -197 -42 -267 -73 -38 -17 -72 -24 -122 -25
-249 -2 -451 -223 -434 -473 l5 -68 -71 0 c-95 0 -163 -32 -209 -98 l-32 -47
-3 -1602 -2 -1603 -69 0 c-39 0 -82 -5 -97 -10 -55 -21 -69 -68 -33 -114 l20
-26 1007 -2 1007 -3 3 -77 3 -78 -606 0 c-669 0 -646 2 -685 -63 -19 -30 -20
-52 -20 -312 0 -314 2 -325 73 -358 32 -16 193 -17 2112 -17 2303 0 2121 -5
2165 65 19 30 20 49 20 311 0 259 -1 281 -20 311 -39 65 -16 63 -685 63 l-605
0 0 80 0 80 535 0 534 0 21 22 c22 24 26 58 10 88 -14 26 -63 40 -136 40 l-64
0 0 830 c0 917 3 870 -63 910 -26 16 -50 20 -134 20 l-103 0 0 708 c0 664 -2
709 -19 747 -35 77 -117 134 -192 135 -36 0 -36 0 -54 65 -94 349 -415 581
-775 562 -126 -7 -198 -25 -305 -77 -185 -90 -339 -270 -391 -457 l-17 -62
-38 20 c-98 50 -270 67 -393 39 -33 -8 -93 -31 -134 -52 -56 -29 -86 -38 -123
-38 -27 0 -49 3 -49 8 0 4 25 95 55 202 30 107 55 203 55 213 0 41 -31 77 -93
108 -177 90 -405 132 -582 108z m323 -170 c66 -17 192 -66 192 -75 0 -6 -69
-253 -82 -293 l-11 -35 -22 45 c-30 58 -112 134 -178 164 -94 43 -181 59 -327
59 -146 1 -233 -13 -319 -50 -115 -51 -184 -122 -221 -228 l-18 -51 -7 38
c-25 130 47 266 173 324 43 20 69 25 134 25 66 -1 89 3 127 23 160 80 374 102
559 54z m1864 -3 c176 -38 338 -167 418 -332 52 -109 60 -163 60 -450 0 -249
1 -263 21 -288 26 -33 79 -36 109 -6 19 19 20 33 20 240 0 220 0 220 22 220
12 0 32 -10 45 -22 l23 -21 0 -699 0 -698 -144 0 -144 0 -5 213 c-2 116 -7
222 -11 233 -7 20 -4 22 66 26 120 8 148 39 148 167 0 95 -16 121 -74 121 -47
0 -76 -37 -76 -96 l0 -44 -67 0 -68 0 -46 52 -46 52 44 53 c48 60 75 110 106
193 17 47 21 86 25 266 5 284 5 285 -153 324 -44 11 -125 42 -180 70 -55 28
-111 50 -125 50 -14 0 -57 -19 -95 -43 -135 -83 -255 -117 -414 -117 -85 0
-90 -1 -121 -30 -32 -30 -33 -30 -52 -13 -32 29 -37 46 -27 98 44 238 259 448
499 488 57 10 179 6 242 -7z m-2149 -290 c134 -26 219 -87 246 -175 16 -56 14
-422 -3 -487 -43 -161 -171 -278 -333 -304 -155 -25 -328 58 -409 196 -47 81
-54 123 -54 359 0 252 6 274 80 338 90 77 291 108 473 73z m1097 -238 c100
-30 208 -112 256 -193 49 -85 88 -247 52 -217 -7 5 -51 19 -97 31 -46 11 -113
37 -148 57 -85 47 -114 46 -199 -5 -92 -56 -178 -81 -299 -88 -55 -3 -108 -10
-117 -15 -16 -8 -18 -3 -18 34 0 96 55 211 137 289 115 108 287 151 433 107z
m1105 -48 c44 -21 112 -48 150 -58 l70 -19 3 -134 c3 -157 -9 -244 -46 -318
-78 -155 -258 -249 -426 -221 -176 29 -312 162 -346 339 -5 30 -10 109 -10
177 l0 124 60 0 c122 0 312 55 410 119 25 17 47 30 50 30 2 1 40 -17 85 -39z
m-3025 -46 c0 -3 -11 -19 -25 -35 -25 -31 -45 -86 -45 -129 0 -88 77 -189 162
-211 43 -12 47 -16 73 -77 15 -35 45 -87 67 -115 l38 -52 -65 -10 c-78 -13
-112 -36 -142 -95 -23 -44 -23 -48 -23 -477 l0 -433 -120 0 -120 0 0 797 0
797 22 23 c19 20 31 23 100 23 43 0 78 -3 78 -6z m108 -191 l-4 -28 -14 28
c-11 23 -11 31 0 55 l14 27 4 -27 c2 -16 2 -40 0 -55z m1856 -194 c37 -17 88
-37 114 -43 l47 -12 3 -100 c5 -176 -22 -268 -101 -347 -70 -70 -126 -92 -232
-92 -106 0 -163 22 -232 91 -76 77 -103 159 -103 318 l0 93 96 12 c104 12 209
45 276 85 24 14 48 26 54 26 7 0 42 -14 78 -31z m-654 -184 c0 -59 -4 -64 -32
-38 -22 20 -23 56 -2 77 26 27 34 18 34 -39z m1002 43 c26 -21 28 -45 7 -72
-30 -39 -39 -32 -39 29 0 57 5 64 32 43z m142 -185 c3 -4 -15 -28 -41 -55 -46
-46 -49 -48 -105 -48 -32 0 -58 2 -58 4 0 21 17 36 39 36 32 0 101 31 120 53
14 18 33 22 45 10z m-1585 -95 c-23 -35 -43 -64 -45 -66 -1 -2 -16 17 -33 42
l-32 45 28 6 c15 4 44 12 63 20 60 23 62 17 19 -47z m-320 30 c25 -6 47 -12
49 -14 3 -2 -48 -84 -53 -84 -4 0 -75 110 -75 116 0 3 7 3 16 0 9 -4 37 -11
63 -18z m-169 -125 c45 -71 92 -136 103 -145 25 -20 95 -23 118 -5 8 7 30 33
48 60 17 26 34 47 35 47 2 0 18 -23 36 -50 38 -59 55 -70 107 -70 49 0 66 17
166 173 72 111 78 117 110 117 18 0 38 -5 45 -12 9 -9 12 -96 12 -330 l0 -318
-237 0 c-192 0 -244 -3 -267 -15 -20 -10 -59 -15 -131 -15 -89 0 -104 2 -120
20 -25 27 -78 26 -105 -2 -28 -30 -28 -106 1 -141 20 -26 23 -26 152 -29 l132
-3 0 -45 0 -45 -129 -3 c-127 -3 -130 -2 -157 23 -14 15 -44 33 -65 40 l-39
13 -3 272 c-2 287 -1 300 42 300 34 0 46 -20 46 -78 0 -81 21 -112 77 -112 49
0 73 37 73 117 0 137 -80 226 -201 225 l-39 -1 0 64 c0 70 3 73 66 74 l42 1
82 -127z m2760 56 c23 -22 56 -71 73 -107 l32 -67 3 -207 c4 -205 3 -208 -17
-208 -20 0 -21 5 -21 134 0 74 -3 142 -6 151 -10 26 -62 44 -94 33 -42 -14
-50 -46 -50 -188 l0 -130 -300 0 -300 0 0 189 c0 212 11 271 67 352 63 92 103
103 103 29 0 -117 99 -212 220 -212 123 0 220 95 220 215 0 70 11 73 70 16z
m-220 -23 c0 -50 -79 -78 -120 -41 -33 30 -25 44 28 48 26 2 57 4 70 5 13 1
22 -4 22 -12z m-1515 -225 c-10 -23 -21 -41 -24 -41 -3 0 -20 14 -38 32 -31
30 -33 36 -33 97 l0 66 57 -57 57 -57 -19 -40z m775 94 c-29 -30 -35 -33 -43
-19 -12 21 19 54 52 54 l25 0 -34 -35z m-500 -122 c68 -19 204 -13 273 11 48
17 48 17 67 -6 46 -54 62 -106 68 -213 l5 -105 -297 0 -296 0 0 69 c0 101 16
170 53 224 25 38 36 46 52 42 11 -4 45 -13 75 -22z m630 -31 c0 -53 -3 -61
-34 -91 l-35 -34 -5 27 c-4 14 -9 38 -12 52 -4 22 2 35 32 65 21 22 42 39 46
39 4 0 8 -26 8 -58z m-960 -229 c0 -46 -2 -53 -20 -53 -18 0 -20 7 -20 72 0
70 0 71 20 53 15 -14 20 -31 20 -72z m2640 -1008 l0 -805 -1625 0 -1625 0 0
805 0 805 1625 0 1625 0 0 -805z m-3796 589 c14 -14 16 -90 16 -689 0 -370 -3
-680 -6 -689 -5 -14 -33 -16 -205 -16 l-199 0 0 699 c0 550 3 700 13 704 6 3
92 6 189 6 148 1 179 -2 192 -15z m396 -99 l0 -35 -115 0 -115 0 0 35 0 35
115 0 115 0 0 -35z m0 -290 l0 -105 -115 0 -115 0 0 105 0 105 115 0 115 0 0
-105z m-2 -392 l-3 -138 -112 -3 -113 -3 0 141 0 140 115 0 116 0 -3 -137z m2
-453 l0 -160 -117 0 -118 0 3 160 3 160 114 0 115 0 0 -160z m2500 -390 l0
-80 -58 0 c-45 0 -63 -5 -80 -20 -32 -30 -30 -82 4 -109 26 -21 34 -21 735
-21 l709 0 0 -225 0 -225 -2035 0 -2035 0 0 225 0 225 1154 0 c1152 0 1153 0
1180 21 34 27 36 79 4 109 -21 20 -32 20 -525 20 l-503 0 0 80 0 80 725 0 725
0 0 -80z"/>
<path d="M972 4330 c-38 -36 -42 -132 -5 -172 22 -24 78 -23 103 2 16 16 20
33 20 84 0 58 -3 67 -26 85 -34 26 -64 27 -92 1z"/>
<path d="M1422 4330 c-38 -36 -42 -132 -5 -172 22 -24 78 -23 103 2 16 16 20
33 20 84 0 58 -3 67 -26 85 -34 26 -64 27 -92 1z"/>
<path d="M1185 4255 c-22 -21 -25 -33 -25 -90 0 -106 31 -144 118 -145 61 0
92 23 92 68 0 32 -25 72 -46 72 -8 0 -14 10 -14 25 0 36 -19 71 -47 84 -36 16
-51 14 -78 -14z"/>
<path d="M1038 3963 c-25 -30 -28 -53 -12 -91 20 -49 70 -100 119 -123 48 -22
151 -25 199 -5 76 32 156 136 140 183 -22 59 -89 73 -127 27 -56 -67 -65 -74
-107 -74 -42 0 -50 6 -114 81 -21 24 -78 25 -98 2z"/>
<path d="M3140 4163 c-39 -15 -50 -36 -50 -98 0 -76 19 -106 68 -107 54 -2 77
30 77 103 0 54 -3 63 -28 85 -28 24 -39 27 -67 17z"/>
<path d="M3590 4163 c-39 -15 -50 -36 -50 -98 0 -76 19 -106 68 -107 54 -2 77
30 77 103 0 54 -3 63 -28 85 -28 24 -39 27 -67 17z"/>
<path d="M3330 4070 c-60 -60 -26 -181 57 -196 51 -10 83 3 97 38 14 32 4 88
-15 88 -5 0 -15 15 -23 34 -23 56 -79 73 -116 36z"/>
<path d="M3180 3850 c-77 -77 65 -230 214 -230 79 1 130 24 183 84 52 59 62
99 36 135 -27 36 -85 41 -110 10 -51 -65 -71 -79 -111 -79 -41 0 -67 19 -105
74 -23 33 -77 36 -107 6z"/>
<path d="M2116 3731 c-20 -22 -31 -80 -22 -116 16 -62 83 -85 124 -42 30 32
31 128 2 157 -26 26 -81 26 -104 1z"/>
<path d="M2510 3730 c-30 -30 -29 -129 3 -158 44 -41 107 -19 123 43 9 36 -2
94 -22 116 -23 25 -78 25 -104 -1z"/>
<path d="M2319 3718 c-34 -11 -53 -57 -46 -109 6 -49 29 -76 74 -88 47 -13 88
3 104 41 11 26 10 35 -4 57 -8 14 -23 40 -32 58 -19 37 -59 54 -96 41z"/>
<path d="M2323 2260 c-61 -37 -63 -48 -63 -370 0 -320 2 -329 60 -364 25 -14
90 -16 618 -16 582 0 590 0 616 21 54 43 56 54 56 364 0 316 -2 328 -63 365
-31 19 -54 20 -612 20 -558 0 -581 -1 -612 -20z m1137 -365 l0 -235 -525 0
-525 0 0 235 0 235 525 0 525 0 0 -235z"/>
</g>
</svg>
