<?xml version="1.0" standalone="no"?>
<!DOCTYPE svg PUBLIC "-//W3C//DTD SVG 20010904//EN"
 "http://www.w3.org/TR/2001/REC-SVG-20010904/DTD/svg10.dtd">
<svg version="1.0" xmlns="http://www.w3.org/2000/svg"
 width="512.000000pt" height="512.000000pt" viewBox="0 0 512.000000 512.000000"
 preserveAspectRatio="xMidYMid meet">

<g transform="translate(0.000000,512.000000) scale(0.100000,-0.100000)"
fill="#000000" stroke="none">
<path d="M1171 4903 c-26 -9 -65 -36 -91 -62 -86 -86 -80 35 -80 -1521 0
-1555 -6 -1435 80 -1520 82 -82 58 -80 765 -80 l621 0 39 -40 c21 -22 46 -40
55 -40 9 0 34 18 55 40 l39 40 621 0 c707 0 683 -2 765 80 86 85 80 -35 80
1520 0 1555 6 1435 -80 1520 -85 86 31 80 -1484 79 -1192 0 -1346 -2 -1385
-16z m2766 -82 c26 -12 52 -35 70 -62 l28 -43 3 -1178 2 -1178 -1480 0 -1480
0 0 1165 c0 1026 2 1170 15 1202 21 50 42 72 90 94 38 18 101 19 1375 19 1290
0 1336 -1 1377 -19z m101 -2719 c-3 -174 -4 -179 -30 -219 -16 -24 -44 -49
-70 -62 -44 -21 -54 -21 -623 -21 l-579 0 49 50 c36 37 57 50 78 50 40 0 164
29 213 50 45 20 84 62 84 91 0 32 -52 78 -112 99 -116 40 -239 54 -488 54
-249 0 -372 -14 -488 -54 -60 -21 -112 -67 -112 -99 0 -29 39 -71 84 -91 49
-21 173 -50 213 -50 21 0 42 -13 78 -50 l50 -50 -591 2 -590 3 -43 28 c-70 47
-81 82 -81 280 l0 167 1481 0 1480 0 -3 -178z m-1146 -6 c93 -17 178 -44 178
-57 0 -8 -139 -55 -143 -48 -25 47 3 44 -367 44 -370 0 -342 3 -367 -44 -4 -7
-143 40 -143 49 0 21 161 58 325 74 82 8 442 -4 517 -18z m-220 -248 l-112
-113 -112 113 -113 112 225 0 225 0 -113 -112z"/>
<path d="M2692 3787 c-182 -182 -332 -339 -332 -348 0 -19 20 -39 40 -39 20 0
680 660 680 681 0 19 -20 39 -40 39 -8 0 -165 -150 -348 -333z"/>
<path d="M2052 3627 c-182 -182 -332 -339 -332 -348 0 -19 20 -39 40 -39 20 0
680 660 680 681 0 19 -20 39 -40 39 -8 0 -165 -150 -348 -333z"/>
<path d="M2852 3467 c-182 -182 -332 -339 -332 -348 0 -19 20 -39 40 -39 20 0
680 660 680 681 0 19 -20 39 -40 39 -8 0 -165 -150 -348 -333z"/>
<path d="M4252 2067 c-50 -51 -52 -55 -52 -108 0 -30 5 -60 12 -67 8 -8 49
-12 120 -12 l108 0 0 -119 0 -119 -73 -3 c-83 -5 -124 -27 -151 -84 -15 -31
-16 -89 -14 -575 l3 -540 -1563 0 -1563 0 3 174 c3 168 4 175 27 200 13 14 35
27 50 31 20 4 372 35 401 35 3 0 4 -21 2 -47 -4 -62 22 -112 68 -135 26 -13
60 -18 130 -18 152 0 200 40 200 167 0 61 1 63 33 77 71 30 127 113 127 191 0
82 -68 172 -147 195 -26 8 -207 10 -583 8 l-545 -3 -56 -26 c-71 -33 -125 -87
-158 -158 l-26 -56 -3 -317 -3 -318 -40 0 -39 0 0 336 0 336 30 38 c42 53 57
118 42 176 -26 98 -90 149 -187 149 -104 0 -170 -50 -196 -148 -17 -60 -1
-126 42 -179 l29 -37 0 -335 0 -336 -28 0 c-15 0 -33 -5 -40 -12 -16 -16 -16
-200 0 -216 17 -17 4679 -17 4696 0 15 15 17 204 2 213 -6 4 -6 15 0 31 6 15
10 237 10 546 0 575 1 565 -64 611 -23 16 -49 23 -103 26 l-73 3 0 119 0 119
28 0 c15 0 33 5 40 12 16 16 16 200 0 216 -9 9 -73 12 -228 12 l-216 0 -52
-53z m428 -67 l0 -40 -200 0 c-217 0 -222 1 -173 52 l27 28 173 0 173 0 0 -40z
m-80 -240 l0 -120 -40 0 -40 0 0 120 0 120 40 0 40 0 0 -120z m217 -222 c22
-20 23 -28 23 -160 l0 -138 -280 0 -280 0 0 140 c0 194 -22 180 277 180 229 0
237 -1 260 -22z m-4333 -177 c26 -27 31 -39 31 -81 0 -43 -5 -54 -33 -82 -28
-28 -39 -33 -82 -33 -43 0 -54 5 -82 33 -28 28 -33 39 -33 81 0 52 25 92 70
112 37 16 96 3 129 -30z m1493 -141 c37 -22 63 -67 63 -108 0 -36 -37 -93 -72
-109 -15 -8 -190 -26 -419 -43 -217 -17 -408 -35 -425 -41 -17 -5 -45 -24 -62
-42 -55 -57 -62 -88 -62 -272 l0 -165 -160 0 -160 0 0 303 c0 282 2 305 21
347 27 60 64 98 124 126 l50 24 535 0 c513 0 536 -1 567 -20z m2863 -220 l0
-160 -280 0 -280 0 0 160 0 160 280 0 280 0 0 -160z m-4400 -240 l0 -320 -40
0 -40 0 0 320 0 320 40 0 40 0 0 -320z m1440 88 c0 -77 -14 -88 -118 -88 -106
0 -122 11 -122 81 l0 48 63 4 c34 2 88 4 120 5 l57 2 0 -52z m2960 -225 c0
-196 20 -183 -279 -183 -301 0 -281 -13 -281 182 l0 138 280 0 280 0 0 -137z
m0 -303 l0 -40 -2280 0 -2280 0 0 40 0 40 2280 0 2280 0 0 -40z"/>
<path d="M2682 1488 c-19 -19 -14 -35 32 -98 129 -174 124 -391 -10 -557 -36
-44 -41 -62 -22 -81 21 -21 46 -13 81 28 77 90 127 224 127 340 0 116 -50 250
-127 340 -35 41 -60 49 -81 28z"/>
<path d="M2572 1378 c-17 -17 -15 -53 4 -69 26 -22 65 -108 71 -159 8 -66 -13
-143 -53 -196 -39 -51 -43 -79 -13 -95 18 -9 26 -6 54 21 18 18 46 60 62 94
24 52 28 74 28 146 0 72 -4 94 -28 145 -28 60 -81 125 -102 125 -6 0 -16 -5
-23 -12z"/>
<path d="M2468 1273 c-29 -7 -32 -42 -7 -77 33 -43 33 -109 0 -155 -28 -39
-20 -64 22 -69 21 -3 31 5 54 39 23 34 28 53 28 103 0 91 -48 171 -97 159z"/>
</g>
</svg>
