<?xml version="1.0" standalone="no"?>
<!DOCTYPE svg PUBLIC "-//W3C//DTD SVG 20010904//EN"
 "http://www.w3.org/TR/2001/REC-SVG-20010904/DTD/svg10.dtd">
<svg version="1.0" xmlns="http://www.w3.org/2000/svg"
 width="512.000000pt" height="512.000000pt" viewBox="0 0 512.000000 512.000000"
 preserveAspectRatio="xMidYMid meet">

<g transform="translate(0.000000,512.000000) scale(0.100000,-0.100000)"
fill="#000000" stroke="none">
<path d="M585 4750 l370 -370 367 367 c203 203 368 369 368 370 0 2 -332 3
-737 3 l-738 0 370 -370z"/>
<path d="M2040 5045 l-75 -75 298 -298 297 -297 372 373 373 372 -595 0 -596
0 -74 -75z"/>
<path d="M3247 4642 l-477 -477 295 -295 295 -295 773 773 772 772 -590 0
-590 0 -478 -478z"/>
<path d="M0 4315 l0 -590 478 -478 477 -477 295 295 295 295 -773 773 -772
772 0 -590z"/>
<path d="M4747 4532 l-367 -367 295 -295 295 -295 75 75 75 75 -2 588 -3 587
-368 -368z"/>
<path d="M1460 4465 l-295 -295 698 -698 697 -697 295 295 295 295 -698 698
-697 697 -295 -295z"/>
<path d="M3470 3255 l-695 -695 295 -295 295 -295 697 697 698 698 -292 292
c-161 161 -295 293 -298 293 -3 0 -318 -313 -700 -695z"/>
<path d="M0 2560 l0 -745 372 373 373 372 -373 372 -372 373 0 -745z"/>
<path d="M4745 2930 l-370 -370 373 -373 372 -372 0 743 c0 408 -1 742 -3 742
-1 0 -169 -167 -372 -370z"/>
<path d="M1057 2452 l-697 -697 295 -295 295 -295 698 698 697 697 -295 295
-295 295 -698 -698z"/>
<path d="M3870 2055 l-295 -295 773 -773 772 -772 0 590 0 590 -478 478 -477
477 -295 -295z"/>
<path d="M2262 2047 l-292 -292 698 -698 697 -697 295 295 295 295 -695 695
c-382 382 -697 695 -700 695 -3 0 -137 -132 -298 -293z"/>
<path d="M72 1467 l-72 -72 0 -590 0 -590 370 370 370 370 -292 292 c-161 161
-295 293 -298 293 -3 0 -38 -33 -78 -73z"/>
<path d="M985 770 l-770 -770 590 0 590 0 477 477 478 478 -292 292 c-161 161
-295 293 -298 293 -3 0 -352 -346 -775 -770z"/>
<path d="M2185 370 l-370 -370 745 0 745 0 -370 370 c-203 204 -372 370 -375
370 -3 0 -172 -166 -375 -370z"/>
<path d="M3870 445 l-295 -295 75 -75 75 -75 588 2 587 3 -368 368 -367 367
-295 -295z"/>
</g>
</svg>
