<?xml version="1.0" standalone="no"?>
<!DOCTYPE svg PUBLIC "-//W3C//DTD SVG 20010904//EN"
 "http://www.w3.org/TR/2001/REC-SVG-20010904/DTD/svg10.dtd">
<svg version="1.0" xmlns="http://www.w3.org/2000/svg"
 width="512.000000pt" height="512.000000pt" viewBox="0 0 512.000000 512.000000"
 preserveAspectRatio="xMidYMid meet">

<g transform="translate(0.000000,512.000000) scale(0.100000,-0.100000)"
fill="#000000" stroke="none">
<path d="M1374 4786 c-38 -17 -254 -230 -356 -351 -587 -701 -817 -1581 -639
-2452 76 -368 244 -756 469 -1077 180 -257 476 -567 557 -582 85 -16 176 40
190 119 15 81 4 101 -151 257 -165 167 -264 287 -369 444 -221 334 -347 662
-412 1071 -24 155 -24 535 1 695 62 402 192 736 421 1080 107 162 183 252 359
430 118 120 146 153 151 183 25 132 -100 236 -221 183z"/>
<path d="M3615 4786 c-41 -18 -83 -69 -91 -111 -14 -79 -2 -99 152 -255 164
-166 264 -286 369 -444 224 -338 360 -699 416 -1106 18 -124 18 -496 0 -620
-56 -407 -192 -768 -416 -1106 -104 -157 -204 -277 -370 -444 -118 -120 -144
-152 -150 -182 -22 -119 73 -216 191 -194 80 15 368 316 551 576 708 1004 710
2308 5 3314 -145 206 -453 541 -527 571 -42 18 -90 18 -130 1z"/>
<path d="M1534 4306 c-17 -7 -64 -50 -105 -95 -321 -354 -533 -815 -605 -1316
-24 -165 -24 -505 0 -670 47 -327 156 -647 312 -913 148 -252 351 -494 426
-507 119 -22 216 73 194 190 -5 23 -31 62 -79 117 -298 343 -465 696 -534
1133 -24 152 -24 478 0 630 65 411 228 772 489 1078 130 154 123 142 123 207
0 63 -16 95 -67 133 -34 25 -113 32 -154 13z"/>
<path d="M3455 4306 c-41 -18 -83 -69 -91 -111 -12 -65 3 -100 79 -187 298
-343 465 -696 534 -1133 24 -152 24 -478 0 -630 -69 -437 -236 -790 -534
-1133 -77 -88 -91 -122 -78 -189 9 -49 69 -109 118 -118 90 -17 135 12 272
180 294 360 473 768 541 1240 24 165 24 504 0 670 -73 511 -291 977 -623 1336
-81 86 -143 108 -218 75z"/>
<path d="M1854 3826 c-16 -7 -67 -53 -112 -102 -388 -418 -540 -975 -420
-1533 63 -295 221 -589 433 -807 97 -100 125 -114 202 -99 49 9 109 69 118
118 13 68 -1 102 -77 185 -186 203 -304 414 -357 643 -112 476 12 929 357
1301 50 54 73 87 78 112 24 131 -101 234 -222 182z"/>
<path d="M3135 3826 c-41 -18 -83 -69 -91 -111 -12 -66 3 -101 78 -183 39 -42
94 -108 123 -147 310 -414 361 -974 131 -1435 -73 -144 -133 -230 -259 -367
-71 -77 -85 -113 -72 -180 9 -49 69 -109 118 -118 77 -15 105 -1 202 99 626
643 632 1673 13 2340 -105 114 -162 138 -243 102z"/>
<path d="M2421 3505 c-177 -39 -347 -171 -429 -335 -64 -128 -72 -181 -72
-497 l0 -273 641 0 641 0 -4 303 c-4 277 -6 307 -26 367 -105 317 -430 504
-751 435z"/>
<path d="M1924 2173 c25 -240 199 -456 433 -537 l38 -13 5 -441 c5 -425 6
-442 26 -468 39 -53 71 -69 134 -69 63 0 95 16 134 69 20 26 21 43 26 468 l5
440 61 23 c202 76 349 247 398 462 9 40 16 86 16 102 l0 31 -641 0 -642 0 7
-67z"/>
</g>
</svg>
