<?xml version="1.0" standalone="no"?>
<!DOCTYPE svg PUBLIC "-//W3C//DTD SVG 20010904//EN"
 "http://www.w3.org/TR/2001/REC-SVG-20010904/DTD/svg10.dtd">
<svg version="1.0" xmlns="http://www.w3.org/2000/svg"
 width="512.000000pt" height="512.000000pt" viewBox="0 0 512.000000 512.000000"
 preserveAspectRatio="xMidYMid meet">

<g transform="translate(0.000000,512.000000) scale(0.100000,-0.100000)"
fill="#000000" stroke="none">
<path d="M970 5114 c-199 -38 -358 -174 -432 -370 -22 -58 -23 -66 -26 -664
l-3 -606 151 -61 150 -62 0 628 c0 708 -2 690 75 766 61 61 111 75 275 75 164
0 214 -14 275 -75 49 -48 75 -115 75 -192 0 -49 -2 -54 -27 -64 -179 -66 -320
-226 -358 -406 -33 -156 -11 -254 65 -293 37 -19 58 -20 470 -20 412 0 433 1
470 20 27 14 47 34 61 62 19 38 21 54 16 138 -9 159 -65 279 -178 384 -50 46
-140 100 -200 119 -13 4 -17 25 -22 99 -14 236 -151 419 -373 499 -51 19 -84
22 -249 25 -104 1 -201 0 -215 -2z"/>
<path d="M230 3183 c-128 -44 -220 -169 -220 -297 0 -96 57 -210 130 -261 104
-72 629 -261 930 -334 297 -72 593 -119 895 -141 85 -6 681 -10 1512 -10 1355
0 1373 0 1427 20 72 27 139 88 173 158 24 48 28 70 28 137 0 101 -32 172 -106
239 -91 82 9 76 -1368 76 -1247 0 -1580 7 -1821 35 -437 51 -859 160 -1249
324 -182 77 -240 86 -331 54z"/>
<path d="M313 1892 c5 -354 9 -390 68 -568 65 -200 165 -360 324 -520 201
-203 420 -321 705 -381 79 -17 164 -18 1150 -18 982 0 1072 1 1152 18 180 36
351 108 512 215 93 61 288 257 351 352 147 221 221 449 232 717 l6 132 -1444
4 c-1550 3 -1495 2 -1860 56 -363 54 -810 170 -1133 294 l-68 27 5 -328z"/>
<path d="M675 293 c-69 -104 -78 -147 -46 -211 24 -46 80 -82 130 -82 63 0
100 30 172 137 l69 102 -58 26 c-31 14 -89 46 -128 71 -40 24 -74 44 -76 44
-3 0 -31 -39 -63 -87z"/>
<path d="M4305 335 c-38 -24 -96 -56 -127 -71 l-56 -27 67 -101 c72 -106 109
-136 172 -136 50 0 106 36 130 82 32 64 23 107 -46 211 -32 48 -61 87 -64 86
-3 0 -37 -20 -76 -44z"/>
</g>
</svg>
