<?xml version="1.0" standalone="no"?>
<!DOCTYPE svg PUBLIC "-//W3C//DTD SVG 20010904//EN"
 "http://www.w3.org/TR/2001/REC-SVG-20010904/DTD/svg10.dtd">
<svg version="1.0" xmlns="http://www.w3.org/2000/svg"
 width="512.000000pt" height="512.000000pt" viewBox="0 0 512.000000 512.000000"
 preserveAspectRatio="xMidYMid meet">

<g transform="translate(0.000000,512.000000) scale(0.100000,-0.100000)"
fill="#000000" stroke="none">
<path d="M78 5099 c-23 -12 -46 -35 -58 -59 -20 -39 -20 -54 -20 -2480 0
-2427 0 -2441 20 -2480 13 -26 34 -47 60 -60 39 -20 53 -20 2480 -20 2427 0
2441 0 2480 20 26 13 47 34 60 60 20 39 20 53 20 2480 0 2427 0 2441 -20 2480
-13 26 -34 47 -60 60 -39 20 -53 20 -2482 20 -2413 -1 -2443 -1 -2480 -21z
m4742 -2539 l0 -2260 -2260 0 -2260 0 0 2260 0 2260 2260 0 2260 0 0 -2260z"/>
<path d="M688 4489 c-43 -22 -78 -81 -78 -129 0 -76 74 -150 150 -150 76 0
150 74 150 150 0 50 -35 107 -80 130 -49 25 -94 25 -142 -1z"/>
<path d="M4288 4489 c-43 -22 -78 -81 -78 -129 0 -50 35 -107 80 -130 21 -11
53 -20 70 -20 50 0 107 35 130 80 11 21 20 53 20 70 0 50 -35 107 -80 130 -49
25 -94 25 -142 -1z"/>
<path d="M2377 4199 c-862 -100 -1505 -852 -1464 -1709 21 -422 184 -794 477
-1089 644 -649 1682 -654 2329 -11 247 245 403 542 468 893 21 115 24 417 5
527 -91 516 -379 932 -825 1188 -286 163 -661 240 -990 201z m437 -315 c265
-50 497 -174 691 -367 83 -83 213 -245 203 -252 -2 -1 -46 3 -98 8 -67 8 -128
7 -210 -1 -248 -25 -389 -83 -586 -243 l-71 -58 -44 16 c-24 8 -83 18 -131 20
l-86 6 -33 96 c-31 88 -33 106 -33 216 0 91 6 141 23 205 25 96 114 286 162
343 30 36 32 37 82 32 29 -4 87 -13 131 -21z m-604 -101 c-72 -170 -107 -359
-96 -523 7 -108 23 -175 73 -307 l35 -91 -32 -47 c-31 -45 -70 -139 -70 -169
0 -21 -126 -30 -222 -17 -119 16 -252 77 -367 166 -62 47 -174 161 -210 213
l-23 33 33 76 c107 246 336 490 593 632 78 43 278 120 312 121 7 0 -4 -38 -26
-87z m1544 -837 c54 -14 101 -27 103 -30 11 -10 33 -120 44 -211 27 -232 -15
-489 -117 -712 -40 -89 -179 -303 -197 -303 -3 0 -8 19 -12 43 -12 73 -66 229
-107 312 -91 181 -188 289 -359 402 l-96 63 -6 72 c-2 40 -13 97 -23 127 l-18
54 47 42 c100 88 221 143 362 165 97 15 267 4 379 -24z m-1124 -256 c45 -23
80 -80 80 -131 0 -74 -76 -149 -151 -149 -73 0 -149 76 -149 150 0 48 35 107
78 129 48 26 93 26 142 1z m-1200 -192 c210 -134 410 -187 643 -172 70 4 107
3 107 -4 0 -19 92 -112 135 -138 l43 -25 -19 -72 c-33 -122 -81 -208 -171
-302 -92 -97 -207 -178 -323 -228 -139 -59 -123 -63 -239 55 -158 159 -266
335 -331 539 -41 130 -55 211 -62 373 l-6 150 84 -71 c46 -39 109 -86 139
-105z m1540 -319 c65 -44 131 -108 170 -164 94 -137 160 -354 160 -530 l0 -54
-58 -35 c-116 -70 -275 -130 -432 -163 -61 -13 -131 -18 -250 -18 -182 0 -267
14 -428 66 l-92 31 86 54 c122 77 205 145 282 233 118 134 182 258 223 428
l23 92 49 16 c51 17 149 74 162 94 8 13 26 5 105 -50z"/>
<path d="M688 889 c-43 -22 -78 -81 -78 -129 0 -76 74 -150 150 -150 76 0 150
74 150 150 0 50 -35 107 -80 130 -49 25 -94 25 -142 -1z"/>
<path d="M4288 889 c-43 -22 -78 -81 -78 -129 0 -76 74 -150 150 -150 76 0
150 74 150 150 0 50 -35 107 -80 130 -49 25 -94 25 -142 -1z"/>
</g>
</svg>
