<?xml version="1.0" standalone="no"?>
<!DOCTYPE svg PUBLIC "-//W3C//DTD SVG 20010904//EN"
 "http://www.w3.org/TR/2001/REC-SVG-20010904/DTD/svg10.dtd">
<svg version="1.0" xmlns="http://www.w3.org/2000/svg"
 width="512.000000pt" height="512.000000pt" viewBox="0 0 512.000000 512.000000"
 preserveAspectRatio="xMidYMid meet">

<g transform="translate(0.000000,512.000000) scale(0.100000,-0.100000)"
fill="#000000" stroke="none">
<path d="M322 4438 l3 -203 34 -63 c38 -70 69 -100 145 -140 l51 -27 2005 0
2005 0 52 27 c67 35 116 85 150 151 27 51 28 57 31 255 l4 202 -2242 0 -2242
0 4 -202z"/>
<path d="M800 2240 l0 -1440 -240 0 -240 0 0 -160 0 -160 2240 0 2240 0 0 160
0 160 -240 0 -240 0 0 1440 0 1440 -1760 0 -1760 0 0 -1440z m1925 941 c140
-29 242 -71 574 -236 198 -97 350 -166 425 -190 l116 -38 0 -959 0 -958 -1280
0 -1280 0 0 958 0 959 116 38 c75 24 227 93 425 190 169 84 347 167 396 185
190 69 346 85 508 51z"/>
<path d="M2582 2709 c-141 -24 -306 -122 -434 -258 -123 -131 -212 -292 -264
-479 -22 -77 -30 -294 -14 -390 25 -153 100 -323 187 -421 l38 -43 34 93 c146
405 337 603 515 535 53 -20 124 -93 159 -162 36 -71 83 -225 102 -334 24 -141
21 -136 80 -96 123 82 231 240 272 396 24 93 24 248 -1 324 -26 77 -94 179
-192 289 -244 272 -310 366 -345 492 -15 58 -17 60 -50 62 -19 0 -58 -3 -87
-8z"/>
</g>
</svg>
