<?xml version="1.0" standalone="no"?>
<!DOCTYPE svg PUBLIC "-//W3C//DTD SVG 20010904//EN"
 "http://www.w3.org/TR/2001/REC-SVG-20010904/DTD/svg10.dtd">
<svg version="1.0" xmlns="http://www.w3.org/2000/svg"
 width="512.000000pt" height="512.000000pt" viewBox="0 0 512.000000 512.000000"
 preserveAspectRatio="xMidYMid meet">

<g transform="translate(0.000000,512.000000) scale(0.100000,-0.100000)"
fill="#000000" stroke="none">
<path d="M1282 4373 c3 -186 5 -213 24 -254 31 -66 78 -114 142 -146 l57 -28
368 -3 367 -3 0 -639 0 -640 -80 0 -80 0 0 -190 0 -190 480 0 480 0 0 190 0
190 -80 0 -80 0 0 640 0 639 368 3 367 3 57 28 c64 32 111 80 142 146 19 41
21 68 24 254 l3 207 -1281 0 -1281 0 3 -207z"/>
<path d="M1880 1870 l0 -110 -940 0 -940 0 0 -240 c0 -136 5 -262 11 -292 37
-175 189 -315 371 -340 68 -10 95 -7 374 41 166 28 330 60 365 71 94 29 184
86 258 164 146 154 173 176 255 216 74 35 165 60 223 60 l23 0 0 -160 0 -160
179 0 179 0 4 -167 c3 -157 5 -172 29 -224 32 -68 83 -120 152 -156 45 -23 64
-27 137 -27 72 0 93 4 136 26 75 39 107 70 145 140 l34 63 3 173 4 172 179 0
179 0 0 160 0 160 33 0 c58 0 158 -30 229 -67 68 -36 104 -67 239 -209 74 -78
164 -135 257 -164 35 -11 199 -43 365 -71 280 -48 307 -51 375 -41 182 25 334
165 371 340 6 30 11 156 11 292 l0 240 -940 0 -940 0 0 110 0 110 -680 0 -680
0 0 -110z"/>
</g>
</svg>
