<?xml version="1.0" standalone="no"?>
<!DOCTYPE svg PUBLIC "-//W3C//DTD SVG 20010904//EN"
 "http://www.w3.org/TR/2001/REC-SVG-20010904/DTD/svg10.dtd">
<svg version="1.0" xmlns="http://www.w3.org/2000/svg"
 width="512.000000pt" height="512.000000pt" viewBox="0 0 512.000000 512.000000"
 preserveAspectRatio="xMidYMid meet">

<g transform="translate(0.000000,512.000000) scale(0.100000,-0.100000)"
fill="#000000" stroke="none">
<path d="M1229 4182 c-102 -34 -191 -106 -252 -204 -9 -15 -17 -32 -17 -38 0
-6 38 -10 100 -10 98 0 101 1 143 33 57 43 122 61 195 54 102 -9 179 -66 226
-166 20 -44 21 -65 24 -393 l4 -348 89 0 89 0 0 343 c0 276 -3 354 -15 402
-36 137 -125 245 -253 307 -60 29 -77 32 -172 35 -81 2 -118 -1 -161 -15z"/>
<path d="M2885 4186 c-105 -33 -211 -118 -259 -205 l-27 -51 109 0 c99 0 111
2 128 21 33 37 113 69 175 69 108 0 193 -49 245 -142 l29 -53 3 -357 3 -358
90 0 90 0 -3 378 -3 378 -38 77 c-60 122 -157 205 -280 242 -61 18 -206 19
-262 1z"/>
<path d="M200 3921 c-124 -38 -208 -159 -197 -284 13 -147 126 -249 275 -249
192 0 322 199 247 379 -48 115 -206 190 -325 154z"/>
<path d="M4746 3910 c-129 -51 -200 -193 -162 -323 70 -242 391 -273 506 -50
66 129 9 297 -124 365 -59 30 -157 34 -220 8z"/>
<path d="M725 3660 l0 -90 368 0 367 0 0 90 0 90 -367 0 -368 0 0 -90z"/>
<path d="M2010 3660 l0 -90 550 0 550 0 0 90 0 90 -550 0 -550 0 0 -90z"/>
<path d="M3660 3660 l0 -90 368 0 367 0 0 90 0 90 -367 0 -368 0 0 -90z"/>
<path d="M910 3346 c0 -110 55 -167 131 -135 38 15 59 60 59 124 l0 45 -95 0
-95 0 0 -34z"/>
<path d="M2562 3315 c5 -82 28 -110 89 -110 61 0 89 37 89 116 l0 59 -91 0
-91 0 4 -65z"/>
<path d="M888 2013 c-442 -505 -813 -931 -826 -947 -24 -31 -28 -75 -11 -108
26 -48 32 -48 770 -48 l692 0 -7 37 c-3 21 -6 44 -6 51 0 9 -127 12 -603 12
-592 0 -604 0 -625 20 -27 25 -38 65 -26 97 15 39 1426 1645 1457 1658 34 14
65 10 93 -13 12 -9 146 -160 298 -334 153 -175 281 -318 286 -318 5 0 20 14
33 31 l25 32 -325 371 -325 371 -48 3 -48 3 -804 -918z"/>
<path d="M2525 2005 c-445 -509 -818 -940 -828 -958 -21 -39 -15 -72 19 -107
l24 -25 1613 -3 c886 -1 1627 0 1646 3 79 14 106 94 54 157 -16 18 -387 444
-826 945 l-798 913 -47 0 -47 0 -810 -925z m925 758 c64 -59 1421 -1619 1426
-1641 9 -31 -3 -68 -28 -92 -22 -20 -29 -20 -1465 -20 l-1444 0 -24 25 c-18
17 -25 35 -25 64 0 38 26 69 712 853 391 447 718 818 727 825 29 23 88 16 121
-14z"/>
<path d="M2709 1797 l-27 -32 249 -285 249 -285 61 -3 c58 -3 60 -2 47 16 -27
37 -542 622 -547 621 -3 0 -18 -15 -32 -32z"/>
</g>
</svg>
