<?xml version="1.0" standalone="no"?>
<!DOCTYPE svg PUBLIC "-//W3C//DTD SVG 20010904//EN"
 "http://www.w3.org/TR/2001/REC-SVG-20010904/DTD/svg10.dtd">
<svg version="1.0" xmlns="http://www.w3.org/2000/svg"
 width="512.000000pt" height="512.000000pt" viewBox="0 0 512.000000 512.000000"
 preserveAspectRatio="xMidYMid meet">

<g transform="translate(0.000000,512.000000) scale(0.100000,-0.100000)"
fill="#000000" stroke="none">
<path d="M2172 5104 c-18 -9 -43 -31 -55 -48 -22 -31 -22 -32 -25 -542 l-3
-511 -302 -6 c-332 -5 -390 -14 -524 -77 -209 -97 -379 -301 -434 -517 l-13
-53 -111 0 c-134 0 -168 -14 -202 -80 -23 -43 -23 -51 -23 -389 0 -324 1 -347
20 -386 13 -26 34 -49 59 -63 l39 -22 1962 0 1962 0 39 22 c25 14 46 37 59 63
19 39 20 62 20 386 0 338 0 346 -22 389 -35 66 -69 80 -203 80 l-111 0 -13 53
c-55 216 -225 420 -434 517 -134 63 -192 72 -524 77 l-303 6 0 499 c0 552 1
545 -64 591 -31 22 -36 22 -396 24 -321 3 -369 1 -398 -13z m558 -694 l0 -410
-170 0 -170 0 0 410 0 410 170 0 170 0 0 -410z m941 -738 c129 -43 234 -134
295 -254 13 -26 24 -52 24 -58 0 -7 -453 -10 -1430 -10 -983 0 -1430 3 -1430
10 0 6 10 30 21 53 78 155 216 254 384 277 33 4 512 7 1065 6 l1005 -1 66 -23z
m669 -792 l0 -170 -1780 0 -1780 0 0 170 0 170 1780 0 1780 0 0 -170z"/>
<path d="M894 2051 c-23 -10 -52 -34 -65 -52 -21 -30 -24 -47 -28 -145 -3 -95
0 -118 17 -157 29 -65 70 -89 145 -84 51 3 62 8 95 40 l37 37 3 129 c4 149 -7
186 -64 221 -48 30 -92 34 -140 11z"/>
<path d="M1533 2050 c-71 -32 -83 -63 -83 -214 0 -112 3 -133 20 -161 55 -88
201 -85 255 6 17 29 20 52 20 154 0 143 -13 176 -85 213 -54 27 -73 27 -127 2z"/>
<path d="M2196 2060 c-16 -5 -40 -19 -53 -32 -46 -43 -53 -69 -53 -195 0 -100
3 -123 20 -151 57 -93 197 -97 257 -5 15 23 18 49 18 159 0 118 -2 135 -21
160 -43 58 -107 83 -168 64z"/>
<path d="M2834 2059 c-42 -12 -91 -69 -100 -114 -3 -19 -5 -82 -2 -138 2 -78
8 -110 21 -131 60 -91 200 -87 257 6 17 28 20 51 20 154 0 109 -2 124 -22 154
-44 64 -108 89 -174 69z"/>
<path d="M3460 2048 c-72 -37 -85 -70 -85 -213 0 -102 3 -125 20 -154 55 -93
207 -94 257 0 15 27 18 57 18 158 0 145 -14 180 -84 212 -53 24 -73 24 -126
-3z"/>
<path d="M4100 2047 c-71 -37 -81 -68 -78 -224 l3 -133 37 -37 c33 -32 44 -37
95 -40 45 -3 65 0 90 16 53 33 67 72 71 196 3 99 1 114 -20 155 -17 33 -35 51
-68 68 -56 28 -76 28 -130 -1z"/>
<path d="M880 1241 c-20 -11 -44 -36 -58 -62 -22 -40 -23 -54 -20 -161 3 -125
11 -147 70 -191 35 -26 114 -27 159 -1 56 32 69 71 69 209 0 102 -3 125 -20
153 -42 68 -129 91 -200 53z"/>
<path d="M1525 1241 c-66 -40 -70 -50 -73 -200 -2 -121 -1 -139 17 -168 57
-91 200 -87 256 7 17 30 20 52 20 155 0 107 -2 124 -23 156 -40 65 -134 89
-197 50z"/>
<path d="M2159 1237 c-56 -37 -69 -76 -69 -205 0 -132 12 -170 68 -204 47 -29
121 -30 159 -2 59 45 68 66 71 189 4 134 -13 190 -70 225 -46 28 -115 27 -159
-3z"/>
<path d="M2800 1238 c-60 -42 -71 -77 -68 -215 3 -132 10 -152 71 -197 36 -26
112 -27 157 0 56 33 70 72 70 204 0 132 -13 170 -69 207 -46 31 -116 31 -161
1z"/>
<path d="M3465 1251 c-36 -16 -75 -63 -86 -105 -18 -65 -8 -224 17 -266 55
-94 198 -98 255 -7 18 29 19 47 17 169 l-3 138 -37 36 c-31 32 -44 38 -90 41
-29 1 -62 -1 -73 -6z"/>
<path d="M4092 1240 c-61 -37 -72 -70 -72 -210 0 -141 12 -175 72 -206 45 -23
123 -22 156 3 59 44 67 66 70 191 3 107 2 121 -20 161 -41 76 -135 104 -206
61z"/>
<path d="M895 446 c-77 -33 -101 -99 -93 -254 5 -105 24 -143 86 -173 73 -36
151 -14 192 54 17 27 20 51 20 158 0 114 -2 129 -23 160 -41 61 -116 84 -182
55z"/>
<path d="M1530 443 c-19 -10 -45 -33 -57 -52 -21 -31 -23 -46 -23 -161 0 -115
2 -130 23 -161 61 -91 181 -89 251 5 19 24 21 42 21 149 0 104 -3 127 -20 156
-43 72 -126 100 -195 64z"/>
<path d="M2172 443 c-64 -31 -77 -63 -80 -203 -3 -138 7 -175 60 -213 38 -28
114 -33 158 -9 59 31 80 87 80 211 0 132 -19 179 -84 210 -51 25 -90 26 -134
4z"/>
<path d="M2813 440 c-64 -33 -83 -80 -83 -211 0 -132 18 -177 81 -210 77 -39
164 -12 201 62 25 47 26 245 2 295 -35 74 -125 103 -201 64z"/>
<path d="M3465 446 c-46 -20 -83 -69 -91 -122 -12 -81 1 -223 23 -252 69 -92
190 -94 250 -3 21 31 23 46 23 161 0 115 -2 130 -23 161 -41 61 -116 84 -182
55z"/>
<path d="M4100 443 c-19 -10 -45 -33 -57 -52 -21 -31 -23 -46 -23 -160 0 -107
3 -131 20 -158 41 -68 119 -90 192 -54 71 34 83 64 83 213 0 112 -2 130 -21
154 -50 68 -129 91 -194 57z"/>
</g>
</svg>
