<?xml version="1.0" standalone="no"?>
<!DOCTYPE svg PUBLIC "-//W3C//DTD SVG 20010904//EN"
 "http://www.w3.org/TR/2001/REC-SVG-20010904/DTD/svg10.dtd">
<svg version="1.0" xmlns="http://www.w3.org/2000/svg"
 width="512.000000pt" height="512.000000pt" viewBox="0 0 512.000000 512.000000"
 preserveAspectRatio="xMidYMid meet">

<g transform="translate(0.000000,512.000000) scale(0.100000,-0.100000)"
fill="#000000" stroke="none">
<path d="M1430 5104 c-30 -8 -73 -26 -96 -39 -61 -36 -139 -126 -166 -193
l-23 -57 -3 -992 -2 -993 -484 0 c-455 0 -484 -1 -499 -18 -16 -17 -17 -115
-17 -1205 l0 -1186 22 -15 c16 -11 46 -16 100 -16 l78 0 0 -173 c0 -168 1
-174 23 -195 l23 -22 2176 0 2177 0 20 26 c19 25 21 40 21 195 l0 169 78 0
c54 0 84 5 100 16 l22 15 0 1188 c0 1138 -1 1189 -18 1204 -17 15 -66 17 -500
17 l-482 0 -2 993 -3 993 -37 76 c-45 91 -103 147 -196 191 l-67 32 -1095 2
c-941 2 -1103 0 -1150 -13z m2255 -143 c60 -27 101 -66 129 -123 l26 -52 0
-978 0 -979 -77 3 -78 3 -5 845 -5 845 -32 67 c-40 85 -106 151 -191 191 l-67
32 -825 0 -825 0 -67 -32 c-85 -40 -151 -106 -191 -191 l-32 -67 -5 -845 -5
-845 -77 -3 -78 -3 0 978 c0 962 1 979 21 1023 27 60 64 98 124 126 l50 24
1085 0 c1029 0 1087 -1 1125 -19z m-304 -293 c54 -24 115 -83 141 -136 l23
-47 0 -825 0 -825 -985 0 -985 0 0 820 c0 911 -3 865 68 942 48 52 83 72 146
83 25 4 386 7 801 7 679 -2 759 -4 791 -19z m-891 -2288 l0 -320 -1107 2
-1108 3 -3 318 -2 317 1110 0 1110 0 0 -320z m2358 3 l-3 -318 -1107 -3 -1108
-2 0 320 0 320 1110 0 1110 0 -2 -317z m-2358 -773 l0 -320 -1107 2 -1108 3
-3 318 -2 317 1110 0 1110 0 0 -320z m2358 3 l-3 -318 -1107 -3 -1108 -2 0
320 0 320 1110 0 1110 0 -2 -317z m-2358 -773 l0 -320 -1107 2 -1108 3 -3 318
-2 317 1110 0 1110 0 0 -320z m2358 3 l-3 -318 -1107 -3 -1108 -2 0 320 0 320
1110 0 1110 0 -2 -317z m-208 -578 l0 -125 -2080 0 -2080 0 0 125 0 125 2080
0 2080 0 0 -125z"/>
<path d="M2513 4098 c-256 -256 -353 -360 -353 -376 0 -13 11 -34 26 -48 19
-20 31 -24 52 -19 34 8 710 679 719 713 8 33 -26 76 -63 80 -26 2 -64 -33
-381 -350z"/>
<path d="M2517 3523 c-191 -192 -350 -359 -354 -371 -8 -32 26 -76 62 -80 25
-3 66 34 382 350 257 258 353 359 353 376 0 29 -42 72 -72 72 -16 0 -118 -96
-371 -347z"/>
<path d="M1305 2561 c-100 -46 -143 -165 -96 -266 35 -76 85 -105 179 -105
101 0 172 63 188 166 22 151 -133 269 -271 205z m119 -137 c33 -33 8 -104 -36
-104 -53 0 -82 53 -53 96 18 28 65 33 89 8z"/>
<path d="M3665 2565 c-88 -31 -137 -125 -117 -223 21 -100 84 -152 186 -152
92 0 143 30 177 105 48 103 1 226 -103 270 -46 18 -90 19 -143 0z m120 -149
c40 -60 -34 -127 -87 -79 -22 20 -24 66 -2 87 24 25 71 20 89 -8z"/>
<path d="M1317 1795 c-160 -56 -169 -305 -14 -364 46 -18 133 -13 177 9 109
56 131 221 41 311 -55 55 -129 71 -204 44z m107 -141 c33 -33 8 -104 -36 -104
-53 0 -82 53 -53 96 18 28 65 33 89 8z"/>
<path d="M3665 1795 c-88 -31 -137 -125 -117 -223 21 -100 84 -152 186 -152
92 0 143 30 177 105 50 109 -8 244 -119 275 -49 13 -79 12 -127 -5z m115 -141
c33 -39 5 -104 -44 -104 -48 0 -75 70 -40 104 20 20 68 21 84 0z"/>
<path d="M1317 1025 c-160 -56 -169 -305 -14 -364 46 -18 133 -13 177 9 109
56 131 221 41 311 -55 55 -129 71 -204 44z m107 -141 c33 -33 8 -104 -36 -104
-53 0 -82 53 -53 96 18 28 65 33 89 8z"/>
<path d="M3665 1025 c-88 -31 -137 -125 -117 -223 21 -100 84 -152 186 -152
92 0 143 30 177 105 50 109 -8 244 -119 275 -49 13 -79 12 -127 -5z m120 -149
c40 -60 -34 -127 -87 -79 -22 20 -24 66 -2 87 24 25 71 20 89 -8z"/>
</g>
</svg>
