<?xml version="1.0" standalone="no"?>
<!DOCTYPE svg PUBLIC "-//W3C//DTD SVG 20010904//EN"
 "http://www.w3.org/TR/2001/REC-SVG-20010904/DTD/svg10.dtd">
<svg version="1.0" xmlns="http://www.w3.org/2000/svg"
 width="512.000000pt" height="512.000000pt" viewBox="0 0 512.000000 512.000000"
 preserveAspectRatio="xMidYMid meet">

<g transform="translate(0.000000,512.000000) scale(0.100000,-0.100000)"
fill="#000000" stroke="none">
<path d="M2410 5114 c-282 -34 -549 -133 -767 -287 -109 -77 -290 -256 -364
-362 -151 -214 -247 -453 -284 -706 -13 -92 -15 -310 -15 -1574 l0 -1467 22
-39 c14 -25 37 -46 63 -59 41 -20 62 -20 1495 -20 1433 0 1454 0 1495 20 26
13 49 34 63 59 l22 40 -2 1508 -3 1508 -23 108 c-46 217 -142 439 -265 614
-79 112 -257 290 -370 370 -260 183 -552 280 -872 287 -88 3 -176 2 -195 0z
m0 -1204 l0 -900 -565 0 -565 0 0 306 c0 226 4 334 16 413 60 412 331 779 709
961 121 58 307 116 388 119 16 1 17 -48 17 -899z m465 868 c233 -58 433 -175
608 -357 136 -141 229 -296 292 -484 54 -162 65 -270 65 -621 l0 -306 -565 0
-565 0 0 901 0 901 43 -7 c23 -4 78 -16 122 -27z m-465 -2973 l0 -905 -565 0
-565 0 0 905 0 905 565 0 565 0 0 -905z m1430 0 l0 -905 -565 0 -565 0 0 905
0 905 565 0 565 0 0 -905z"/>
<path d="M1624 3910 c-71 -16 -114 -70 -114 -145 0 -56 11 -77 77 -145 l43
-46 -46 -44 c-58 -57 -74 -88 -74 -142 0 -105 106 -176 205 -138 14 5 50 32
79 60 l52 49 44 -44 c24 -24 58 -51 76 -60 100 -47 214 23 214 133 0 54 -16
85 -74 141 l-45 45 49 52 c55 58 70 88 70 141 0 82 -62 145 -144 145 -55 0
-89 -18 -145 -76 l-45 -46 -57 55 c-31 30 -69 57 -85 60 -16 4 -33 8 -39 9 -5
1 -24 0 -41 -4z"/>
<path d="M3012 4271 c-100 -63 -96 -206 8 -263 85 -47 200 14 216 114 8 45
-23 113 -63 142 -40 29 -120 32 -161 7z"/>
<path d="M3312 3590 c-51 -31 -74 -76 -69 -136 4 -62 28 -97 84 -125 135 -66
271 98 183 221 -43 61 -134 79 -198 40z"/>
<path d="M1975 2246 c-63 -27 -107 -110 -90 -168 41 -134 205 -161 275 -46 74
122 -55 271 -185 214z"/>
<path d="M1582 1560 c-71 -44 -95 -143 -49 -211 81 -122 271 -65 271 81 0 113
-127 188 -222 130z"/>
<path d="M3012 2310 c-62 -38 -88 -116 -62 -185 5 -14 32 -50 60 -79 l49 -52
-45 -45 c-58 -56 -74 -87 -74 -141 0 -122 138 -191 236 -119 21 16 52 42 68
59 l29 31 59 -54 c62 -58 101 -72 165 -62 64 11 113 75 113 147 0 52 -17 84
-74 139 l-46 45 55 57 c60 62 70 88 62 156 -7 64 -56 113 -120 120 -68 8 -94
-2 -156 -62 l-57 -55 -45 46 c-24 25 -56 52 -71 60 -39 20 -107 18 -146 -6z"/>
<path d="M3087 1408 c-39 -23 -77 -86 -77 -128 0 -44 38 -105 79 -128 101 -57
221 12 221 128 0 116 -122 186 -223 128z"/>
<path d="M1061 282 c-54 -27 -76 -64 -76 -130 0 -43 6 -65 22 -88 49 -69 -66
-64 1555 -64 l1463 0 39 23 c77 44 98 144 46 217 -45 64 51 60 -1552 60 -1373
0 -1465 -1 -1497 -18z"/>
</g>
</svg>
