<?xml version="1.0" standalone="no"?>
<!DOCTYPE svg PUBLIC "-//W3C//DTD SVG 20010904//EN"
 "http://www.w3.org/TR/2001/REC-SVG-20010904/DTD/svg10.dtd">
<svg version="1.0" xmlns="http://www.w3.org/2000/svg"
 width="512.000000pt" height="512.000000pt" viewBox="0 0 512.000000 512.000000"
 preserveAspectRatio="xMidYMid meet">

<g transform="translate(0.000000,512.000000) scale(0.100000,-0.100000)"
fill="#000000" stroke="none">
<path d="M2463 5055 c-78 -22 -125 -48 -190 -108 -75 -69 -1765 -1611 -1862
-1698 -56 -52 -73 -73 -74 -95 -1 -16 0 -710 1 -1541 2 -1498 2 -1513 22
-1533 19 -19 33 -20 343 -20 l324 0 21 23 22 23 0 1192 0 1192 1490 0 1490 0
0 -1193 0 -1194 23 -21 c23 -22 29 -22 343 -22 261 0 324 3 340 14 19 14 19
44 24 1548 3 843 3 1540 0 1550 -5 15 -1872 1727 -1972 1808 -92 74 -237 106
-345 75z m203 -173 c31 -16 1726 -1552 1879 -1703 l40 -39 -245 -245 -245
-245 -1535 0 -1535 0 -245 245 -245 245 40 39 c75 74 1830 1673 1853 1688 68
47 165 52 238 15z m-1756 -3504 l0 -1158 -205 0 -205 0 0 1362 0 1363 205
-205 205 -205 0 -1157z m3710 202 l0 -1360 -205 0 -205 0 0 1157 0 1158 202
202 c112 112 204 203 205 203 2 0 3 -612 3 -1360z"/>
<path d="M2436 4409 c-168 -39 -326 -200 -365 -369 -13 -58 -13 -182 0 -240
39 -170 199 -330 369 -369 58 -13 182 -13 240 0 170 39 330 199 369 369 13 58
13 182 0 240 -39 170 -199 330 -369 369 -54 13 -190 12 -244 0z m251 -171 c41
-15 74 -38 114 -77 70 -70 99 -141 99 -241 0 -100 -29 -171 -99 -241 -70 -70
-141 -99 -241 -99 -100 0 -171 29 -241 99 -70 70 -99 141 -99 241 0 100 29
171 99 241 71 70 137 98 238 98 51 1 90 -5 130 -21z"/>
<path d="M680 3200 c-36 -36 -25 -102 21 -125 42 -22 3676 -22 3718 0 46 23
57 89 21 125 -20 20 -33 20 -1880 20 -1847 0 -1860 0 -1880 -20z"/>
<path d="M1269 587 c-44 -34 -47 -89 -7 -127 22 -20 30 -20 1298 -20 1268 0
1276 0 1298 20 40 38 37 93 -7 127 -23 18 -2559 18 -2582 0z"/>
<path d="M1283 210 c-34 -14 -56 -54 -48 -90 14 -64 -78 -60 1326 -60 1201 0
1278 1 1298 17 34 29 37 74 8 109 l-25 29 -1269 2 c-721 1 -1277 -2 -1290 -7z"/>
</g>
</svg>
