<?xml version="1.0" standalone="no"?>
<!DOCTYPE svg PUBLIC "-//W3C//DTD SVG 20010904//EN"
 "http://www.w3.org/TR/2001/REC-SVG-20010904/DTD/svg10.dtd">
<svg version="1.0" xmlns="http://www.w3.org/2000/svg"
 width="512.000000pt" height="512.000000pt" viewBox="0 0 512.000000 512.000000"
 preserveAspectRatio="xMidYMid meet">

<g transform="translate(0.000000,512.000000) scale(0.100000,-0.100000)"
fill="#000000" stroke="none">
<path d="M1171 5104 c-114 -30 -220 -113 -274 -212 -60 -110 -57 4 -57 -2138
0 -1376 3 -1978 11 -2020 37 -200 185 -330 411 -359 l46 -6 4 -134 c3 -145 9
-163 72 -209 41 -31 130 -29 175 3 55 40 71 88 71 224 l0 117 930 0 930 0 0
-117 c0 -136 16 -184 71 -224 45 -32 134 -34 175 -3 63 46 69 64 72 209 l4
134 46 6 c84 11 136 26 195 57 108 58 193 177 216 304 8 40 11 662 11 2018 0
2142 3 2028 -57 2138 -57 104 -176 193 -291 217 -37 8 -445 11 -1380 10 -1127
0 -1335 -3 -1381 -15z m2719 -317 c13 -7 35 -28 47 -46 l23 -34 0 -1954 c0
-2130 4 -2001 -56 -2040 -27 -17 -86 -18 -1344 -18 -1258 0 -1317 1 -1344 18
-60 39 -56 -90 -56 2040 l0 1954 23 34 c12 18 34 39 47 46 36 18 2624 18 2660
0z"/>
<path d="M2505 4205 c-22 -8 -41 -15 -41 -15 -1 0 -82 -95 -180 -210 -255
-299 -291 -367 -301 -559 -10 -187 39 -316 166 -441 117 -115 249 -170 411
-170 163 0 294 54 411 170 127 125 176 254 166 441 -6 119 -28 195 -85 288
-48 79 -385 475 -416 489 -43 20 -90 22 -131 7z m160 -517 c120 -140 155 -206
155 -299 0 -105 -39 -174 -129 -227 -40 -24 -56 -27 -131 -27 -75 0 -91 3
-131 27 -54 32 -93 75 -115 127 -22 52 -15 172 14 231 22 46 216 280 232 280
5 0 52 -51 105 -112z"/>
<path d="M2077 2466 c-72 -26 -107 -76 -107 -153 0 -91 63 -153 155 -153 79 0
133 42 155 121 22 75 -35 168 -114 188 -53 13 -42 13 -89 -3z"/>
<path d="M2950 2468 c-77 -22 -131 -114 -110 -188 22 -78 76 -120 155 -120 93
0 155 62 155 156 0 106 -99 181 -200 152z"/>
<path d="M1779 1846 c-68 -46 -69 -54 -69 -429 0 -331 0 -334 23 -368 12 -18
38 -44 56 -56 l34 -23 737 0 737 0 34 23 c18 12 44 38 56 56 23 34 23 37 23
368 0 375 -1 383 -69 429 l-36 24 -745 0 -745 0 -36 -24z m1311 -426 l0 -130
-530 0 -530 0 0 130 0 130 530 0 530 0 0 -130z"/>
</g>
</svg>
