<?xml version="1.0" standalone="no"?>
<!DOCTYPE svg PUBLIC "-//W3C//DTD SVG 20010904//EN"
 "http://www.w3.org/TR/2001/REC-SVG-20010904/DTD/svg10.dtd">
<svg version="1.0" xmlns="http://www.w3.org/2000/svg"
 width="512.000000pt" height="512.000000pt" viewBox="0 0 512.000000 512.000000"
 preserveAspectRatio="xMidYMid meet">

<g transform="translate(0.000000,512.000000) scale(0.100000,-0.100000)"
fill="#000000" stroke="none">
<path d="M2658 4596 c-31 -16 -778 -695 -822 -747 -70 -82 -106 -219 -86 -330
20 -117 57 -175 188 -296 203 -187 222 -216 222 -327 0 -90 -31 -138 -177
-270 -72 -64 -139 -130 -150 -145 -99 -133 -115 -308 -43 -452 33 -64 65 -99
214 -234 119 -109 147 -157 148 -251 0 -96 -25 -138 -151 -250 l-106 -94 -292
0 -291 0 -31 -26 -31 -26 0 -292 0 -293 26 -24 26 -24 1201 -3 c843 -2 1213 0
1239 8 65 19 68 33 68 335 0 289 -3 310 -55 333 -18 8 -108 12 -296 12 l-271
0 46 51 c135 150 149 369 33 531 -17 25 -91 100 -163 166 -147 135 -174 178
-174 274 0 93 31 140 175 271 70 64 143 137 161 163 94 132 106 293 34 441
-25 50 -55 84 -153 175 -67 62 -136 128 -154 147 -68 72 -82 205 -30 294 14
23 76 87 138 142 117 104 146 146 130 187 -9 23 -472 537 -494 549 -30 16 -54
18 -79 5z m211 -396 l160 -175 -93 -90 c-52 -49 -105 -110 -119 -135 -80 -142
-74 -321 15 -452 18 -26 92 -102 164 -168 155 -140 179 -178 178 -280 0 -99
-28 -141 -193 -292 -117 -107 -144 -137 -171 -191 -63 -129 -64 -264 -1 -391
30 -61 44 -76 249 -269 111 -105 139 -182 107 -294 -15 -53 -26 -67 -122 -161
l-106 -102 -390 0 -390 0 52 55 c90 95 129 218 110 350 -18 131 -55 182 -288
399 -88 83 -111 127 -111 216 0 111 12 128 213 313 100 93 122 119 153 183 47
94 57 197 29 300 -26 96 -78 165 -223 296 -151 137 -172 170 -172 275 0 116 2
118 404 484 286 260 364 326 373 316 7 -7 85 -91 172 -187z m766 -3345 l0
-170 -1107 -3 -1108 -2 0 175 0 175 1108 -2 1107 -3 0 -170z"/>
<path d="M3579 3321 c-16 -16 -29 -40 -29 -53 0 -13 25 -56 55 -96 128 -171
127 -387 -5 -543 -48 -57 -57 -87 -36 -127 17 -33 34 -42 79 -42 69 0 190 182
218 328 16 82 7 219 -20 304 -23 72 -105 204 -148 238 -37 29 -79 26 -114 -9z"/>
<path d="M1425 2617 c-201 -207 -204 -574 -6 -789 42 -45 53 -52 86 -52 29 0
43 7 61 28 37 42 31 74 -25 144 -72 89 -95 155 -95 272 0 115 24 184 91 267
55 68 64 109 32 146 -13 15 -39 30 -57 33 -30 6 -38 2 -87 -49z"/>
</g>
</svg>
