<?xml version="1.0" standalone="no"?>
<!DOCTYPE svg PUBLIC "-//W3C//DTD SVG 20010904//EN"
 "http://www.w3.org/TR/2001/REC-SVG-20010904/DTD/svg10.dtd">
<svg version="1.0" xmlns="http://www.w3.org/2000/svg"
 width="512.000000pt" height="512.000000pt" viewBox="0 0 512.000000 512.000000"
 preserveAspectRatio="xMidYMid meet">

<g transform="translate(0.000000,512.000000) scale(0.100000,-0.100000)"
fill="#000000" stroke="none">
<path d="M2281 4895 c-61 -19 -118 -78 -136 -139 -10 -32 -15 -94 -15 -173 0
-119 -1 -123 -21 -123 -42 0 -267 -50 -356 -79 -182 -60 -338 -149 -462 -267
-68 -64 -171 -203 -186 -251 -6 -21 -12 -23 -86 -23 -96 0 -134 -16 -155 -67
-12 -27 -13 -42 -4 -68 18 -55 43 -69 129 -75 l76 -5 6 -245 c5 -229 7 -251
33 -335 78 -261 257 -477 491 -595 64 -32 85 -47 82 -59 -2 -9 -183 -506 -401
-1105 -218 -599 -396 -1102 -396 -1118 0 -45 57 -98 105 -98 80 0 62 -42 504
1175 l403 1110 226 -5 227 -5 5 -1143 5 -1144 34 -30 c29 -26 39 -30 74 -25
25 3 50 16 66 31 l26 26 3 1145 2 1145 220 0 c121 0 223 0 228 1 4 1 190 -502
414 -1118 294 -808 413 -1123 429 -1136 72 -58 176 -10 172 81 -1 20 -180 526
-401 1132 l-400 1095 88 45 c281 146 461 390 515 699 10 55 15 152 15 282 l0
199 76 0 c70 0 78 2 105 29 32 32 38 79 17 126 -18 41 -57 55 -147 55 -69 0
-80 2 -86 19 -9 30 -84 141 -133 199 -169 198 -508 357 -844 397 l-58 7 0 139
c0 184 -19 231 -115 282 -35 19 -59 22 -185 24 -104 2 -158 -1 -189 -12z m279
-310 l0 -105 -105 0 -105 0 0 105 0 105 105 0 105 0 0 -105z m233 -341 c206
-28 385 -85 521 -166 68 -40 199 -156 237 -210 l20 -28 -1116 0 -1116 0 11 21
c23 41 137 148 212 197 170 110 406 179 692 202 141 11 399 3 539 -16z m832
-824 c0 -162 -4 -222 -19 -283 -52 -225 -225 -429 -443 -521 -129 -54 -172
-57 -744 -54 -586 4 -571 3 -724 78 -146 72 -263 189 -335 335 -65 134 -72
172 -77 428 l-5 227 1174 -2 1173 -3 0 -205z"/>
</g>
</svg>
