<?xml version="1.0" standalone="no"?>
<!DOCTYPE svg PUBLIC "-//W3C//DTD SVG 20010904//EN"
 "http://www.w3.org/TR/2001/REC-SVG-20010904/DTD/svg10.dtd">
<svg version="1.0" xmlns="http://www.w3.org/2000/svg"
 width="512.000000pt" height="512.000000pt" viewBox="0 0 512.000000 512.000000"
 preserveAspectRatio="xMidYMid meet">

<g transform="translate(0.000000,512.000000) scale(0.100000,-0.100000)"
fill="#000000" stroke="none">
<path d="M1965 5114 c-136 -22 -295 -93 -396 -178 -150 -124 -251 -306 -279
-504 -8 -54 -10 -497 -8 -1460 l3 -1384 33 -29 c42 -38 98 -40 139 -5 l28 24
5 159 5 158 943 3 942 2 0 -139 c0 -77 4 -151 9 -164 17 -44 51 -67 99 -67 36
0 49 5 73 31 l28 31 3 1416 3 1417 27 81 c51 149 165 279 301 343 86 40 158
55 257 55 155 -2 281 -55 395 -169 105 -104 153 -213 171 -383 10 -104 69
-151 148 -118 42 17 66 63 66 123 0 80 -39 224 -84 316 -291 596 -1140 591
-1422 -8 -66 -140 -76 -201 -82 -497 l-5 -258 -940 0 -940 0 6 258 c4 205 8
268 22 312 43 137 124 250 232 323 230 156 536 130 729 -63 105 -104 156 -212
173 -363 6 -47 16 -95 23 -106 19 -30 73 -54 108 -46 36 8 76 47 83 81 6 31
-9 173 -24 229 -71 264 -295 486 -564 559 -60 17 -254 29 -310 20z m1415
-1609 l0 -185 -945 0 -945 0 0 185 0 185 945 0 945 0 0 -185z m0 -605 l0 -190
-942 2 -943 3 -3 188 -2 187 945 0 945 0 0 -190z m0 -590 l0 -190 -942 2 -943
3 -3 188 -2 187 945 0 945 0 0 -190z"/>
<path d="M565 1280 c-156 -34 -330 -102 -371 -147 -33 -36 -33 -91 2 -132 40
-48 76 -49 183 -7 189 76 308 99 452 86 130 -11 165 -21 406 -117 285 -113
369 -134 555 -140 219 -8 374 25 662 139 274 109 379 132 542 118 117 -11 186
-31 394 -115 279 -113 410 -145 599 -145 127 0 250 18 380 55 87 25 226 77
273 101 31 16 58 61 58 96 0 40 -36 86 -75 97 -32 9 -49 5 -138 -30 -251 -98
-449 -127 -637 -94 -108 19 -177 41 -370 120 -261 106 -377 135 -546 135 -169
0 -301 -33 -544 -136 -152 -64 -273 -100 -400 -119 -223 -34 -343 -12 -694
129 -246 100 -316 117 -496 122 -118 3 -162 0 -235 -16z"/>
<path d="M645 479 c-120 -16 -295 -69 -408 -126 -82 -41 -99 -124 -35 -178 41
-35 90 -32 190 9 148 61 237 80 383 80 157 0 181 -6 471 -120 306 -122 446
-152 639 -141 188 12 323 47 600 155 242 94 292 106 445 106 153 1 205 -12
425 -101 329 -134 424 -158 635 -157 195 1 332 28 550 111 107 40 147 71 156
119 10 56 -46 124 -103 124 -9 0 -62 -18 -118 -40 -56 -21 -146 -51 -201 -66
-90 -25 -115 -28 -274 -28 -208 -1 -233 5 -518 120 -220 89 -319 118 -447 134
-167 22 -361 -12 -565 -96 -337 -140 -411 -159 -635 -159 -201 0 -229 7 -509
120 -222 89 -294 112 -416 130 -104 16 -160 17 -265 4z"/>
</g>
</svg>
