<?xml version="1.0" standalone="no"?>
<!DOCTYPE svg PUBLIC "-//W3C//DTD SVG 20010904//EN"
 "http://www.w3.org/TR/2001/REC-SVG-20010904/DTD/svg10.dtd">
<svg version="1.0" xmlns="http://www.w3.org/2000/svg"
 width="512.000000pt" height="512.000000pt" viewBox="0 0 512.000000 512.000000"
 preserveAspectRatio="xMidYMid meet">

<g transform="translate(0.000000,512.000000) scale(0.100000,-0.100000)"
fill="#000000" stroke="none">
<path d="M1495 4553 c-415 -51 -737 -389 -771 -808 -6 -73 -4 -83 16 -107 15
-20 30 -28 54 -28 52 0 72 31 80 122 9 106 30 180 76 273 113 231 337 380 600
402 89 7 120 27 120 79 0 62 -53 82 -175 67z"/>
<path d="M1480 4224 c-233 -50 -411 -254 -436 -497 -5 -54 -3 -65 16 -89 41
-53 130 -23 130 45 0 132 91 287 208 350 54 29 150 57 197 57 70 0 103 87 49
129 -31 24 -70 26 -164 5z"/>
<path d="M1570 3911 c-68 -21 -123 -66 -154 -128 -9 -17 -45 -188 -80 -380
-71 -384 -72 -396 -20 -480 26 -42 85 -85 143 -104 10 -4 10 -19 0 -70 -10
-55 -9 -73 5 -122 29 -100 96 -150 239 -177 l57 -11 0 -155 c0 -148 -1 -156
-25 -194 -56 -89 -65 -201 -24 -297 l18 -43 -629 0 -630 0 0 28 c0 41 -43 124
-81 156 -57 48 -88 56 -222 56 -116 0 -125 -1 -145 -23 l-22 -23 0 -668 0
-667 25 -24 c23 -24 31 -25 133 -25 128 0 184 16 236 66 68 66 71 78 74 296
l3 197 647 3 647 3 58 23 c81 33 168 116 209 200 28 57 33 78 36 164 4 97 5
100 31 109 129 47 211 159 211 289 0 81 -11 123 -50 183 -28 45 -30 53 -30
153 l0 106 33 -6 c17 -3 529 -98 1137 -212 854 -158 1116 -204 1154 -200 66 7
133 50 168 106 23 39 38 103 103 455 42 226 78 418 81 428 3 9 50 69 105 133
54 63 102 127 105 140 9 35 -13 72 -50 83 -26 9 -550 107 -2346 440 -118 22
-411 76 -650 120 -445 83 -457 85 -500 72z m1674 -441 c891 -166 1629 -304
1638 -308 14 -6 -39 -71 -263 -331 -154 -179 -288 -331 -297 -338 -51 -39 -72
-37 -494 41 -1315 245 -1701 316 -1723 316 -58 0 -88 -86 -45 -125 16 -14 261
-64 1083 -217 1167 -218 1117 -211 1226 -157 52 26 80 53 197 190 76 87 139
157 141 156 5 -5 -96 -540 -106 -564 -6 -12 -22 -30 -36 -39 -30 -20 37 -30
-610 91 -225 42 -601 112 -835 155 -234 43 -658 122 -944 175 -285 53 -526
101 -536 108 -29 17 -41 55 -35 102 11 69 11 69 109 49 67 -13 92 -14 112 -6
50 23 57 97 11 126 -12 8 -98 29 -192 46 -172 32 -199 42 -215 86 -10 26 111
686 130 710 12 13 41 30 59 33 2 1 733 -134 1625 -299z m-1211 -1082 l47 -10
0 -76 0 -77 -82 2 -83 1 -3 92 -3 92 38 -7 c21 -3 59 -11 86 -17z m43 -324
c51 -24 77 -68 82 -136 4 -50 1 -64 -22 -98 -59 -89 -177 -101 -252 -26 -102
102 -34 276 109 276 27 0 64 -7 83 -16z m-1781 -249 l25 -24 0 -511 0 -512
-29 -29 c-26 -25 -37 -29 -85 -29 l-56 0 0 565 0 565 60 0 c51 0 65 -4 85 -25z
m1625 -285 c0 -39 -6 -85 -14 -104 -19 -46 -72 -104 -120 -129 -41 -22 -44
-22 -678 -25 l-638 -3 0 166 0 165 725 0 725 0 0 -70z"/>
</g>
</svg>
