<?xml version="1.0" standalone="no"?>
<!DOCTYPE svg PUBLIC "-//W3C//DTD SVG 20010904//EN"
 "http://www.w3.org/TR/2001/REC-SVG-20010904/DTD/svg10.dtd">
<svg version="1.0" xmlns="http://www.w3.org/2000/svg"
 width="512.000000pt" height="512.000000pt" viewBox="0 0 512.000000 512.000000"
 preserveAspectRatio="xMidYMid meet">

<g transform="translate(0.000000,512.000000) scale(0.100000,-0.100000)"
fill="#000000" stroke="none">
<path d="M2490 4894 c-19 -8 -577 -410 -1240 -892 -1097 -798 -1207 -881
-1228 -922 -53 -102 7 -247 120 -294 30 -13 82 -16 268 -16 l230 0 0 -1198 0
-1198 26 -52 c19 -39 38 -59 72 -80 l47 -27 1775 0 1775 0 47 27 c34 21 53 41
72 80 l26 52 0 1198 0 1198 230 0 c186 0 238 3 268 16 113 47 173 192 120 294
-21 41 -131 124 -1228 922 -663 482 -1222 884 -1243 893 -46 19 -91 19 -137
-1z m322 -1725 c616 -122 1065 -702 1024 -1322 -38 -586 -450 -1060 -1026
-1184 -119 -25 -381 -25 -500 0 -327 70 -597 246 -791 517 -358 498 -305 1187
125 1625 312 318 735 449 1168 364z"/>
<path d="M2240 2560 l0 -320 -320 0 -320 0 0 -320 0 -320 320 0 320 0 0 -320
0 -320 320 0 320 0 0 320 0 320 320 0 320 0 0 320 0 320 -320 0 -320 0 0 320
0 320 -320 0 -320 0 0 -320z"/>
</g>
</svg>
