<?xml version="1.0" standalone="no"?>
<!DOCTYPE svg PUBLIC "-//W3C//DTD SVG 20010904//EN"
 "http://www.w3.org/TR/2001/REC-SVG-20010904/DTD/svg10.dtd">
<svg version="1.0" xmlns="http://www.w3.org/2000/svg"
 width="512.000000pt" height="512.000000pt" viewBox="0 0 512.000000 512.000000"
 preserveAspectRatio="xMidYMid meet">

<g transform="translate(0.000000,512.000000) scale(0.100000,-0.100000)"
fill="#000000" stroke="none">
<path d="M2330 4945 c-488 -61 -927 -298 -1238 -670 -290 -346 -451 -786 -452
-1233 -1 -617 334 -1321 966 -2028 300 -336 879 -854 954 -854 57 0 435 322
737 627 843 851 1250 1699 1173 2443 -70 672 -473 1246 -1081 1540 -330 159
-698 220 -1059 175z m498 -490 c286 -56 539 -191 747 -400 210 -209 343 -459
402 -752 24 -121 24 -393 0 -518 -116 -597 -569 -1050 -1162 -1161 -134 -25
-393 -26 -518 -1 -291 58 -544 193 -752 402 -210 209 -343 459 -402 752 -24
122 -24 404 0 526 97 486 421 883 871 1068 103 42 253 83 361 98 98 14 354 6
453 -14z"/>
<path d="M2005 3674 c-291 -135 -538 -254 -547 -266 -23 -26 -23 -70 -1 -96
20 -23 1074 -512 1103 -512 29 0 1083 489 1103 512 9 11 17 33 17 48 0 15 -8
37 -17 48 -22 25 -1076 512 -1106 511 -12 0 -260 -111 -552 -245z"/>
<path d="M3593 3094 l-73 -34 0 -146 c0 -141 1 -146 25 -169 15 -16 36 -25 55
-25 19 0 40 9 55 25 25 24 25 26 25 205 0 99 -3 180 -7 179 -5 0 -41 -16 -80
-35z"/>
<path d="M1760 2754 l0 -228 78 -77 c184 -180 401 -274 668 -286 316 -15 592
91 798 306 l56 60 0 226 c0 188 -2 226 -14 222 -7 -3 -173 -79 -367 -169 -343
-158 -356 -163 -419 -163 -63 0 -76 5 -419 163 -194 90 -359 166 -367 169 -12
4 -14 -32 -14 -223z"/>
</g>
</svg>
