<?xml version="1.0" standalone="no"?>
<!DOCTYPE svg PUBLIC "-//W3C//DTD SVG 20010904//EN"
 "http://www.w3.org/TR/2001/REC-SVG-20010904/DTD/svg10.dtd">
<svg version="1.0" xmlns="http://www.w3.org/2000/svg"
 width="512.000000pt" height="512.000000pt" viewBox="0 0 512.000000 512.000000"
 preserveAspectRatio="xMidYMid meet">

<g transform="translate(0.000000,512.000000) scale(0.100000,-0.100000)"
fill="#000000" stroke="none">
<path d="M1435 5113 c-210 -29 -412 -128 -561 -277 -121 -122 -211 -278 -256
-447 l-23 -84 -2 -2152 -3 -2153 370 0 370 0 0 420 0 420 1230 0 1230 0 0
-420 0 -420 370 0 370 0 -3 2153 -2 2152 -23 84 c-86 322 -323 576 -633 681
-145 49 -159 50 -1319 48 -597 0 -1098 -3 -1115 -5z m1855 -865 c48 -33 72
-70 77 -121 10 -87 -41 -163 -124 -186 -52 -15 -1314 -15 -1366 0 -83 23 -134
99 -124 186 5 51 29 88 77 121 l33 22 697 0 697 0 33 -22z m568 -892 c41 -21
81 -68 92 -107 6 -21 10 -333 10 -814 -1 -824 -1 -826 -47 -877 -10 -11 -36
-29 -58 -39 -38 -18 -99 -19 -1293 -19 -1105 0 -1257 2 -1289 15 -50 21 -72
42 -94 90 -18 38 -19 85 -19 825 0 481 4 798 10 819 11 39 41 75 85 102 29 18
79 19 1303 19 1076 0 1277 -2 1300 -14z"/>
<path d="M1970 3007 c19 -13 160 -101 312 -196 l278 -173 302 187 c167 104
307 192 313 197 5 4 -272 8 -615 8 l-625 0 35 -23z"/>
<path d="M1502 2368 l3 -523 1055 0 1055 0 3 523 c1 287 0 522 -3 522 -3 0
-227 -138 -498 -307 l-492 -308 -65 0 -65 0 -492 308 c-270 169 -494 307 -497
307 -3 0 -5 -235 -4 -522z"/>
</g>
</svg>
