<?xml version="1.0" standalone="no"?>
<!DOCTYPE svg PUBLIC "-//W3C//DTD SVG 20010904//EN"
 "http://www.w3.org/TR/2001/REC-SVG-20010904/DTD/svg10.dtd">
<svg version="1.0" xmlns="http://www.w3.org/2000/svg"
 width="512.000000pt" height="512.000000pt" viewBox="0 0 512.000000 512.000000"
 preserveAspectRatio="xMidYMid meet">

<g transform="translate(0.000000,512.000000) scale(0.100000,-0.100000)"
fill="#000000" stroke="none">
<path d="M3445 4349 c-410 -43 -839 -250 -1123 -542 l-72 -75 0 -361 c0 -346
1 -362 20 -381 11 -11 31 -22 45 -26 27 -7 26 -7 191 104 122 82 287 166 417
211 l87 30 0 -145 0 -146 29 -29 c16 -16 37 -29 46 -29 24 0 72 27 79 45 3 9
6 90 6 180 0 188 -13 167 119 190 163 29 370 39 531 26 136 -11 284 -32 331
-46 18 -6 19 -24 19 -337 l0 -330 -47 6 c-188 25 -363 32 -393 16 -25 -13 -41
-65 -30 -95 16 -42 47 -52 175 -59 66 -3 159 -11 208 -17 l87 -12 0 -335 0
-335 -42 7 c-24 3 -189 9 -368 12 -363 7 -388 4 -407 -53 -14 -39 7 -90 39
-97 13 -3 172 -7 353 -10 182 -3 351 -9 378 -12 l47 -7 0 -388 0 -389 -329 0
c-181 0 -337 -3 -346 -6 -23 -9 -48 -62 -41 -90 4 -13 16 -33 28 -44 21 -20
32 -20 765 -20 l744 0 24 25 25 24 0 1461 0 1460 -42 47 c-123 133 -339 293
-517 382 -320 160 -683 227 -1036 190z m480 -174 c50 -9 125 -25 168 -36 l77
-21 0 -299 c0 -233 -3 -299 -12 -299 -7 0 -51 7 -97 15 -161 28 -378 39 -545
26 -84 -6 -191 -18 -237 -26 -46 -8 -90 -15 -97 -15 -10 0 -12 65 -10 308 l3
307 100 22 c55 12 138 27 185 32 113 13 353 6 465 -14z m-915 -404 l0 -299
-32 -7 c-103 -22 -387 -149 -513 -229 l-55 -36 0 233 0 234 73 69 c79 76 160
141 249 198 67 43 248 135 266 136 9 0 12 -66 12 -299z m1438 224 c130 -68
242 -148 349 -249 l83 -78 0 -214 c0 -118 -2 -214 -5 -214 -3 0 -45 22 -93 49
-104 59 -272 131 -376 163 l-76 23 0 288 c0 158 3 287 8 287 4 0 53 -25 110
-55z m167 -800 c61 -29 145 -76 188 -104 l77 -51 0 -266 c0 -249 -1 -266 -17
-259 -85 32 -278 90 -393 117 l-140 33 0 322 0 322 88 -30 c48 -17 137 -55
197 -84z m-99 -740 c72 -19 175 -50 230 -70 54 -20 107 -39 117 -42 16 -5 17
-28 17 -293 l0 -287 -132 24 c-73 13 -196 31 -273 41 l-140 17 -3 328 -2 327
27 -6 c16 -3 87 -21 159 -39z m104 -809 c85 -14 179 -30 208 -36 l52 -12 0
-339 0 -339 -275 0 -275 0 0 381 0 382 68 -7 c37 -3 137 -17 222 -30z"/>
<path d="M101 3314 c-28 -35 -26 -66 3 -101 l24 -28 266 -3 c146 -2 266 -4
266 -6 0 -1 104 -439 230 -972 179 -754 235 -973 250 -989 20 -20 31 -20 1091
-20 l1071 0 19 24 c22 27 25 79 5 107 -14 19 -39 19 -1042 24 l-1028 5 -13 50
c-7 28 -13 58 -13 67 0 17 49 18 814 20 779 3 815 4 835 22 26 24 601 1149
601 1177 0 11 -13 34 -29 50 l-29 29 -1251 0 c-1182 0 -1250 1 -1255 18 -2 9
-30 125 -61 257 -31 133 -64 251 -74 265 l-18 25 -321 3 -320 2 -21 -26z
m3159 -714 c0 -5 -108 -220 -239 -477 l-240 -468 -798 0 -798 0 -112 470 c-62
259 -112 473 -113 478 0 4 518 7 1150 7 755 0 1150 -3 1150 -10z"/>
<path d="M1300 1023 c-73 -38 -100 -124 -60 -191 57 -94 183 -94 240 0 68 112
-63 252 -180 191z"/>
<path d="M2860 1023 c-101 -52 -105 -184 -8 -243 64 -39 146 -16 188 52 68
112 -63 252 -180 191z"/>
</g>
</svg>
