<?xml version="1.0" encoding="utf-8"?>
<!-- Svg Vector Icons : http://www.onlinewebfonts.com/icon -->
<!DOCTYPE svg PUBLIC "-//W3C//DTD SVG 1.1//EN" "http://www.w3.org/Graphics/SVG/1.1/DTD/svg11.dtd">
<svg version="1.1" xmlns="http://www.w3.org/2000/svg" xmlns:xlink="http://www.w3.org/1999/xlink" x="0px" y="0px" viewBox="0 0 1000 1000" enable-background="new 0 0 1000 1000" xml:space="preserve">
<metadata> Svg Vector Icons : http://www.onlinewebfonts.com/icon </metadata>
<g><path d="M524.9,96.8c-3.3,0.2-6.7,0.8-9.9,2L35.6,258.3C20.8,263.2,10.1,278,10,293.5v585c0.5,33.5,73.7,32.6,74.5,0V320.1l441.1-146.5l389.8,145.9v559c0.5,31.1,76.2,32.6,74.6,0v-585c0-15.1-10.2-29.7-24.3-34.9L539.5,99.1C534.9,97.4,529.9,96.6,524.9,96.8L524.9,96.8L524.9,96.8z M363.5,467.7c-6.5,1-11.8,6.2-11.7,11.6v47.2c0,6.2,6.9,11.6,14.4,11.7h113.1c7.4-0.1,14.3-5.6,14.4-11.8v-47.2c0-6.1-6.9-11.6-14.3-11.6H366.2C365.3,467.5,364.4,467.5,363.5,467.7L363.5,467.7L363.5,467.7z M547.2,467.7c-6.4,1-11.4,6.2-11.3,11.6v47.2c0,6.2,6.9,11.6,14.3,11.7h112.9c7.4,0.1,14.5-5.4,14.6-11.7v-47.2c-0.1-6.1-7.2-11.8-14.6-11.6H550.2C549.3,467.5,548.1,467.5,547.2,467.7L547.2,467.7L547.2,467.7z M181.1,580.3c-6.9,0.5-13,6.1-13,12v46.8c0,6.1,6.7,12,14,12h113.5c7.4,0,13.9-5.9,14-12v-46.8c-0.1-6.1-6.6-12-14-12H182.1H181.1L181.1,580.3L181.1,580.3z M364.8,580.3c-7,0.5-12.9,6.1-13,12v46.8c0,6.1,6.9,12,14.4,12h113.1c7.4,0,14.3-5.9,14.3-12v-46.8c0-6.1-6.9-12-14.3-12H366.2H364.8L364.8,580.3L364.8,580.3z M548.6,580.3c-6.9,0.7-12.7,6.3-12.7,12v46.8c0,6.1,6.9,12,14.3,12h112.9c7.4,0.1,14.5-5.7,14.6-12v-46.8c-0.1-6.3-7.2-12.2-14.6-12H550.2H548.6L548.6,580.3L548.6,580.3z M179.4,693.7c-6.4,1-11.4,6.1-11.3,11.6v47.2c0,6.2,6.7,11.7,14,11.7h113.5c7.4,0,13.9-5.5,14-11.7v-47.2c-0.1-6.1-6.6-11.6-14-11.6H182.1C181.2,693.6,180.3,693.6,179.4,693.7L179.4,693.7z M363.5,693.7c-6.5,1-11.8,6.1-11.7,11.6v47.2c0,6.2,6.9,11.7,14.4,11.7h113.1c7.4,0,14.3-5.5,14.3-11.7v-47.2c0-6.1-6.9-11.6-14.3-11.6H366.2C365.3,693.6,364.4,693.6,363.5,693.7L363.5,693.7L363.5,693.7z M547.2,693.7c-6.4,1-11.4,6.1-11.3,11.6v47.2c0,6.2,6.9,11.7,14.3,11.7h112.9c7.4,0.1,14.5-5.4,14.6-11.7v-47.2c-0.1-6.2-7.2-11.8-14.6-11.6H550.2C549.3,693.6,548.1,693.6,547.2,693.7L547.2,693.7L547.2,693.7z M730.9,693.7c-6.3,1.1-11.1,6.3-11,11.6v47.2c0.1,6.2,6.7,11.7,14.1,11.7h113.1c7.3,0,13.9-5.5,14-11.7v-47.2c-0.1-6.1-6.7-11.6-14-11.6H734C733,693.6,732,693.6,730.9,693.7L730.9,693.7z M181.1,806.3c-6.9,0.5-13,6.2-13,12v46.9c0,6.1,6.7,12,14,12h113.5c7.4,0,13.9-5.8,14-12v-46.9c-0.1-6.2-6.6-12-14-12H182.1H181.1L181.1,806.3L181.1,806.3z M364.8,806.3c-7,0.5-12.9,6.2-13,12v46.9c0,6.1,6.9,12,14.4,12h113.1c7.4,0,14.3-5.8,14.3-12v-46.9c0-6.2-6.9-12-14.3-12H366.2H364.8L364.8,806.3L364.8,806.3z M548.6,806.3c-6.9,0.7-12.7,6.3-12.7,12v46.9c0,6.1,6.9,12,14.3,12h112.9c7.4,0.1,14.5-5.7,14.6-12v-46.9c-0.1-6.2-7.2-12.1-14.6-12H550.2H548.6L548.6,806.3L548.6,806.3z M732.7,806.3c-6.9,0.7-12.7,6.3-12.7,12v46.9c0.1,6.1,6.7,12,14.1,12h113.1c7.3,0,13.9-5.8,14-12v-46.9c-0.1-6.2-6.7-12-14-12H734.1H732.7L732.7,806.3L732.7,806.3z"/></g>
</svg>