<?xml version="1.0" encoding="utf-8"?>
<!-- Svg Vector Icons : http://www.onlinewebfonts.com/icon -->
<!DOCTYPE svg PUBLIC "-//W3C//DTD SVG 1.1//EN" "http://www.w3.org/Graphics/SVG/1.1/DTD/svg11.dtd">
<svg version="1.1" xmlns="http://www.w3.org/2000/svg" xmlns:xlink="http://www.w3.org/1999/xlink" x="0px" y="0px" viewBox="0 0 1000 1000" enable-background="new 0 0 1000 1000" xml:space="preserve">
<metadata> Svg Vector Icons : http://www.onlinewebfonts.com/icon </metadata>
<g><path d="M890.8,48.2H109.2C54.5,48.2,10,92.7,10,147.4v540c0,54.7,44.5,99.2,99.2,99.2H332v99.2H182.8c-18.2,0-33.1,14.8-33.1,33.1c0,18.3,14.8,33.1,33.1,33.1h634.3c18.2,0,33.1-14.8,33.1-33.1c0-18.2-14.8-33.1-33.1-33.1H668.1v-99.2h222.8c54.7,0,99.2-44.5,99.2-99.2v-540C990,92.7,945.5,48.2,890.8,48.2z M602,885.6H398v-99.2h203.8L602,885.6L602,885.6z M923.9,687.3c0,18.2-14.9,33.1-33.1,33.1H109.2c-18.2,0-33.1-14.9-33.1-33.1V147.4c0-18.2,14.8-33.1,33.1-33.1h781.6c18.2,0,33.1,14.8,33.1,33.1V687.3z"/><path d="M181.8,321.9H292v275.3h78V321.9h108.6v-62.7H181.8V321.9z"/><path d="M675.9,494.8c-2,8.2-5.6,19.9-10.7,35.2c-4.1-11.2-7.6-22.4-10.6-33.7L575,259.2h-82.6l128.5,338h85.6l126.9-338h-82.6L675.9,494.8z"/></g>
</svg>