<?xml version="1.0" encoding="utf-8"?>
<!-- Svg Vector Icons : http://www.onlinewebfonts.com/icon -->
<!DOCTYPE svg PUBLIC "-//W3C//DTD SVG 1.1//EN" "http://www.w3.org/Graphics/SVG/1.1/DTD/svg11.dtd">
<svg version="1.1" xmlns="http://www.w3.org/2000/svg" xmlns:xlink="http://www.w3.org/1999/xlink" x="0px" y="0px" viewBox="0 0 1000 1000" enable-background="new 0 0 1000 1000" xml:space="preserve">
<metadata> Svg Vector Icons : http://www.onlinewebfonts.com/icon </metadata>
<g><g transform="translate(0.000000,511.000000) scale(0.100000,-0.100000)"><path d="M5069.6,4306.1l-6.8-689.1l-465.5,438.1l-467.8,435.8H2114.8H100v-353.7v-353.7h1868.7h1871L5964,1793.9L8090.6-198l-3995.3-6.8L100-209.4v-353.7v-353.7h4901.1l4898.9,2.3l-136.9,130.1c-77.6,70.7-757.5,709.6-1512.8,1416.9L6876.7,1917.1V3455v1537.9h-901.3h-901.3L5069.6,4306.1z"/><path d="M100-2320v-1038.2h456.3h456.3v-707.3v-707.3h753h753v444.9v444.9h559h559v-444.9v-444.9h182.5h182.5v444.9v444.9h581.8h581.8v-444.9v-444.9l942.3,4.6l940.1,6.8v1734.1v1734.1l-3472.8,6.8L100-1281.9V-2320z"/></g></g>
</svg>