<?xml version="1.0" encoding="utf-8"?>
<!-- Svg Vector Icons : http://www.onlinewebfonts.com/icon -->
<!DOCTYPE svg PUBLIC "-//W3C//DTD SVG 1.1//EN" "http://www.w3.org/Graphics/SVG/1.1/DTD/svg11.dtd">
<svg version="1.1" xmlns="http://www.w3.org/2000/svg" xmlns:xlink="http://www.w3.org/1999/xlink" x="0px" y="0px" viewBox="0 0 1000 1000" enable-background="new 0 0 1000 1000" xml:space="preserve">
<metadata> Svg Vector Icons : http://www.onlinewebfonts.com/icon </metadata>
<g><path d="M971.3,303.6h-54v461.5h54c10.3,0,18.7,8.4,18.7,18.7s-8.4,18.7-18.7,18.7h-54v120.8c0,10.3-8.4,18.7-18.7,18.7s-18.7-8.4-18.7-18.7V802.4H730.8v120.8c0,10.3-8.4,18.7-18.7,18.7c-10.3,0-18.7-8.4-18.7-18.7V802.4H544.2v120.8c0,10.3-8.4,18.7-18.7,18.7s-18.7-8.4-18.7-18.7V802.4H355.7v120.8c0,10.3-8.4,18.7-18.7,18.7s-18.7-8.4-18.7-18.7V802.4H169.1v120.8c0,10.3-8.4,18.7-18.7,18.7s-18.7-8.4-18.7-18.7V802.4H28.7c-10.3,0-18.7-8.4-18.7-18.7s8.4-18.7,18.7-18.7h103.1V303.6H28.7c-10.3,0-18.7-8.4-18.7-18.7s8.4-18.7,18.7-18.7h103.1V76.8c0-10.3,8.4-18.7,18.7-18.7s18.7,8.4,18.7,18.7v189.5h149.3V76.8c0-10.3,8.4-18.7,18.7-18.7s18.7,8.4,18.7,18.7v189.5h151.2V76.8c0-10.3,8.4-18.7,18.7-18.7s18.7,8.4,18.7,18.7v189.5h149.3V76.8c0-10.3,8.4-18.7,18.7-18.7c10.3,0,18.7,8.4,18.7,18.7v189.5H880V76.8c0-10.3,8.4-18.7,18.7-18.7s18.7,8.4,18.7,18.7v189.5h54c10.3,0,18.7,8.4,18.7,18.7S981.6,303.6,971.3,303.6z M169.1,303.6v461.5h149.3V303.6H169.1z M355.7,303.6v461.5h151.2V303.6H355.7z M544.2,303.6v461.5h149.3V303.6H544.2z M730.8,303.6v461.5H880V303.6H730.8z"/></g>
</svg>