<?xml version="1.0" encoding="utf-8"?>
<!-- Svg Vector Icons : http://www.onlinewebfonts.com/icon -->
<!DOCTYPE svg PUBLIC "-//W3C//DTD SVG 1.1//EN" "http://www.w3.org/Graphics/SVG/1.1/DTD/svg11.dtd">
<svg version="1.1" xmlns="http://www.w3.org/2000/svg" xmlns:xlink="http://www.w3.org/1999/xlink" x="0px" y="0px" viewBox="0 0 1000 1000" enable-background="new 0 0 1000 1000" xml:space="preserve">
<metadata> Svg Vector Icons : http://www.onlinewebfonts.com/icon </metadata>
<g><path d="M712.7,85.6c26.4,3.5,64.7,9,120.3,18c31.5,5.1,62,10.1,86.8,14.4v77h-95.2h-70.2V265v585.1H630.8c3.3-16.4,6-34.4,7.9-54.1c5-54.4,1.8-110.2-9.6-165.9c-14-68.5-40.6-137-78.8-203.5l-0.3-0.6l-0.3-0.6c-104-173.3-271-277.9-278.1-282.2l-45.3-28l-39.2,36l-45.1,41.5h-33.2v-76.1c77.6-12.1,154.2-23.6,203.9-30.4c10.4,24.2,25.2,45.4,43.9,63c19.6,18.4,43.3,32.4,70.2,41.7c26.1,9,55.5,13.5,87.4,13.5c82.2,0,131.6-32.1,158.6-59.1C690,128.2,703.5,107.9,712.7,85.6 M657.2,9.8c0,63.3-42.9,124.5-142.9,124.5c-100,0-142.9-55.1-149-124.5c-31,0-326.7,47-326.7,47v206.2h130.7l65.3-60.1c0,0,158.4,98,254.8,258.7c151.3,263,45.3,458.7,45.3,458.7h289.9V265H990V58.8C990,58.8,712.3,9.8,657.2,9.8L657.2,9.8z"/><path d="M252.7,398.8c19.2,19,42.4,43.8,65.6,73.3c32.6,41.3,58.4,83,76.7,123.9c21.8,48.6,32.8,96.1,32.8,141.1c0,44-7.6,80.1-22.5,107.6c-11.3,20.7-26.8,36.7-47.4,48.8c-30.2,17.7-71,26.7-121.2,26.7c-17.5,0-62-2.8-98.2-29.1c-17-12.3-29.9-28-39.4-48c-12.5-26.3-18.9-59.9-18.9-99.8c0-73.2,36.3-162.9,104.9-259.5C208.9,450.2,233,421.1,252.7,398.8 M248.9,300.9c0,0-238.9,225.9-238.9,442.3c0,216.4,157.2,247,226.6,247c69.4,0,261.3-12.4,261.3-253.2S248.9,300.9,248.9,300.9L248.9,300.9z"/><path d="M204.8,581.4c-33.6,0-82.8,74.3-82.8,150.4c0,86.1,52.3,135.9,87,135.9c6.4,0,12.3-1.7,17.1-5.2c30.6-22.5-19.4-76.6-19.4-130.7c0-54.1,44.4-112.8,13.3-143.9C215.5,583.5,210.4,581.4,204.8,581.4L204.8,581.4z"/></g>
</svg>