<?xml version="1.0" encoding="utf-8"?>
<!-- Svg Vector Icons : http://www.onlinewebfonts.com/icon -->
<!DOCTYPE svg PUBLIC "-//W3C//DTD SVG 1.1//EN" "http://www.w3.org/Graphics/SVG/1.1/DTD/svg11.dtd">
<svg version="1.1" xmlns="http://www.w3.org/2000/svg" xmlns:xlink="http://www.w3.org/1999/xlink" x="0px" y="0px" viewBox="0 0 1000 1000" enable-background="new 0 0 1000 1000" xml:space="preserve">
<metadata> Svg Vector Icons : http://www.onlinewebfonts.com/icon </metadata>
<g><g transform="translate(0.000000,511.000000) scale(0.100000,-0.100000)"><path d="M2948.1,2145.9C716.3-87.8,852.2,65.3,869.5-202.7c9.6-147.4,40.2-222,134-329.2c145.5-166.5,415.3-220.1,618.2-124.4c76.6,36.4,415.4,365.6,1738,1684.4L5000,2666.5l1642.3-1638.4C7963-290.7,8301.8-619.9,8378.3-656.3c137.8-65.1,327.3-61.3,461.3,7.6c258.4,132.1,365.6,440.2,245,702.5c-42.1,91.9-315.8,373.2-2032.7,2092.1C5178,4019.8,5063.2,4130.8,5000,4130.8C4936.8,4130.8,4822,4019.8,2948.1,2145.9z"/><path d="M6889.2,4096.3c-28.7-32.5-32.5-109.1-32.5-714v-677.6l507.2-507.2l507.2-507.2V2879c0,1127.4-1.9,1190.5-34.5,1219.3c-30.6,28.7-93.8,32.5-476.6,32.5C6958.1,4130.8,6917.9,4126.9,6889.2,4096.3z"/><path d="M3386.4,651L1784.4-951.1v-260.3c0-260.3,0-260.3,42.1-252.7c59.3,9.6,156.9-55.5,218.2-141.6c111-164.6,181.8-304.3,193.3-382.8l11.5-82.3h225.9h227.8v63.2c0,63.2,32.5,135.9,147.4,323.5c120.6,201,229.7,260.3,344.5,189.5c103.4-65.1,287.1-363.7,306.3-493.8l11.5-82.3h101.5c103.4,0,103.4,0,103.4,59.3c0,32.5,13.4,112.9,30.6,178c86.1,331.1,354.1,662.3,658.4,811.6c90,44,214.4,93.8,277.5,109.1c153.1,40.2,480.4,40.2,631.6,1.9c367.5-97.6,681.4-352.2,838.4-683.3c88.1-185.7,128.2-315.8,128.2-417.3c0-59.3,0-59.3,103.4-59.3h101.4l9.6,86.1c7.6,57.4,42.1,137.8,103.3,239.3c158.9,262.2,260.3,327.3,384.7,250.7c103.3-65.1,292.9-367.5,306.3-493.8l11.5-82.3h225.8h227.8v57.4c0,68.9,24.9,130.2,112.9,275.6c116.7,189.5,195.2,266.1,275.6,268l70.8,1.9v252.7v252.7L6615.5,645.3C5735,1531.5,5009.6,2255,5001.9,2255C4996.2,2255,4268.8,1533.4,3386.4,651z"/><path d="M500-1605.7c-17.2-19.1-74.6-105.3-128.2-193.3l-99.5-158.9v-936c0-913,1.9-939.8,38.3-976.2c34.4-34.5,63.2-38.3,266.1-38.3c338.8,0,308.2-103.4,308.2,1022.1v920.7l-120.6,191.4c-105.3,166.5-128.2,191.4-178,197.1C549.8-1573.1,519.2-1582.7,500-1605.7z"/><path d="M1761.4-1605.7c-15.3-19.1-72.7-107.2-128.2-197.1l-97.6-160.8v-916.8c0-913,3.8-972.3,65.1-1012.5c11.5-7.6,122.5-15.3,245-15.3c333,0,302.4-101.4,302.4,1022.1v920.7l-120.6,191.4c-103.4,168.4-126.3,191.4-178,197.1C1813.1-1573.1,1782.5-1582.7,1761.4-1605.7z"/><path d="M3024.7-1605.7c-15.3-19.1-72.7-107.2-128.2-197.1l-97.6-160.8v-916.8c0-913,3.8-972.3,65.1-1012.5c11.5-7.6,122.5-15.3,245-15.3c333,0,302.4-101.4,302.4,1024v922.6l-120.6,189.5c-103.4,164.6-126.3,189.5-178,195.2C3076.4-1573.1,3045.7-1582.7,3024.7-1605.7z"/><path d="M4289.9-1605.7c-17.2-19.1-74.6-107.2-128.2-197.1l-99.5-164.6v-913c0-913,3.8-972.3,65.1-1012.5c11.5-7.6,122.5-15.3,245-15.3c333,0,302.4-101.4,302.4,1024v922.6L4554-1772.2c-103.4,164.6-126.3,189.5-178,195.2C4339.6-1573.1,4309-1582.7,4289.9-1605.7z"/><path d="M5470.8-1730.1c-55.5-88-111-178-122.5-201c-17.2-30.6-23-298.6-23-958.9c0-1119.7-30.6-1018.3,306.3-1018.3s306.3-103.4,306.3,1022.1v918.7l-99.5,164.6c-126.3,210.5-143.6,229.7-210.5,229.7C5580-1573.1,5560.8-1594.2,5470.8-1730.1z"/><path d="M6736.1-1730.1c-57.4-88-112.9-178-124.4-201c-17.2-30.6-23-298.6-23-958.9c0-1119.7-30.6-1018.3,306.3-1018.3s306.3-103.4,306.3,1024v922.6l-120.6,189.5c-107.2,168.4-126.3,189.5-181.8,195.2C6841.3-1571.2,6831.8-1578.9,6736.1-1730.1z"/><path d="M7997.4-1730.1c-55.5-88-111-178-122.5-201c-17.2-30.6-23-298.6-23-958.9c0-1119.7-30.6-1018.3,302.4-1018.3c122.5,0,233.5,7.7,245,15.3c61.3,40.2,65.1,99.5,65.1,1012.5v913l-99.5,164.6c-126.3,210.5-143.6,229.7-210.5,229.7C8106.5-1573.1,8087.4-1594.2,7997.4-1730.1z"/><path d="M9310.5-1653.5c-30.6-45.9-86.1-135.9-124.4-199.1l-70.8-118.7v-916.8c0-1121.6-30.6-1020.2,302.4-1020.2c122.5,0,233.5,7.7,245,15.3c61.3,40.2,65.1,99.5,65.1,1012.5v916.8l-97.6,160.8c-128.3,210.5-145.5,229.7-210.5,229.7C9377.5-1573.1,9354.5-1590.4,9310.5-1653.5z"/><path d="M123-2208.6c-15.3-15.3-23-88-23-199.1c0-160.8,3.8-179.9,42.1-206.7c23-15.3,47.9-24.9,57.4-19.1c7.7,5.8,15.3,109.1,15.3,229.7c0,197.2-3.8,218.2-34.4,218.2C161.3-2185.6,136.4-2195.2,123-2208.6z"/><path d="M946-2409.6l5.7-225.9h258.4h258.4l5.7,225.9l5.7,223.9h-269.9H940.3L946-2409.6z"/><path d="M2209.3-2409.6l5.7-225.9h258.4h258.4l5.7,225.9l5.7,223.9h-269.9h-269.9L2209.3-2409.6z"/><path d="M3472.6-2409.6l5.7-225.9h258.4h258.4l5.7,225.9l5.7,223.9h-269.9h-269.9L3472.6-2409.6z"/><path d="M4735.9-2409.6l5.7-225.9H5000h258.4l5.7,225.9l5.7,223.9H5000h-269.9L4735.9-2409.6z"/><path d="M5999.1-2409.6l5.7-225.9h258.4h258.4l5.7,225.9l5.7,223.9h-269.9h-269.9L5999.1-2409.6z"/><path d="M7262.4-2409.6l5.7-225.9l264.1-5.7l262.2-5.7v231.6v229.7h-268h-269.9L7262.4-2409.6z"/><path d="M8525.7-2409.6l5.7-225.9l264.1-5.7l262.2-5.7v231.6v229.7h-268H8520L8525.7-2409.6z"/><path d="M9785.2-2403.8c0-120.6,7.7-223.9,15.3-229.7c9.6-5.7,34.4,3.8,57.4,19.1c38.3,26.8,42.1,45.9,42.1,206.7c0,181.8-15.3,222-80.4,222C9789-2185.6,9785.2-2206.7,9785.2-2403.8z"/><path d="M123-3146.5c-15.3-15.3-23-88-23-199c0-181.8,21.1-237.4,88-237.4c21.1,0,26.8,44,26.8,229.7c0,208.6-3.8,229.7-34.4,229.7C161.3-3123.5,136.4-3133.1,123-3146.5z"/><path d="M942.2-3353.2v-229.7h268h268v229.7v229.7h-268h-268V-3353.2z"/><path d="M2205.5-3353.2v-229.7h268h268v229.7v229.7h-268h-268V-3353.2z"/><path d="M3468.7-3353.2v-229.7h268h268v229.7v229.7h-268h-268V-3353.2z"/><path d="M4732-3353.2v-229.7h268h268v229.7v229.7h-268h-268V-3353.2z"/><path d="M5995.3-3353.2v-229.7h268h268v229.7v229.7h-268h-268V-3353.2z"/><path d="M7258.6-3353.2v-229.7h268h268v229.7v229.7h-268h-268V-3353.2z"/><path d="M8521.9-3353.2v-229.7h268h268v229.7v229.7h-268h-268V-3353.2z"/><path d="M9785.2-3353.2c0-185.7,5.7-229.7,26.8-229.7c67,0,88,55.5,88,237.4s-15.3,222-80.4,222C9789-3123.5,9785.2-3144.6,9785.2-3353.2z"/></g></g>
</svg>