<?xml version="1.0" standalone="no"?>
<!DOCTYPE svg PUBLIC "-//W3C//DTD SVG 20010904//EN"
 "http://www.w3.org/TR/2001/REC-SVG-20010904/DTD/svg10.dtd">
<svg version="1.0" xmlns="http://www.w3.org/2000/svg"
 width="512.000000pt" height="512.000000pt" viewBox="0 0 512.000000 512.000000"
 preserveAspectRatio="xMidYMid meet">

<g transform="translate(0.000000,512.000000) scale(0.100000,-0.100000)"
fill="#000000" stroke="none">
<path d="M2380 5110 c-366 -51 -702 -233 -928 -502 -165 -197 -263 -398 -323
-663 l-23 -100 -3 -1608 -4 -1607 -267 2 -267 3 0 175 0 175 38 6 c137 22 169
187 53 273 -26 20 -41 21 -241 21 -200 0 -215 -1 -241 -21 -94 -70 -96 -190
-5 -251 19 -13 47 -23 62 -23 l29 0 0 -180 0 -180 -130 0 -130 0 0 -315 0
-315 2560 0 2560 0 0 315 0 315 -1210 0 -1210 0 0 179 0 178 42 6 c29 4 51 16
76 41 31 30 36 42 39 93 5 73 -19 116 -80 143 -37 17 -66 20 -227 20 -210 0
-252 -11 -290 -72 -30 -47 -24 -137 11 -174 31 -33 71 -54 104 -54 l25 0 0
-180 0 -180 -330 0 -330 0 2 1583 c3 1484 4 1586 21 1641 51 171 104 262 222
382 156 158 322 233 536 242 304 13 576 -128 733 -380 101 -163 126 -277 126
-577 0 -242 5 -264 70 -308 32 -22 42 -23 244 -23 245 0 265 5 304 80 21 42
22 57 22 243 0 109 -5 241 -11 295 -37 346 -178 640 -424 887 -198 198 -454
336 -733 395 -111 24 -368 34 -472 20z"/>
<path d="M2975 2685 c-102 -36 -133 -164 -57 -240 95 -95 252 -30 252 104 0
103 -98 171 -195 136z"/>
<path d="M3548 2679 c-43 -22 -78 -81 -78 -129 0 -76 74 -150 151 -150 45 0
103 36 128 80 26 47 27 90 1 140 -37 73 -127 99 -202 59z"/>
<path d="M4165 2685 c-158 -56 -117 -285 52 -285 76 0 143 68 143 145 0 105
-98 175 -195 140z"/>
<path d="M2832 2093 c-98 -48 -108 -192 -18 -256 42 -30 123 -31 162 -1 70 52
89 117 55 187 -37 76 -124 107 -199 70z"/>
<path d="M4272 2093 c-98 -48 -108 -192 -18 -256 42 -30 123 -31 162 -1 70 52
89 117 55 187 -37 76 -124 107 -199 70z"/>
<path d="M3548 2079 c-43 -22 -78 -81 -78 -129 0 -76 74 -150 151 -150 72 0
149 77 149 149 0 51 -35 108 -80 131 -49 25 -94 25 -142 -1z"/>
<path d="M4393 1504 c-70 -35 -97 -135 -57 -205 26 -46 97 -82 144 -74 80 15
130 71 130 146 0 112 -116 183 -217 133z"/>
<path d="M3548 1479 c-43 -22 -78 -81 -78 -129 0 -74 76 -150 150 -150 72 0
150 77 150 149 0 51 -35 108 -80 131 -49 25 -94 25 -142 -1z"/>
</g>
</svg>
