<?xml version="1.0" standalone="no"?>
<!DOCTYPE svg PUBLIC "-//W3C//DTD SVG 20010904//EN"
 "http://www.w3.org/TR/2001/REC-SVG-20010904/DTD/svg10.dtd">
<svg version="1.0" xmlns="http://www.w3.org/2000/svg"
 width="512.000000pt" height="512.000000pt" viewBox="0 0 512.000000 512.000000"
 preserveAspectRatio="xMidYMid meet">

<g transform="translate(0.000000,512.000000) scale(0.100000,-0.100000)"
fill="#000000" stroke="none">
<path d="M412 5100 c-99 -26 -174 -71 -252 -149 -77 -79 -114 -142 -140 -247
-20 -76 -20 -118 -20 -2144 0 -2029 0 -2068 20 -2144 25 -101 69 -176 144
-252 76 -75 151 -119 252 -144 74 -19 112 -20 1036 -20 l958 0 0 2560 0 2560
-962 -1 c-917 0 -967 -1 -1036 -19z m1587 -2897 c13 -11 34 -32 45 -47 20 -26
21 -42 24 -382 3 -335 2 -356 -17 -399 -48 -108 -198 -116 -261 -13 -19 31
-20 51 -20 393 0 329 2 363 18 395 38 72 148 100 211 53z"/>
<path d="M2710 2560 l0 -2560 958 0 c923 0 962 1 1036 20 105 26 168 63 247
140 80 79 123 153 149 256 20 76 20 115 20 2144 0 2029 0 2068 -20 2144 -26
103 -69 177 -149 256 -78 77 -142 113 -247 140 -74 19 -113 20 -1036 20 l-958
0 0 -2560z m560 -352 c80 -42 80 -42 80 -451 0 -386 0 -386 -54 -436 -20 -19
-40 -26 -84 -28 -72 -5 -115 19 -142 80 -18 39 -20 68 -20 377 0 189 4 350 10
369 17 60 80 110 140 111 14 0 46 -10 70 -22z"/>
</g>
</svg>
