<?xml version="1.0" standalone="no"?>
<!DOCTYPE svg PUBLIC "-//W3C//DTD SVG 20010904//EN"
 "http://www.w3.org/TR/2001/REC-SVG-20010904/DTD/svg10.dtd">
<svg version="1.0" xmlns="http://www.w3.org/2000/svg"
 width="512.000000pt" height="512.000000pt" viewBox="0 0 512.000000 512.000000"
 preserveAspectRatio="xMidYMid meet">

<g transform="translate(0.000000,512.000000) scale(0.100000,-0.100000)"
fill="#000000" stroke="none">
<path d="M90 5102 c-107 -53 -107 -211 0 -264 31 -16 70 -18 353 -18 l317 0 0
-237 0 -238 -65 -34 c-257 -133 -313 -480 -113 -697 244 -265 685 -141 764
214 14 65 15 88 5 152 -22 144 -110 270 -234 335 l-57 30 0 238 0 237 450 0
450 0 0 -238 0 -237 -50 -23 c-65 -30 -159 -117 -192 -179 -70 -128 -78 -284
-20 -406 37 -80 121 -172 190 -210 253 -138 567 -8 647 267 27 94 18 222 -23
309 -39 83 -124 175 -198 214 l-54 28 0 238 0 237 312 0 c294 0 314 1 354 21
45 21 84 81 84 129 0 45 -40 109 -81 130 -37 20 -66 20 -1421 20 -1297 0
-1385 -1 -1418 -18z"/>
<path d="M3837 4618 c-43 -26 -77 -87 -77 -141 l0 -37 -153 0 c-222 0 -301
-25 -407 -126 -102 -97 -140 -199 -140 -371 l0 -103 -49 0 c-116 0 -191 -128
-128 -220 33 -49 66 -70 125 -77 l52 -6 0 -196 c0 -207 8 -257 50 -341 12 -25
34 -57 48 -72 l26 -28 732 0 733 0 25 33 c74 96 96 198 96 445 l0 162 33 0
c44 1 112 33 132 64 42 64 35 140 -18 194 -30 30 -44 36 -91 40 l-56 4 0 -151
0 -151 -855 0 -855 0 0 150 0 150 853 2 852 3 3 60 c5 98 -14 210 -50 283 -54
116 -175 213 -299 241 -24 6 -115 11 -201 11 l-158 0 0 43 c0 86 -54 147 -137
154 -37 3 -57 -1 -86 -19z"/>
<path d="M76 2581 c-16 -11 -38 -34 -50 -53 -20 -31 -21 -49 -24 -275 l-4
-243 2562 0 2562 0 -4 243 c-3 221 -5 245 -23 275 -11 18 -34 42 -51 53 -31
19 -78 19 -2485 19 -2398 0 -2455 -1 -2483 -19z"/>
<path d="M4 1697 c-2 -7 -3 -366 -2 -797 3 -764 4 -786 23 -819 11 -19 33 -43
48 -55 28 -21 37 -21 583 -24 l554 -2 0 855 0 855 -600 0 c-483 0 -602 -3
-606 -13z m826 -615 c22 -12 44 -35 58 -63 21 -41 23 -54 20 -181 -3 -158 -11
-177 -90 -216 -55 -28 -104 -23 -149 15 -52 44 -59 69 -59 215 0 107 3 140 18
168 36 73 127 101 202 62z"/>
<path d="M1510 855 l0 -855 600 0 600 0 0 855 0 855 -600 0 -600 0 0 -855z
m516 229 c18 -9 44 -33 56 -53 21 -33 23 -48 23 -176 0 -123 -3 -144 -20 -175
-42 -71 -137 -95 -208 -52 -57 36 -67 70 -67 229 0 120 3 142 20 171 41 66
124 90 196 56z"/>
<path d="M3010 855 l0 -855 1004 2 c1004 3 1005 3 1033 24 15 12 37 36 48 55
20 33 20 52 20 829 l0 795 -1052 3 -1053 2 0 -855z m1570 533 c26 -14 53 -37
65 -58 19 -34 20 -52 20 -482 0 -435 -1 -447 -21 -474 -11 -15 -33 -37 -48
-48 -27 -20 -40 -21 -524 -24 -458 -2 -500 -1 -531 15 -19 10 -44 31 -55 46
-21 28 -21 39 -21 490 0 446 1 463 20 489 11 15 38 37 60 48 38 19 58 20 515
20 474 0 476 0 520 -22z"/>
<path d="M3760 855 l0 -255 305 0 305 0 0 255 0 255 -305 0 -305 0 0 -255z"/>
</g>
</svg>
