<?xml version="1.0" standalone="no"?>
<!DOCTYPE svg PUBLIC "-//W3C//DTD SVG 20010904//EN"
 "http://www.w3.org/TR/2001/REC-SVG-20010904/DTD/svg10.dtd">
<svg version="1.0" xmlns="http://www.w3.org/2000/svg"
 width="512.000000pt" height="512.000000pt" viewBox="0 0 512.000000 512.000000"
 preserveAspectRatio="xMidYMid meet">

<g transform="translate(0.000000,512.000000) scale(0.100000,-0.100000)"
fill="#000000" stroke="none">
<path d="M1120 2600 l0 -2200 -200 0 -200 0 0 -80 0 -80 1840 0 1840 0 0 80 0
80 -200 0 -200 0 0 2200 0 2200 -1440 0 -1440 0 0 -2200z m2560 -160 l0 -2040
-80 0 -80 0 0 1960 0 1960 -960 0 -960 0 0 -1960 0 -1960 -80 0 -80 0 0 2040
0 2040 1120 0 1120 0 0 -2040z m-1636 -239 c26 -27 31 -39 31 -81 0 -43 -5
-54 -33 -82 -28 -28 -39 -33 -82 -33 -43 0 -54 5 -82 33 -28 28 -33 39 -33 81
0 52 25 92 70 112 37 16 96 3 129 -30z"/>
</g>
</svg>
