<?xml version="1.0" standalone="no"?>
<!DOCTYPE svg PUBLIC "-//W3C//DTD SVG 20010904//EN"
 "http://www.w3.org/TR/2001/REC-SVG-20010904/DTD/svg10.dtd">
<svg version="1.0" xmlns="http://www.w3.org/2000/svg"
 width="512.000000pt" height="512.000000pt" viewBox="0 0 512.000000 512.000000"
 preserveAspectRatio="xMidYMid meet">

<g transform="translate(0.000000,512.000000) scale(0.100000,-0.100000)"
fill="#000000" stroke="none">
<path d="M1525 4787 c-135 -45 -231 -137 -288 -278 -20 -49 -22 -77 -27 -304
l-5 -250 -42 -3 -43 -3 0 61 c0 36 -6 73 -16 91 -14 27 -19 30 -57 27 -52 -4
-67 -28 -67 -112 0 -50 -3 -61 -25 -78 -18 -14 -25 -29 -25 -52 0 -56 20 -65
155 -68 l120 -3 3 -32 3 -32 -261 -3 c-323 -4 -300 10 -300 -174 l0 -124 -305
0 c-292 0 -306 -1 -325 -20 -19 -19 -20 -33 -20 -260 l0 -241 25 -24 c24 -24
28 -25 180 -25 l155 0 0 -1260 c0 -1247 0 -1260 20 -1280 20 -20 33 -20 2180
-20 2147 0 2160 0 2180 20 20 20 20 33 20 1280 l0 1260 155 0 c152 0 156 1
180 25 l25 24 0 241 c0 227 -1 241 -20 260 -20 20 -33 20 -1455 20 l-1435 0 0
114 c0 63 -4 126 -9 139 -17 44 -48 47 -468 47 l-394 0 3 33 3 32 120 3 c135
3 155 12 155 68 0 23 -7 38 -25 52 -22 17 -25 28 -25 78 0 86 -15 109 -70 109
-56 0 -70 -23 -70 -112 l0 -63 -45 0 -45 0 0 199 c0 213 8 280 42 350 67 139
233 204 360 142 90 -43 162 -146 174 -248 12 -103 25 -123 79 -123 64 0 79 55
50 179 -32 136 -134 264 -252 318 -69 32 -202 42 -268 20z m545 -1257 l0 -80
-640 0 -640 0 0 80 0 80 640 0 640 0 0 -80z m2910 -360 l0 -150 -2420 0 -2420
0 0 150 0 150 2420 0 2420 0 0 -150z m-3200 -1285 l0 -995 -645 0 -645 0 0
995 0 995 645 0 645 0 0 -995z m1420 0 l0 -995 -640 0 -640 0 0 995 0 995 640
0 640 0 0 -995z m1430 0 l0 -995 -645 0 -645 0 0 995 0 995 645 0 645 0 0
-995z m-2 -1282 l-3 -148 -2065 0 -2065 0 -3 148 -3 147 2071 0 2071 0 -3
-147z"/>
<path d="M1480 2220 c-19 -19 -20 -33 -20 -334 l0 -315 26 -20 c35 -27 59 -26
89 4 l25 24 0 306 0 306 -25 24 c-29 30 -68 32 -95 5z"/>
<path d="M2905 2215 l-25 -24 0 -306 0 -306 25 -24 c13 -14 34 -25 45 -25 12
0 32 11 45 25 l25 24 0 309 0 309 -23 21 c-30 29 -62 28 -92 -3z"/>
<path d="M3545 2215 l-25 -24 0 -306 0 -306 25 -24 c30 -30 54 -31 89 -4 l26
20 0 315 c0 301 -1 315 -20 334 -27 27 -66 25 -95 -5z"/>
</g>
</svg>
