<?xml version="1.0" standalone="no"?>
<!DOCTYPE svg PUBLIC "-//W3C//DTD SVG 20010904//EN"
 "http://www.w3.org/TR/2001/REC-SVG-20010904/DTD/svg10.dtd">
<svg version="1.0" xmlns="http://www.w3.org/2000/svg"
 width="512.000000pt" height="512.000000pt" viewBox="0 0 512.000000 512.000000"
 preserveAspectRatio="xMidYMid meet">

<g transform="translate(0.000000,512.000000) scale(0.100000,-0.100000)"
fill="#000000" stroke="none">
<path d="M1388 4553 c-1103 -553 -1134 -569 -1155 -608 -22 -39 -23 -49 -23
-325 0 -333 -2 -325 113 -421 80 -68 174 -119 277 -150 97 -30 280 -33 380 -6
64 17 178 68 233 104 26 17 28 17 55 0 54 -36 168 -87 232 -104 88 -24 272
-24 360 0 64 17 178 68 233 104 26 17 28 17 55 0 52 -34 164 -86 213 -98 l49
-13 0 -568 0 -568 -487 0 c-466 0 -488 -1 -528 -20 -47 -23 -85 -80 -85 -129
0 -51 35 -108 80 -131 34 -17 59 -20 180 -20 77 0 140 -2 140 -5 0 -3 -66
-138 -147 -300 l-148 -295 -439 0 c-419 0 -442 -1 -481 -20 -47 -23 -85 -80
-85 -129 0 -51 35 -108 80 -131 37 -19 58 -20 405 -20 201 0 365 -2 365 -5 0
-3 -44 -93 -97 -200 l-98 -195 -164 0 c-144 0 -170 -2 -206 -20 -47 -23 -85
-80 -85 -129 0 -51 35 -108 80 -131 36 -18 58 -20 272 -20 222 0 235 1 273 23
38 21 50 42 205 349 l165 328 403 0 402 0 0 -200 0 -200 -87 0 c-66 0 -96 -5
-128 -20 -47 -23 -85 -80 -85 -129 0 -51 35 -108 80 -131 37 -19 58 -20 366
-20 307 0 330 1 369 20 81 39 109 145 57 218 -34 47 -78 62 -181 62 l-91 0 0
200 0 200 403 0 402 0 165 -328 c155 -307 167 -328 205 -349 38 -22 51 -23
269 -23 209 0 233 2 271 20 110 53 111 212 1 264 -27 13 -68 16 -203 16 l-168
0 -98 195 c-53 107 -97 197 -97 200 0 3 163 5 362 5 341 0 364 1 403 20 110
53 111 212 1 264 -30 14 -89 16 -478 16 l-443 0 -148 295 c-81 162 -147 297
-147 300 0 3 50 5 112 5 91 0 119 4 153 20 110 53 111 212 1 264 -30 14 -91
16 -500 16 l-466 0 0 568 0 568 49 13 c49 12 161 64 214 98 26 17 28 17 55 0
54 -36 168 -87 232 -104 88 -24 272 -24 360 0 64 17 178 68 233 104 26 17 28
17 55 0 54 -36 168 -87 232 -104 100 -27 283 -24 380 6 103 31 197 82 277 150
115 96 113 88 113 421 0 276 -1 286 -23 325 -21 39 -52 55 -1155 608 -930 466
-1139 567 -1172 567 -33 0 -242 -101 -1172 -567z m1952 -143 l775 -389 -1555
0 -1555 0 775 389 c426 214 777 389 780 389 3 0 354 -175 780 -389z m1270
-835 l0 -145 -41 -30 c-94 -68 -235 -95 -346 -66 -88 22 -133 47 -209 116
-105 95 -164 95 -270 -2 -188 -170 -420 -170 -608 0 -107 97 -165 97 -272 0
-188 -170 -420 -170 -608 0 -44 40 -79 64 -102 68 -62 11 -99 -3 -170 -68
-188 -170 -420 -170 -608 0 -106 97 -165 97 -270 2 -76 -69 -121 -94 -209
-116 -111 -29 -252 -2 -346 66 l-41 30 0 145 0 145 2050 0 2050 0 0 -145z
m-2200 -2275 l0 -300 -325 0 c-179 0 -325 2 -325 5 0 3 66 138 147 300 l148
295 177 0 178 0 0 -300z m803 5 c81 -162 147 -297 147 -300 0 -3 -146 -5 -325
-5 l-325 0 0 300 0 300 178 0 177 0 148 -295z"/>
</g>
</svg>
