<?xml version="1.0" standalone="no"?>
<!DOCTYPE svg PUBLIC "-//W3C//DTD SVG 20010904//EN"
 "http://www.w3.org/TR/2001/REC-SVG-20010904/DTD/svg10.dtd">
<svg version="1.0" xmlns="http://www.w3.org/2000/svg"
 width="512.000000pt" height="512.000000pt" viewBox="0 0 512.000000 512.000000"
 preserveAspectRatio="xMidYMid meet">

<g transform="translate(0.000000,512.000000) scale(0.100000,-0.100000)"
fill="#000000" stroke="none">
<path d="M1145 4775 c-25 -24 -25 -26 -25 -215 0 -189 0 -191 25 -215 22 -23
32 -25 120 -25 l95 0 0 -960 0 -960 -145 0 c-80 0 -145 3 -145 8 0 4 29 109
65 234 36 125 65 237 65 248 0 12 -11 32 -25 45 -24 24 -28 25 -182 25 l-157
0 122 123 c105 107 122 128 122 156 0 42 -38 81 -80 81 -25 0 -45 -13 -96 -62
l-64 -62 -124 122 c-106 105 -127 122 -155 122 -43 0 -81 -38 -81 -81 0 -28
17 -49 122 -156 l122 -123 -59 -60 -59 -60 -119 0 c-112 0 -119 -1 -142 -25
-14 -13 -25 -33 -25 -45 0 -11 29 -123 65 -248 36 -125 65 -230 65 -234 0 -5
-36 -8 -80 -8 -73 0 -83 -3 -105 -25 -25 -24 -25 -26 -25 -215 0 -189 0 -191
25 -215 32 -33 78 -33 110 0 24 23 25 29 25 160 l0 135 240 0 240 0 0 -720 0
-720 -335 0 -336 0 -24 -25 c-25 -24 -25 -26 -25 -215 0 -189 0 -191 25 -215
l24 -25 2351 0 2351 0 24 25 c25 24 25 26 25 215 0 189 0 191 -25 215 l-24 25
-336 0 -335 0 0 720 0 720 240 0 240 0 0 -135 c0 -131 1 -137 25 -160 32 -33
78 -33 110 0 25 24 25 26 25 215 0 189 0 191 -25 215 l-24 25 -536 0 -535 0 0
960 0 960 95 0 c88 0 98 2 120 25 25 24 25 26 25 215 0 189 0 191 -25 215
l-24 25 -1391 0 -1391 0 -24 -25z m2695 -215 l0 -80 -1280 0 -1280 0 0 80 0
80 1280 0 1280 0 0 -80z m-1360 -680 l0 -440 -480 0 -480 0 0 440 0 440 480 0
480 0 0 -440z m1120 0 l0 -440 -480 0 -480 0 0 440 0 440 480 0 480 0 0 -440z
m-1120 -1040 l0 -440 -480 0 -480 0 0 440 0 440 480 0 480 0 0 -440z m1120 0
l0 -440 -480 0 -480 0 0 440 0 440 480 0 480 0 0 -440z m-2590 -48 c0 -7 -45
-169 -91 -324 l-20 -68 -139 0 -139 0 -20 68 c-46 155 -91 317 -91 324 0 4
113 8 250 8 138 0 250 -4 250 -8z m510 -1272 l0 -720 -240 0 -240 0 0 720 0
720 240 0 240 0 0 -720z m640 0 l0 -720 -240 0 -240 0 0 720 0 720 240 0 240
0 0 -720z m640 0 l0 -720 -240 0 -240 0 0 720 0 720 240 0 240 0 0 -720z m640
0 l0 -720 -240 0 -240 0 0 720 0 720 240 0 240 0 0 -720z m640 0 l0 -720 -240
0 -240 0 0 720 0 720 240 0 240 0 0 -720z m720 -960 l0 -80 -2240 0 -2240 0 0
80 0 80 2240 0 2240 0 0 -80z"/>
</g>
</svg>
