<?xml version="1.0" standalone="no"?>
<!DOCTYPE svg PUBLIC "-//W3C//DTD SVG 20010904//EN"
 "http://www.w3.org/TR/2001/REC-SVG-20010904/DTD/svg10.dtd">
<svg version="1.0" xmlns="http://www.w3.org/2000/svg"
 width="512.000000pt" height="512.000000pt" viewBox="0 0 512.000000 512.000000"
 preserveAspectRatio="xMidYMid meet">

<g transform="translate(0.000000,512.000000) scale(0.100000,-0.100000)"
fill="#000000" stroke="none">
<path d="M4585 5029 c-33 -5 -96 -21 -140 -35 -51 -17 -754 -375 -1955 -996
-1031 -534 -1917 -993 -1967 -1021 -175 -95 -299 -220 -379 -382 -61 -123 -72
-182 -50 -260 14 -48 28 -70 70 -111 63 -61 116 -79 215 -72 116 9 182 59 236
183 27 61 80 135 96 135 5 0 9 -362 9 -900 l0 -900 -89 0 c-142 0 -135 13
-139 -276 -3 -255 1 -283 44 -303 18 -8 199 -11 622 -11 561 0 599 1 627 18
17 10 576 388 1243 840 l1212 822 374 0 c353 0 375 1 397 19 l24 19 3 679 c1
373 0 688 -3 701 -3 12 -14 31 -25 42 -19 19 -35 20 -325 20 l-305 0 0 569 0
569 87 47 c119 64 183 85 263 85 131 0 224 47 275 141 24 45 29 65 29 124 0
59 -5 79 -29 124 -67 122 -197 162 -420 130z m245 -164 c37 -19 50 -43 50 -90
0 -77 -34 -99 -165 -108 -153 -11 2 63 -1470 -699 -462 -240 -1229 -637 -1705
-883 -476 -246 -884 -462 -907 -479 -62 -48 -112 -112 -151 -195 -40 -83 -74
-111 -135 -111 -51 0 -107 52 -107 99 0 67 72 201 158 293 78 84 148 125 622
370 250 130 961 498 1580 818 619 320 1280 663 1470 761 346 179 422 212 515
228 86 15 213 13 245 -4z m-610 -1095 l0 -530 -220 0 -221 0 -24 -25 -25 -24
0 -311 0 -310 -212 2 -213 3 0 625 0 624 455 237 c250 130 456 237 458 238 1
0 2 -237 2 -529z m-1070 -610 l0 -580 -89 0 c-81 0 -93 -2 -118 -24 l-28 -24
4 -281 3 -281 -216 0 -216 0 0 720 c0 396 3 720 8 720 4 0 149 74 322 164 173
90 318 165 323 165 4 1 7 -260 7 -579z m-820 -509 l0 -669 -96 -4 c-143 -5
-134 22 -134 -379 l0 -329 -210 0 -210 0 0 858 1 857 322 167 c177 91 323 167
325 167 1 1 2 -300 2 -668z m2550 -151 l0 -590 -347 0 -348 0 -1232 -835
-1232 -835 -536 0 -535 0 0 135 0 135 369 0 c203 0 377 3 386 6 40 16 45 51
45 335 l0 271 373 -7 372 -7 28 22 27 21 0 336 0 336 383 -8 c382 -7 382 -7
410 15 l27 21 0 286 0 286 380 -6 c368 -5 380 -5 405 15 l25 19 0 313 c0 172
3 316 7 319 3 4 228 7 500 7 l493 0 0 -590z m-3360 -415 l0 -815 -94 0 c-143
0 -136 16 -136 -333 l0 -279 -22 6 c-13 3 -105 6 -206 6 l-182 0 2 951 3 950
315 164 c173 90 316 164 318 165 1 0 2 -367 2 -815z"/>
</g>
</svg>
