<?xml version="1.0" standalone="no"?>
<!DOCTYPE svg PUBLIC "-//W3C//DTD SVG 20010904//EN"
 "http://www.w3.org/TR/2001/REC-SVG-20010904/DTD/svg10.dtd">
<svg version="1.0" xmlns="http://www.w3.org/2000/svg"
 width="512.000000pt" height="512.000000pt" viewBox="0 0 512.000000 512.000000"
 preserveAspectRatio="xMidYMid meet">

<g transform="translate(0.000000,512.000000) scale(0.100000,-0.100000)"
fill="#000000" stroke="none">
<path d="M586 5099 l-26 -20 0 -2279 0 -2279 -174 -3 c-154 -3 -176 -5 -195
-22 -20 -18 -21 -28 -21 -237 0 -212 1 -219 22 -239 l22 -20 2342 0 2341 0 27
21 26 20 0 218 c0 209 -1 219 -21 237 -19 17 -41 19 -190 22 l-169 3 -2 2281
-3 2280 -24 19 c-23 19 -68 19 -1976 19 l-1952 0 -27 -21z m3824 -2354 l0
-2225 -100 0 -100 0 0 2105 c0 2092 0 2105 -20 2125 -20 20 -33 20 -1628 20
l-1609 0 -19 -21 c-19 -21 -19 -72 -22 -2125 l-2 -2104 -100 0 -100 0 0 2218
c0 1220 3 2222 7 2225 3 4 836 7 1850 7 l1843 0 0 -2225z m-1922 1243 l-3
-633 -707 -3 -708 -2 0 635 0 635 710 0 710 0 -2 -632z m1572 -3 l0 -635 -710
0 -710 0 0 635 0 635 710 0 710 0 0 -635z m-1570 -1415 l0 -630 -710 0 -710 0
0 630 0 630 710 0 710 0 0 -630z m1570 0 l0 -630 -710 0 -710 0 0 630 0 630
710 0 710 0 0 -630z m-1570 -1420 l0 -630 -710 0 -710 0 0 630 0 630 710 0
710 0 0 -630z m1570 0 l0 -630 -710 0 -710 0 0 630 0 630 710 0 710 0 0 -630z
m748 -892 l-3 -103 -2242 -3 -2243 -2 0 105 0 105 2245 0 2246 0 -3 -102z"/>
</g>
</svg>
