<?xml version="1.0" standalone="no"?>
<!DOCTYPE svg PUBLIC "-//W3C//DTD SVG 20010904//EN"
 "http://www.w3.org/TR/2001/REC-SVG-20010904/DTD/svg10.dtd">
<svg version="1.0" xmlns="http://www.w3.org/2000/svg"
 width="512.000000pt" height="512.000000pt" viewBox="0 0 512.000000 512.000000"
 preserveAspectRatio="xMidYMid meet">

<g transform="translate(0.000000,512.000000) scale(0.100000,-0.100000)"
fill="#000000" stroke="none">
<path d="M1333 4425 c-120 -26 -237 -108 -304 -213 -96 -152 -92 -366 11 -520
101 -151 294 -234 470 -203 229 41 399 240 400 466 0 225 -160 424 -377 470
-82 18 -119 18 -200 0z m257 -166 c117 -62 180 -167 180 -299 0 -133 -72 -250
-188 -307 -50 -24 -69 -28 -147 -28 -78 0 -97 4 -147 28 -74 36 -150 119 -174
189 -63 183 36 384 219 444 27 9 70 12 119 10 63 -3 88 -10 138 -37z"/>
<path d="M1335 4207 c-89 -34 -154 -104 -177 -190 -14 -54 -2 -91 36 -108 40
-19 78 7 94 63 13 49 67 107 100 109 87 3 122 23 122 71 0 45 -31 68 -92 67
-29 0 -67 -6 -83 -12z"/>
<path d="M2076 4009 c-33 -26 -35 -70 -4 -99 20 -19 34 -20 214 -20 171 0 194
2 215 18 31 26 31 78 0 104 -21 16 -43 18 -211 18 -174 0 -189 -1 -214 -21z"/>
<path d="M2208 3056 c-619 -464 -1128 -851 -1132 -861 -3 -9 -6 -24 -6 -32 0
-17 131 -198 158 -221 31 -24 68 -13 147 45 l78 57 24 -30 c52 -64 76 -105 67
-113 -5 -5 -193 -145 -419 -311 -226 -166 -418 -311 -427 -322 -25 -28 -22
-55 7 -83 l24 -25 260 0 259 0 154 111 c84 62 169 125 189 140 20 16 40 29 43
29 3 0 6 -162 6 -359 l0 -360 27 -21 c30 -24 69 -20 91 7 9 13 12 113 12 423
l0 407 23 20 c12 11 603 449 1312 973 710 523 1300 963 1313 976 29 32 28 59
-3 89 l-24 25 -260 0 -259 0 -197 -146 c-109 -80 -201 -142 -205 -137 -29 34
-100 133 -100 140 1 4 39 36 86 71 123 91 124 100 23 235 -73 97 -94 117 -123
117 -14 0 -444 -316 -1148 -844z m1163 643 c21 -30 21 -31 3 -44 -11 -7 -485
-362 -1054 -789 l-1035 -775 -22 27 c-13 15 -22 31 -20 35 3 10 2089 1576
2099 1577 4 0 16 -14 29 -31z m769 -233 c-8 -7 -671 -498 -1473 -1090 l-1458
-1077 -120 3 -120 3 318 235 c175 129 395 291 488 360 94 70 602 445 1130 835
528 389 969 716 980 726 17 16 37 19 144 19 106 0 123 -2 111 -14z m-830 -142
c27 -37 50 -70 50 -75 0 -7 -1673 -1247 -1689 -1252 -5 -1 -32 28 -59 64 l-50
66 841 631 c463 347 845 632 849 632 4 0 30 -30 58 -66z"/>
<path d="M1864 3524 c-41 -40 -27 -65 105 -196 124 -124 143 -134 189 -102 15
10 22 25 22 47 0 28 -17 49 -123 155 -133 132 -149 141 -193 96z"/>
<path d="M1387 3322 c-14 -16 -17 -44 -17 -184 0 -183 5 -198 67 -198 57 0 63
18 63 202 0 147 -2 167 -18 181 -25 22 -75 21 -95 -1z"/>
<path d="M3452 2110 c-12 -5 -27 -21 -32 -36 -7 -17 -9 -262 -8 -690 3 -723 0
-685 60 -699 21 -5 33 -1 52 19 l26 25 0 626 0 625 420 0 421 0 25 26 c20 19
24 31 19 52 -14 59 5 57 -498 59 -265 1 -472 -2 -485 -7z"/>
<path d="M3640 1890 c-20 -20 -20 -30 -18 -597 l3 -576 26 -19 c28 -21 57 -18
84 8 13 13 15 86 15 540 l0 524 305 0 c338 0 366 4 379 56 5 20 2 35 -12 53
l-19 26 -371 3 c-361 2 -372 2 -392 -18z"/>
</g>
</svg>
