<?xml version="1.0" standalone="no"?>
<!DOCTYPE svg PUBLIC "-//W3C//DTD SVG 20010904//EN"
 "http://www.w3.org/TR/2001/REC-SVG-20010904/DTD/svg10.dtd">
<svg version="1.0" xmlns="http://www.w3.org/2000/svg"
 width="512.000000pt" height="512.000000pt" viewBox="0 0 512.000000 512.000000"
 preserveAspectRatio="xMidYMid meet">

<g transform="translate(0.000000,512.000000) scale(0.100000,-0.100000)"
fill="#000000" stroke="none">
<path d="M1205 4600 c-17 -3 -42 -14 -57 -24 -36 -24 -508 -804 -508 -840 0
-15 11 -38 25 -51 23 -24 28 -25 170 -25 l145 0 0 -355 0 -356 25 -24 c15 -16
36 -25 55 -25 19 0 40 9 55 25 l25 24 0 411 0 411 -25 24 c-23 24 -30 25 -139
25 l-114 0 186 310 c103 170 189 309 192 309 3 0 89 -139 192 -309 l186 -310
-104 0 c-98 0 -107 -2 -129 -25 l-25 -24 0 -231 0 -231 25 -24 c15 -16 36 -25
55 -25 19 0 40 9 55 25 25 24 25 27 25 200 l0 175 135 0 c131 0 137 1 160 25
14 13 25 36 25 51 0 23 -266 478 -441 754 -62 97 -116 128 -194 110z"/>
<path d="M2525 4600 c-17 -3 -42 -14 -57 -24 -36 -24 -508 -804 -508 -840 0
-15 11 -38 25 -51 23 -24 28 -25 170 -25 l145 0 0 -355 0 -356 25 -24 c15 -16
36 -25 55 -25 19 0 40 9 55 25 l25 24 0 411 0 411 -25 24 c-23 24 -30 25 -139
25 l-114 0 186 310 c103 170 189 309 192 309 3 0 89 -139 192 -309 l186 -310
-104 0 c-98 0 -107 -2 -129 -25 l-25 -24 0 -231 0 -231 25 -24 c15 -16 36 -25
55 -25 19 0 40 9 55 25 25 24 25 27 25 200 l0 175 135 0 c131 0 137 1 160 25
14 13 25 36 25 51 0 23 -266 478 -441 754 -62 97 -116 128 -194 110z"/>
<path d="M3845 4600 c-17 -3 -42 -14 -57 -24 -36 -24 -508 -804 -508 -840 0
-15 11 -38 25 -51 23 -24 28 -25 170 -25 l145 0 0 -355 0 -356 25 -24 c15 -16
36 -25 55 -25 19 0 40 9 55 25 l25 24 0 411 0 411 -25 24 c-23 24 -30 25 -139
25 l-114 0 186 310 c103 170 189 309 192 309 3 0 89 -139 192 -309 l186 -310
-104 0 c-98 0 -107 -2 -129 -25 l-25 -24 0 -231 0 -231 25 -24 c15 -16 36 -25
55 -25 19 0 40 9 55 25 25 24 25 27 25 200 l0 175 135 0 c131 0 137 1 160 25
14 13 25 36 25 51 0 23 -266 478 -441 754 -62 97 -116 128 -194 110z"/>
<path d="M965 2650 c-194 -40 -352 -180 -417 -368 -32 -95 -32 -249 0 -344 56
-163 178 -286 348 -350 l59 -23 1631 -5 1630 -5 76 -37 c91 -45 147 -103 191
-196 29 -61 32 -76 32 -162 0 -86 -3 -101 -32 -162 -44 -93 -100 -151 -191
-196 l-76 -37 -1829 -5 -1829 -5 -19 -24 c-26 -32 -24 -77 6 -106 l24 -25
1799 0 c1232 0 1817 3 1858 11 224 40 413 238 446 468 40 272 -113 516 -387
617 -48 18 -125 19 -1680 24 l-1630 5 -65 31 c-83 39 -155 111 -194 194 -28
58 -31 75 -31 160 0 85 3 102 31 160 17 37 52 87 80 114 27 28 77 63 114 80
l65 31 1833 5 1834 5 19 24 c26 32 24 77 -6 106 l-24 25 -1813 -1 c-997 -1
-1831 -5 -1853 -9z"/>
</g>
</svg>
