<?xml version="1.0" standalone="no"?>
<!DOCTYPE svg PUBLIC "-//W3C//DTD SVG 20010904//EN"
 "http://www.w3.org/TR/2001/REC-SVG-20010904/DTD/svg10.dtd">
<svg version="1.0" xmlns="http://www.w3.org/2000/svg"
 width="512.000000pt" height="512.000000pt" viewBox="0 0 512.000000 512.000000"
 preserveAspectRatio="xMidYMid meet">

<g transform="translate(0.000000,512.000000) scale(0.100000,-0.100000)"
fill="#000000" stroke="none">
<path d="M3737 5102 c-14 -15 -17 -42 -17 -154 0 -118 2 -137 18 -151 26 -23
58 -21 76 5 13 17 16 51 16 148 0 97 -3 131 -16 148 -18 27 -55 29 -77 4z"/>
<path d="M3136 4947 c-30 -22 -21 -59 39 -163 70 -120 82 -134 110 -134 23 0
55 28 55 49 0 21 -131 241 -150 251 -25 13 -33 13 -54 -3z"/>
<path d="M4347 4938 c-12 -13 -49 -70 -81 -127 -50 -88 -57 -108 -50 -130 10
-29 55 -41 79 -21 22 19 135 225 135 247 0 21 -29 53 -49 53 -6 0 -22 -10 -34
-22z"/>
<path d="M2686 4494 c-17 -17 -20 -42 -8 -61 11 -18 231 -143 251 -143 28 0
54 35 47 64 -4 18 -35 41 -120 90 -118 69 -144 76 -170 50z"/>
<path d="M3615 4494 c-232 -58 -420 -247 -481 -484 -22 -85 -22 -235 1 -320
59 -226 248 -415 475 -476 79 -20 233 -23 310 -5 30 7 97 33 149 59 155 75
280 219 332 382 30 90 37 261 15 353 -28 121 -80 212 -176 308 -91 92 -145
127 -255 166 -89 32 -276 41 -370 17z m329 -114 c71 -22 163 -79 220 -136 177
-177 213 -451 87 -669 -122 -211 -372 -317 -610 -257 -105 27 -180 70 -257
146 -75 76 -119 151 -144 252 -82 322 131 637 465 688 53 8 174 -4 239 -24z"/>
<path d="M4695 4446 c-60 -35 -113 -70 -119 -78 -15 -25 1 -67 29 -74 19 -5
50 8 127 51 149 84 172 110 130 148 -29 27 -50 21 -167 -47z"/>
<path d="M2532 3894 c-26 -18 -29 -56 -6 -78 12 -13 41 -16 153 -16 121 0 140
2 154 18 22 25 21 48 -3 72 -18 18 -33 20 -148 20 -99 0 -132 -3 -150 -16z"/>
<path d="M4722 3894 c-27 -18 -29 -55 -4 -77 15 -14 42 -17 154 -17 118 0 137
2 151 18 23 26 21 58 -5 76 -17 13 -51 16 -148 16 -97 0 -131 -3 -148 -16z"/>
<path d="M2809 3357 c-130 -76 -139 -83 -139 -113 0 -29 39 -57 66 -48 27 10
205 114 227 132 9 8 17 25 17 38 0 22 -33 54 -55 54 -5 0 -58 -28 -116 -63z"/>
<path d="M4592 3404 c-26 -18 -29 -55 -4 -76 9 -9 65 -43 124 -78 113 -65 137
-69 159 -28 20 36 -4 61 -124 131 -64 37 -120 67 -124 67 -5 0 -19 -7 -31 -16z"/>
<path d="M3248 3043 c-8 -10 -43 -69 -78 -130 -61 -110 -62 -113 -46 -138 23
-36 59 -33 89 8 13 17 48 74 77 126 51 89 53 96 39 120 -18 32 -59 39 -81 14z"/>
<path d="M4227 3042 c-10 -10 -17 -26 -17 -34 0 -9 30 -69 68 -133 70 -120 89
-138 131 -115 35 18 25 57 -44 176 -75 128 -100 148 -138 106z"/>
<path d="M3737 2912 c-14 -15 -17 -42 -17 -155 0 -147 7 -167 55 -167 45 0 55
32 55 172 0 115 -2 130 -20 148 -25 25 -52 26 -73 2z"/>
<path d="M877 2408 c-21 -17 -799 -2004 -795 -2032 6 -39 42 -46 236 -46 l182
0 0 -155 c0 -142 1 -155 19 -165 27 -14 4055 -14 4082 0 18 10 19 23 19 165
l0 155 183 0 c193 0 229 7 235 46 4 28 -774 2016 -795 2032 -25 18 -3341 18
-3366 0z m789 -115 c-7 -24 -166 -841 -166 -853 0 -6 -159 -10 -450 -10 -247
0 -450 2 -450 4 0 2 58 152 129 332 71 181 147 377 171 437 l42 107 364 0
c343 0 365 -1 360 -17z m844 -423 l0 -440 -453 0 -454 0 84 428 c46 235 86
433 88 440 3 9 86 12 370 12 l365 0 0 -440z m921 -2 l86 -438 -454 0 -453 0 0
440 0 440 367 -2 368 -3 86 -437z m789 335 c24 -60 100 -256 171 -437 71 -180
129 -330 129 -332 0 -2 -202 -4 -450 -4 -290 0 -450 4 -450 10 0 12 -159 828
-166 853 -5 16 17 17 360 17 l364 0 42 -107z m-2752 -888 c6 -6 -159 -857
-168 -868 -3 -4 -250 -6 -547 -5 l-542 3 164 420 c91 231 169 429 173 440 9
20 18 20 463 17 249 -1 455 -5 457 -7z m3269 -431 l172 -439 -542 -3 c-297 -1
-544 1 -547 5 -7 8 -170 837 -170 861 0 9 116 12 448 14 246 2 451 3 457 2 5
0 87 -198 182 -440z m-2227 -4 l0 -440 -551 0 -551 0 5 22 c3 13 43 211 88
441 l82 417 463 0 464 0 0 -440z m1109 23 c45 -230 85 -428 88 -440 l5 -23
-551 0 -551 0 0 440 0 440 464 0 463 0 82 -417z m901 -683 l0 -110 -1960 0
-1960 0 0 110 0 110 1960 0 1960 0 0 -110z"/>
</g>
</svg>
