<?xml version="1.0" standalone="no"?>
<!DOCTYPE svg PUBLIC "-//W3C//DTD SVG 20010904//EN"
 "http://www.w3.org/TR/2001/REC-SVG-20010904/DTD/svg10.dtd">
<svg version="1.0" xmlns="http://www.w3.org/2000/svg"
 width="512.000000pt" height="512.000000pt" viewBox="0 0 512.000000 512.000000"
 preserveAspectRatio="xMidYMid meet">

<g transform="translate(0.000000,512.000000) scale(0.100000,-0.100000)"
fill="#000000" stroke="none">
<path d="M533 4719 c-227 -38 -418 -202 -501 -431 l-27 -73 -3 -1627 c-2
-1414 0 -1637 13 -1700 47 -228 231 -426 455 -487 74 -21 85 -21 2090 -21
2005 0 2016 0 2090 21 168 46 322 173 399 329 76 156 72 38 69 1858 l-3 1627
-27 73 c-72 199 -214 339 -409 408 l-84 29 -2005 1 c-1103 1 -2028 -2 -2057
-7z m4107 -285 c78 -37 146 -104 186 -182 l29 -57 0 -1640 0 -1640 -33 -67
c-51 -104 -149 -181 -264 -208 -28 -6 -745 -10 -1998 -10 -1735 0 -1963 2
-2015 15 -111 29 -204 108 -254 214 l-26 56 0 1640 0 1640 27 56 c48 97 136
171 243 205 32 10 444 12 2040 11 l2000 -2 65 -31z"/>
<path d="M606 4210 c-15 -5 -37 -17 -48 -27 -50 -44 -48 24 -48 -1633 0 -1707
-4 -1600 62 -1640 33 -20 45 -20 1988 -20 1943 0 1955 0 1988 20 66 40 62 -67
62 1642 0 1459 -1 1555 -18 1587 -9 19 -30 44 -45 55 l-28 21 -1942 2 c-1068
1 -1955 -2 -1971 -7z m3744 -1660 l0 -1410 -1790 0 -1790 0 0 1410 0 1410
1790 0 1790 0 0 -1410z"/>
<path d="M1079 3677 c-61 -41 -60 -21 -57 -888 3 -779 3 -788 24 -816 11 -15
36 -36 55 -45 32 -17 98 -18 947 -18 1005 0 962 -3 1002 62 20 32 20 48 20
836 0 884 3 838 -60 876 -25 14 -115 16 -963 16 l-934 0 -34 -23z m1739 -869
l2 -638 -770 0 -770 0 0 640 0 640 768 -2 767 -3 3 -637z"/>
<path d="M3655 3689 c-31 -18 -295 -281 -311 -311 -40 -75 4 -163 92 -182 49
-11 83 9 182 107 l92 92 93 -92 c116 -116 151 -131 224 -96 25 12 41 29 55 61
33 74 22 94 -160 275 -157 156 -159 157 -203 157 -24 0 -53 -6 -64 -11z"/>
<path d="M3639 3037 c-58 -39 -60 -55 -57 -502 3 -376 4 -402 23 -432 49 -82
166 -82 215 0 19 30 20 53 20 445 0 448 0 447 -56 491 -37 29 -101 28 -145 -2z"/>
<path d="M3393 1890 c-36 -22 -63 -66 -63 -105 0 -51 32 -93 174 -233 150
-148 177 -164 243 -147 43 10 331 300 345 347 24 80 -40 158 -130 158 -43 0
-48 -3 -146 -100 l-102 -100 -84 85 c-117 117 -168 138 -237 95z"/>
<path d="M1116 1650 c-113 -35 -119 -199 -9 -241 42 -16 320 -11 357 6 62 30
89 123 52 180 -35 53 -58 60 -221 62 -82 1 -163 -2 -179 -7z"/>
<path d="M1883 1649 c-71 -21 -110 -110 -76 -176 34 -66 63 -74 256 -71 l169
3 34 37 c28 31 34 46 34 81 0 56 -33 108 -80 124 -41 14 -290 16 -337 2z"/>
<path d="M2655 1650 c-109 -33 -128 -172 -32 -230 28 -18 51 -20 190 -20 176
0 203 7 237 63 36 59 20 135 -37 173 -24 16 -50 19 -178 21 -82 1 -164 -2
-180 -7z"/>
</g>
</svg>
