<?xml version="1.0" standalone="no"?>
<!DOCTYPE svg PUBLIC "-//W3C//DTD SVG 20010904//EN"
 "http://www.w3.org/TR/2001/REC-SVG-20010904/DTD/svg10.dtd">
<svg version="1.0" xmlns="http://www.w3.org/2000/svg"
 width="512.000000pt" height="512.000000pt" viewBox="0 0 512.000000 512.000000"
 preserveAspectRatio="xMidYMid meet">

<g transform="translate(0.000000,512.000000) scale(0.100000,-0.100000)"
fill="#000000" stroke="none">
<path d="M1364 4551 c-47 -12 -133 -62 -160 -94 -14 -17 -37 -53 -52 -81 l-27
-51 0 -225 0 -225 34 -63 c38 -70 70 -101 145 -140 48 -25 61 -26 214 -30
l162 -4 0 -118 0 -118 -108 -3 c-98 -4 -113 -7 -149 -31 -82 -54 -66 24 -278
-1354 -182 -1188 -192 -1260 -180 -1306 14 -57 54 -103 110 -129 38 -18 99
-19 1465 -19 1366 0 1427 1 1465 19 56 26 96 72 110 129 12 46 2 118 -179
1299 -148 958 -197 1259 -213 1289 -11 21 -39 52 -62 69 -40 28 -49 30 -152
33 l-109 4 0 118 0 118 183 4 182 3 63 34 c70 38 100 69 140 145 l27 51 0 225
0 225 -27 51 c-40 76 -70 107 -140 145 l-63 34 -1185 2 c-652 0 -1199 -2
-1216 -6z m1716 -1031 l0 -120 -540 0 -540 0 0 120 0 120 540 0 540 0 0 -120z
m-1030 -487 c0 -27 -7 -129 -15 -228 -8 -99 -15 -186 -15 -192 0 -10 -52 -13
-226 -13 l-226 0 6 33 c3 17 19 120 36 227 17 107 33 201 35 208 3 9 53 12
205 12 l200 0 0 -47z m654 25 c3 -13 10 -95 16 -183 5 -88 13 -186 16 -217 l6
-58 -202 0 -202 0 6 58 c3 31 11 129 16 217 6 88 13 170 16 183 4 22 7 22 164
22 157 0 160 0 164 -22z m768 -208 c20 -124 37 -231 37 -237 1 -10 -50 -13
-224 -13 -173 0 -225 3 -225 13 0 6 -7 93 -15 192 -8 99 -15 201 -15 228 l0
47 202 -2 203 -3 37 -225z m-1493 -787 c-10 -120 -18 -219 -18 -220 -1 -2
-116 -3 -257 -3 l-256 0 6 28 c3 15 17 104 31 197 14 94 28 180 30 193 l5 22
238 0 237 0 -16 -217z m785 195 c3 -13 10 -102 16 -198 6 -96 13 -185 16 -197
l4 -23 -260 0 -260 0 4 23 c3 12 10 101 16 197 6 96 13 185 16 198 l4 22 220
0 220 0 4 -22z m801 0 c2 -13 16 -99 30 -193 14 -93 28 -182 31 -197 l6 -28
-256 0 c-141 0 -256 1 -257 3 0 1 -8 100 -18 220 l-16 217 237 0 238 0 5 -22z
m-1629 -795 c-3 -32 -13 -152 -21 -268 -8 -115 -17 -234 -21 -262 l-5 -53
-295 0 c-228 0 -294 3 -294 13 0 15 90 598 96 615 2 9 66 12 275 12 l271 0 -6
-57z m884 52 c0 -19 41 -550 45 -587 l6 -48 -331 0 -331 0 6 48 c4 37 45 568
45 587 0 3 126 5 280 5 154 0 280 -2 280 -5z m912 -300 c26 -165 47 -308 48
-317 0 -17 -21 -18 -294 -18 l-295 0 -5 53 c-4 28 -13 147 -21 262 -8 116 -18
236 -21 268 l-6 57 273 -2 273 -3 48 -300z"/>
</g>
</svg>
