<?xml version="1.0" standalone="no"?>
<!DOCTYPE svg PUBLIC "-//W3C//DTD SVG 20010904//EN"
 "http://www.w3.org/TR/2001/REC-SVG-20010904/DTD/svg10.dtd">
<svg version="1.0" xmlns="http://www.w3.org/2000/svg"
 width="512.000000pt" height="512.000000pt" viewBox="0 0 512.000000 512.000000"
 preserveAspectRatio="xMidYMid meet">

<g transform="translate(0.000000,512.000000) scale(0.100000,-0.100000)"
fill="#000000" stroke="none">
<path d="M460 5113 c-194 -33 -358 -172 -432 -369 l-23 -59 -3 -2342 -2 -2343
2160 0 2160 0 0 2039 0 2039 68 -26 c58 -22 83 -26 182 -25 93 0 126 4 174 21
168 62 292 186 348 350 32 95 32 249 0 344 -56 163 -178 286 -348 350 l-59 23
-2100 1 c-1155 1 -2111 0 -2125 -3z m3593 -360 c-16 -45 -27 -99 -30 -160 l-6
-93 -1858 0 -1859 0 0 53 c0 77 26 144 75 192 79 79 -81 73 1916 74 l1787 1
-25 -67z m602 50 c92 -31 165 -134 165 -233 0 -132 -118 -250 -250 -250 -60 0
-130 30 -175 75 -98 98 -98 252 0 350 69 70 164 91 260 58z m-635 -753 l0
-150 -1860 0 -1860 0 0 150 0 150 1860 0 1860 0 0 -150z m0 -600 l0 -150
-1860 0 -1860 0 0 150 0 150 1860 0 1860 0 0 -150z m0 -600 l0 -150 -1860 0
-1860 0 0 150 0 150 1860 0 1860 0 0 -150z m0 -600 l0 -150 -1860 0 -1860 0 0
150 0 150 1860 0 1860 0 0 -150z m0 -600 l0 -150 -1860 0 -1860 0 0 150 0 150
1860 0 1860 0 0 -150z m0 -900 l0 -450 -1860 0 -1860 0 0 450 0 450 1860 0
1860 0 0 -450z"/>
<path d="M600 750 l0 -150 150 0 150 0 0 150 0 150 -150 0 -150 0 0 -150z"/>
<path d="M3420 750 l0 -150 150 0 150 0 0 150 0 150 -150 0 -150 0 0 -150z"/>
</g>
</svg>
