<?xml version="1.0" standalone="no"?>
<!DOCTYPE svg PUBLIC "-//W3C//DTD SVG 20010904//EN"
 "http://www.w3.org/TR/2001/REC-SVG-20010904/DTD/svg10.dtd">
<svg version="1.0" xmlns="http://www.w3.org/2000/svg"
 width="512.000000pt" height="512.000000pt" viewBox="0 0 512.000000 512.000000"
 preserveAspectRatio="xMidYMid meet">

<g transform="translate(0.000000,512.000000) scale(0.100000,-0.100000)"
fill="#000000" stroke="none">
<path d="M1640 5106 c-29 -16 -84 -89 -105 -140 -19 -45 -19 -137 0 -182 8
-20 28 -53 45 -74 38 -48 38 -68 0 -115 -50 -63 -52 -114 -5 -161 18 -18 35
-24 66 -24 37 0 47 6 82 43 54 58 87 130 87 193 0 65 -14 107 -56 165 -40 55
-42 78 -10 116 57 69 61 110 12 159 -37 37 -73 43 -116 20z"/>
<path d="M2552 5107 c-12 -7 -36 -29 -52 -49 -91 -111 -94 -251 -7 -354 33
-39 34 -64 3 -101 -56 -68 -62 -119 -17 -164 23 -23 38 -29 71 -29 36 0 48 6
77 38 57 61 84 116 90 181 7 69 -6 113 -53 181 -19 27 -34 58 -34 68 0 10 15
38 32 62 45 61 45 111 0 151 -35 31 -72 37 -110 16z"/>
<path d="M3463 5110 c-25 -10 -89 -91 -109 -139 -33 -78 -12 -188 50 -270 14
-19 26 -41 26 -48 0 -7 -16 -36 -35 -64 -45 -66 -47 -109 -6 -150 45 -44 98
-41 147 9 68 70 89 118 89 202 0 79 -14 116 -61 173 -32 39 -30 71 8 118 45
57 45 110 0 150 -33 30 -67 36 -109 19z"/>
<path d="M859 3971 c-31 -32 -35 -62 -23 -168 l7 -53 1717 0 1717 0 7 38 c3
20 6 63 6 94 0 46 -5 62 -26 87 l-26 31 -1675 0 -1675 0 -29 -29z"/>
<path d="M530 3721 c-39 -39 -41 -97 -6 -138 l24 -28 165 -3 164 -3 27 -102
c65 -242 198 -505 353 -697 75 -93 224 -238 315 -308 49 -37 88 -72 88 -78 0
-5 -113 -500 -250 -1100 -137 -599 -250 -1101 -250 -1115 0 -32 34 -77 68 -90
30 -11 82 3 105 29 10 11 68 242 146 577 71 308 133 573 136 588 l7 27 929 0
c511 0 929 -1 929 -2 0 -2 43 -190 95 -417 52 -228 95 -426 95 -438 0 -63 -59
-111 -118 -98 -56 12 -70 39 -114 233 -47 199 -48 201 -93 107 -82 -175 -43
-388 96 -528 227 -227 604 -160 747 132 37 75 37 78 37 196 0 143 -18 197 -93
290 -79 99 -190 161 -311 174 l-56 6 -162 700 c-89 385 -162 707 -162 715 0 8
41 44 90 80 167 122 358 331 470 516 98 163 211 435 234 566 l7 38 -1683 2
-1684 3 -16 95 -15 95 -143 3 -142 3 -29 -30z m3129 -672 c59 -21 79 -102 39
-155 -58 -76 -147 -170 -217 -228 -155 -129 -361 -246 -434 -246 -79 0 -125
91 -77 153 11 14 61 45 112 70 137 67 256 156 380 287 131 137 136 140 197
119z m-1706 -829 c375 -157 807 -160 1195 -7 56 22 104 38 105 36 2 -2 41
-166 86 -364 46 -198 85 -370 88 -382 l5 -23 -881 0 c-485 0 -881 3 -881 8 -1
18 176 772 181 772 3 0 49 -18 102 -40z"/>
<path d="M4275 3713 c-4 -21 -11 -60 -16 -86 -16 -85 -28 -79 152 -75 l161 3
24 28 c35 41 33 99 -5 138 l-29 29 -141 0 -140 0 -6 -37z"/>
</g>
</svg>
