<?xml version="1.0" standalone="no"?>
<!DOCTYPE svg PUBLIC "-//W3C//DTD SVG 20010904//EN"
 "http://www.w3.org/TR/2001/REC-SVG-20010904/DTD/svg10.dtd">
<svg version="1.0" xmlns="http://www.w3.org/2000/svg"
 width="512.000000pt" height="512.000000pt" viewBox="0 0 512.000000 512.000000"
 preserveAspectRatio="xMidYMid meet">

<g transform="translate(0.000000,512.000000) scale(0.100000,-0.100000)"
fill="#000000" stroke="none">
<path d="M2509 4687 c-93 -62 -156 -240 -224 -627 -63 -364 -131 -968 -179
-1595 -9 -110 -18 -223 -22 -252 l-5 -52 -73 87 c-352 418 -881 763 -1461 952
-144 46 -356 100 -398 100 -67 0 -116 -57 -102 -118 4 -20 48 -74 123 -154
288 -304 494 -555 694 -848 95 -139 219 -342 267 -438 l32 -64 -73 64 c-252
219 -537 370 -853 452 -149 39 -190 34 -221 -26 -27 -53 -13 -85 89 -194 270
-289 447 -534 581 -805 96 -193 166 -416 166 -530 l0 -29 -219 0 c-120 0 -232
-3 -250 -6 -80 -16 -109 -108 -52 -165 l29 -29 2350 0 2349 0 26 24 c49 45 46
111 -7 150 -26 20 -42 21 -417 24 l-389 3 0 28 c0 114 70 338 166 530 134 271
311 516 581 805 102 109 116 141 89 194 -31 60 -72 65 -221 26 -345 -89 -676
-274 -910 -509 -130 -129 -262 -311 -321 -440 -37 -80 -28 -36 20 97 216 604
639 1241 1264 1902 85 89 133 149 137 168 13 59 -35 118 -98 118 -37 0 -248
-45 -372 -79 -540 -148 -1024 -429 -1422 -824 -75 -74 -123 -115 -123 -104 0
9 -9 119 -20 244 -85 960 -182 1576 -285 1802 -59 127 -160 176 -246 118z
m131 -421 c77 -322 152 -913 220 -1739 l20 -239 -68 -96 c-121 -171 -252 -411
-328 -599 -27 -68 -44 -91 -44 -60 0 7 -40 92 -88 188 l-89 176 13 184 c81
1127 189 1997 286 2307 l21 67 14 -34 c8 -18 27 -88 43 -155z m2024 -1018 c-4
-7 -53 -65 -109 -128 -732 -830 -1181 -1709 -1212 -2377 l-6 -133 -95 0 -95 0
6 128 c10 192 54 422 119 622 20 63 89 241 142 365 34 79 33 109 -3 146 -23
23 -38 29 -71 29 -60 0 -84 -32 -154 -201 -146 -355 -217 -649 -232 -959 l-7
-130 -143 0 -143 0 -5 33 c-3 17 -13 84 -21 147 -9 63 -29 179 -46 258 l-31
143 27 87 c195 635 617 1193 1194 1576 253 168 483 279 781 376 98 32 114 35
104 18z m-3943 -326 c172 -69 416 -200 584 -313 629 -426 1015 -1045 1125
-1804 11 -77 22 -152 25 -167 l4 -28 -398 0 -398 0 -6 118 c-34 621 -434 1410
-1099 2169 -54 61 -98 114 -98 117 0 6 137 -43 261 -92z m-93 -1099 c378 -207
639 -521 751 -901 28 -95 61 -253 61 -294 0 -17 -16 -18 -194 -18 l-193 0 -6
63 c-31 334 -237 767 -548 1151 -38 47 -69 88 -69 90 0 7 121 -48 198 -91z
m3993 2 c-311 -385 -517 -817 -548 -1152 l-6 -63 -193 0 c-178 0 -194 1 -194
18 0 41 33 199 61 294 119 403 398 723 816 934 70 35 128 62 131 60 2 -3 -28
-44 -67 -91z"/>
<path d="M3434 2186 c-58 -58 -42 -138 33 -167 59 -22 133 36 133 105 0 40
-58 96 -100 96 -23 0 -41 -9 -66 -34z"/>
<path d="M70 599 c-38 -16 -59 -39 -66 -74 -17 -92 92 -151 165 -89 42 35 44
98 5 138 -15 14 -32 26 -40 26 -7 0 -18 2 -26 4 -7 3 -24 0 -38 -5z"/>
</g>
</svg>
