<?xml version="1.0" standalone="no"?>
<!DOCTYPE svg PUBLIC "-//W3C//DTD SVG 20010904//EN"
 "http://www.w3.org/TR/2001/REC-SVG-20010904/DTD/svg10.dtd">
<svg version="1.0" xmlns="http://www.w3.org/2000/svg"
 width="512.000000pt" height="512.000000pt" viewBox="0 0 512.000000 512.000000"
 preserveAspectRatio="xMidYMid meet">

<g transform="translate(0.000000,512.000000) scale(0.100000,-0.100000)"
fill="#000000" stroke="none">
<path d="M0 2560 l0 -1770 2560 0 2560 0 0 1770 0 1770 -2560 0 -2560 0 0
-1770z m2480 1425 l0 -185 -1160 0 -1160 0 0 185 0 185 1160 0 1160 0 0 -185z
m2480 0 l0 -185 -1160 0 -1160 0 0 185 0 185 1160 0 1160 0 0 -185z m-3850
-1425 l0 -1080 -475 0 -475 0 0 1080 0 1080 475 0 475 0 0 -1080z m1370 580
l0 -500 -605 0 -605 0 0 500 0 500 605 0 605 0 0 -500z m1370 0 l0 -500 -605
0 -605 0 0 500 0 500 605 0 605 0 0 -500z m1110 -580 l0 -1080 -475 0 -475 0
0 1080 0 1080 475 0 475 0 0 -1080z m-2480 -580 l0 -500 -605 0 -605 0 0 500
0 500 605 0 605 0 0 -500z m1370 0 l0 -500 -605 0 -605 0 0 500 0 500 605 0
605 0 0 -500z m-1370 -845 l0 -185 -1160 0 -1160 0 0 185 0 185 1160 0 1160 0
0 -185z m2480 0 l0 -185 -1160 0 -1160 0 0 185 0 185 1160 0 1160 0 0 -185z"/>
</g>
</svg>
