<?xml version="1.0" standalone="no"?>
<!DOCTYPE svg PUBLIC "-//W3C//DTD SVG 20010904//EN"
 "http://www.w3.org/TR/2001/REC-SVG-20010904/DTD/svg10.dtd">
<svg version="1.0" xmlns="http://www.w3.org/2000/svg"
 width="512.000000pt" height="512.000000pt" viewBox="0 0 512.000000 512.000000"
 preserveAspectRatio="xMidYMid meet">

<g transform="translate(0.000000,512.000000) scale(0.100000,-0.100000)"
fill="#000000" stroke="none">
<path d="M2494 5102 c-17 -9 -578 -425 -1246 -924 -1286 -961 -1248 -930
-1248 -1011 0 -73 74 -146 148 -147 31 0 81 22 129 56 l23 16 0 -1396 0 -1396
-90 0 c-71 0 -99 -4 -130 -20 -45 -23 -80 -80 -80 -130 0 -50 35 -107 80 -130
39 -20 53 -20 2480 -20 2427 0 2441 0 2480 20 45 23 80 80 80 130 0 50 -35
107 -80 130 -31 16 -59 20 -130 20 l-90 0 0 1396 c0 1113 3 1394 13 1388 6 -4
27 -19 45 -32 96 -73 242 -2 242 117 0 79 35 51 -1250 1010 -668 500 -1230
915 -1247 925 -41 20 -89 20 -129 -2z m1046 -1051 l975 -729 3 -1511 2 -1511
-1960 0 -1960 0 0 1509 0 1509 978 731 c537 402 979 730 982 730 3 1 444 -327
980 -728z"/>
<path d="M2492 3903 c-91 -44 -108 -158 -37 -241 l35 -41 -47 -6 c-357 -46
-607 -164 -838 -399 -199 -201 -313 -415 -372 -696 -24 -116 -24 -380 0 -502
49 -246 163 -474 323 -647 75 -81 107 -101 159 -101 100 0 170 88 144 182 -6
23 -34 65 -70 105 -123 139 -208 297 -252 472 -31 127 -31 360 2 485 115 443
479 757 926 802 l70 7 -57 -62 c-64 -68 -78 -109 -59 -171 24 -79 105 -124
183 -100 34 10 75 44 205 173 202 199 231 252 186 334 -32 57 -335 390 -370
407 -43 20 -89 20 -131 -1z"/>
<path d="M3320 3248 c-49 -33 -74 -88 -66 -142 6 -35 20 -59 72 -117 129 -147
212 -301 257 -478 30 -121 30 -370 -1 -481 -34 -128 -79 -231 -142 -328 -172
-266 -466 -446 -780 -477 l-74 -7 52 56 c84 93 93 174 27 241 -38 38 -85 51
-142 40 -31 -6 -66 -35 -210 -177 -95 -94 -179 -186 -188 -203 -20 -43 -19
-93 3 -132 29 -53 320 -376 360 -400 123 -74 270 62 206 190 -9 18 -28 44 -41
59 l-25 26 48 7 c190 24 311 57 453 121 127 59 267 158 382 273 199 200 314
415 376 702 24 115 24 379 0 501 -53 264 -190 524 -365 691 -58 55 -62 57
-115 57 -40 0 -63 -6 -87 -22z"/>
</g>
</svg>
