<?xml version="1.0" standalone="no"?>
<!DOCTYPE svg PUBLIC "-//W3C//DTD SVG 20010904//EN"
 "http://www.w3.org/TR/2001/REC-SVG-20010904/DTD/svg10.dtd">
<svg version="1.0" xmlns="http://www.w3.org/2000/svg"
 width="512.000000pt" height="512.000000pt" viewBox="0 0 512.000000 512.000000"
 preserveAspectRatio="xMidYMid meet">

<g transform="translate(0.000000,512.000000) scale(0.100000,-0.100000)"
fill="#000000" stroke="none">
<path d="M2365 5109 c-399 -55 -725 -273 -823 -552 -33 -95 -41 -251 -18 -349
43 -185 178 -351 374 -460 40 -22 72 -42 70 -43 -2 -2 -53 -23 -114 -48 -357
-146 -623 -341 -765 -559 -168 -261 -166 -597 6 -858 42 -63 154 -179 205
-212 25 -16 25 -16 -50 -37 -458 -131 -755 -343 -871 -621 -41 -96 -63 -234
-55 -345 7 -119 27 -191 80 -300 76 -152 189 -269 367 -376 l82 -49 -367 0
c-348 0 -369 -1 -406 -20 -45 -23 -80 -80 -80 -130 0 -50 35 -107 80 -130 39
-20 53 -20 2480 -20 2427 0 2441 0 2480 20 45 23 80 80 80 130 0 50 -35 107
-80 130 -37 19 -58 20 -406 20 l-367 0 91 57 c179 113 285 222 357 368 63 126
79 195 79 345 0 131 -12 197 -57 309 -74 182 -250 351 -492 470 -248 123 -495
188 -975 258 -33 4 -29 7 85 62 489 235 745 547 745 908 0 395 -240 690 -645
795 -44 11 -81 22 -83 23 -2 2 18 29 44 62 132 162 177 394 113 585 -108 327
-496 559 -954 573 -77 2 -171 0 -210 -6z m415 -319 c131 -32 277 -107 355
-184 88 -86 120 -155 120 -256 0 -63 -5 -85 -29 -135 -101 -206 -421 -349
-746 -331 -237 12 -451 101 -573 236 -65 72 -91 131 -95 215 -5 96 22 167 95
245 116 125 275 198 508 234 68 10 282 -4 365 -24z m445 -1180 c310 -35 501
-170 560 -397 48 -182 -7 -345 -170 -509 -176 -179 -451 -320 -829 -429 -565
-162 -957 -175 -1234 -44 -237 114 -347 376 -255 613 45 115 172 257 314 352
402 267 1170 464 1614 414z m-55 -1794 c526 -59 876 -166 1104 -338 265 -199
298 -512 79 -739 -218 -226 -640 -364 -1283 -421 -190 -17 -830 -17 -1020 0
-641 57 -1066 196 -1283 421 -220 227 -186 539 79 739 258 195 699 313 1324
356 150 10 862 -3 1000 -18z"/>
</g>
</svg>
