<?xml version="1.0" standalone="no"?>
<!DOCTYPE svg PUBLIC "-//W3C//DTD SVG 20010904//EN"
 "http://www.w3.org/TR/2001/REC-SVG-20010904/DTD/svg10.dtd">
<svg version="1.0" xmlns="http://www.w3.org/2000/svg"
 width="512.000000pt" height="512.000000pt" viewBox="0 0 512.000000 512.000000"
 preserveAspectRatio="xMidYMid meet">

<g transform="translate(0.000000,512.000000) scale(0.100000,-0.100000)"
fill="#000000" stroke="none">
<path d="M1200 4194 c-30 -19 -56 -39 -58 -44 -6 -17 71 -131 85 -126 7 3 38
21 69 41 l55 36 -22 37 c-36 59 -60 92 -67 92 -4 0 -32 -16 -62 -36z"/>
<path d="M3806 4164 c-32 -54 -37 -67 -25 -75 42 -28 121 -71 123 -68 12 14
76 120 76 126 0 9 -115 83 -127 83 -5 0 -26 -30 -47 -66z"/>
<path d="M1408 3852 c-32 -20 -58 -41 -58 -45 0 -7 64 -113 76 -126 3 -3 112
59 133 75 7 6 -74 134 -84 133 -5 0 -36 -17 -67 -37z"/>
<path d="M3597 3830 c-21 -34 -35 -65 -32 -70 7 -11 125 -83 129 -79 12 16 76
126 76 131 0 8 -114 78 -126 78 -5 0 -26 -27 -47 -60z"/>
<path d="M1620 3513 c-30 -19 -57 -37 -59 -39 -3 -3 59 -112 75 -133 5 -6 134
73 134 82 0 14 -75 127 -85 126 -5 0 -35 -16 -65 -36z"/>
<path d="M3384 3488 l-37 -61 26 -21 c15 -12 45 -31 66 -44 l40 -22 37 57 c20
31 38 62 40 68 5 11 -104 85 -124 85 -6 0 -27 -28 -48 -62z"/>
<path d="M1830 3173 c-30 -19 -57 -37 -59 -39 -4 -3 69 -123 80 -130 4 -2 37
14 72 37 l65 40 -40 65 c-22 35 -45 64 -52 63 -6 0 -36 -16 -66 -36z"/>
<path d="M3204 3198 c-4 -7 -23 -36 -40 -64 l-33 -52 62 -37 c34 -21 65 -40
69 -42 5 -3 88 119 88 130 0 7 -117 77 -128 77 -6 0 -14 -6 -18 -12z"/>
<path d="M200 3038 c-13 -35 -25 -68 -27 -74 -6 -15 135 -71 146 -58 8 10 51
121 51 134 0 6 -130 60 -144 60 -2 0 -14 -28 -26 -62z"/>
<path d="M4820 3072 c-36 -14 -66 -26 -68 -27 -8 -5 53 -145 63 -145 15 0 117
40 129 51 10 9 -40 150 -52 148 -4 0 -36 -13 -72 -27z"/>
<path d="M589 2932 c-51 -130 -49 -123 -31 -129 9 -3 43 -16 75 -29 l58 -23
10 27 c6 15 19 48 29 75 10 26 15 49 11 51 -4 3 -37 16 -74 30 l-68 25 -10
-27z"/>
<path d="M4445 2929 c-27 -11 -54 -24 -58 -28 -4 -4 4 -40 18 -79 l27 -70 66
25 c37 13 70 28 74 32 5 4 -4 37 -18 74 -29 75 -32 77 -109 46z"/>
<path d="M959 2783 c-5 -16 -17 -47 -26 -71 -9 -23 -14 -44 -12 -46 7 -5 143
-56 144 -53 15 22 54 142 48 147 -10 9 -120 50 -134 50 -5 0 -14 -12 -20 -27z"/>
<path d="M4063 2783 l-62 -24 25 -67 c14 -37 29 -70 32 -74 4 -3 38 5 75 19
64 24 69 28 64 52 -10 47 -46 121 -59 120 -7 0 -41 -12 -75 -26z"/>
<path d="M2005 2753 c8 -57 35 -117 74 -164 37 -44 131 -95 194 -104 l47 -7 0
-79 0 -79 -55 0 c-46 0 -60 -4 -80 -25 l-25 -24 0 -1031 0 -1031 25 -24 24
-25 351 0 351 0 24 25 25 24 0 1031 0 1031 -25 24 c-20 21 -34 25 -80 25 l-55
0 0 79 0 79 48 7 c59 8 155 59 188 98 38 45 71 117 79 170 l7 47 -562 0 -562
0 7 -47z"/>
<path d="M1317 2599 c-15 -40 -26 -73 -25 -74 17 -12 144 -53 149 -47 16 18
51 134 43 141 -9 9 -119 51 -132 51 -4 0 -20 -32 -35 -71z"/>
<path d="M3701 2644 c-36 -13 -66 -26 -68 -28 -4 -4 44 -137 52 -144 5 -6 145
48 145 56 0 15 -52 142 -58 142 -4 -1 -36 -12 -71 -26z"/>
<path d="M1707 2498 c-27 -66 -39 -110 -31 -117 12 -11 134 -55 138 -50 2 2
13 29 24 59 11 30 23 62 27 71 5 12 -8 21 -57 39 -35 12 -68 25 -75 27 -7 3
-18 -10 -26 -29z"/>
<path d="M3328 2503 c-38 -14 -68 -31 -68 -37 0 -16 40 -119 50 -130 5 -5 27
-3 52 7 24 9 55 21 70 26 l27 10 -27 76 c-15 41 -29 75 -32 74 -3 0 -35 -12
-72 -26z"/>
<path d="M1807 2114 l-67 -34 35 -70 c19 -39 38 -70 40 -70 6 0 128 60 134 66
6 5 -61 144 -68 144 -3 -1 -36 -17 -74 -36z"/>
<path d="M3200 2080 c-18 -38 -32 -71 -29 -72 2 -2 35 -18 72 -36 l68 -32 34
72 34 73 -67 32 c-37 18 -70 32 -73 33 -3 0 -20 -31 -39 -70z"/>
<path d="M3561 1909 c-18 -39 -31 -73 -29 -75 2 -1 34 -16 71 -33 l67 -30 36
70 c19 39 34 72 32 73 -5 4 -140 66 -143 66 -1 0 -17 -32 -34 -71z"/>
<path d="M1443 1941 l-62 -30 31 -70 c18 -39 36 -71 40 -71 7 0 127 57 136 65
7 6 -61 135 -71 135 -7 0 -40 -13 -74 -29z"/>
<path d="M1083 1770 l-62 -28 31 -71 c18 -39 35 -71 39 -71 8 0 139 61 139 65
0 16 -65 135 -73 135 -7 -1 -40 -14 -74 -30z"/>
<path d="M3922 1734 c-18 -37 -32 -68 -30 -69 8 -7 129 -65 136 -65 7 0 72
122 72 135 0 7 -118 65 -133 65 -7 0 -27 -30 -45 -66z"/>
<path d="M727 1600 c-32 -15 -61 -30 -63 -33 -4 -4 50 -123 62 -136 5 -6 133
49 139 60 8 11 -57 139 -70 138 -5 0 -36 -13 -68 -29z"/>
<path d="M4283 1560 l-32 -70 66 -30 c36 -17 70 -30 74 -30 7 0 69 123 69 137
0 4 -128 63 -138 63 -4 0 -21 -32 -39 -70z"/>
<path d="M365 1428 c-33 -17 -62 -32 -64 -34 -4 -3 60 -144 66 -144 2 0 35 16
73 35 l70 35 -35 70 c-19 39 -39 70 -43 70 -4 -1 -34 -15 -67 -32z"/>
<path d="M4643 1390 l-31 -69 65 -31 c36 -16 69 -30 74 -30 7 0 69 123 69 137
0 5 -126 63 -138 63 -4 0 -22 -31 -39 -70z"/>
<path d="M240 692 c0 -15 7 -54 15 -85 45 -173 178 -307 350 -352 84 -21 466
-21 550 0 172 45 305 179 350 352 8 31 15 70 15 85 l0 28 -108 0 c-174 0 -279
-38 -384 -138 -63 -59 -124 -166 -134 -234 -8 -49 -20 -49 -28 0 -10 68 -71
175 -134 234 -105 100 -210 138 -384 138 l-108 0 0 -28z"/>
<path d="M3600 692 c0 -15 7 -54 15 -85 45 -173 178 -307 350 -352 84 -21 466
-21 550 0 172 45 305 179 350 352 8 31 15 70 15 85 l0 28 -108 0 c-174 0 -279
-38 -384 -138 -63 -59 -124 -166 -134 -234 -8 -49 -20 -49 -28 0 -10 68 -71
175 -134 234 -105 100 -210 138 -384 138 l-108 0 0 -28z"/>
</g>
</svg>
