<?xml version="1.0" standalone="no"?>
<!DOCTYPE svg PUBLIC "-//W3C//DTD SVG 20010904//EN"
 "http://www.w3.org/TR/2001/REC-SVG-20010904/DTD/svg10.dtd">
<svg version="1.0" xmlns="http://www.w3.org/2000/svg"
 width="512.000000pt" height="512.000000pt" viewBox="0 0 512.000000 512.000000"
 preserveAspectRatio="xMidYMid meet">

<g transform="translate(0.000000,512.000000) scale(0.100000,-0.100000)"
fill="#000000" stroke="none">
<path d="M773 5106 c-104 -34 -176 -98 -222 -196 l-26 -55 0 -690 0 -690 26
-56 c37 -78 90 -133 163 -169 132 -65 275 -46 381 52 31 28 68 74 83 102 l27
51 0 710 0 710 -28 53 c-60 114 -162 180 -289 188 -46 2 -88 -1 -115 -10z
m160 -277 c42 -52 6 -139 -59 -139 -46 0 -63 9 -79 41 -22 42 -18 67 15 101
27 26 36 30 68 25 20 -4 45 -16 55 -28z"/>
<path d="M2117 4839 c-59 -10 -133 -26 -165 -35 -129 -37 -141 -57 -117 -195
33 -193 78 -334 153 -484 62 -125 114 -198 197 -281 117 -116 267 -191 456
-230 143 -29 445 -8 616 42 20 5 24 -2 51 -88 48 -149 63 -234 69 -385 l6
-143 -611 0 c-453 0 -618 -3 -637 -12 -58 -26 -59 -36 -15 -375 47 -362 44
-347 72 -373 22 -20 30 -20 1276 -20 835 0 1260 3 1272 10 11 6 24 18 29 28 5
9 28 164 51 344 41 312 42 329 26 353 -9 14 -28 30 -42 35 -15 6 -272 10 -636
10 l-611 0 6 138 c6 149 20 222 69 380 29 93 34 103 52 98 138 -39 229 -50
411 -50 169 -1 199 2 274 22 330 90 539 309 670 702 34 101 81 317 81 369 0
63 -58 92 -270 138 -67 14 -128 18 -285 17 -175 0 -210 -3 -280 -22 -92 -26
-203 -76 -272 -123 -208 -143 -375 -443 -443 -795 -14 -72 -34 -135 -58 -186
-20 -42 -39 -77 -42 -77 -4 -1 -12 16 -19 37 -8 20 -24 53 -36 72 -13 20 -26
60 -30 90 -11 84 -60 267 -94 353 -153 384 -365 578 -703 642 -112 21 -334 19
-471 -6z m549 -2092 c31 -36 31 -78 0 -114 -23 -27 -29 -28 -122 -32 -125 -4
-169 8 -191 54 -14 28 -14 38 -3 65 21 51 50 60 178 58 111 -3 114 -4 138 -31z
m927 21 c54 -28 65 -98 21 -139 l-26 -24 -311 -3 c-354 -4 -380 0 -403 53 -17
43 -3 89 35 110 34 19 649 22 684 3z"/>
<path d="M990 3052 c-45 -13 -194 -11 -267 4 l-33 6 0 -128 c0 -269 73 -707
144 -868 14 -31 29 -56 34 -56 28 0 91 211 126 416 38 226 47 335 44 494 l-3
146 -45 -14z"/>
<path d="M455 2726 c-233 -75 -365 -215 -425 -451 -92 -360 53 -1092 330
-1660 86 -177 175 -311 265 -400 85 -85 147 -118 233 -123 55 -4 71 0 126 27
75 37 184 146 261 261 189 285 373 791 450 1237 88 510 22 836 -204 1005 -65
49 -183 103 -248 114 l-40 6 -7 -78 c-20 -227 -81 -528 -132 -654 -48 -118
-96 -172 -167 -185 -173 -33 -279 198 -348 753 -11 92 -21 167 -22 168 -1 1
-33 -8 -72 -20z"/>
<path d="M2326 2053 c7 -41 254 -1962 254 -1979 0 -9 13 -29 29 -45 l29 -29
826 0 c583 0 832 3 849 11 14 6 30 21 36 33 6 11 67 460 136 996 69 536 128
990 131 1008 l6 32 -1151 0 -1150 0 5 -27z"/>
</g>
</svg>
