<?xml version="1.0" standalone="no"?>
<!DOCTYPE svg PUBLIC "-//W3C//DTD SVG 20010904//EN"
 "http://www.w3.org/TR/2001/REC-SVG-20010904/DTD/svg10.dtd">
<svg version="1.0" xmlns="http://www.w3.org/2000/svg"
 width="512.000000pt" height="512.000000pt" viewBox="0 0 512.000000 512.000000"
 preserveAspectRatio="xMidYMid meet">

<g transform="translate(0.000000,512.000000) scale(0.100000,-0.100000)"
fill="#000000" stroke="none">
<path d="M1760 3899 l0 -702 -80 -83 -80 -84 0 -295 0 -295 -800 0 -800 0 0
-80 0 -80 800 0 800 0 0 -240 0 -240 -800 0 -800 0 0 -80 0 -80 1009 0 1009 0
12 -30 c7 -17 32 -48 56 -69 77 -67 166 -79 258 -33 l56 29 56 -29 c75 -37
133 -37 208 0 l56 29 56 -29 c75 -37 133 -37 208 0 l56 29 56 -29 c92 -46 181
-34 258 33 24 21 49 52 56 69 l12 30 849 0 849 0 0 80 0 80 -840 0 -840 0 0
240 0 240 840 0 840 0 0 80 0 80 -840 0 -840 0 0 1080 0 1080 -80 0 -80 0 0
-1005 0 -1004 -62 5 c-56 5 -69 3 -120 -24 l-58 -29 -56 29 c-39 19 -72 28
-104 28 -32 0 -65 -9 -104 -28 l-56 -29 -56 29 c-39 19 -72 28 -104 28 -32 0
-65 -9 -104 -28 l-56 -29 -57 29 c-52 27 -65 29 -120 24 l-63 -5 0 44 0 45
-80 0 -79 0 -3 -277 c-3 -276 -3 -278 -29 -334 -33 -70 -87 -124 -153 -155
l-51 -24 -3 537 -2 536 80 83 80 84 0 735 0 735 -80 0 -80 0 0 -701z m513
-1471 c46 -24 46 -26 47 -381 0 -345 -2 -366 -39 -394 -35 -27 -86 -11 -109
34 -17 32 -16 692 1 714 15 19 47 38 65 39 7 0 23 -5 35 -12z m320 0 c46 -24
46 -26 47 -381 0 -345 -2 -366 -39 -394 -35 -27 -86 -11 -109 34 -17 32 -16
692 1 714 15 19 47 38 65 39 7 0 23 -5 35 -12z m320 0 c46 -24 46 -26 47 -381
0 -345 -2 -366 -39 -394 -35 -27 -86 -11 -109 34 -17 32 -16 692 1 714 15 19
47 38 65 39 7 0 23 -5 35 -12z m320 0 c46 -24 46 -26 47 -381 0 -345 -2 -366
-39 -394 -35 -27 -86 -11 -109 34 -17 32 -16 692 1 714 15 19 47 38 65 39 7 0
23 -5 35 -12z m-1233 -608 c0 -15 -7 -20 -27 -20 l-28 0 25 20 c31 24 30 24
30 0z"/>
<path d="M2480 1240 l0 -80 80 0 80 0 0 80 0 80 -80 0 -80 0 0 -80z"/>
<path d="M2160 920 l0 -80 80 0 80 0 0 80 0 80 -80 0 -80 0 0 -80z"/>
<path d="M2480 920 l0 -80 80 0 80 0 0 80 0 80 -80 0 -80 0 0 -80z"/>
<path d="M2800 920 l0 -80 80 0 80 0 0 80 0 80 -80 0 -80 0 0 -80z"/>
<path d="M1840 600 l0 -80 80 0 80 0 0 80 0 80 -80 0 -80 0 0 -80z"/>
<path d="M2160 600 l0 -80 80 0 80 0 0 80 0 80 -80 0 -80 0 0 -80z"/>
<path d="M2480 600 l0 -80 80 0 80 0 0 80 0 80 -80 0 -80 0 0 -80z"/>
<path d="M2800 600 l0 -80 80 0 80 0 0 80 0 80 -80 0 -80 0 0 -80z"/>
<path d="M3120 600 l0 -80 80 0 80 0 0 80 0 80 -80 0 -80 0 0 -80z"/>
</g>
</svg>
