<?xml version="1.0" standalone="no"?>
<!DOCTYPE svg PUBLIC "-//W3C//DTD SVG 20010904//EN"
 "http://www.w3.org/TR/2001/REC-SVG-20010904/DTD/svg10.dtd">
<svg version="1.0" xmlns="http://www.w3.org/2000/svg"
 width="512.000000pt" height="512.000000pt" viewBox="0 0 512.000000 512.000000"
 preserveAspectRatio="xMidYMid meet">

<g transform="translate(0.000000,512.000000) scale(0.100000,-0.100000)"
fill="#000000" stroke="none">
<path d="M1407 4889 c-48 -4 -125 -15 -170 -24 -180 -36 -429 -138 -463 -190
-38 -57 11 -145 80 -145 18 0 71 17 117 39 188 87 359 124 564 124 336 -1 646
-125 908 -362 69 -63 82 -71 117 -71 34 0 48 8 107 61 217 196 425 305 683
356 127 25 354 22 490 -6 760 -160 1206 -878 1044 -1681 -84 -413 -309 -836
-684 -1287 -458 -550 -1147 -1097 -1578 -1253 l-63 -23 -72 28 c-513 199
-1272 836 -1727 1449 -324 437 -503 845 -550 1251 -28 244 5 489 94 713 20 49
36 104 36 123 0 79 -106 121 -163 63 -46 -46 -116 -246 -154 -439 -24 -127
-24 -430 0 -579 100 -596 472 -1223 1090 -1837 457 -455 987 -826 1354 -949
l91 -30 84 26 c356 110 913 501 1377 965 880 880 1246 1772 1046 2545 -184
705 -860 1188 -1588 1133 -311 -23 -581 -128 -835 -326 l-84 -65 -36 31 c-61
51 -241 170 -311 205 -100 51 -245 102 -354 125 -85 18 -303 43 -347 39 -8 0
-55 -4 -103 -9z"/>
<path d="M447 4439 c-9 -5 -24 -24 -33 -41 -41 -80 38 -168 120 -134 70 29 88
105 37 157 -23 22 -39 29 -68 29 -21 0 -46 -5 -56 -11z"/>
<path d="M1970 3981 c-78 -25 -158 -90 -204 -164 -31 -50 -57 -140 -62 -217
-16 -204 92 -413 254 -492 59 -29 76 -33 147 -33 121 0 204 47 275 153 66 100
90 280 55 412 -53 201 -200 339 -368 346 -40 2 -83 0 -97 -5z m138 -205 c38
-20 86 -73 113 -126 17 -34 24 -67 27 -137 4 -86 2 -97 -23 -149 -45 -91 -110
-116 -190 -71 -141 79 -179 345 -65 459 42 42 88 50 138 24z"/>
<path d="M2971 3976 c-109 -36 -208 -136 -263 -268 -27 -63 -32 -88 -36 -184
-5 -116 8 -186 48 -264 31 -61 98 -128 158 -157 48 -24 70 -28 137 -28 71 0
89 4 147 33 81 40 155 117 198 208 145 304 0 657 -275 670 -43 3 -87 -2 -114
-10z m179 -224 c68 -67 86 -177 50 -294 -62 -202 -233 -253 -307 -92 -23 50
-25 65 -21 147 6 124 47 206 126 254 58 36 106 31 152 -15z"/>
<path d="M1277 3260 c-278 -69 -333 -470 -97 -711 186 -190 446 -168 552 48
60 122 48 299 -30 433 -52 90 -151 179 -237 212 -53 21 -141 29 -188 18z m150
-222 c112 -68 176 -249 127 -355 -24 -49 -55 -67 -109 -60 -86 9 -168 92 -200
201 -53 178 48 297 182 214z"/>
<path d="M3719 3260 c-64 -11 -143 -54 -202 -108 -226 -211 -221 -586 10 -702
64 -32 162 -39 235 -15 266 88 412 446 275 678 -68 114 -189 170 -318 147z
m109 -210 c94 -57 76 -253 -33 -364 -88 -88 -194 -89 -231 0 -38 91 -3 227 81
311 72 71 127 87 183 53z"/>
<path d="M2420 2954 c-179 -48 -307 -158 -401 -346 -50 -100 -82 -135 -185
-204 -102 -69 -173 -145 -219 -236 -135 -269 -48 -584 206 -748 83 -53 167
-80 274 -87 111 -7 179 9 320 74 132 62 158 62 290 0 141 -65 209 -81 320 -74
113 7 196 35 291 99 199 133 294 379 234 612 -39 153 -122 266 -263 359 -100
66 -136 105 -186 205 -96 191 -223 299 -406 347 -74 19 -202 18 -275 -1z m292
-216 c88 -41 148 -103 209 -220 65 -123 130 -196 248 -276 96 -67 128 -103
169 -190 23 -48 27 -70 27 -147 0 -77 -4 -99 -27 -148 -38 -80 -114 -158 -191
-193 -54 -25 -74 -29 -152 -29 -87 0 -94 2 -208 53 -206 93 -249 93 -454 0
-114 -51 -121 -53 -208 -53 -78 0 -98 4 -152 29 -165 76 -253 261 -209 436 25
98 74 163 181 237 122 84 191 159 249 273 98 188 209 263 381 257 61 -2 94
-10 137 -29z"/>
</g>
</svg>
