<?xml version="1.0" standalone="no"?>
<!DOCTYPE svg PUBLIC "-//W3C//DTD SVG 20010904//EN"
 "http://www.w3.org/TR/2001/REC-SVG-20010904/DTD/svg10.dtd">
<svg version="1.0" xmlns="http://www.w3.org/2000/svg"
 width="512.000000pt" height="512.000000pt" viewBox="0 0 512.000000 512.000000"
 preserveAspectRatio="xMidYMid meet">

<g transform="translate(0.000000,512.000000) scale(0.100000,-0.100000)"
fill="#000000" stroke="none">
<path d="M1550 5100 c-119 -56 -175 -179 -136 -298 69 -208 366 -217 452 -13
25 59 15 157 -22 217 -61 99 -193 141 -294 94z"/>
<path d="M1580 4233 c-19 -10 -45 -33 -57 -52 l-23 -34 0 -764 c0 -841 -3
-798 62 -845 l33 -23 530 -5 c292 -3 537 -9 547 -13 9 -5 35 -36 58 -69 142
-202 645 -865 668 -880 56 -37 164 -8 202 54 25 42 26 104 1 144 -11 17 -186
255 -390 528 -303 406 -378 500 -406 512 -28 11 -115 14 -485 14 -481 0 -494
1 -520 49 -14 26 -14 556 0 582 25 45 51 49 363 49 289 0 295 0 328 23 90 60
88 172 -5 241 -26 20 -44 21 -338 26 l-310 5 -24 28 c-23 27 -24 34 -24 175 0
163 -14 214 -64 247 -39 26 -105 29 -146 8z"/>
<path d="M1172 3865 c-513 -173 -880 -587 -998 -1125 -27 -120 -27 -457 -1
-580 64 -300 200 -553 412 -765 403 -405 988 -543 1529 -363 350 116 658 374
831 695 l28 52 -98 131 c-53 71 -100 130 -104 130 -3 0 -18 -31 -34 -69 -96
-238 -317 -470 -565 -595 -168 -84 -329 -121 -532 -121 -83 0 -175 6 -215 14
-490 97 -854 456 -961 948 -24 110 -24 340 0 453 51 238 154 435 317 605 126
131 316 255 462 301 l57 18 0 153 c0 116 -3 153 -12 153 -7 0 -59 -16 -116
-35z"/>
<path d="M2656 1010 c-1388 -527 -2188 -836 -2203 -850 -35 -33 -32 -93 6
-131 l30 -29 2138 2 2138 3 51 27 c89 47 137 115 153 219 15 87 15 1470 1
1521 -13 47 -43 68 -95 67 -27 -1 -740 -267 -2219 -829z"/>
</g>
</svg>
