<svg version="1.2" xmlns="http://www.w3.org/2000/svg" viewBox="0 0 998 700" width="998" height="700">
	<title>Cityscape White-svg</title>
	<style>
		.s0 { fill: #a0a1a1 } 
		.s1 { fill: #fac014 } 
		.s2 { fill: #bcb330 } 
		.s3 { fill: #d8dc49 } 
		.s4 { fill: #ed692f } 
		.s5 { fill: #ffffff } 
	</style>
	<g id="Layer">
		<g id="Layer">
			<path id="Layer" class="s0" d="m126.3 268l46.5 43.5v131.4h-102.7l2.9-124.8z"/>
		</g>
		<g id="Layer">
			<path id="Layer" class="s1" d="m220.1 209.5h118.2v192.4h-118.2z"/>
		</g>
		<g id="Layer">
			<path id="Layer" class="s2" d="m380.5 82.3h86.4v341.1h-86.4z"/>
		</g>
		<g id="Layer">
			<path id="Layer" class="s0" d="m487.9 226.3v138.9h117.4v-236h-58.7v35.4h-5.4v60.9z"/>
		</g>
		<g id="Layer">
			<path id="Layer" class="s3" d="m684.8 240.7l36.6 32.8v104.9h-65.2v-111.9z"/>
		</g>
		<g id="Layer">
			<path id="Layer" class="s4" d="m871.1 337.1l77.1 35.9v72.5h-162.1v-69.4z"/>
		</g>
		<g id="Layer">
			<g id="Layer">
				<g id="Layer">
					<path id="Layer" class="s5" d="m91 609c-9.8 3.6-19.9 5.6-30.4 5.6-38.6 0-59.9-27.6-59.9-58.4 0-22.9 10.3-41.8 27-52.1 10.7-6.6 20.6-7.7 32.1-7.7 11.1 0 21.7 4.2 26.8 4.2 1.7 0 2.9-0.7 3.5-1.4h2.4v24.5h-2.2c-7.9-6.9-17.2-10.1-29.7-10.1-21.9 0-37.8 17-37.8 42.1 0 23.2 14.5 41.7 38.7 41.7 10.6 0 21.9-3.7 29.8-11.5l2.2 0.5z"/>
				</g>
				<g id="Layer">
					<path id="Layer" class="s5" d="m145.8 611.4c-6.9 0-13.5 0.2-19.6 0.3v-2c7.8-1.7 8.5-9.3 8.5-24.4v-59.6c0-14.6-0.7-22.9-8.5-24.3v-2.2c6.6 0.2 13.4 0.4 19.6 0.4 5.9 0 12.7-0.2 19.1-0.4v2.2c-7.5 1.4-8.6 9.1-8.6 24.3v59.6c0 15.7 1.1 22.7 8.6 24.4v2c-6.1-0.1-12.7-0.3-19.1-0.3z"/>
				</g>
				<g id="Layer">
					<path id="Layer" class="s5" d="m275.2 523.7c-2.7-6.1-8.1-7.8-19.1-7.8h-9.1v69.3c0 16.1 1.4 22.8 9.1 24.5v2c-6-0.1-12.9-0.3-19.9-0.3-6.5 0-13.1 0.2-19.2 0.3v-2c7.6-1.7 8.4-9.1 8.4-24.5v-69.3h-8.4c-11.1 0-16.3 1.9-19 7.8h-2.2l2.2-24.5h77.2l2.2 24.5z"/>
				</g>
				<g id="Layer">
					<path id="Layer" class="s5" d="m396.8 513.9l-28 48.3v23.1c0 15.5 0.9 22.7 8.3 24.4v2c-6.1-0.1-12.6-0.3-19.2-0.3-6.6 0-13.2 0.2-19.3 0.3v-2c7.6-1.7 8.6-9.1 8.6-24.4v-23.1l-26.9-46.9c-4.8-8.1-8.5-12.2-13.2-13.9v-2.2c4.9 0.2 10.5 0.4 15.5 0.4 6.6 0 13.5-0.2 20.3-0.4v2.2c-2.4 0.2-3.6 1.5-3.6 3.1 0 1.8 0.7 3.2 1.2 4l18.2 34.1 18.2-33.8c0.5-1 1.6-3 1.6-4.5 0-2.2-2.1-2.5-3.6-2.9v-2.2c6.1 0.2 12.7 0.4 18.7 0.4 4.9 0 10.3-0.2 15.2-0.4v2.2c-4.7 1.7-7.4 4.7-12 12.5z"/>
				</g>
				<g id="Layer">
					<path id="Layer" class="s5" d="m464.7 614.4c-9 0-18.1-1.8-27.4-5.2l-2-22.9 2-0.2c6.3 8.1 16.1 12 26.7 12 10.8 0 20.4-6.3 20.4-17.2 0-9.3-6.1-13.4-34.1-28.4-7-3.8-13.3-14.3-13.3-24.2 0-18.9 14.5-31.9 34.1-31.9 12.1 0 20.1 3.9 23.4 3.9 1.6 0 2.7-0.6 3.7-1.1h2.4v24.5h-2.4c-5.5-7.4-14.1-11-23.6-11-10.3 0-16.7 6.1-16.7 13.5 0 19.4 47.4 16.6 47.4 53.5 0 21.8-16 34.7-40.6 34.7z"/>
				</g>
				<g id="Layer">
					<path id="Layer" class="s5" d="m631.2 609c-9.8 3.6-19.9 5.6-30.4 5.6-38.6 0-59.9-27.6-59.9-58.4 0-22.9 10.3-41.8 27-52.1 10.6-6.6 20.6-7.7 32.1-7.7 11.1 0 21.7 4.2 26.8 4.2 1.7 0 2.9-0.7 3.5-1.4h2.4v24.5h-2.2c-7.9-6.9-17.2-10.1-29.7-10.1-21.9 0-37.8 17-37.8 42.1 0 23.2 14.5 41.7 38.7 41.7 10.6 0 21.9-3.7 29.8-11.5l2.2 0.5z"/>
				</g>
				<g id="Layer">
					<path id="Layer" fill-rule="evenodd" class="s5" d="m760.7 611.4c-6.5 0-13.6 0.2-20.4 0.3v-2.2c3.1-0.6 4.6-2.2 4.6-5.5 0-1.4-0.9-4.1-1.5-5.8l-5.3-12.8h-42.3l-5.9 13.7c-0.7 1.5-1.7 4-1.7 5.7 0 2.7 1.5 4.1 4.2 4.7v2.2c-6.2-0.1-12.8-0.3-19-0.3-4.3 0-9.1 0.2-13.9 0.3v-2.2c4.8-2 6.4-5.9 9.6-12.8l47.3-103.2h2.8l47.4 104.6c2.6 5.5 5.3 9.4 9.1 11.4v2.2c-4.7-0.1-9.9-0.3-15-0.3zm-43.5-78.1l-14.8 35.4h29.5z"/>
				</g>
				<g id="Layer">
					<path id="Layer" class="s5" d="m851.3 567.7c-3 0-5.9-0.5-7.7-0.8l-4.9-16.6 2-0.5c1.9 0.5 4.1 0.7 6.1 0.7 10.1 0 19.7-5.7 19.7-18.2 0-10-7.7-17.4-22.8-17.4-4.7 0-8.2 0.9-10.6 1.2v69.2c0 15.8 1.4 23.2 8.6 24.4v2c-6.6-0.1-13.5-0.3-19.7-0.3-6.3 0-12.8 0.2-18.9 0.3v-2c7.7-1.7 8.4-9.6 8.4-24.4v-59.6c0-14.3-0.7-22.9-8.4-24.3v-2.2h38.1c11.1 0 19.9 0.5 26 2.6 13.6 4.5 21.4 15.5 21.4 30.7 0 21.4-15.7 35.2-37.3 35.2z"/>
				</g>
				<g id="Layer">
					<path id="Layer" class="s5" d="m994.4 611.7h-72.9v-2.2c7.8-1.6 8.5-9.7 8.5-24.4v-59.4c0-14.7-0.5-22.9-8.5-24.5v-2h73.4v24.7h-2.2c-2.8-7-8.1-8-19-8h-22.1v28h18.5c11.2 0 16-2 18.4-8.2h2c-0.1 5.4-0.3 11.1-0.3 16.5 0 5.4 0.2 11.1 0.3 16.4h-2c-1.8-6.1-7.4-8-18-8h-18.9v25.3c0 9 3.2 9.1 12 9.1h11.3c12.6 0 18-2.7 20.2-9.1l2.2 0.4z"/>
				</g>
			</g>
			<g id="Layer">
				<g id="Layer">
					<path id="Layer" fill-rule="evenodd" class="s5" d="m22.4 653.6c7.7 0 10.9 3.3 10.9 9.3v3.2c0 4.5-1.9 7.3-6.1 8.4 4.5 1.1 6.2 4.1 6.2 8.4v6.3c0 1.8 0 3.5 0.9 4.8h-5.5c-0.6-1.1-0.9-2.2-0.9-4.9v-6.3c0-4.6-2.6-6-7.1-6h-3.9v17.2h-5.5v-40.4h11zm-1.4 19.1c4.3 0 6.9-1.2 6.9-5.6v-3.8c0-3.7-1.6-5.6-5.7-5.6h-5.3v15c0 0 4.1 0 4.1 0z"/>
				</g>
				<g id="Layer">
					<path id="Layer" class="s5" d="m69.8 671.5v4.1h-11.9v14.3h14.6v4.1h-20.1v-40.4h20.1v4.1h-14.6v13.8h11.9z"/>
				</g>
				<g id="Layer">
					<path id="Layer" fill-rule="evenodd" class="s5" d="m96.5 685.9l-1.9 8.2h-5l9.4-40.5h7.9l9.3 40.5h-5.4l-1.9-8.2zm0.7-3.9h10.9l-5.5-23.3z"/>
				</g>
				<g id="Layer">
					<path id="Layer" class="s5" d="m133.9 694.1v-40.5h5.5v36.4h13.9v4.1z"/>
				</g>
				<g id="Layer">
					<path id="Layer" class="s5" d="m212.5 671.5v4.1h-12v14.3h14.7v4.1h-20.1v-40.4h20.1v4.1h-14.7v13.8h12z"/>
				</g>
				<g id="Layer">
					<path id="Layer" class="s5" d="m254.9 663.3v1.1h-5.2v-1.3c0-3.6-1.7-5.8-5.6-5.8-3.9 0-5.6 2.2-5.6 5.8 0 9 16.4 9.9 16.4 21.3 0 6.1-3.5 10.1-11 10.1-7.5 0-11-4-11-10.1v-2.3h5.1v2.5c0 3.6 1.8 5.8 5.7 5.8 4 0 5.8-2.2 5.8-5.8 0-9-16.4-9.9-16.4-21.3 0-6.2 3.5-10.1 10.9-10.1 7.4 0 10.9 4 10.9 10.1z"/>
				</g>
				<g id="Layer">
					<path id="Layer" class="s5" d="m280.2 694.1v-36.4h-9v-4.1h23.5v4.1h-9v36.4z"/>
				</g>
				<g id="Layer">
					<path id="Layer" fill-rule="evenodd" class="s5" d="m314.7 685.9l-1.9 8.2h-5l9.4-40.5h7.9l9.4 40.5h-5.5l-1.9-8.2zm0.7-3.9h10.9l-5.5-23.3z"/>
				</g>
				<g id="Layer">
					<path id="Layer" class="s5" d="m359.3 694.1v-36.4h-9.1v-4.1h23.5v4.1h-9v36.4z"/>
				</g>
				<g id="Layer">
					<path id="Layer" class="s5" d="m408.3 671.5v4.1h-11.9v14.3h14.7v4.1h-20.2v-40.4h20.2v4.1h-14.7v13.8h11.9z"/>
				</g>
				<g id="Layer">
					<path id="Layer" class="s5" d="m453.7 694.1v-40.5h5.5v36.4h14v4.1z"/>
				</g>
				<g id="Layer">
					<path id="Layer" class="s5" d="m494.3 694.1v-36.4h-9v-4.1h23.5v4.1h-9v36.4z"/>
				</g>
				<g id="Layer">
					<path id="Layer" fill-rule="evenodd" class="s5" d="m537.4 653.6c7.7 0 11.2 3.8 11.2 10.1v20.4c0 6.1-3.5 10-11.2 10h-11.4v-40.5zm-0.1 36.4c3.9 0 5.8-2.1 5.8-5.8v-20.8c0-3.7-1.9-5.7-5.9-5.7h-5.9v32.3z"/>
				</g>
				<g id="Layer">
					<path id="Layer" class="s5" d="m575.9 694.1h-2.1v-5.6h5.3v5.2l-2.7 5.5h-2.3z"/>
				</g>
				<g id="Layer">
					<path id="Layer" fill-rule="evenodd" class="s5" d="m650.4 653.6c7.6 0 10.6 3 10.6 9v1.9c0 4.3-1.5 6.9-5.7 8 4.7 1.1 6.5 4.2 6.5 8.7v3.4c0 6-3.5 9.5-11.2 9.5h-11.2v-40.5zm-1.4 17.2c4.4 0 6.6-1.2 6.6-5.4v-2.4c0-3.5-1.5-5.3-5.4-5.3h-5.3v13.1zm1.6 19.2c4 0 5.8-1.8 5.8-5.5v-3.6c0-4.5-2.2-6-6.9-6h-4.7v15.1z"/>
				</g>
				<g id="Layer">
					<path id="Layer" fill-rule="evenodd" class="s5" d="m691.1 653.6c7.7 0 10.9 3.3 10.9 9.3v3.2c0 4.5-1.9 7.3-6.1 8.4 4.5 1.1 6.2 4.1 6.2 8.4v6.3c0 1.8 0.1 3.5 1 4.8h-5.6c-0.6-1.1-0.9-2.2-0.9-4.9v-6.3c0-4.6-2.6-6-7.1-6h-3.9v17.2h-5.4v-40.4h10.9zm-1.4 19.1c4.4 0 6.9-1.2 6.9-5.6v-3.8c0-3.7-1.6-5.6-5.6-5.6h-5.4v15c0 0 4.1 0 4.1 0z"/>
				</g>
				<g id="Layer">
					<path id="Layer" fill-rule="evenodd" class="s5" d="m720.7 663.4c0-6.2 3.8-10.2 11.2-10.2 7.6 0 11.3 4 11.3 10.2v20.9c0 6.1-3.7 10.2-11.3 10.2-7.4 0-11.2-4.1-11.2-10.2zm5.4 21.1c0 3.7 1.9 5.9 5.8 5.9 4 0 5.8-2.2 5.8-5.9v-21.3c0-3.7-1.8-5.9-5.8-5.9-3.9 0-5.8 2.2-5.8 5.9z"/>
				</g>
				<g id="Layer">
					<path id="Layer" class="s5" d="m770.1 676.5l-2.9 4v13.6h-5.4v-40.5h5.4v19.6l13-19.6h5.6l-12.4 18.5 12.8 22h-5.6z"/>
				</g>
				<g id="Layer">
					<path id="Layer" class="s5" d="m821.2 671.5v4.1h-12v14.3h14.7v4.1h-20.1v-40.4h20.1v4.1h-14.7v13.8h12z"/>
				</g>
				<g id="Layer">
					<path id="Layer" fill-rule="evenodd" class="s5" d="m853.3 653.6c7.7 0 10.9 3.3 10.9 9.3v3.2c0 4.5-1.9 7.3-6.1 8.4 4.5 1.1 6.1 4.1 6.1 8.4v6.3c0 1.8 0.1 3.5 1 4.8h-5.5c-0.6-1.1-0.9-2.2-0.9-4.9v-6.3c0-4.6-2.6-6-7.2-6h-3.8v17.2h-5.5v-40.4h11zm-1.4 19.1c4.3 0 6.9-1.2 6.9-5.6v-3.8c0-3.7-1.6-5.6-5.7-5.6h-5.3v15c0 0 4.1 0 4.1 0z"/>
				</g>
				<g id="Layer">
					<path id="Layer" fill-rule="evenodd" class="s5" d="m888.8 685.9l-1.9 8.2h-5l9.4-40.5h7.9l9.4 40.5h-5.5l-1.9-8.2zm0.7-3.9h10.9l-5.5-23.3z"/>
				</g>
				<g id="Layer">
					<path id="Layer" class="s5" d="m947.8 663.4v3.5h-5.1v-3.8c0-3.6-1.8-5.8-5.8-5.8-3.9 0-5.7 2.2-5.7 5.8v21.4c0 3.7 1.8 5.9 5.7 5.9 4 0 5.8-2.2 5.8-5.9v-8.1h-5.1v-4h10.2v11.9c0 6.1-3.5 10.2-11 10.2-7.5 0-11-4.1-11-10.2v-20.9c0-6.1 3.5-10.2 11-10.2 7.5 0 11 4.1 11 10.2z"/>
				</g>
				<g id="Layer">
					<path id="Layer" class="s5" d="m983.8 671.5v4.1h-11.9v14.3h14.7v4.1h-20.2v-40.4h20.1v4.1h-14.6v13.8h11.9z"/>
				</g>
				<g id="Layer">
					<path id="Layer" class="s5" d="m566.4 694c-1.5 0-2.7-1.2-2.7-2.6 0-1.5 1.2-2.7 2.7-2.7 1.4 0 2.6 1.2 2.6 2.7 0 1.4-1.2 2.6-2.6 2.6z"/>
				</g>
			</g>
		</g>
		<g id="Layer">
			<g id="Layer">
				<path id="Layer" class="s5" d="m0.7 438.6h996.6v13.9h-996.6z"/>
			</g>
			<g id="Layer">
				<path id="Layer" fill-rule="evenodd" class="s5" d="m227.4 448.4v-170.4h83.6v56.3h39.3v-94.5h-41.6v-52.8h-31.3v-42.2h-44.9v42.2h-31.7v209h-52.2v-72.5l-36-32.7-37 33.8v120.9h-13.9v-127.1l50.9-46.4 49.9 45.4v64.7h24.5v-209h31.7v-42.2h72.6v42.2h31.3v52.8h41.5v122.2h-67v-56.3h-55.8v142.7h153.6v-385.3h98.4v164.4h41v-56h38v-46.8h64.9v209.7h21v-51.6l42.7-39.8 43.6 38.6v52.8h38.2v45.4l69.5-31.1 82.5 38v71.9h-13.9v-63l-68.7-31.6-83.3 37.2v-53h-24.3v69.4h-276.7v-83.3h155.5v-195.7h-37.1v46.8h-38v55.9h-68.8v-164.3h-70.6v385.3zm254.2-58.5h249v-55.6h-58.6v42h-48.7v-42h-141.7zm155.6-27.4h20.9v-28.1h-20.9zm34.8-42h58.6v-46.5l-29.5-26.1-29.1 27.1c0 0 0 45.5 0 45.5z"/>
			</g>
			<g id="Layer">
				<path id="Layer" class="s5" d="m896.9 333.8h13.9v35.6h-13.9z"/>
			</g>
			<g id="Layer">
				<path id="Layer" class="s5" d="m437.3 0.8h13.9v53.3h-13.9z"/>
			</g>
			<g id="Layer">
				<path id="Layer" class="s5" d="m73 278.2h13.8v33.3h-13.8z"/>
			</g>
		</g>
		<g id="Layer">
			<path id="Layer" class="s5" d="m87.3 327.5h25.3v25.3h-25.3z"/>
		</g>
		<g id="Layer">
			<path id="Layer" class="s5" d="m264.4 348.8h25.4v25.4h-25.4z"/>
		</g>
		<g id="Layer">
			<path id="Layer" class="s5" d="m233.1 230.6h25.3v25.3h-25.3z"/>
		</g>
		<g id="Layer">
			<path id="Layer" class="s5" d="m419.7 365.3l25.4-0.1v25.4h-25.4z"/>
		</g>
		<g id="Layer">
			<path id="Layer" class="s5" d="m419.7 323.4h25.4v25.3h-25.4z"/>
		</g>
		<g id="Layer">
			<path id="Layer" class="s5" d="m419.7 281.5h25.4v25.3h-25.4z"/>
		</g>
		<g id="Layer">
			<path id="Layer" class="s5" d="m419.7 239.6h25.4v25.4h-25.4z"/>
		</g>
		<g id="Layer">
			<path id="Layer" class="s5" d="m507 270.8h25.3v25.4h-25.3z"/>
		</g>
		<g id="Layer">
			<path id="Layer" class="s5" d="m554.4 230.2h25.3v25.4h-25.3z"/>
		</g>
		<g id="Layer">
			<path id="Layer" class="s5" d="m678.6 277h25.3v25.4h-25.3z"/>
		</g>
		<g id="Layer">
			<path id="Layer" class="s5" d="m820.5 386.8h25.4v25.4h-25.4z"/>
		</g>
		<g id="Layer">
			<path id="Layer" class="s5" d="m865.5 386.8h25.3v25.4h-25.3z"/>
		</g>
		<g id="Layer">
			<path id="Layer" class="s5" d="m419.7 197.8l25.4-0.1v25.4h-25.4z"/>
		</g>
		<g id="Layer">
			<path id="Layer" class="s5" d="m419.7 155.9h25.4v25.3h-25.4z"/>
		</g>
		<g id="Layer">
			<path id="Layer" class="s5" d="m419.7 114h25.4v25.3h-25.4z"/>
		</g>
		<g id="Layer">
			<path id="Layer" class="s5" d="m87.3 385h25.3v25.4h-25.3z"/>
		</g>
	</g>
</svg>