<?xml version="1.0" encoding="utf-8"?>
<!-- Generator: Adobe Illustrator 25.2.3, SVG Export Plug-In . SVG Version: 6.00 Build 0)  -->
<svg version="1.1" id="Layer_1" xmlns="http://www.w3.org/2000/svg" xmlns:xlink="http://www.w3.org/1999/xlink" x="0px" y="0px"
	 viewBox="0 0 1500 1000" style="enable-background:new 0 0 1500 1000;" xml:space="preserve">
<style type="text/css">
	.st0{fill:#A0A1A1;}
	.st1{fill:#FAC014;}
	.st2{fill:#BCB330;}
	.st3{fill:#D8DC49;}
	.st4{fill:#ED692F;}
	.st5{fill:#FFFFFF;}
</style>
<g>
	<g>
		<polygon class="st0" points="377.25,418.01 423.8,461.47 423.8,592.9 321.11,592.9 323.96,468.05 		"/>
	</g>
	<g>
		<rect x="471.07" y="359.48" class="st1" width="118.24" height="192.37"/>
	</g>
	<g>
		<rect x="631.53" y="232.33" class="st2" width="86.33" height="341.1"/>
	</g>
	<g>
		<polygon class="st0" points="738.92,376.31 738.92,515.25 856.27,515.25 856.27,279.25 797.59,279.25 797.59,314.56 
			792.23,314.56 792.23,375.55 		"/>
	</g>
	<g>
		<polygon class="st3" points="935.8,390.68 972.4,423.53 972.4,528.39 907.18,528.39 907.18,416.49 		"/>
	</g>
	<g>
		<polygon class="st4" points="1122.07,487.1 1199.25,522.99 1199.25,595.51 1037.14,595.51 1037.14,526.13 		"/>
	</g>
	<g>
		<g>
			<g>
				<path class="st5" d="M341.97,759.04c-9.78,3.55-19.9,5.57-30.36,5.57c-38.63,0-59.88-27.66-59.88-58.36
					c0-22.94,10.29-41.83,26.99-52.12c10.63-6.58,20.58-7.76,32.05-7.76c11.13,0,21.76,4.22,26.82,4.22c1.69,0,2.87-0.68,3.54-1.35
					h2.36v24.46h-2.19c-7.93-6.92-17.2-10.12-29.69-10.12c-21.93,0-37.78,17.04-37.78,42.17c0,23.11,14.51,41.66,38.63,41.66
					c10.63,0,21.93-3.71,29.86-11.47l2.19,0.51L341.97,759.04z"/>
			</g>
			<g>
				<path class="st5" d="M396.81,761.4c-6.92,0-13.5,0.17-19.57,0.34v-2.02c7.76-1.69,8.43-9.28,8.43-24.46v-59.54
					c0-14.67-0.67-22.94-8.43-24.29v-2.19c6.58,0.17,13.32,0.34,19.57,0.34c5.9,0,12.65-0.17,19.06-0.34v2.19
					c-7.42,1.35-8.6,9.11-8.6,24.29v59.54c0,15.69,1.18,22.77,8.6,24.46v2.02C409.8,761.57,403.22,761.4,396.81,761.4z"/>
			</g>
			<g>
				<path class="st5" d="M526.2,673.69c-2.7-6.07-8.09-7.76-19.06-7.76h-9.11v69.32c0,16.02,1.35,22.77,9.11,24.46v2.02
					c-6.07-0.17-12.99-0.34-19.9-0.34c-6.58,0-13.16,0.17-19.23,0.34v-2.02c7.59-1.69,8.43-9.11,8.43-24.46v-69.32h-8.43
					c-11.13,0-16.36,1.85-19.06,7.76h-2.19l2.19-24.46h77.25l2.19,24.46H526.2z"/>
			</g>
			<g>
				<path class="st5" d="M647.84,663.91l-28,48.24v23.11c0,15.52,0.84,22.77,8.27,24.46v2.02c-6.07-0.17-12.65-0.34-19.23-0.34
					s-13.16,0.17-19.23,0.34v-2.02c7.59-1.69,8.6-9.11,8.6-24.46v-23.11l-26.99-46.89c-4.72-8.09-8.43-12.14-13.16-13.83v-2.19
					c4.89,0.17,10.46,0.34,15.52,0.34c6.58,0,13.5-0.17,20.24-0.34v2.19c-2.36,0.17-3.54,1.52-3.54,3.04c0,1.86,0.68,3.21,1.18,4.05
					l18.22,34.07l18.22-33.74c0.5-1.01,1.52-3.04,1.52-4.55c0-2.19-2.03-2.53-3.54-2.87v-2.19c6.07,0.17,12.65,0.34,18.72,0.34
					c4.89,0,10.29-0.17,15.18-0.34v2.19C655.09,653.12,652.39,656.15,647.84,663.91z"/>
			</g>
			<g>
				<path class="st5" d="M715.67,764.44c-8.94,0-18.05-1.85-27.32-5.23l-2.03-22.94l2.03-0.17c6.24,8.1,16.02,11.98,26.65,11.98
					c10.8,0,20.41-6.24,20.41-17.2c0-9.28-6.07-13.33-34.07-28.34c-7.08-3.88-13.32-14.34-13.32-24.29
					c0-18.89,14.51-31.88,34.07-31.88c12.15,0,20.07,3.88,23.45,3.88c1.52,0,2.7-0.51,3.71-1.01h2.36v24.46h-2.36
					c-5.57-7.42-14.17-10.96-23.61-10.96c-10.29,0-16.7,6.07-16.7,13.5c0,19.39,47.4,16.53,47.4,53.47
					C756.32,751.45,740.29,764.44,715.67,764.44z"/>
			</g>
			<g>
				<path class="st5" d="M882.17,759.04c-9.78,3.55-19.9,5.57-30.36,5.57c-38.63,0-59.87-27.66-59.87-58.36
					c0-22.94,10.29-41.83,26.98-52.12c10.63-6.58,20.58-7.76,32.05-7.76c11.13,0,21.76,4.22,26.82,4.22c1.69,0,2.87-0.68,3.55-1.35
					h2.36v24.46h-2.19c-7.93-6.92-17.2-10.12-29.69-10.12c-21.93,0-37.78,17.04-37.78,42.17c0,23.11,14.5,41.66,38.63,41.66
					c10.63,0,21.93-3.71,29.85-11.47l2.2,0.51L882.17,759.04z"/>
			</g>
			<g>
				<path class="st5" d="M1011.74,761.4c-6.58,0-13.66,0.17-20.41,0.34v-2.19c3.04-0.68,4.55-2.2,4.55-5.57
					c0-1.35-0.84-4.05-1.52-5.74l-5.23-12.82H946.8l-5.9,13.66c-0.67,1.52-1.69,4.04-1.69,5.74c0,2.69,1.52,4.04,4.22,4.72v2.19
					c-6.24-0.17-12.82-0.34-19.06-0.34c-4.22,0-9.11,0.17-13.83,0.34v-2.19c4.72-2.03,6.41-5.9,9.61-12.82l47.23-103.23h2.87
					l47.39,104.58c2.53,5.57,5.23,9.45,9.11,11.47v2.19C1022.03,761.57,1016.8,761.4,1011.74,761.4z M968.22,683.3l-14.84,35.42
					h29.52L968.22,683.3z"/>
			</g>
			<g>
				<path class="st5" d="M1102.35,717.71c-3.04,0-5.9-0.5-7.76-0.84l-4.9-16.53l2.03-0.5c1.85,0.5,4.04,0.67,6.07,0.67
					c10.12,0,19.73-5.73,19.73-18.22c0-9.95-7.76-17.37-22.77-17.37c-4.72,0-8.27,0.85-10.63,1.18v69.16
					c0,15.85,1.35,23.28,8.6,24.46v2.02c-6.58-0.17-13.49-0.34-19.73-0.34c-6.25,0-12.82,0.17-18.9,0.34v-2.02
					c7.76-1.69,8.44-9.62,8.44-24.46v-59.54c0-14.34-0.68-22.94-8.44-24.29v-2.19h38.12c11.13,0,19.9,0.5,25.98,2.53
					c13.66,4.55,21.42,15.52,21.42,30.7C1139.62,703.88,1123.94,717.71,1102.35,717.71z"/>
			</g>
			<g>
				<path class="st5" d="M1245.41,761.74h-72.87v-2.19c7.76-1.69,8.44-9.79,8.44-24.46v-59.38c0-14.67-0.51-22.94-8.44-24.46v-2.02
					h73.38v24.63h-2.2c-2.86-6.91-8.09-7.93-19.06-7.93h-22.09v28h18.55c11.13,0,16.02-2.02,18.39-8.26h2.02
					c-0.17,5.39-0.34,11.13-0.34,16.53c0,5.4,0.17,11.14,0.34,16.36h-2.02c-1.85-6.07-7.42-7.93-18.05-7.93h-18.89v25.3
					c0,8.94,3.2,9.11,11.98,9.11h11.3c12.65,0,18.05-2.7,20.24-9.11l2.19,0.34L1245.41,761.74z"/>
			</g>
		</g>
		<g>
			<g>
				<path class="st5" d="M273.36,803.62c7.7,0,10.92,3.23,10.92,9.24v3.29c0,4.45-1.89,7.22-6.09,8.32c4.48,1.1,6.16,4.1,6.16,8.43
					v6.3c0,1.79,0.07,3.46,0.98,4.85h-5.53c-0.63-1.15-0.91-2.2-0.91-4.91v-6.35c0-4.57-2.59-6.01-7.14-6.01h-3.85v17.27h-5.46
					v-40.44H273.36z M271.97,822.69c4.34,0,6.93-1.15,6.93-5.55v-3.87c0-3.64-1.61-5.55-5.67-5.55h-5.32v14.96H271.97z"/>
			</g>
			<g>
				<path class="st5" d="M320.83,821.53v4.04h-11.97v14.38h14.69v4.1H303.4v-40.44h20.15v4.1h-14.69v13.81H320.83z"/>
			</g>
			<g>
				<path class="st5" d="M347.51,835.92l-1.89,8.15h-5.04l9.38-40.44h7.91l9.38,40.44h-5.46l-1.89-8.15H347.51z M348.21,832.05
					h10.92l-5.53-23.35L348.21,832.05z"/>
			</g>
			<g>
				<path class="st5" d="M384.9,844.07v-40.44h5.46v36.34h13.99v4.1H384.9z"/>
			</g>
			<g>
				<path class="st5" d="M463.51,821.53v4.04h-11.97v14.38h14.7v4.1h-20.15v-40.44h20.15v4.1h-14.7v13.81H463.51z"/>
			</g>
			<g>
				<path class="st5" d="M505.87,813.33v1.1h-5.18v-1.33c0-3.64-1.68-5.77-5.6-5.77c-3.92,0-5.6,2.14-5.6,5.72
					c0,9.07,16.44,9.93,16.44,21.32c0,6.12-3.57,10.11-11.06,10.11c-7.49,0-10.98-3.99-10.98-10.11v-2.31H489v2.54
					c0,3.64,1.82,5.78,5.74,5.78c3.92,0,5.74-2.14,5.74-5.78c0-9.01-16.37-9.88-16.37-21.26c0-6.24,3.5-10.11,10.85-10.11
					C502.37,803.22,505.87,807.2,505.87,813.33z"/>
			</g>
			<g>
				<path class="st5" d="M531.22,844.07v-36.34h-9.02v-4.1h23.51v4.1h-9.03v36.34H531.22z"/>
			</g>
			<g>
				<path class="st5" d="M565.73,835.92l-1.89,8.15h-5.04l9.38-40.44h7.91l9.38,40.44h-5.46l-1.89-8.15H565.73z M566.43,832.05
					h10.92l-5.53-23.35L566.43,832.05z"/>
			</g>
			<g>
				<path class="st5" d="M610.26,844.07v-36.34h-9.02v-4.1h23.51v4.1h-9.03v36.34H610.26z"/>
			</g>
			<g>
				<path class="st5" d="M659.33,821.53v4.04h-11.97v14.38h14.69v4.1h-20.15v-40.44h20.15v4.1h-14.69v13.81H659.33z"/>
			</g>
			<g>
				<path class="st5" d="M704.71,844.07v-40.44h5.46v36.34h13.99v4.1H704.71z"/>
			</g>
			<g>
				<path class="st5" d="M745.31,844.07v-36.34h-9.02v-4.1h23.51v4.1h-9.03v36.34H745.31z"/>
			</g>
			<g>
				<path class="st5" d="M788.44,803.62c7.63,0,11.13,3.81,11.13,10.05v20.39c0,6.19-3.5,10-11.13,10h-11.48v-40.44H788.44z
					 M788.37,839.96c3.92,0,5.81-2.02,5.81-5.72v-20.8c0-3.7-1.89-5.72-5.88-5.72h-5.88v32.24H788.37z"/>
			</g>
			<g>
				<path class="st5" d="M826.86,844.07h-2.03v-5.61h5.25v5.2l-2.73,5.49h-2.24L826.86,844.07z"/>
			</g>
			<g>
				<path class="st5" d="M901.37,803.62c7.62,0,10.63,3,10.63,8.95v1.91c0,4.28-1.47,6.93-5.74,8.03c4.76,1.1,6.58,4.22,6.58,8.67
					v3.4c0,6.07-3.57,9.48-11.2,9.48h-11.27v-40.44H901.37z M900.04,820.78c4.34,0,6.58-1.16,6.58-5.38v-2.36
					c0-3.58-1.47-5.32-5.38-5.32h-5.39v13.06H900.04z M901.65,839.96c3.99,0,5.81-1.73,5.81-5.49v-3.58c0-4.51-2.17-6.01-6.85-6.01
					h-4.76v15.08H901.65z"/>
			</g>
			<g>
				<path class="st5" d="M942.12,803.62c7.69,0,10.91,3.23,10.91,9.24v3.29c0,4.45-1.89,7.22-6.09,8.32c4.48,1.1,6.16,4.1,6.16,8.43
					v6.3c0,1.79,0.07,3.46,0.98,4.85h-5.53c-0.63-1.15-0.91-2.2-0.91-4.91v-6.35c0-4.57-2.59-6.01-7.14-6.01h-3.85v17.27h-5.46
					v-40.44H942.12z M940.72,822.69c4.34,0,6.92-1.15,6.92-5.55v-3.87c0-3.64-1.61-5.55-5.67-5.55h-5.32v14.96H940.72z"/>
			</g>
			<g>
				<path class="st5" d="M971.74,813.39c0-6.19,3.71-10.17,11.2-10.17c7.56,0,11.27,3.99,11.27,10.17v20.91
					c0,6.13-3.71,10.17-11.27,10.17c-7.49,0-11.2-4.04-11.2-10.17V813.39z M977.13,834.53c0,3.7,1.89,5.83,5.81,5.83
					c3.99,0,5.81-2.14,5.81-5.83v-21.38c0-3.64-1.82-5.83-5.81-5.83c-3.92,0-5.81,2.2-5.81,5.83V834.53z"/>
			</g>
			<g>
				<path class="st5" d="M1021.09,826.5l-2.87,3.99v13.58h-5.46v-40.44h5.46v19.52l13.01-19.52h5.53l-12.38,18.43l12.81,22.01h-5.6
					L1021.09,826.5z"/>
			</g>
			<g>
				<path class="st5" d="M1072.19,821.53v4.04h-11.97v14.38h14.69v4.1h-20.15v-40.44h20.15v4.1h-14.69v13.81H1072.19z"/>
			</g>
			<g>
				<path class="st5" d="M1104.26,803.62c7.69,0,10.91,3.23,10.91,9.24v3.29c0,4.45-1.89,7.22-6.09,8.32
					c4.48,1.1,6.16,4.1,6.16,8.43v6.3c0,1.79,0.07,3.46,0.98,4.85h-5.53c-0.63-1.15-0.91-2.2-0.91-4.91v-6.35
					c0-4.57-2.59-6.01-7.14-6.01h-3.85v17.27h-5.46v-40.44H1104.26z M1102.86,822.69c4.34,0,6.93-1.15,6.93-5.55v-3.87
					c0-3.64-1.61-5.55-5.67-5.55h-5.32v14.96H1102.86z"/>
			</g>
			<g>
				<path class="st5" d="M1139.83,835.92l-1.89,8.15h-5.04l9.38-40.44h7.91l9.37,40.44h-5.45l-1.89-8.15H1139.83z M1140.53,832.05
					h10.91l-5.52-23.35L1140.53,832.05z"/>
			</g>
			<g>
				<path class="st5" d="M1198.84,813.39v3.46h-5.18v-3.7c0-3.64-1.75-5.83-5.74-5.83c-3.92,0-5.74,2.2-5.74,5.83v21.38
					c0,3.64,1.82,5.83,5.74,5.83c3.99,0,5.74-2.2,5.74-5.83v-8.09h-5.04v-4.04h10.21v11.9c0,6.13-3.5,10.17-11.06,10.17
					c-7.49,0-10.98-4.04-10.98-10.17v-20.91c0-6.13,3.5-10.17,10.98-10.17C1195.34,803.22,1198.84,807.26,1198.84,813.39z"/>
			</g>
			<g>
				<path class="st5" d="M1234.83,821.53v4.04h-11.97v14.38h14.69v4.1h-20.15v-40.44h20.15v4.1h-14.69v13.81H1234.83z"/>
			</g>
			<g>
				<circle class="st5" cx="817.36" cy="841.35" r="2.62"/>
			</g>
		</g>
	</g>
	<g>
		<g>
			<rect x="251.72" y="588.57" class="st5" width="996.55" height="13.88"/>
		</g>
		<g>
			<path class="st5" d="M659.82,598.44H478.44V427.96h83.56v56.3h39.25v-94.5h-41.53v-52.78h-31.32v-42.23h-44.88v42.23h-31.67V546
				h-52.24v-72.49l-35.99-32.74l-37.05,33.79v120.95H312.7V468.44L363.62,422l49.88,45.38v64.75h24.48V323.1h31.67v-42.23h72.64
				v42.23h31.32v52.78h41.53v122.26h-67.02v-56.3h-55.8v142.71h153.62V199.23h98.34v164.33h41.01v-55.95h38.01v-46.8h64.9v209.64
				h20.96v-51.59l42.71-39.78l43.65,38.62v52.75h38.17v45.41l69.48-31.05l82.55,38.01v71.83h-13.88v-62.94l-68.76-31.66
				l-83.27,37.21v-52.94h-24.29v69.41H718.78v-83.29h155.53V274.69h-37.14v46.8h-38.01v55.95h-68.77V213.11h-70.58V598.44z
				 M732.66,539.86h248.98v-55.53h-58.61v41.96h-48.72v-41.96H732.66V539.86z M888.19,512.42h20.96v-28.08h-20.96V512.42z
				 M923.04,470.45h58.61v-46.5l-29.53-26.13l-29.07,27.08V470.45z"/>
		</g>
		<g>
			<rect x="1147.91" y="483.82" class="st5" width="13.88" height="35.54"/>
		</g>
		<g>
			<rect x="688.28" y="150.85" class="st5" width="13.88" height="53.21"/>
		</g>
		<g>
			<rect x="323.96" y="428.22" class="st5" width="13.88" height="33.25"/>
		</g>
	</g>
	<g>
		<rect x="338.29" y="477.48" class="st5" width="25.34" height="25.34"/>
	</g>
	<g>
		<rect x="515.41" y="498.83" class="st5" width="25.34" height="25.34"/>
	</g>
	<g>
		<rect x="484.09" y="380.6" class="st5" width="25.34" height="25.34"/>
	</g>
	<g>
		<rect x="670.71" y="515.25" class="st5" width="25.34" height="25.34"/>
	</g>
	<g>
		<rect x="670.71" y="473.38" class="st5" width="25.34" height="25.34"/>
	</g>
	<g>
		<rect x="670.71" y="431.5" class="st5" width="25.34" height="25.34"/>
	</g>
	<g>
		<rect x="670.71" y="389.63" class="st5" width="25.34" height="25.34"/>
	</g>
	<g>
		<rect x="757.98" y="420.83" class="st5" width="25.34" height="25.34"/>
	</g>
	<g>
		<rect x="805.36" y="380.24" class="st5" width="25.34" height="25.34"/>
	</g>
	<g>
		<rect x="929.58" y="427.04" class="st5" width="25.34" height="25.34"/>
	</g>
	<g>
		<rect x="1071.53" y="536.83" class="st5" width="25.34" height="25.34"/>
	</g>
	<g>
		<rect x="1116.45" y="536.83" class="st5" width="25.34" height="25.34"/>
	</g>
	<g>
		<rect x="670.71" y="347.75" class="st5" width="25.34" height="25.34"/>
	</g>
	<g>
		<rect x="670.71" y="305.88" class="st5" width="25.34" height="25.34"/>
	</g>
	<g>
		<rect x="670.71" y="264" class="st5" width="25.34" height="25.34"/>
	</g>
	<g>
		<rect x="338.29" y="535.02" class="st5" width="25.34" height="25.34"/>
	</g>
</g>
</svg>
