<?xml version="1.0" encoding="utf-8"?>
<!-- Generator: Adobe Illustrator 27.0.0, SVG Export Plug-In . SVG Version: 6.00 Build 0)  -->
<svg version="1.1" id="Layer_1" xmlns="http://www.w3.org/2000/svg" xmlns:xlink="http://www.w3.org/1999/xlink" x="0px" y="0px"
	 viewBox="0 0 128 128" style="enable-background:new 0 0 128 128;" xml:space="preserve">
<style type="text/css">
	.st0{fill:#FFFFFF;}
	.st1{fill:#57B35C;}
</style>
<circle class="st0" cx="64" cy="64" r="60"/>
<circle class="st1" cx="64" cy="64" r="54.9"/>
<path class="st0" d="M82.7,50.8c-1.1-1.1-2.3-2.3-3.4-3.4c-1.9-1.9-3.9-3.9-5.9-5.9c-0.5-0.5-1-1-1.6-1.6C71,39.2,70,38.8,69,38.8
	c0,0,0,0,0,0c-1.6,0-4.1,0-6.7,0c-6.3,0-13.5,0-14.3,0.1c-0.6,0.1-1.1,0.4-1.7,0.9c-1,0.9-1.5,2.1-1.5,3.5v41.6
	c0,0.5,0.1,1.1,0.4,1.6c0.8,1.8,2.3,2.7,4.2,2.7c2.8,0,5.6,0,8.4,0c1.5,0,2.9,0,4.4,0c2.8,0,5.6,0,8.4,0c2.7,0,5.4,0,8.1,0
	c0.7,0,1.3-0.1,1.8-0.4c1.8-0.8,2.7-2.3,2.7-4.2c0-5.4,0-10.8,0-16.2s0-10.8,0-16.2C83.3,51.7,83.1,51.2,82.7,50.8z M77.8,50.5h-4.9
	c-0.9,0-1.5-0.6-1.5-1.5c0-1.1,0-2.2,0-3.3c0-0.5,0-1.1,0-1.6c0,0,0-0.1,0-0.1c2.3,2.3,4.4,4.4,6.5,6.5
	C77.9,50.5,77.9,50.5,77.8,50.5z M53.7,78.7c0-0.7,0.6-1.3,1.3-1.3h11.8c0.7,0,1.2,0.4,1.5,1.1c0.1,0.3,0.1,0.7-0.1,1
	c-0.2,0.3-0.4,0.6-0.8,0.7c-0.2,0.1-0.4,0.1-0.6,0.1H55.2c-0.4,0-0.8-0.2-1.1-0.4C53.8,79.5,53.7,79.2,53.7,78.7z M73,68.4H55.2
	c-0.6,0-1.1-0.2-1.3-0.7c-0.3-0.4-0.3-1,0-1.4c0.3-0.4,0.7-0.7,1.2-0.7h17.7c0.4,0,0.8,0.2,1,0.4c0.3,0.3,0.4,0.7,0.4,1.1
	C74.3,67.8,73.7,68.4,73,68.4z M74.1,61.8c-0.3,0.4-0.7,0.7-1.2,0.7c-1.9,0-3.7,0-5.6,0H55.2c-0.4,0-0.8-0.2-1.1-0.4
	c-0.3-0.3-0.4-0.7-0.4-1c0-0.7,0.6-1.3,1.3-1.4c0.1,0,0.1,0,0.2,0h17.5c0.6,0,1.1,0.2,1.3,0.7C74.3,60.8,74.4,61.4,74.1,61.8z
	 M53.7,72.9c0-0.7,0.6-1.3,1.3-1.4c0.1,0,0.1,0,0.2,0c1.9,0,3.9,0,5.8,0c3.8,0,7.8,0,11.7,0c0.6,0,1.1,0.2,1.3,0.7
	c0.3,0.4,0.3,1,0,1.4c-0.3,0.4-0.7,0.7-1.2,0.7H55.2c-0.4,0-0.8-0.2-1.1-0.4C53.8,73.6,53.7,73.3,53.7,72.9z M68.4,49
	C68.4,49,68.4,49,68.4,49C68.4,49,68.4,49,68.4,49L68.4,49z M47.7,43.3L47.7,43.3C47.7,43.3,47.7,43.3,47.7,43.3
	C47.7,43.3,47.7,43.3,47.7,43.3z M80.2,53.9L80.2,53.9C80.2,53.9,80.2,53.9,80.2,53.9L80.2,53.9z"/>
</svg>
