<?xml version="1.0" encoding="utf-8"?>
<!-- Generator: Adobe Illustrator 27.0.0, SVG Export Plug-In . SVG Version: 6.00 Build 0)  -->
<svg version="1.1" id="Layer_1" xmlns="http://www.w3.org/2000/svg" xmlns:xlink="http://www.w3.org/1999/xlink" x="0px" y="0px"
	 viewBox="0 0 128 128" style="enable-background:new 0 0 128 128;" xml:space="preserve">
<style type="text/css">
	.st0{fill:#FFFFFF;}
	.st1{fill:#57B35C;}
</style>
<circle class="st0" cx="64" cy="64" r="60"/>
<circle class="st1" cx="64" cy="64" r="54.9"/>
<g>
	<path class="st0" d="M58.6,58.6c0,0.2,0,0.4,0,0.6c0,0.4,0,0.8,0,1.2c0,0.4,0.1,0.7,0.4,1c0.2,0.2,0.5,0.3,0.8,0.3c0,0,0.1,0,0.1,0
		h0.5c0.3,0,0.6,0,0.8,0c0.8,0,1.6,0,2.4,0c0,0,0,0,0,0c0.4,0,0.7-0.1,0.9-0.3c0.2-0.2,0.3-0.6,0.3-0.9c0-0.1,0-0.2,0-0.3
		c0-0.1,0-0.1,0-0.2c0-0.3,0-0.3,0.3-0.3l0,0c0.3,0,0.6,0,0.9-0.1c0.6-0.2,0.9-0.7,0.9-1.3c0-0.1,0-0.2,0-0.2c0-0.2,0-0.3,0-0.3
		c0,0,0.2,0,0.4,0c0.1,0,0.1,0,0.2,0c0.2,0,0.6,0,0.9-0.2c0.5-0.2,0.6-0.7,0.6-1.2c0-0.1,0-0.1,0-0.2c0-0.2,0-0.3,0-0.4
		c0,0,0.2,0,0.4,0c0.1,0,0.1,0,0.2,0c0.5,0,1-0.2,1.3-0.6c0.3-0.3,0.6-0.6,0.9-0.9c0.3-0.3,0.6-0.6,0.9-0.9c0.2-0.2,0.4-0.3,0.7-0.3
		c1.4,0.1,2.8-0.2,4-0.9c2.4-1.4,3.7-3.4,3.9-6.2c0.1-1.5-0.2-3-1-4.2C78.6,39,76.2,37.8,73,38c-0.7,0-1.3,0.2-2,0.5
		c-1.6,0.7-2.9,1.8-3.8,3.4c-0.4,0.8-0.7,1.6-0.8,2.4c-0.2,1.1-0.1,2.1,0.2,3.1l0,0c0.2,0.6,0.2,0.6-0.2,1L64.6,50
		c-1.8,1.8-3.7,3.7-5.5,5.5c-0.4,0.4-0.6,0.9-0.6,1.4c0,0.4,0,0.8,0,1.2C58.6,58.3,58.6,58.4,58.6,58.6z M72,45.5
		c0-0.5,0.2-0.9,0.5-1.2c0.3-0.3,0.7-0.5,1.2-0.5c0,0,0,0,0,0c1,0,1.7,0.7,1.7,1.7c0,0.5-0.2,0.9-0.5,1.2c-0.3,0.3-0.7,0.5-1.2,0.5
		c0,0,0,0,0,0C72.8,47.2,72,46.4,72,45.5z"/>
	<path class="st0" d="M96.5,56.7L96.5,56.7c-0.9-0.4-1.9-0.6-3.1-0.6c-0.1,0-0.1,0-0.2,0c-0.8,0-1.7,0.1-2.5,0.4
		c-1,0.3-1.7,0.8-2.2,1.4c-0.5,0.7-1.1,1.4-1.6,2c-0.9,1.2-1.9,2.4-2.9,3.6c-0.6,0.8-1.3,1.6-2,2.4c-0.5,0.6-1,1.2-1.5,1.7
		c-0.6,0.8-1.5,1.7-2.7,2.4c-0.1,0.1-0.2,0.1-0.4,0.2c-0.1,0.1-0.2,0.1-0.4,0.2c0-0.1,0-0.1,0-0.1c0,0,0-0.1,0-0.1
		c0.1-0.7,0-1.4-0.3-2c-0.7-1.5-2.1-2.4-3.8-2.4c-0.1,0-0.1,0-0.2,0c-0.8,0-1.6,0.2-2.6,0.7c-1.2,0.6-2.6,0.9-4,1
		c-1.2,0.1-2.4,0.1-3.6,0.1l-0.6,0c-0.3,0-0.6,0-0.9-0.1c-0.9-0.3-1.8-0.6-2.7-1l-0.3-0.1c-0.2-0.1-0.5-0.2-0.7-0.3
		c-0.5-0.2-1-0.4-1.6-0.6c-0.7-0.2-1.4-0.3-2-0.4l-0.2,0c-1.3-0.2-2.7-0.1-4.3,0.5c-1.3,0.4-2.5,1.1-3.6,1.9
		c-0.2,0.1-0.3,0.2-0.5,0.4c-0.1,0.1-0.2,0.1-0.2,0.2v-0.4c0-0.6-0.5-1.2-1.2-1.2H31.4c-0.6,0-1.2,0.5-1.2,1.2v21.3
		c0,0.6,0.5,1.2,1.2,1.2H44c0.6,0,1.2-0.5,1.2-1.2v-2c0,0,0.1,0,0.2,0c0,0,0.1,0,0.1,0c0.5,0.1,1,0.1,1.6,0.2l0.6,0.1
		c0.9,0.1,1.8,0.2,2.6,0.2c1.6,0.1,3.3,0.3,5,0.3c2.8,0.1,5.6,0,8.3-0.2c1.1-0.1,2.2-0.2,3.3-0.3c0.4,0,0.8-0.1,1.2-0.2
		c1-0.2,2.1-0.3,3.1-0.5c0.6-0.1,1.2-0.2,1.7-0.3c0.7-0.1,1.5-0.3,2.3-0.5l0.2,0c0.4-0.1,0.9-0.2,1.3-0.4c1.2-0.5,2.2-1.2,3.1-1.9
		c1.5-1.1,2.9-2.4,4.6-4.2c2.2-2.4,4.1-4.7,5.7-7.1l0,0c0.7-1.1,1.5-2.2,2.2-3.3c0.4-0.7,0.9-1.5,1.3-2.2c0.3-0.5,0.6-1,0.9-1.5
		c0.4-0.7,0.8-1.3,1.2-2c0.6-1.1,1.3-2.1,1.9-3.2c0.3-0.5,0.4-0.9,0.5-1.3C97.9,57.8,97.4,57.1,96.5,56.7z M89.5,69.1L89.5,69.1
		L89.5,69.1L89.5,69.1z M95.5,58.6C95.5,58.6,95.5,58.6,95.5,58.6L95.5,58.6C95.5,58.6,95.5,58.6,95.5,58.6z M87.8,71.5L87.8,71.5
		C87.8,71.5,87.8,71.5,87.8,71.5C87.8,71.5,87.8,71.5,87.8,71.5z M78.2,81.8L78.2,81.8C78.2,81.8,78.2,81.8,78.2,81.8
		C78.2,81.8,78.2,81.8,78.2,81.8z M75.8,83.3L75.8,83.3L75.8,83.3L75.8,83.3z M66.9,85L66.9,85C66.9,85,66.9,85,66.9,85
		C66.9,85,66.9,85,66.9,85z M62,85.4L62,85.4C62,85.4,62,85.4,62,85.4C62,85.4,62,85.4,62,85.4z M38.8,79.4
		c-0.3,0.3-0.8,0.5-1.2,0.5c0,0,0,0,0,0h0c-0.5,0-0.9-0.2-1.2-0.5c-0.3-0.3-0.5-0.7-0.5-1.2c0-1,0.7-1.7,1.7-1.7c0,0,0,0,0,0
		c0.4,0,0.8,0.2,1.1,0.5c0.3,0.3,0.5,0.8,0.5,1.3C39.3,78.7,39.2,79.1,38.8,79.4z"/>
</g>
</svg>
