<?xml version="1.0" encoding="utf-8"?>
<!-- Generator: Adobe Illustrator 27.0.0, SVG Export Plug-In . SVG Version: 6.00 Build 0)  -->
<svg version="1.1" id="Layer_1" xmlns="http://www.w3.org/2000/svg" xmlns:xlink="http://www.w3.org/1999/xlink" x="0px" y="0px"
	 viewBox="0 0 128 128" style="enable-background:new 0 0 128 128;" xml:space="preserve">
<style type="text/css">
	.st0{fill:#FFFFFF;}
	.st1{fill:#57B35C;}
</style>
<circle class="st0" cx="64" cy="64" r="60"/>
<circle class="st1" cx="64" cy="64" r="54.9"/>
<g>
	<path class="st0" d="M39.7,69.2c0.4,0,0.7-0.1,1-0.4c2.7-2.7,5.5-5.5,8.2-8.2c6.1-6.1,12.1-12.1,18.2-18.2c0.1-0.1,0.3-0.3,0.5-0.5
		c0,0.1,0,0.2,0,0.3V45c0,0.4,0,0.7,0,1.1c0.1,0.8,0.8,1.2,1.5,0.8c0.4-0.2,0.5-0.6,0.5-0.9c0-2.1,0-4.2,0-6.3c0-0.2,0-0.4-0.1-0.6
		c-0.2-0.4-0.6-0.5-1-0.5h-6.1c-0.1,0-0.2,0-0.3,0c-0.4,0-0.8,0.4-0.8,0.9c-0.1,0.6,0.4,1.1,1,1.1c1.2,0,2.5,0,3.7,0
		c0.1,0,0.2,0,0.4,0c-0.1,0.1-0.1,0.2-0.2,0.2c-2.1,2.1-4.2,4.2-6.2,6.2c-3.5,3.5-7,7-10.5,10.5c-2.8,2.8-5.7,5.7-8.5,8.5
		c-0.5,0.5-1.1,1.1-1.6,1.6c-0.2,0.3-0.3,0.6-0.2,0.9C39,68.9,39.3,69.1,39.7,69.2z"/>
	<path class="st0" d="M88.8,87.5c-0.8,0-1.6,0-2.4,0c-0.3,0-0.5-0.2-0.5-0.5V47.8c0-0.1,0-0.2,0-0.4c0-0.7-0.4-1.1-1.1-1.1h-8.9
		c-0.4,0-0.8,0.2-0.9,0.5c-0.1,0.2-0.1,0.5-0.1,0.8v39.5c0,0.3,0,0.3-0.3,0.3H70c-0.5,0-0.5,0.1-0.5-0.5V62.8c0-0.1,0-0.2,0-0.4
		c0-0.2,0-0.4-0.1-0.5c-0.2-0.4-0.5-0.5-0.9-0.5h-9c-0.3,0-0.6,0.2-0.8,0.4c-0.2,0.2-0.2,0.5-0.2,0.8V87c0,0.1,0,0.2,0,0.2
		c0,0.3,0,0.3-0.3,0.3h-4.7c-0.2,0-0.2-0.1-0.2-0.2V77c0-0.1,0-0.3,0-0.4c0-0.3-0.2-0.6-0.5-0.7c-0.2-0.1-0.4-0.1-0.6-0.1
		c-2.9,0-5.9,0-8.8,0c-0.1,0-0.2,0-0.3,0c-0.3,0-0.5,0.2-0.6,0.4c-0.2,0.2-0.2,0.5-0.2,0.8v10.2c0,0.4,0,0.4-0.4,0.4v0
		c-0.9,0-1.8,0-2.6,0c-0.4,0-0.7,0.3-0.8,0.6c-0.1,0.4-0.1,0.7,0.2,1c0.2,0.2,0.5,0.3,0.8,0.3h49.2c0.1,0,0.3,0,0.4,0
		c0.4,0,0.8-0.4,0.8-0.8C89.9,88,89.3,87.5,88.8,87.5z M77.1,48.3C77,48.3,77,48.3,77.1,48.3C77,48.3,77.1,48.3,77.1,48.3z"/>
</g>
</svg>
