<svg width="19" height="19" viewBox="0 0 19 19" fill="none" xmlns="http://www.w3.org/2000/svg">
<g id="Facebook" clip-path="url(#clip0_28_2135)">
<path id="Vector" d="M18.9584 9.47781C18.9584 4.24336 14.7144 0 9.47919 0C4.24397 0 0 4.24336 0 9.47781C0 14.2084 3.46638 18.1295 7.99806 18.8405V12.2175H5.59124V9.47781H7.99806V7.38973C7.99806 5.01436 9.41328 3.70227 11.5785 3.70227C12.6153 3.70227 13.7004 3.88738 13.7004 3.88738V6.21982H12.5051C11.3276 6.21982 10.9603 6.95046 10.9603 7.70072V9.47781H13.5893L13.169 12.2175H10.9603V18.8405C15.492 18.1295 18.9584 14.2084 18.9584 9.47781Z" fill="white"/>
</g>
<defs>
<clipPath id="clip0_28_2135">
<rect width="18.9584" height="18.9556" fill="white"/>
</clipPath>
</defs>
</svg>
