<?xml version="1.0" encoding="utf-8"?>
<!-- Generator: Adobe Illustrator 25.2.3, SVG Export Plug-In . SVG Version: 6.00 Build 0)  -->
<svg version="1.1" id="Layer_1" xmlns="http://www.w3.org/2000/svg" xmlns:xlink="http://www.w3.org/1999/xlink" x="0px" y="0px"
	 viewBox="0 0 576 432" style="enable-background:new 0 0 576 432;" xml:space="preserve">
<style type="text/css">
	.st0{fill:url(#SVGID_1_);}
	.st1{fill:url(#SVGID_2_);}
	.st2{fill:url(#SVGID_3_);}
	.st3{fill:url(#SVGID_4_);}
	.st4{fill:url(#SVGID_5_);}
	.st5{opacity:0.4;}
	.st6{fill:url(#SVGID_6_);}
	.st7{fill:#FFFFFF;}
	.st8{fill:#56B15C;}
	.st9{opacity:0.6;fill:url(#SVGID_7_);}
	.st10{fill:#9FA1A1;}
	.st11{fill:#FBC010;}
	.st12{fill:#BBB230;}
	.st13{fill:#D8DC49;}
	.st14{fill:#EC692E;}
</style>
<g>
	<g>
		<g>
			<linearGradient id="SVGID_1_" gradientUnits="userSpaceOnUse" x1="299.1976" y1="269.5356" x2="306.4415" y2="7.3066">
				<stop  offset="0" style="stop-color:#8C9093"/>
				<stop  offset="3.898513e-02" style="stop-color:#929598"/>
				<stop  offset="0.3106" style="stop-color:#B4B6B8"/>
				<stop  offset="0.5685" style="stop-color:#CCCDCE"/>
				<stop  offset="0.805" style="stop-color:#DBDBDC"/>
				<stop  offset="1" style="stop-color:#E0E0E1"/>
			</linearGradient>
			<polygon class="st0" points="334.9,266 243.3,107.4 268.5,92.9 360.1,251.5 			"/>
			<g>
				<linearGradient id="SVGID_2_" gradientUnits="userSpaceOnUse" x1="335.1897" y1="270.5299" x2="342.4336" y2="8.3009">
					<stop  offset="0" style="stop-color:#8C9093"/>
					<stop  offset="3.898513e-02" style="stop-color:#929598"/>
					<stop  offset="0.3106" style="stop-color:#B4B6B8"/>
					<stop  offset="0.5685" style="stop-color:#CCCDCE"/>
					<stop  offset="0.805" style="stop-color:#DBDBDC"/>
					<stop  offset="1" style="stop-color:#E0E0E1"/>
				</linearGradient>
				<polygon class="st1" points="255.9,129.3 287.5,74.5 317.5,126.5 277.6,195.7 357.7,196.1 378.9,232.7 378.9,232.7 402.3,273.3 
					435.9,273.3 374.6,167.1 327.8,166.8 351.1,126.5 287.5,16.3 239.1,100.2 				"/>
				<linearGradient id="SVGID_3_" gradientUnits="userSpaceOnUse" x1="336.4457" y1="270.5646" x2="343.6896" y2="8.3356">
					<stop  offset="0" style="stop-color:#8C9093"/>
					<stop  offset="3.898513e-02" style="stop-color:#929598"/>
					<stop  offset="0.3106" style="stop-color:#B4B6B8"/>
					<stop  offset="0.5685" style="stop-color:#CCCDCE"/>
					<stop  offset="0.805" style="stop-color:#DBDBDC"/>
					<stop  offset="1" style="stop-color:#E0E0E1"/>
				</linearGradient>
				<polygon class="st2" points="317.7,273.3 372.7,273.3 355.9,244.2 300.9,244.2 				"/>
				<linearGradient id="SVGID_4_" gradientUnits="userSpaceOnUse" x1="150.9594" y1="279.2364" x2="234.6264" y2="139.067">
					<stop  offset="0" style="stop-color:#3CB187"/>
					<stop  offset="1.121807e-02" style="stop-color:#3DB185"/>
					<stop  offset="0.2907" style="stop-color:#5CB663"/>
					<stop  offset="0.556" style="stop-color:#72B94B"/>
					<stop  offset="0.7994" style="stop-color:#7FBB3C"/>
					<stop  offset="1" style="stop-color:#84BC37"/>
				</linearGradient>
				<polygon class="st3" points="224.3,125.9 139.1,273.3 172.7,273.3 241.1,155 				"/>
			</g>
		</g>
		<linearGradient id="SVGID_5_" gradientUnits="userSpaceOnUse" x1="212.1063" y1="315.7349" x2="295.7733" y2="175.5655">
			<stop  offset="0" style="stop-color:#3CB187"/>
			<stop  offset="1.121807e-02" style="stop-color:#3DB185"/>
			<stop  offset="0.2907" style="stop-color:#5CB663"/>
			<stop  offset="0.556" style="stop-color:#72B94B"/>
			<stop  offset="0.7994" style="stop-color:#7FBB3C"/>
			<stop  offset="1" style="stop-color:#84BC37"/>
		</linearGradient>
		<polygon class="st4" points="308.4,308.6 226,166 200.8,180.5 274.8,308.6 		"/>
		<g class="st5">
			<linearGradient id="SVGID_6_" gradientUnits="userSpaceOnUse" x1="213.5668" y1="211.6744" x2="213.5668" y2="270.4702">
				<stop  offset="0" style="stop-color:#FFFFFF"/>
				<stop  offset="1" style="stop-color:#FFFFFF;stop-opacity:0"/>
			</linearGradient>
			<polygon class="st6" points="177.5,273.3 249.6,273.3 213.6,210.9 			"/>
		</g>
	</g>
	<g>
		<path class="st7" d="M95.6,342.4h-7.8V364h-8v-21.6H72v-7.1h23.6V342.4z"/>
		<path class="st7" d="M107,352.9v-17.6h8.1v17.5c0,2.8,1.8,4.6,4.5,4.6c2.6,0,4.5-1.8,4.5-4.6v-17.5h8.1v17.6
			c0,7.1-5.2,11.8-12.5,11.8C112.2,364.7,107,359.9,107,352.9z"/>
		<path class="st7" d="M167.2,342.4h-7.8V364h-8v-21.6h-7.8v-7.1h23.6V342.4z"/>
		<path class="st7" d="M178.6,352.9v-17.6h8.1v17.5c0,2.8,1.8,4.6,4.5,4.6c2.6,0,4.5-1.8,4.5-4.6v-17.5h8.1v17.6
			c0,7.1-5.2,11.8-12.5,11.8C183.9,364.7,178.6,359.9,178.6,352.9z"/>
		<path class="st7" d="M242.9,335.2V364h-6.6l-11.4-15.6V364h-7.7v-28.8h6.9l11,15.1v-15.1H242.9z"/>
		<path class="st7" d="M254.6,354.1V353h8v0.7c0,2.2,1.3,3.6,3.3,3.6c1.9,0,3.2-1.4,3.2-3.6v-18.5h8v18.9c0,6.2-4.5,10.6-11.2,10.6
			C259.2,364.7,254.6,360.4,254.6,354.1z"/>
		<path class="st7" d="M290.5,335.2h8V364h-8V335.2z"/>
		<path class="st8" d="M323.1,355.2h-2.9v8.8h-7.9v-28.8h12.5c6.2,0,10.7,4.2,10.7,10.2c0,3.5-1.7,6.4-4.6,8.1l5.7,10.5h-8.8
			L323.1,355.2z M320.2,348.5h3.6c2.2,0,3.5-1.3,3.5-3.1c0-1.8-1.3-3.1-3.5-3.1h-3.6V348.5z"/>
		<path class="st8" d="M367,357.1v6.9h-18.7v-28.8h18.4v6.8h-10.5v4.2h9.4v6.5h-9.4v4.3H367z"/>
		<path class="st8" d="M397.3,359.3h-10.2l-1.6,4.7H377l11.3-28.8h7.7l11.5,28.8h-8.7L397.3,359.3z M392.2,344.2l-3.2,8.9h6.3
			L392.2,344.2z"/>
		<path class="st8" d="M436.8,356.7v7.3h-18.3v-28.8h8v21.5H436.8z"/>
		<path class="st8" d="M466.6,342.4h-7.8V364h-8v-21.6H443v-7.1h23.6V342.4z"/>
		<path class="st8" d="M494,352.7V364h-8.1v-11.3l-10-17.5h8.8l5.3,10.4l5.3-10.4h8.8L494,352.7z"/>
	</g>
	<g>
		<path class="st7" d="M211.8,244L211.8,244v13.5h-13.4v-0.1C198.5,250,204.5,244,211.8,244z"/>
		<path class="st7" d="M214.2,244L214.2,244c7.4,0,13.4,6,13.4,13.4v0.1h-13.4V244z"/>
		<rect x="198.5" y="259.8" class="st7" width="13.4" height="13.5"/>
		<rect x="214.2" y="259.8" class="st7" width="13.4" height="13.5"/>
	</g>
	<linearGradient id="SVGID_7_" gradientUnits="userSpaceOnUse" x1="274.119" y1="197.3988" x2="221.7077" y2="118.0738">
		<stop  offset="0" style="stop-color:#FFFFFF"/>
		<stop  offset="3.545666e-02" style="stop-color:#F0F0F0"/>
		<stop  offset="0.1919" style="stop-color:#B1B1B1"/>
		<stop  offset="0.3468" style="stop-color:#7B7B7B"/>
		<stop  offset="0.4963" style="stop-color:#4F4F4F"/>
		<stop  offset="0.6394" style="stop-color:#2D2D2D"/>
		<stop  offset="0.7744" style="stop-color:#141414"/>
		<stop  offset="0.8981" style="stop-color:#050505"/>
		<stop  offset="1" style="stop-color:#000000"/>
	</linearGradient>
	<path class="st9" d="M287.5,24.9L244,100.2l46.8,81.1l-4.7,8.2c23.7-18,43.4-41,57.4-67.5L287.5,24.9z M302.7,160.7l-35-60.6
		l19.8-34.2l35,60.6L302.7,160.7z M236.1,155l-11.8-20.5l-55.6,96.2c8.4-0.2,16.8-0.9,24.9-2.2l19.9-34.5l15,26
		c6.6-2.2,13-4.8,19.3-7.7l-22.4-38.8L236.1,155z"/>
	<g>
		<g>
			<polygon class="st10" points="449.1,388.5 452,391.3 452,399.6 445.6,399.6 445.8,391.7 			"/>
		</g>
		<g>
			<rect x="455" y="384.8" class="st11" width="7.5" height="12.1"/>
		</g>
		<g>
			<rect x="465.1" y="376.8" class="st12" width="5.4" height="21.5"/>
		</g>
		<g>
			<polygon class="st10" points="471.9,385.9 471.9,394.7 479.3,394.7 479.3,379.8 475.6,379.8 475.6,382 475.3,382 475.3,385.9 			
				"/>
		</g>
		<g>
			<polygon class="st13" points="484.3,386.8 486.6,388.9 486.6,395.5 482.5,395.5 482.5,388.4 			"/>
		</g>
		<g>
			<polygon class="st14" points="496,392.9 500.9,395.1 500.9,399.7 490.7,399.7 490.7,395.3 			"/>
		</g>
		<g>
			<g>
				<g>
					<path class="st7" d="M446.9,410c-0.6,0.2-1.3,0.4-1.9,0.4c-2.4,0-3.8-1.7-3.8-3.7c0-1.4,0.6-2.6,1.7-3.3c0.7-0.4,1.3-0.5,2-0.5
						c0.7,0,1.4,0.3,1.7,0.3c0.1,0,0.2,0,0.2-0.1h0.1v1.5h-0.1c-0.5-0.4-1.1-0.6-1.9-0.6c-1.4,0-2.4,1.1-2.4,2.7
						c0,1.5,0.9,2.6,2.4,2.6c0.7,0,1.4-0.2,1.9-0.7l0.1,0L446.9,410z"/>
				</g>
				<g>
					<path class="st7" d="M450.3,410.2c-0.4,0-0.9,0-1.2,0v-0.1c0.5-0.1,0.5-0.6,0.5-1.5v-3.8c0-0.9,0-1.4-0.5-1.5v-0.1
						c0.4,0,0.8,0,1.2,0c0.4,0,0.8,0,1.2,0v0.1c-0.5,0.1-0.5,0.6-0.5,1.5v3.8c0,1,0.1,1.4,0.5,1.5v0.1
						C451.2,410.2,450.8,410.2,450.3,410.2z"/>
				</g>
				<g>
					<path class="st7" d="M458.5,404.6c-0.2-0.4-0.5-0.5-1.2-0.5h-0.6v4.4c0,1,0.1,1.4,0.6,1.5v0.1c-0.4,0-0.8,0-1.3,0
						c-0.4,0-0.8,0-1.2,0v-0.1c0.5-0.1,0.5-0.6,0.5-1.5v-4.4h-0.5c-0.7,0-1,0.1-1.2,0.5h-0.1l0.1-1.5h4.9l0.1,1.5H458.5z"/>
				</g>
				<g>
					<path class="st7" d="M466.2,404l-1.8,3v1.5c0,1,0.1,1.4,0.5,1.5v0.1c-0.4,0-0.8,0-1.2,0c-0.4,0-0.8,0-1.2,0v-0.1
						c0.5-0.1,0.5-0.6,0.5-1.5v-1.5l-1.7-3c-0.3-0.5-0.5-0.8-0.8-0.9v-0.1c0.3,0,0.7,0,1,0c0.4,0,0.9,0,1.3,0v0.1
						c-0.1,0-0.2,0.1-0.2,0.2c0,0.1,0,0.2,0.1,0.3l1.1,2.1l1.1-2.1c0-0.1,0.1-0.2,0.1-0.3c0-0.1-0.1-0.2-0.2-0.2v-0.1
						c0.4,0,0.8,0,1.2,0c0.3,0,0.6,0,1,0v0.1C466.6,403.3,466.5,403.5,466.2,404z"/>
				</g>
				<g>
					<path class="st7" d="M470.4,410.4c-0.6,0-1.1-0.1-1.7-0.3l-0.1-1.4l0.1,0c0.4,0.5,1,0.8,1.7,0.8c0.7,0,1.3-0.4,1.3-1.1
						c0-0.6-0.4-0.8-2.1-1.8c-0.4-0.2-0.8-0.9-0.8-1.5c0-1.2,0.9-2,2.1-2c0.8,0,1.3,0.2,1.5,0.2c0.1,0,0.2,0,0.2-0.1h0.1v1.5h-0.1
						c-0.4-0.5-0.9-0.7-1.5-0.7c-0.6,0-1.1,0.4-1.1,0.9c0,1.2,3,1,3,3.4C473,409.5,472,410.4,470.4,410.4z"/>
				</g>
				<g>
					<path class="st7" d="M480.9,410c-0.6,0.2-1.3,0.4-1.9,0.4c-2.4,0-3.8-1.7-3.8-3.7c0-1.4,0.6-2.6,1.7-3.3c0.7-0.4,1.3-0.5,2-0.5
						c0.7,0,1.4,0.3,1.7,0.3c0.1,0,0.2,0,0.2-0.1h0.1v1.5h-0.1c-0.5-0.4-1.1-0.6-1.9-0.6c-1.4,0-2.4,1.1-2.4,2.7
						c0,1.5,0.9,2.6,2.4,2.6c0.7,0,1.4-0.2,1.9-0.7l0.1,0L480.9,410z"/>
				</g>
				<g>
					<path class="st7" d="M489.1,410.2c-0.4,0-0.9,0-1.3,0v-0.1c0.2,0,0.3-0.1,0.3-0.4c0-0.1-0.1-0.3-0.1-0.4l-0.3-0.8H485l-0.4,0.9
						c0,0.1-0.1,0.3-0.1,0.4c0,0.2,0.1,0.3,0.3,0.3v0.1c-0.4,0-0.8,0-1.2,0c-0.3,0-0.6,0-0.9,0v-0.1c0.3-0.1,0.4-0.4,0.6-0.8l3-6.5
						h0.2l3,6.6c0.2,0.4,0.3,0.6,0.6,0.7v0.1C489.7,410.2,489.4,410.2,489.1,410.2z M486.4,405.2l-0.9,2.2h1.9L486.4,405.2z"/>
				</g>
				<g>
					<path class="st7" d="M494.8,407.4c-0.2,0-0.4,0-0.5-0.1l-0.3-1l0.1,0c0.1,0,0.3,0,0.4,0c0.6,0,1.2-0.4,1.2-1.1
						c0-0.6-0.5-1.1-1.4-1.1c-0.3,0-0.5,0.1-0.7,0.1v4.4c0,1,0.1,1.5,0.5,1.5v0.1c-0.4,0-0.9,0-1.2,0c-0.4,0-0.8,0-1.2,0v-0.1
						c0.5-0.1,0.5-0.6,0.5-1.5v-3.8c0-0.9,0-1.4-0.5-1.5v-0.1h2.4c0.7,0,1.3,0,1.6,0.2c0.9,0.3,1.3,1,1.3,1.9
						C497.2,406.5,496.2,407.4,494.8,407.4z"/>
				</g>
				<g>
					<path class="st7" d="M503.8,410.2h-4.6v-0.1c0.5-0.1,0.5-0.6,0.5-1.5v-3.7c0-0.9,0-1.4-0.5-1.5v-0.1h4.6v1.6h-0.1
						c-0.2-0.4-0.5-0.5-1.2-0.5h-1.4v1.8h1.2c0.7,0,1-0.1,1.2-0.5h0.1c0,0.3,0,0.7,0,1c0,0.3,0,0.7,0,1h-0.1
						c-0.1-0.4-0.5-0.5-1.1-0.5h-1.2v1.6c0,0.6,0.2,0.6,0.8,0.6h0.7c0.8,0,1.1-0.2,1.3-0.6l0.1,0L503.8,410.2z"/>
				</g>
			</g>
			<g>
				<g>
					<path class="st7" d="M442.6,412.8c0.5,0,0.7,0.2,0.7,0.6v0.2c0,0.3-0.1,0.5-0.4,0.5c0.3,0.1,0.4,0.3,0.4,0.5v0.4
						c0,0.1,0,0.2,0.1,0.3H443c0-0.1-0.1-0.1-0.1-0.3v-0.4c0-0.3-0.2-0.4-0.4-0.4h-0.2v1.1h-0.3v-2.5H442.6z M442.5,414
						c0.3,0,0.4-0.1,0.4-0.3v-0.2c0-0.2-0.1-0.3-0.4-0.3h-0.3v0.9H442.5z"/>
				</g>
				<g>
					<path class="st7" d="M445.6,414v0.3h-0.8v0.9h0.9v0.3h-1.3v-2.5h1.3v0.3h-0.9v0.9H445.6z"/>
				</g>
				<g>
					<path class="st7" d="M447.2,414.9l-0.1,0.5h-0.3l0.6-2.5h0.5l0.6,2.5h-0.3l-0.1-0.5H447.2z M447.3,414.6h0.7l-0.3-1.5
						L447.3,414.6z"/>
				</g>
				<g>
					<path class="st7" d="M449.6,415.4v-2.5h0.3v2.3h0.9v0.3H449.6z"/>
				</g>
				<g>
					<path class="st7" d="M454.5,414v0.3h-0.8v0.9h0.9v0.3h-1.3v-2.5h1.3v0.3h-0.9v0.9H454.5z"/>
				</g>
				<g>
					<path class="st7" d="M457.2,413.4L457.2,413.4l-0.3,0.1v-0.1c0-0.2-0.1-0.4-0.4-0.4c-0.2,0-0.4,0.1-0.4,0.4c0,0.6,1,0.6,1,1.3
						c0,0.4-0.2,0.6-0.7,0.6s-0.7-0.3-0.7-0.6v-0.1h0.3v0.2c0,0.2,0.1,0.4,0.4,0.4c0.2,0,0.4-0.1,0.4-0.4c0-0.6-1-0.6-1-1.3
						c0-0.4,0.2-0.6,0.7-0.6C457,412.8,457.2,413.1,457.2,413.4z"/>
				</g>
				<g>
					<path class="st7" d="M458.8,415.4v-2.3h-0.6v-0.3h1.5v0.3h-0.6v2.3H458.8z"/>
				</g>
				<g>
					<path class="st7" d="M461,414.9l-0.1,0.5h-0.3l0.6-2.5h0.5l0.6,2.5h-0.3l-0.1-0.5H461z M461,414.6h0.7l-0.3-1.5L461,414.6z"/>
				</g>
				<g>
					<path class="st7" d="M463.8,415.4v-2.3h-0.6v-0.3h1.5v0.3h-0.6v2.3H463.8z"/>
				</g>
				<g>
					<path class="st7" d="M466.9,414v0.3h-0.8v0.9h0.9v0.3h-1.3v-2.5h1.3v0.3h-0.9v0.9H466.9z"/>
				</g>
				<g>
					<path class="st7" d="M469.7,415.4v-2.5h0.3v2.3h0.9v0.3H469.7z"/>
				</g>
				<g>
					<path class="st7" d="M472.3,415.4v-2.3h-0.6v-0.3h1.5v0.3h-0.6v2.3H472.3z"/>
				</g>
				<g>
					<path class="st7" d="M475,412.8c0.5,0,0.7,0.2,0.7,0.6v1.3c0,0.4-0.2,0.6-0.7,0.6h-0.7v-2.5H475z M475,415.1
						c0.2,0,0.4-0.1,0.4-0.4v-1.3c0-0.2-0.1-0.4-0.4-0.4h-0.4v2H475z"/>
				</g>
				<g>
					<path class="st7" d="M477.4,415.4h-0.1V415h0.3v0.3l-0.2,0.3h-0.1L477.4,415.4z"/>
				</g>
				<g>
					<path class="st7" d="M482.1,412.8c0.5,0,0.7,0.2,0.7,0.6v0.1c0,0.3-0.1,0.4-0.4,0.5c0.3,0.1,0.4,0.3,0.4,0.5v0.2
						c0,0.4-0.2,0.6-0.7,0.6h-0.7v-2.5H482.1z M482.1,413.9c0.3,0,0.4-0.1,0.4-0.3v-0.1c0-0.2-0.1-0.3-0.3-0.3h-0.3v0.8H482.1z
						 M482.2,415.1c0.3,0,0.4-0.1,0.4-0.3v-0.2c0-0.3-0.1-0.4-0.4-0.4h-0.3v1H482.2z"/>
				</g>
				<g>
					<path class="st7" d="M484.7,412.8c0.5,0,0.7,0.2,0.7,0.6v0.2c0,0.3-0.1,0.5-0.4,0.5c0.3,0.1,0.4,0.3,0.4,0.5v0.4
						c0,0.1,0,0.2,0.1,0.3h-0.3c0-0.1-0.1-0.1-0.1-0.3v-0.4c0-0.3-0.2-0.4-0.4-0.4h-0.2v1.1H484v-2.5H484.7z M484.6,414
						c0.3,0,0.4-0.1,0.4-0.3v-0.2c0-0.2-0.1-0.3-0.4-0.3h-0.3v0.9H484.6z"/>
				</g>
				<g>
					<path class="st7" d="M486.6,413.4c0-0.4,0.2-0.6,0.7-0.6c0.5,0,0.7,0.3,0.7,0.6v1.3c0,0.4-0.2,0.6-0.7,0.6
						c-0.5,0-0.7-0.3-0.7-0.6V413.4z M486.9,414.8c0,0.2,0.1,0.4,0.4,0.4c0.3,0,0.4-0.1,0.4-0.4v-1.3c0-0.2-0.1-0.4-0.4-0.4
						c-0.2,0-0.4,0.1-0.4,0.4V414.8z"/>
				</g>
				<g>
					<path class="st7" d="M489.7,414.3l-0.2,0.3v0.9h-0.3v-2.5h0.3v1.2l0.8-1.2h0.3l-0.8,1.2l0.8,1.4h-0.4L489.7,414.3z"/>
				</g>
				<g>
					<path class="st7" d="M492.9,414v0.3h-0.8v0.9h0.9v0.3h-1.3v-2.5h1.3v0.3h-0.9v0.9H492.9z"/>
				</g>
				<g>
					<path class="st7" d="M494.9,412.8c0.5,0,0.7,0.2,0.7,0.6v0.2c0,0.3-0.1,0.5-0.4,0.5c0.3,0.1,0.4,0.3,0.4,0.5v0.4
						c0,0.1,0,0.2,0.1,0.3h-0.3c0-0.1-0.1-0.1-0.1-0.3v-0.4c0-0.3-0.2-0.4-0.4-0.4h-0.2v1.1h-0.3v-2.5H494.9z M494.8,414
						c0.3,0,0.4-0.1,0.4-0.3v-0.2c0-0.2-0.1-0.3-0.4-0.3h-0.3v0.9H494.8z"/>
				</g>
				<g>
					<path class="st7" d="M497.2,414.9l-0.1,0.5h-0.3l0.6-2.5h0.5l0.6,2.5h-0.3l-0.1-0.5H497.2z M497.2,414.6h0.7l-0.3-1.5
						L497.2,414.6z"/>
				</g>
				<g>
					<path class="st7" d="M500.9,413.4v0.2h-0.3v-0.2c0-0.2-0.1-0.4-0.4-0.4c-0.2,0-0.4,0.1-0.4,0.4v1.3c0,0.2,0.1,0.4,0.4,0.4
						c0.3,0,0.4-0.1,0.4-0.4v-0.5h-0.3V414h0.6v0.7c0,0.4-0.2,0.6-0.7,0.6c-0.5,0-0.7-0.3-0.7-0.6v-1.3c0-0.4,0.2-0.6,0.7-0.6
						C500.7,412.8,500.9,413.1,500.9,413.4z"/>
				</g>
				<g>
					<path class="st7" d="M503.2,414v0.3h-0.8v0.9h0.9v0.3h-1.3v-2.5h1.3v0.3h-0.9v0.9H503.2z"/>
				</g>
				<g>
					<circle class="st7" cx="476.8" cy="415.2" r="0.2"/>
				</g>
			</g>
		</g>
		<g>
			<g>
				<rect x="441.2" y="399.3" class="st7" width="62.8" height="0.9"/>
			</g>
			<g>
				<path class="st7" d="M466.9,399.9h-11.4v-10.7h5.3v3.5h2.5v-6h-2.6v-3.3h-2v-2.7h-2.8v2.7h-2v13.2h-3.3V392l-2.3-2.1l-2.3,2.1
					v7.6H445v-8l3.2-2.9l3.1,2.9v4.1h1.5v-13.2h2v-2.7h4.6v2.7h2v3.3h2.6v7.7h-4.2V390h-3.5v9h9.7v-24.3h6.2v10.4h2.6v-3.5h2.4v-2.9
					h4.1v13.2h1.3v-3.3l2.7-2.5l2.8,2.4v3.3h2.4v2.9l4.4-2l5.2,2.4v4.5h-0.9v-4l-4.3-2l-5.2,2.3v-3.3h-1.5v4.4h-17.4v-5.2h9.8v-12.3
					h-2.3v2.9h-2.4v3.5h-4.3v-10.4h-4.4V399.9z M471.5,396.2h15.7v-3.5h-3.7v2.6h-3.1v-2.6h-8.9V396.2z M481.3,394.5h1.3v-1.8h-1.3
					V394.5z M483.5,391.8h3.7v-2.9l-1.9-1.6l-1.8,1.7V391.8z"/>
			</g>
			<g>
				<rect x="497.7" y="392.7" class="st7" width="0.9" height="2.2"/>
			</g>
			<g>
				<rect x="468.7" y="371.7" class="st7" width="0.9" height="3.4"/>
			</g>
			<g>
				<rect x="445.8" y="389.2" class="st7" width="0.9" height="2.1"/>
			</g>
		</g>
		<g>
			<rect x="446.7" y="392.3" class="st7" width="1.6" height="1.6"/>
		</g>
		<g>
			<rect x="457.8" y="393.6" class="st7" width="1.6" height="1.6"/>
		</g>
		<g>
			<rect x="455.8" y="386.2" class="st7" width="1.6" height="1.6"/>
		</g>
		<g>
			<rect x="467.6" y="394.7" class="st7" width="1.6" height="1.6"/>
		</g>
		<g>
			<rect x="467.6" y="392" class="st7" width="1.6" height="1.6"/>
		</g>
		<g>
			<rect x="467.6" y="389.4" class="st7" width="1.6" height="1.6"/>
		</g>
		<g>
			<rect x="467.6" y="386.7" class="st7" width="1.6" height="1.6"/>
		</g>
		<g>
			<rect x="473.1" y="388.7" class="st7" width="1.6" height="1.6"/>
		</g>
		<g>
			<rect x="476.1" y="386.2" class="st7" width="1.6" height="1.6"/>
		</g>
		<g>
			<rect x="483.9" y="389.1" class="st7" width="1.6" height="1.6"/>
		</g>
		<g>
			<rect x="492.9" y="396" class="st7" width="1.6" height="1.6"/>
		</g>
		<g>
			<rect x="495.7" y="396" class="st7" width="1.6" height="1.6"/>
		</g>
		<g>
			<rect x="467.6" y="384.1" class="st7" width="1.6" height="1.6"/>
		</g>
		<g>
			<rect x="467.6" y="381.5" class="st7" width="1.6" height="1.6"/>
		</g>
		<g>
			<rect x="467.6" y="378.8" class="st7" width="1.6" height="1.6"/>
		</g>
		<g>
			<rect x="446.7" y="395.9" class="st7" width="1.6" height="1.6"/>
		</g>
	</g>
	<g>
		<path class="st7" d="M236.9,403v-18.5h8.3c3.2,0,5.5,1.9,5.5,4.5c0,1.5-0.8,2.9-2.2,3.8l-0.6,0.4l0.6,0.6l0.1,0
			c1.7,0.8,2.7,2.4,2.7,4.3c0,2.9-2.5,5-5.8,5H236.9z M240.9,399.7h3.5c1.5,0,2.5-1,2.5-2.4c0-1.4-1-2.4-2.5-2.4h-3.5V399.7z
			 M240.9,392.1h3.3c1.5,0,2.4-0.9,2.4-2.3c0-1.4-1-2.3-2.4-2.3h-3.3V392.1z"/>
		<path class="st7" d="M265.6,403l-3.2-6h-2.9v6h-4.2v-18.5h8c4,0,6.7,2.6,6.7,6.4c0,2.2-1,4-2.8,5.1l-0.5,0.3l3.7,6.8H265.6z
			 M259.5,393.5h3.1c1.8,0,3-1.1,3-2.7c0-1.6-1.2-2.7-3-2.7h-3.1V393.5z"/>
		<path class="st7" d="M283.3,403.5c-6,0-10.3-4-10.3-9.8c0-5.8,4.2-9.8,10.3-9.8c6,0,10.2,4,10.2,9.8
			C293.6,399.4,289.4,403.5,283.3,403.5L283.3,403.5z M283.3,387.8c-3.4,0-5.8,2.5-5.8,5.9c0,3.4,2.4,5.9,5.8,5.9
			c3.3,0,5.8-2.5,5.8-5.9C289.1,390.3,286.7,387.8,283.3,387.8z"/>
		<path class="st7" d="M308.4,403l-6.1-9.5l5.7-9.1h4.9l-5.9,9l6.5,9.6H308.4z M297.5,403v-18.5h4.2V403H297.5z"/>
		<polygon class="st7" points="316.6,403 316.6,384.4 328.1,384.4 328.1,387.9 320.8,387.9 320.8,392 327.3,392 327.3,395.3 
			320.8,395.3 320.8,399.4 328.3,399.4 328.3,403 		"/>
		<path class="st7" d="M343,403l-3.2-6h-2.9v6h-4.2v-18.5h8c4,0,6.7,2.6,6.7,6.4c0,2.2-1,4-2.8,5.1l-0.5,0.3l3.7,6.8H343z
			 M336.8,393.5h3.1c1.8,0,3-1.1,3-2.7c0-1.6-1.2-2.7-3-2.7h-3.1V393.5z"/>
		<polygon class="st7" points="351.6,403 351.6,384.4 363.1,384.4 363.1,387.9 355.9,387.9 355.9,392 362.3,392 362.3,395.3 
			355.9,395.3 355.9,399.4 363.3,399.4 363.3,403 		"/>
		<path class="st7" d="M367.6,403v-18.5h7.4c5.6,0,9.6,3.8,9.6,9.3c0,5.5-3.9,9.3-9.6,9.3H367.6z M371.9,399.2h2.9
			c3.2,0,5.5-2.3,5.5-5.5c0-3.3-2.2-5.5-5.5-5.5h-2.9V399.2z"/>
		<path class="st7" d="M394.7,403v-18.5h8.3c3.2,0,5.5,1.9,5.5,4.5c0,1.5-0.8,2.9-2.2,3.8l-0.6,0.4l0.6,0.6l0.1,0
			c1.7,0.8,2.7,2.4,2.7,4.3c0,2.9-2.5,5-5.8,5H394.7z M398.7,399.7h3.5c1.5,0,2.5-1,2.5-2.4c0-1.4-1-2.4-2.5-2.4h-3.5V399.7z
			 M398.7,392.1h3.3c1.5,0,2.4-0.9,2.4-2.3c0-1.4-1-2.3-2.4-2.3h-3.3V392.1z"/>
		<polygon class="st7" points="417.2,403 417.2,395.7 410.8,384.4 415.4,384.4 419.4,392.3 423.4,384.4 428,384.4 421.6,395.7 
			421.6,403 		"/>
	</g>
</g>
</svg>
