<?xml version="1.0" standalone="no"?>
<!DOCTYPE svg PUBLIC "-//W3C//DTD SVG 20010904//EN"
 "http://www.w3.org/TR/2001/REC-SVG-20010904/DTD/svg10.dtd">
<svg version="1.0" xmlns="http://www.w3.org/2000/svg"
 width="3890.000000pt" height="2918.000000pt" viewBox="0 0 3890.000000 2918.000000"
 preserveAspectRatio="xMidYMid meet">

<g transform="translate(0.000000,2918.000000) scale(0.100000,-0.100000)"
fill="#000000" stroke="none">
<path d="M13301 22700 c-157 -22 -306 -89 -442 -198 -83 -67 -221 -223 -259
-294 -38 -71 -17 -191 36 -204 45 -11 71 6 150 97 164 191 293 281 464 326 92
24 279 22 380 -5 260 -69 506 -221 750 -462 145 -143 231 -248 335 -405 294
-448 431 -836 497 -1410 19 -164 16 -653 -6 -845 -61 -560 -177 -1073 -376
-1670 -258 -773 -683 -1725 -1077 -2415 -636 -1113 -1396 -2157 -2271 -3125
-205 -226 -741 -767 -952 -960 -704 -645 -1512 -1235 -1978 -1444 -232 -104
-488 -176 -704 -197 -479 -46 -840 179 -996 622 -114 324 -142 829 -76 1374
152 1254 612 2643 1494 4520 116 246 836 1683 1053 2100 620 1195 1120 2063
1737 3020 249 385 274 434 274 523 0 118 -68 203 -151 187 -64 -12 -169 -132
-794 -910 -680 -846 -2110 -2683 -2825 -3630 -1072 -1419 -2179 -2942 -3711
-5105 -1251 -1768 -1386 -1964 -1968 -2860 -119 -184 -221 -339 -226 -345 -6
-5 53 118 129 275 1237 2531 2055 4120 2915 5660 450 806 891 1601 1207 2175
194 352 554 1005 800 1450 540 977 614 1116 779 1450 145 293 248 523 344 765
146 370 171 470 170 680 0 116 -4 148 -27 225 -53 178 -154 315 -261 355 -110
41 -336 27 -550 -35 -300 -87 -806 -342 -1302 -658 -1008 -640 -1950 -1509
-2633 -2427 -369 -496 -611 -959 -715 -1365 -54 -212 -69 -328 -70 -530 0
-148 4 -200 23 -293 61 -304 187 -554 369 -735 99 -98 154 -137 277 -198 272
-134 587 -160 1031 -84 246 42 305 73 305 160 0 35 -6 49 -31 74 -17 17 -42
34 -55 37 -30 8 -150 0 -259 -17 -46 -7 -181 -13 -315 -13 -246 -1 -322 8
-482 55 -95 28 -232 99 -305 158 -74 61 -181 200 -229 297 -63 130 -77 206
-78 404 0 201 21 324 94 551 138 434 348 814 724 1316 615 820 1490 1627 2420
2233 542 352 898 541 1240 659 296 102 482 123 557 63 21 -17 21 -18 5 -132
-41 -297 -143 -562 -477 -1235 -279 -565 -518 -1011 -1029 -1920 -136 -242
-284 -507 -330 -590 -46 -82 -318 -571 -605 -1085 -1024 -1834 -1428 -2570
-1917 -3490 -633 -1190 -1251 -2428 -1711 -3425 -144 -314 -388 -861 -429
-965 -17 -41 -61 -147 -98 -235 -111 -263 -123 -309 -124 -455 0 -107 3 -132
21 -171 78 -169 138 -189 254 -81 105 97 264 330 799 1177 385 610 595 935
685 1065 28 41 119 172 202 290 82 118 471 679 863 1245 1013 1462 1210 1743
1907 2716 1078 1505 1409 1959 2001 2747 716 954 993 1310 2020 2602 345 434
405 507 369 448 -509 -823 -1777 -3252 -2314 -4433 -1066 -2342 -1475 -4106
-1233 -5318 97 -483 335 -900 623 -1090 507 -336 1233 -183 2196 462 1088 729
2533 2196 3561 3617 499 689 964 1453 1355 2229 406 806 698 1548 889 2260
232 869 300 1713 185 2305 -156 801 -524 1541 -995 2001 -359 349 -776 534
-1103 489z"/>
<path d="M29660 22681 c-176 -54 -446 -311 -948 -903 -185 -217 -222 -255
-267 -272 -36 -14 -293 -55 -750 -121 -503 -72 -872 -130 -1950 -304 -407 -66
-843 -136 -970 -156 -126 -20 -378 -60 -560 -90 -1021 -167 -1764 -272 -1836
-261 -20 3 -86 26 -147 50 -403 162 -858 259 -1567 332 -519 54 -1027 27
-1314 -70 -226 -78 -276 -162 -194 -327 50 -101 151 -201 255 -251 75 -37 260
-92 408 -122 265 -53 526 -70 925 -62 546 12 1018 51 1605 132 109 15 202 23
227 19 74 -11 474 -267 591 -379 66 -63 173 -192 237 -286 208 -305 333 -764
367 -1343 40 -697 -136 -1662 -489 -2672 -170 -489 -519 -1321 -844 -2017
-150 -320 -953 -1925 -974 -1947 -11 -11 -71 -18 -232 -28 -2457 -149 -5293
-411 -7333 -678 -769 -101 -1369 -191 -2110 -316 -487 -82 -589 -105 -689
-156 -119 -61 -136 -104 -59 -151 135 -83 429 -100 1041 -62 730 46 963 74
992 119 9 16 -20 58 -53 75 -41 21 -154 35 -337 43 -91 3 -164 8 -162 9 6 7
492 92 807 143 1610 258 3852 513 6070 691 665 53 1970 144 1975 138 1 -2 -83
-165 -188 -363 -256 -487 -620 -1210 -746 -1485 -333 -721 -621 -1496 -621
-1668 0 -61 32 -143 85 -217 52 -74 68 -85 123 -85 125 0 263 178 727 940 280
460 903 1517 1440 2445 152 264 281 485 286 491 5 6 71 14 161 18 84 3 286 13
448 21 907 45 2025 85 3275 116 527 13 3234 23 3470 12 l180 -8 -140 -145
c-520 -539 -817 -871 -1029 -1150 -302 -398 -379 -557 -327 -674 37 -85 102
-103 245 -66 254 65 574 328 990 815 237 277 637 832 842 1168 l29 49 230 -7
c1300 -35 2082 -76 2910 -150 1158 -105 2175 -280 2193 -378 12 -64 -509 -195
-1016 -256 -106 -13 -168 -34 -183 -63 -17 -32 2 -41 97 -46 88 -5 105 -2 511
64 206 34 580 113 662 141 239 80 278 188 101 278 -291 148 -1518 320 -3050
430 -596 42 -1322 79 -2060 106 -167 5 -306 12 -307 13 -2 1 55 103 126 225
71 123 187 334 257 470 l129 246 160 160 c179 179 769 744 808 775 l25 20 -24
-75 c-32 -100 -44 -182 -44 -296 0 -148 44 -241 137 -291 133 -72 253 -40 500
134 263 186 582 456 996 845 170 160 217 210 215 227 -7 49 -41 30 -209 -117
-346 -303 -634 -531 -888 -701 -205 -138 -425 -230 -467 -195 -14 11 -16 27
-11 96 8 104 51 235 123 372 98 186 182 291 356 447 54 48 69 99 45 155 -44
104 -167 133 -267 64 -118 -82 -222 -200 -322 -366 -61 -102 -73 -115 -358
-384 -162 -154 -350 -332 -418 -397 -119 -114 -155 -137 -168 -104 -3 8 25 90
62 183 134 336 259 761 271 924 l6 76 -38 41 c-57 64 -134 79 -211 41 -60 -28
-83 -71 -99 -181 l-14 -93 -133 -130 c-170 -167 -278 -261 -450 -391 -222
-169 -346 -233 -501 -260 -109 -19 -121 -12 -114 70 8 95 37 170 187 471 76
154 148 302 159 328 29 67 27 122 -4 163 -51 67 -145 69 -249 7 -173 -104
-277 -199 -683 -624 -238 -250 -318 -327 -330 -315 -3 3 36 81 88 173 51 92
142 263 201 380 104 204 108 214 108 276 0 75 -18 105 -81 137 -47 25 -82 25
-134 1 -50 -22 -61 -36 -85 -101 -11 -29 -68 -145 -127 -259 l-108 -206 -165
-165 c-226 -227 -352 -319 -489 -355 -144 -38 -227 75 -200 273 23 166 116
392 239 575 54 81 70 113 70 141 0 74 -87 126 -160 96 -35 -15 -116 -113 -285
-350 -333 -464 -526 -683 -674 -764 l-50 -27 -13 23 c-18 34 -13 172 11 270
39 167 125 348 255 543 47 70 88 142 92 160 8 45 -19 100 -65 131 -49 33 -134
34 -182 1 -85 -57 -267 -384 -343 -617 -56 -171 -69 -255 -65 -411 4 -111 7
-130 32 -181 32 -64 75 -106 150 -145 43 -22 66 -27 127 -27 64 0 85 4 142 31
37 18 88 46 113 63 99 68 241 219 384 408 34 45 66 82 70 82 5 0 11 -37 14
-82 4 -69 11 -94 44 -157 30 -60 47 -81 83 -103 162 -100 361 -24 643 245 54
51 95 88 93 82 -101 -222 -145 -369 -132 -440 13 -66 83 -125 149 -125 89 0
139 32 223 143 26 34 108 120 183 192 75 71 255 246 400 388 146 141 273 257
283 257 10 0 18 -2 18 -4 0 -2 -13 -44 -29 -93 -50 -153 -73 -285 -75 -423 -1
-119 0 -127 26 -172 31 -51 79 -86 131 -95 54 -8 193 24 284 67 124 58 296
178 486 338 77 65 144 127 369 340 l46 45 -23 -100 c-75 -318 -282 -863 -493
-1303 l-61 -125 -323 -321 -323 -321 -780 7 c-2026 18 -4412 -29 -6438 -126
-186 -9 -340 -14 -343 -11 -3 3 185 335 419 739 233 403 563 974 732 1268 658
1142 1088 1861 1847 3083 1048 1688 1944 2998 2874 4203 163 211 202 252 271
280 70 30 514 90 543 74 24 -13 22 -17 -68 -235 -41 -99 -75 -191 -76 -204 -1
-30 27 -50 51 -35 10 6 38 58 63 116 61 142 154 318 185 352 51 55 84 62 555
115 1461 165 2221 232 3395 302 597 35 1724 22 2320 -27 660 -54 1188 -171
1588 -353 206 -93 367 -247 427 -408 47 -127 46 -243 -7 -482 -55 -251 -113
-375 -466 -1001 -24 -43 -19 -76 19 -113 41 -41 96 -32 108 18 4 14 43 83 88
153 179 282 321 583 404 857 24 79 28 107 28 235 1 164 -11 226 -69 348 -54
113 -126 210 -243 324 -150 146 -265 220 -462 299 -417 165 -883 262 -1510
314 -774 63 -1539 78 -2300 45 -124 -5 -340 -14 -480 -20 -426 -18 -747 -43
-1885 -145 -501 -46 -989 -95 -1120 -114 -87 -13 -165 -14 -184 -2 -18 12 -3
49 133 316 162 317 194 454 134 570 -57 109 -143 155 -238 126z m100 -314 c0
-42 -72 -230 -155 -407 -48 -102 -93 -203 -101 -225 -19 -52 -70 -104 -108
-110 -17 -2 -116 -16 -219 -31 -178 -25 -189 -25 -207 -9 -18 16 -13 23 147
203 92 103 267 288 391 412 209 209 225 223 238 205 8 -10 14 -28 14 -38z
m-1560 -1205 c0 -10 -43 -74 -96 -143 -767 -989 -1649 -2260 -2501 -3605
-1039 -1639 -1429 -2287 -2398 -3985 -523 -915 -999 -1735 -1020 -1758 -13
-14 -187 -29 -342 -30 l-62 -1 224 443 c559 1105 1050 2182 1312 2882 319 850
580 1867 638 2485 22 227 16 759 -9 950 -67 493 -188 830 -433 1205 -147 225
-329 443 -455 547 -51 42 -111 95 -133 118 -57 59 -62 57 300 110 372 55 993
156 2270 370 1204 201 1816 300 2315 374 129 19 262 39 295 44 90 14 95 14 95
-6z m-7445 -432 c435 -31 729 -84 1038 -187 l142 -47 -60 -8 c-65 -9 -619 -60
-855 -80 -231 -19 -869 -17 -1080 5 -233 23 -294 33 -430 68 -108 28 -140 45
-140 75 0 64 254 141 562 169 176 16 633 18 823 5z m9773 -8745 c2 -12 -16
-55 -40 -98 l-43 -77 -74 0 -75 0 29 33 c144 160 195 196 203 142z m-168 -313
c0 -31 -423 -674 -597 -907 -264 -355 -581 -701 -761 -834 -100 -73 -255 -152
-303 -154 -30 -2 -34 1 -37 25 -17 146 534 851 1292 1653 104 110 196 206 204
213 18 13 202 18 202 4z m-8280 -178 c0 -3 -29 -54 -64 -113 -35 -58 -152
-259 -259 -446 -554 -968 -1454 -2490 -1505 -2544 l-42 -46 21 55 c12 30 28
78 36 105 36 122 290 708 478 1105 139 294 427 862 705 1395 132 253 241 463
242 467 5 13 388 35 388 22z"/>
<path d="M20491 17693 c-30 -6 -113 -58 -165 -104 -160 -140 -655 -857 -1043
-1509 -369 -621 -762 -1390 -997 -1950 l-32 -75 -188 -157 c-337 -282 -661
-515 -837 -601 -84 -41 -193 -77 -231 -77 -69 0 -24 249 83 461 88 176 196
313 368 466 40 36 44 45 48 94 4 45 1 60 -19 88 -34 50 -80 74 -144 74 -66 0
-102 -22 -221 -136 -98 -94 -134 -141 -213 -279 -53 -91 -68 -109 -157 -181
-385 -315 -724 -532 -895 -574 -95 -22 -103 -15 -95 94 8 104 51 235 123 372
98 186 182 291 356 447 35 31 47 50 53 81 17 105 -91 198 -201 173 -101 -23
-284 -207 -392 -396 -33 -57 -70 -97 -189 -206 -323 -296 -565 -478 -635 -478
-61 0 -81 83 -53 221 25 127 70 231 126 299 101 121 129 169 129 220 0 25 -7
55 -15 66 -9 11 -14 42 -15 77 0 79 -21 111 -93 147 -84 42 -154 53 -287 47
-122 -5 -176 -20 -285 -75 -263 -132 -523 -493 -590 -818 -23 -110 -23 -246
-1 -311 22 -67 87 -140 151 -169 69 -33 165 -33 224 -1 67 36 182 140 319 289
148 162 160 167 177 73 19 -103 66 -163 143 -185 59 -16 93 -12 160 20 111 52
218 134 441 337 74 67 136 121 137 120 1 -1 -9 -40 -23 -87 -33 -113 -44 -324
-20 -393 64 -188 239 -244 440 -142 136 69 445 305 783 598 l41 36 -23 -80
c-67 -231 -54 -419 36 -521 88 -101 225 -112 384 -31 149 75 554 393 905 711
63 56 115 101 116 100 2 -2 -21 -75 -50 -163 -78 -232 -108 -387 -109 -555 0
-149 8 -179 66 -245 111 -127 269 -93 498 107 107 93 363 387 528 606 216 285
442 607 442 628 0 24 -26 39 -52 29 -8 -3 -22 -19 -32 -35 -27 -46 -258 -361
-366 -500 -202 -259 -457 -537 -589 -642 -128 -102 -256 -152 -294 -114 -95
95 94 708 418 1357 65 129 116 211 232 375 713 1001 1590 2340 1773 2705 57
113 63 157 27 210 -37 56 -96 77 -176 62z m-5737 -3599 c9 -3 16 -14 16 -23 0
-35 -555 -639 -672 -733 l-38 -30 6 49 c24 194 138 411 311 590 69 71 128 110
203 134 55 18 144 24 174 13z"/>
<path d="M27970 16693 c-54 -26 -186 -165 -291 -305 -140 -187 -355 -537 -546
-888 -46 -85 -95 -164 -107 -176 -23 -21 -35 -21 -497 -28 -560 -8 -602 -11
-641 -55 -49 -55 -49 -111 1 -162 44 -43 70 -45 225 -14 303 60 497 35 625
-81 86 -77 90 -55 -72 -381 -79 -159 -188 -384 -243 -502 -93 -201 -104 -219
-180 -305 -175 -198 -399 -393 -517 -450 -114 -56 -181 -62 -243 -21 -137 90
-53 486 176 828 57 86 70 113 70 144 0 72 -88 123 -160 93 -36 -15 -118 -116
-295 -364 -321 -449 -516 -669 -665 -750 l-49 -27 -12 22 c-18 35 -12 181 11
276 49 192 164 424 306 611 61 81 51 166 -25 218 -51 34 -132 34 -183 -1 -77
-52 -256 -364 -327 -568 -66 -190 -75 -239 -76 -417 0 -161 1 -166 28 -222 32
-64 75 -106 150 -145 43 -22 66 -27 127 -27 66 -1 84 4 150 35 144 69 279 195
463 432 50 64 94 117 99 117 4 0 8 -24 8 -52 0 -118 58 -245 131 -290 98 -61
216 -54 357 22 103 56 172 111 319 258 l129 127 -88 -204 c-236 -547 -441
-1096 -469 -1254 -16 -97 -8 -175 21 -199 28 -23 82 -23 102 0 8 9 83 154 165
322 83 168 205 406 272 530 67 124 175 331 239 460 321 642 448 981 477 1272
6 61 16 84 125 279 112 201 185 310 220 329 47 25 839 46 1160 30 316 -15 321
-16 332 -57 9 -36 34 -48 78 -38 48 11 80 42 80 79 0 41 -22 62 -80 76 -77 18
-435 29 -957 30 -315 0 -504 4 -508 10 -3 5 41 72 98 147 220 293 573 808 667
973 74 129 62 217 -33 260 -52 24 -101 25 -147 3z m-1042 -1555 c2 -10 -13
-47 -34 -83 l-37 -67 -41 41 c-23 22 -70 56 -105 75 l-64 34 69 7 c38 3 78 8
89 9 11 2 42 3 70 2 38 -1 51 -5 53 -18z m-183 -933 c-68 -188 -123 -310 -257
-579 -156 -312 -451 -856 -463 -856 -5 0 56 138 193 435 172 376 558 1143 569
1132 2 -3 -17 -62 -42 -132z"/>
<path d="M16215 15081 c-102 -62 -166 -232 -121 -320 32 -61 171 -156 218
-149 12 2 29 14 39 28 27 37 79 229 79 291 0 127 -118 210 -215 150z"/>
<path d="M17429 15080 c-41 -22 -82 -71 -109 -133 -61 -137 -21 -229 134 -311
95 -50 111 -37 162 137 40 133 42 187 11 242 -45 79 -123 105 -198 65z"/>
<path d="M31625 15088 c-95 -52 -168 -203 -144 -294 21 -76 180 -196 241 -181
30 8 38 26 76 158 43 151 44 156 31 202 -20 77 -78 127 -144 127 -22 -1 -49
-6 -60 -12z"/>
<path d="M32885 15081 c-102 -62 -166 -232 -121 -320 32 -61 171 -156 218
-149 12 2 29 14 39 28 27 37 79 229 79 291 0 127 -118 210 -215 150z"/>
<path d="M29637 8259 c-101 -24 -204 -105 -251 -197 -99 -195 -19 -431 178
-523 209 -98 458 11 526 230 89 283 -165 558 -453 490z m225 -68 c70 -34 133
-94 165 -159 24 -50 28 -69 28 -147 0 -78 -4 -97 -28 -147 -32 -64 -94 -125
-165 -159 -71 -35 -196 -34 -273 2 -149 70 -229 239 -186 390 32 107 98 181
206 226 72 31 181 28 253 -6z"/>
<path d="M29620 7885 l0 -195 30 0 29 0 3 88 3 87 63 -87 c61 -85 65 -88 103
-88 l40 0 -66 86 -65 87 33 16 c42 21 62 76 47 131 -15 55 -44 70 -140 70
l-80 0 0 -195z m147 118 c29 -39 6 -80 -47 -85 l-35 -3 -3 59 -3 59 38 -6 c21
-4 44 -14 50 -24z"/>
<path d="M18203 7043 c-128 -274 -235 -506 -239 -515 -6 -16 2 -18 79 -18 l84
0 55 123 55 122 199 3 199 2 54 -125 55 -125 83 0 c46 0 83 4 83 8 0 8 -431
936 -461 995 -15 27 -18 20 -246 -470z m247 151 c0 -8 27 -75 60 -150 33 -74
60 -137 60 -140 0 -2 -60 -4 -134 -4 l-134 0 53 120 c30 66 59 138 66 159 11
38 29 47 29 15z"/>
<path d="M25830 7497 c-223 -76 -360 -265 -360 -497 0 -147 45 -255 150 -360
105 -106 234 -160 380 -160 146 0 275 54 380 160 106 106 150 213 150 365 0
97 -16 162 -61 246 -63 118 -182 213 -318 253 -83 24 -239 21 -321 -7z m244
-132 c98 -16 202 -99 253 -203 25 -51 28 -68 28 -157 0 -93 -2 -105 -32 -166
-39 -79 -102 -140 -181 -177 -48 -22 -71 -27 -142 -27 -71 0 -94 5 -142 27
-79 37 -142 98 -181 177 -30 61 -32 73 -32 166 0 89 3 106 28 157 37 75 104
143 173 175 56 25 133 43 169 37 11 -1 38 -6 59 -9z"/>
<path d="M13060 7005 l0 -495 75 0 75 0 0 220 c0 125 4 220 9 220 5 0 83 -99
173 -220 l163 -220 94 0 c73 0 91 3 84 13 -101 130 -323 427 -323 430 0 3 19
9 43 15 63 16 121 62 148 119 20 40 24 63 24 138 0 79 -4 97 -28 143 -33 63
-90 107 -158 121 -27 6 -124 11 -214 11 l-165 0 0 -495z m311 344 c57 -18 82
-49 87 -114 9 -108 -30 -145 -160 -153 l-78 -5 0 142 0 141 56 0 c31 0 74 -5
95 -11z"/>
<path d="M15590 7005 l0 -495 280 0 280 0 0 70 0 70 -195 0 -195 0 0 160 0
160 195 0 195 0 0 75 0 75 -195 0 -195 0 0 120 0 120 195 0 195 0 0 70 0 70
-280 0 -280 0 0 -495z"/>
<path d="M20770 7005 l0 -495 260 0 260 0 0 70 0 70 -180 0 -180 0 0 425 0
425 -80 0 -80 0 0 -495z"/>
<path d="M22990 7430 l0 -70 135 0 135 0 0 -425 0 -425 80 0 80 0 0 425 0 425
130 0 130 0 0 70 0 70 -345 0 -345 0 0 -70z"/>
<path d="M28470 7006 l0 -496 75 0 75 0 0 220 c0 170 3 220 13 220 6 -1 85
-100 174 -220 l162 -220 91 0 c49 0 90 2 90 4 0 2 -74 102 -166 222 l-165 219
39 11 c133 39 188 124 180 276 -5 91 -26 143 -75 190 -57 54 -91 62 -300 66
l-193 4 0 -496z m344 331 c42 -28 60 -65 60 -123 0 -95 -49 -132 -176 -133
l-68 -1 0 141 0 142 79 -5 c51 -3 89 -11 105 -21z"/>
</g>
</svg>
