<svg version="1.2" xmlns="http://www.w3.org/2000/svg" viewBox="0 0 3265 1164" width="3265" height="1164">
	<title>logo2_white-svg</title>
	<style>
		.s0 { fill: #060002 } 
		.s1 { fill: #fbfbfb } 
		.s2 { fill: #fcfcfc } 
		.s3 { fill: #070002 } 
		.s4 { fill: #080204 } 
		.s5 { fill: #070103 } 
		.s6 { fill: #090305 } 
		.s7 { fill: #0a0406 } 
		.s8 { fill: #0e080a } 
		.s9 { fill: #0c0608 } 
		.s10 { fill: #fafafa } 
		.s11 { fill: #1d1719 } 
		.s12 { fill: #161012 } 
		.s13 { fill: #0d0709 } 
		.s14 { fill: #211c1d } 
		.s15 { fill: #150e10 } 
		.s16 { fill: #110a0c } 
		.s17 { fill: #272123 } 
	</style>
	<path id="Layer" class="s0" d="m-312-877c1283.7 0 2567.4 0 3890 0 0 962.9 0 1925.9 0 2918-1283.7 0-2567.4 0-3890 0 0-962.9 0-1925.9 0-2918z"/>
	<path id="Layer" class="s0" d="m2125.8 60.8q2.2 0 4.5 0 4.6 0 9.3 0 4.7 0 9.4 0c23-0.1 46 0.2 68.8 4q1.6 0.2 3.2 0.5c18.6 3 37 7 55 12.7q2.7 0.8 5.4 1.5c5.4 1.7 10.5 4.1 15.6 6.5q2.2 1 4.3 1.9c28.7 13 50.5 30.7 62.5 60.7 15.4 42.9 8.9 91.6-9.8 132.6-1.9 3.9-3.9 7.8-5.9 11.7-1.3 2.6-2.6 5.2-3.9 7.9-3 5.9-6.3 11.6-9.8 17.3q-0.9 1.5-1.8 3c-9.4 15.2-20.2 29.2-31.6 42.9q-0.8 0.9-1.6 1.9c-6 7.2-12.2 14.1-19 20.7-2 2-3.9 4-5.7 6.2-7.3 8.5-15.4 16.4-23.9 23.6-2 1.8-3.9 3.7-5.8 5.6-3.2 3.2-6.5 6.2-9.9 9.2-2.3 2-4.6 4.1-6.9 6.2-4.3 3.9-8.8 7.6-13.3 11.2q-3.8 3.1-7.5 6.3c-6.6 5.7-13.5 11-20.5 16.2-3.4 2.5-6.8 5.1-10.2 7.8-61.8 47.9-133 85.3-205.7 113.6q-1.1 0.4-2.3 0.9-12.8 5-25.7 9.5-3.5 1.3-7.1 2.6c-6.7 2.6-13.5 4.8-20.3 7.2-5.2 1.8-10.4 3.6-15.5 5.5-17.1 6.5-34.4 12.3-51.8 18q-12.5 4.2-25 8.5-1.4 0.4-2.7 0.9-6.6 2.2-13.1 4.5c-9.1 3.1-18.2 6.1-27.5 8.8-7.7 2.3-15.3 4.9-22.8 7.5-5.3 1.9-9.6 3.1-15.2 2.6 1.5-5.1 3.7-9.6 6.1-14.3 0.6-1.2 0.6-1.2 1.2-2.5q1.9-3.8 3.8-7.6 1.3-2.5 2.5-5 2.5-5 5-9.9 2.2-4.3 4.3-8.5 5.1-10.4 10.5-20.7c9.2-17.5 18-35.2 26.8-52.9q3.3-6.6 6.6-13.1 8.2-16.5 16.4-33 9-17.9 17.9-35.8 3.2-6.4 6.5-12.9c15.7-31.5 15.7-31.5 23.3-45.9 3.3-6.2 6.5-12.5 9.6-18.8q1-1.9 2-3.9 2.5-5.2 5.1-10.3 2.6-5.2 5.2-10.4 6.9-13.8 13.7-27.6 5.5-11 11.2-21.8 1.5-3 3.1-6 0.8-1.5 1.6-3 2.4-4.7 4.8-9.4c5.6-10.8 11.3-21.5 17.1-32.2q4.7-8.5 9.2-17c7.3-13.7 14.8-27.1 22.7-40.4 3.9-6.7 7.8-13.5 11.7-20.2q4.7-8.3 9.7-16.6c2.1-3.5 4.1-7.1 6.1-10.7q0.6-1 1.2-2 1.6-2.8 3.1-5.6 0.6-1.1 1.2-2.2c1.5-3.5 1.4-7.1 0.8-10.8-2.9-4.5-6.2-7.6-11-10-4 0.1-6.3 0.4-9.4 3-12.3 15.5-22.2 32.5-32.2 49.6q-2.9 4.9-5.8 9.8c-14.4 23.9-28.2 48.2-41.4 72.7q-3.7 6.9-7.5 13.7c-12.8 23.3-25.1 46.9-37.3 70.5q-4.7 9.2-9.5 18.3-9.1 17.5-18.1 35-2.6 4.9-5.2 9.9-4.8 9.3-9.6 18.6-1.5 2.9-3 5.8c-15.6 30-31 60.1-45.4 90.6-3.4 7.1-6.9 14.2-10.5 21.2q-4.8 9.7-9.5 19.6-5.9 12.4-12.1 24.7c-3.9 7.8-7.8 15.7-11.6 23.6q-7.3 15.5-14.9 30.9-1.3 2.8-2.6 5.5c-15.1 31.3-15.1 31.3-26.4 37-9.9 3.4-22.3 1-32.3-1-12.9-2.5-23.8-4-35.7 3-3.8 3.2-6.8 7.5-7.2 12.5q0 1.3 0 2.7 0 1.3 0 2.7c0 2.1 0 2.1 1.2 3.1q2.2-0.2 4.3-0.4c20.7-2.2 40.5 3.5 58.7 13.4-0.5 6.5-2.9 11.6-5.8 17.4q-1.3 2.7-2.7 5.4c-0.7 1.4-0.7 1.4-1.4 3-2.8 5.7-5.6 11.4-8.3 17.2-0.9 1.7-0.9 1.7-1.7 3.5q-2.1 4.2-4.1 8.5-37.4 0.4-74.8 0.6-17.4 0-34.8 0.2-15.1 0.2-30.3 0.2-8 0-16 0.2-7.5 0.1-15.1 0-2.8 0-5.5 0.1c-9.5 0.2-16.5-0.1-23.9-6.6-1.9-1.9-3.7-3.8-5.6-5.7q-2.7-2.3-5.4-4.4c-10.1-8.3-20-16.8-29.6-25.6q-1.4-1.3-2.9-2.6c-9.9-8.9-19.6-18.1-28.1-28.4-0.7-0.8-0.7-0.8-1.4-1.6-12.6-14.9-23.5-30.5-31.6-48.4q-0.8-1.7-1.6-3.5c-17.4-39.7-12.4-87.8 2.7-127.4q1.4-3.5 2.9-7.1 0.5-1.3 1.1-2.7c5.6-13.8 12.2-26.9 19.5-39.9q1.9-3.2 3.6-6.6c12.1-22.4 27.6-43.7 44.3-62.9 2.3-2.7 4.5-5.4 6.7-8.2 5.7-6.9 11.9-13.3 18-19.8q3.2-3.3 6.3-6.8c5.3-5.8 10.7-11.4 16.2-17q1.1-1 2.2-2.1c3.9-3.9 7.9-7.6 12.1-11.3 3.4-2.9 6.6-6 9.8-9.1 5.4-5.1 10.9-9.9 16.7-14.6 2.5-2 4.9-4.2 7.3-6.4 4.5-4 9.1-7.7 13.9-11.4q5.8-4.6 11.4-9.3c5.3-4.4 10.6-8.5 16.1-12.6q3-2.2 6-4.4c46.9-34.9 96.9-65.1 148.4-92.8q1.6-0.9 3.3-1.8c37.7-20.1 76.9-37.1 116.5-53q1.7-0.7 3.5-1.4c8.2-3.2 16.5-6.2 24.9-9.1q4.5-1.6 9-3.2c23.2-8.3 46.5-15.9 70.2-22.6q1-0.3 2-0.6c20.2-5.7 40.5-10.3 61-14.4q1.5-0.3 3-0.6 9-1.8 18-3.4 1.6-0.3 3.3-0.6c19.9-3.4 39.7-5.7 59.7-7.6 1.1-0.1 1.1-0.1 2.1-0.2q3.5-0.3 6.9-0.6c1.5-0.1 1.5-0.1 3.1-0.3 8.9-0.7 17.8-0.9 26.7-0.9z"/>
	<path id="Layer" fill-rule="evenodd" class="s1" d="m2185.9 40.8q2.9 0.3 5.9 0.5c49.8 4.6 104.8 18.9 143.2 52.7 1.3 1.1 1.3 1.1 2.6 2.2q3.7 3.4 7.4 6.8 1.1 1 2.2 2c27.1 25.7 42.6 62.7 48.8 99q0.3 1.3 0.6 2.7c2.2 16.9 0.3 34.6-2.6 51.3-0.2 1.1-0.2 1.1-0.4 2.2-4.7 27.4-18.3 55.2-32.6 78.8q-0.5 0.9-1.1 1.9c-15.2 25.3-34 48.3-53.9 70.1q-1.2 1.3-2.4 2.7c-6.8 7.5-13.8 14.6-20.9 21.7q-0.7 0.7-1.4 1.4c-5 5.1-10.1 10-15.5 14.7-2.6 2.2-5.1 4.5-7.6 6.9-4.6 4.2-9.3 8.2-14.1 12.1q-3.5 2.8-6.9 5.7c-10.4 8.7-21.2 16.9-32.2 24.8q-1.1 0.8-2.2 1.6c-11.3 8.2-23 15.9-34.8 23.4q-1.2 0.8-2.5 1.6c-50.9 32.5-105.9 56.3-162.8 76.1q-7.8 2.7-15.6 5.5c-18.7 6.6-37.5 13-56.5 19q-2.5 0.9-5.1 1.7c-1.3 0.4-1.3 0.4-2.5 0.8q-7.2 2.3-14.2 4.9c-5.5 2-11 3.7-16.6 5.3-11.4 3.3-22.7 7-34.1 10.5q-3.5 1.2-7.1 2.3-3.4 1.1-6.9 2.2-1.7 0.5-3.4 1-7.7 2.5-15.3 4.9-1.3 0.4-2.6 0.8-2.4 0.8-4.7 1.5c-6 1.9-12.2 3.5-18.3 5-4.8 1.1-9.5 2.5-14.1 3.8q-4.9 1.5-9.9 2.8-4.6 1.3-9.1 2.6-2.9 0.8-5.7 1.5-4.9 1.4-9.8 2.8-1.5 0.4-3.1 0.8c-7.3 2.1-12.8 4.7-17.9 10.6q-0.8 1-1.7 2c-2.1 2.8-3.3 5.1-3.9 8.5 0.6 3.6 2.4 4.4 5.4 6.5 2.3 1.2 4.6 2.4 6.9 3.5 25.8 12.6 50.1 27.7 74.5 42.9q7 4.4 14.1 8.7 1.3 0.8 2.7 1.7c1.2 0.7 1.2 0.7 2.5 1.5 1 0.7 1 0.7 2.1 1.4q1.1 0.6 2.2 1.3 1.1 0.8 2.2 1.6c4 2 7.5 1.8 11.9 1.7q1.3 0 2.7 0c18.5-0.1 37-0.3 55.6-0.5q1 0 2.1-0.1 4.3 0 8.7-0.1c26.9-0.4 53.8-0.7 80.7-0.8q1.1-0.1 2.2-0.1 9.9 0 19.9-0.1 92.9-0.5 185.9-1.9c1-0.1 1-0.1 2.1-0.1q10.7-0.1 21.4-0.3c11.2-0.2 22.4-0.4 33.6-0.3q0.3-1.1 0.6-2.2c1.9-7.4 4.3-14.5 6.9-21.7q0.6-1.8 1.3-3.7c4.5-12.4 9.3-24.7 14.2-36.9q1.1-2.7 2-5.5-0.5 0.7-1.1 1.4c-37.4 48.8-37.4 48.8-53.2 50.9-4.6 0.3-7.9 0.1-11.6-2.7-5.2-5.3-7.3-11.7-7.5-19.1q0.2-3.3 0.4-6.5 0.1-1 0.1-2c1.4-17.5 6.2-33.5 11.9-50q-2 2-4.1 4-1.1 1.1-2.2 2.3c-2.1 2.1-4.1 4.3-6 6.5-3.7 4.3-7.6 8.3-11.6 12.3q-1 1-2.1 2c-6.3 6.3-12.9 12.2-20.1 17.7q-1.5 1.1-3 2.2c-6.7 4.6-11.8 6-19.9 5-4.5-2-5.6-5.1-7.3-9.5-1.2-3.5-1.7-5.7-1.7-9.5-4.5 2.3-7.3 5.4-10.4 9.3-4.6 5.5-9.5 10.8-14.6 16-1 0.9-1 0.9-1.9 1.9q-0.9 0.9-1.9 1.8-0.7 0.8-1.6 1.6c-4.5 3.8-8.8 3.9-14.6 3.8-6.1-0.8-9.6-3.7-13.4-8.4-3.2-6-3.9-10.4-3.9-17.1q0-1.2 0-2.4c0-6.3 1-12.3 2.3-18.5-1.2 1.2-1.2 1.2-2.4 2.4q-4.5 4.6-9 9.1-1.9 1.9-3.8 3.9c-7.6 7.7-15.2 15-23.8 21.6q-0.9 0.7-1.9 1.4c-11.2 8.4-24.6 16.7-39.1 14.6-8.4-2.8-13.4-7.6-17.8-15.1-5.6-13.5-2.4-29.8 2.8-42.9 2.4-5.5 5.1-10.8 8-16q0.9-1.7 1.9-3.4c9.2-15.8 23.2-33.1 41.1-39.3 6.1-1 12.6-1.1 18.6 0.9 3.5 2.6 6 4.5 6.8 9 0.7 15.6-9.7 29.8-19.7 41-8.6 9.1-19.9 15.3-32.3 17.1-3.5 0.4-3.5 0.4-6.4 1.7-2.4 3.5-3.3 6.9-4 11q-0.3 1-0.6 2c-1 4.8-1.4 10.4 0.4 15 1.5 2.3 2.8 3.8 5.2 5 15.7 1.8 31.1-10.1 42.7-19.3q1.7-1.4 3.3-2.7 0.8-0.6 1.6-1.3c8.9-7.3 17.4-15.1 25.7-23.1q2.1-1.9 4.2-3.8c4.8-4.4 7.9-9.5 11.1-15.2 3.3-5.6 7.1-10.7 11.4-15.6 0.8-0.9 0.8-0.9 1.6-1.8 8.2-9.1 20.3-16.7 32.6-17.5 10.4-0.4 19 0.5 27.9 6.4 2.5 3.8 2.6 7.1 2.8 11.6-0.2 2.3-0.2 2.3 1.1 3.3 0.8 4.6 0.8 8.5-1.4 12.6-2.2 3.2-4.6 6.2-7 9.1-4.3 5.5-5.8 11.7-7.6 18.3q-0.6 1.8-1.3 3.6c-1 4.8-1.4 9.6-0.7 14.4 1.4 1.8 1.4 1.8 3 3 9.4-2.2 16.7-9.4 23.6-15.8q3.2-2.9 6.5-5.8c3.5-3 6.8-6.3 10-9.6 1.9-1.8 1.9-1.8 5-4.3 3-2.6 5.5-5.4 8.1-8.5 1.6-1.8 3.3-3.5 5.1-5.2 8.7-8.7 14.8-17.9 19.3-29.4q1.5-4 3.2-8 0.8-2.1 1.6-4.1c3.1-7.5 6.3-14.8 9.7-22.2 0.8-1.8 0.8-1.8 1.6-3.6q0.7-1.6 1.5-3.4 0.7-1.5 1.5-3.2 1.2-2.7 2.5-5.5c1.8-3.9 3.2-7.4 3.8-11.7 0.6-3.3 0.9-4.6 3-7.3 2-1.4 2-1.4 4-1.4 0.4-1.2 0.4-1.2 0.8-2.5 1.4-4 3.2-7.8 5.1-11.6q0.6-1.1 1.2-2.3 1.8-3.8 3.7-7.5 0.7-1.3 1.3-2.6c6.5-12.9 13.2-25.5 20.4-37.9 2-3.5 3.9-7 5.8-10.6 7.4-13.7 15.4-27 23.6-40.3q1.6-2.5 3.1-5c9.7-15.7 19.6-31.1 30.7-45.8q0.8-1 1.6-2.1c12.3-16 12.3-16 19.9-17.1 4.7-0.2 8.1 0.2 11.8 3.3 2.6 3.5 2.3 6.8 2 11-1.1 3.3-2.6 6.4-4.2 9.5q-0.7 1.4-1.3 2.8c-4.9 9.9-10.4 19.4-15.9 29q-2.2 3.7-4.3 7.4c-6.5 11.4-13.3 22.5-20.1 33.7q-0.5 0.9-1.1 1.8-0.5 0.9-1 1.8-4.7 7.6-9.2 15.3c-7.9 13.1-16 26-24.2 38.9q-0.8 1.2-1.6 2.5-1.4 2.2-2.8 4.4c-4.6 7.3-8.9 14.6-13.3 21.9 22.3-0.5 22.3-0.5 45-1 0.7-2 1.3-4 2-6q1.6-3.5 3.4-7 0.5-0.9 1-2 1.7-3.2 3.3-6.4 0.6-1.1 1.2-2.2c6.5-12.6 13.3-24.8 20.6-36.9q2-3.3 3.9-6.6c4.1-7.3 8.8-14.1 13.7-20.9q0.9-1.2 1.8-2.4c10.6-14.3 10.6-14.3 17.8-16.4 4.2-0.3 6.6 0.8 10.3 2.8 3.3 3.7 3.6 6.4 3.5 11.2-0.9 5.3-3.7 9.5-6.4 14.1q-0.9 1.5-1.8 3-6.3 10.6-13.1 20.8c-2.5 3.8-4.9 7.7-7.3 11.5-5.4 8.6-10.9 17.1-16.7 25.4q-0.7 1.1-1.5 2.2-1.4 2-2.8 4.1-0.7 1-1.4 1.9-0.6 0.9-1.2 1.7c-1.9 3-3.6 6-5.3 9.1q1.3 0 2.6 0 12.1 0 24.2-0.1 6.2 0 12.4 0c16 0 32.1 0 48.1 0.4q1.6 0 3.2 0.1c14.4 0.5 14.4 0.5 18.5 4.6 0.5 5.3 0.5 5.3-1.1 7.8-2.6 1.6-4.9 1.9-7.9 2.2q-1-0.5-2-1 0-2.5 0-5c-15.5-1.1-31-1.2-46.5-1.2q-4.2 0-8.5 0c-9.3 0-18.7 0-28 0.2q-1.7 0-3.5 0.1-4.8 0.1-9.6 0.4-1.4 0.1-2.8 0.1c-3.7 0.3-6.2 0.5-8.9 3.1-1.6 2-2.9 4.1-4.2 6.3-0.8 1.4-0.8 1.4-1.7 2.9q-0.7 1.2-1.3 2.6-0.8 1.4-1.5 2.9c-0.8 1.5-0.8 1.5-1.6 3q-0.7 1.4-1.5 2.9-1.5 3-3 5.9-1.4 2.7-2.9 5.5c-2.8 5.3-4.2 9.6-4.4 15.7-0.9 10.4-3.8 19.8-7.1 29.6-0.5 1.4-0.5 1.4-0.9 2.8-13.4 39.5-32.3 77.1-51.1 114.2 31.6-0.4 63.2-1 94.7-1.9q3.5-0.1 7-0.2 5.5-0.2 11-0.3 3-0.1 6-0.2c6.8-0.2 13.5-0.6 20.3-1.4 7.9-19 7.9-19 15.1-38.2q0.4-1.2 0.8-2.4c2.1-6 4.1-11.9 4.1-18.4-2.2-0.6-2.2-0.6-5 0-2.7 2-4.9 4.5-7.1 6.9q-2 2.1-4 4.2-1 1-2 2c-9.4 9.4-20.7 17.5-32.9 22.9q-1.1 0.5-2.1 1c-7.5 2.9-16.1 3.4-23.8 1.2-7.9-3.6-13.1-9.3-16.5-17.2-6.1-19.1 1.9-39.9 10.4-57 3.4-6.2 7-11.9 13-16 3.9-0.9 7.2-0.4 10.8 1.3 3.9 3 5.1 4.5 5.6 9.5 0.2 3.7-1.4 6.2-3.3 9.3-8.6 14.5-14.5 28.8-13.1 45.9q0.5 0.5 1 1c12.3-1 22.1-9.1 31-17q0.7-0.6 1.5-1.3c7-6.2 13.4-12.6 19.5-19.7q1.4-1.6 2.8-3.1c8.6-9.9 16.6-20.3 24.4-30.9q0.9-1.2 1.9-2.4 0.7-1 1.4-2c2.3-2.5 4.4-3.5 7.6-3.8 4.4 0.3 7.3 1 10.5 4.1 5.2 7.4 2 18 0.6 26.4-0.2 1.5-0.2 1.5-0.4 3.1-2.1 13-6.3 25.5-10.4 38-0.3 0.9-0.3 0.9-0.7 1.9-3.9 11.9-8.5 23.5-13.5 34.9-2.1 4.9-4.2 9.9-6.2 14.8q1.3-1.3 2.6-2.7c7.3-7.6 14.9-14.4 23.3-20.7q3.5-2.7 7-5.4c55.6-43.4 123.9-70.1 193.9-77.8q3.3-0.4 6.6-0.8c61.1-7.4 126.8-4.3 185.6 14.4 1.5 0.5 1.5 0.5 2.9 0.9 17.6 5.7 33.5 11.9 45.1 27.1 1.7 3.5 1.5 7.2 1 11-6 12.3-20.3 17.5-32.5 21.7-16.1 5.5-32.4 9.3-49.2 12q-1.3 0.3-2.8 0.5-1.2 0.2-2.5 0.4c-2.1 0.3-2.1 0.3-4 1.4q-2 0.4-4.1 0.7-1.3 0.1-2.6 0.3c-1.4 0.2-1.4 0.2-2.9 0.4q-1.5 0.2-3 0.4-5 0.7-10.1 1.4-1.7 0.2-3.5 0.5c-41.2 5.4-82.5 9-124 11.8q-8.6 0.5-17.2 1.2c-27.1 1.9-54.3 3.5-81.4 5q-8.9 0.5-17.7 0.9c-27 1.5-54 2.8-81 3.8-1.5 0-1.5 0-3.1 0.1q-2.9 0.1-5.8 0.2-6.5 0.2-13.1 0.7-1.1 0.1-2.4 0.2c-3.4 0.6-5.2 2.5-7.6 5q-2.2 2.2-4.5 4.4-1 0-2 0 0 1 0 2 0.9 0 1.9 0c38.4-0.2 76.8 0.2 115.2 1.2q6.2 0.1 12.4 0.2c81 2 162 4.2 285.7 9.5q4.2 0.2 8.3 0.3c46.2 2.1 92.4 4.5 138.5 7.8q1.9 0.1 3.9 0.3c207.8 15.1 207.8 15.1 250.1 42.7q1 0.6 2.1 1.3c4.7 3 7.9 6.3 9.5 11.8 1 5.9-0.3 9.9-3.6 14.9-1 1-1 1-3.6 1.1q-1.2-0.1-2.4-0.1c0.9-6.9 0.9-6.9 2-8 0.6-5.7 0.6-5.7-1.9-10.6-47.8-36.3-132.5-35.8-190.1-41.4q-1.7-0.2-3.5-0.3c-90.8-8.9-181.8-14.7-630.5-24.7q-0.5 1.4-0.9 2.8c-1 2.9-2.2 5.5-3.6 8.2q-0.8 1.4-1.5 2.8-0.8 1.5-1.7 3-0.8 1.6-1.7 3.2c-6.5 11.9-13.5 23.5-20.6 35q-0.7 1.2-1.5 2.5c-13.6 22-28 43.7-43.5 64.5-0.8 1-0.8 1-1.5 2.1q-10.5 14.1-21.5 27.9c-0.8 1-0.8 1-1.6 2-6 7.5-12 14.8-18.4 21.9q-2.7 2.9-5.4 6c-11.5 13.2-23.2 25.9-37.6 36.1q-1.5 1.1-3.1 2.2c-6.1 4-11 5.8-18.3 5.4-3.8-0.9-5.4-2.4-7.6-5.6-2.8-4.9-2.7-9.5-2-15 6.3-22.7 23.2-42.3 38-60q1.3-1.6 2.6-3.1c5.5-6.6 11.1-12.9 16.9-19.2q3-3.3 5.9-6.6c4.5-5.2 9.2-10.2 13.9-15.3q1.7-1.8 3.5-3.7c6-6.5 12-13 18.4-19.2 1.7-1.8 3.2-3.5 4.8-5.4 4.9-5.6 10.1-10.8 15.3-16q1.7-1.6 3.3-3.3 3.4-3.4 6.9-6.8 4.3-4.3 8.6-8.7 3.4-3.4 6.8-6.7 1.6-1.6 3.2-3.2c5.3-5.3 10.5-10.5 16.2-15.3 4.2-3.7 7.2-7.5 9.7-12.5-45.5 0-91.1 0-138 0-0.7 2-1.3 4-2 6-1.3 3.5-2.7 6.9-4.2 10.3-0.5 1.4-0.5 1.4-1.1 2.8-1.1 2.5-2.1 4.7-3.7 6.9-3.8 1.1-3.8 1.1-7 1-3.1-3.4-3.4-5.7-3.3-10.2q0-1.6 0-3.2c0.4-4.3 1.4-8.4 2.3-12.6-128.4 0-256.7 0-389 0 12.2 8.2 24.4 16.5 37 25 13.7 9.5 13.7 9.5 20.5 14.2q3.8 2.7 7.7 5.4 14.4 10.1 28.6 20.4 3.9 2.8 7.7 5.5c8.9 6.3 17.6 12.9 26.3 19.5q6.8 5.2 13.7 10.4 10.3 7.7 20.5 15.6 0.8 0.6 1.7 1.3c8.9 6.9 17.7 14.1 26.5 21.2q2.4 2 4.8 3.9c10.1 8.2 19.9 16.7 29.8 25.1q5.8 5 11.7 10 3.3 2.7 6.5 5.5 0.9 0.7 1.7 1.5c7.3 6.1 14.4 12.4 21.4 18.8q3.4 3.1 6.8 6.1c12 10.5 23.4 21.8 34.7 33.1q0.9 0.8 1.7 1.7c5.6 5.6 11.1 11.1 16.2 17.1 2.2 2.6 4.6 5 6.9 7.5 23.1 25.2 52.8 61.3 53.6 97.2-1.9-0.2-1.9-0.2-4-1-1.2-2.1-1.2-2.1-2.2-5-5.6-14.3-13.3-26.9-22.8-39-1.2-1.5-1.2-1.5-2.3-3-4.5-5.6-9.3-10.9-14.1-16.2q-2.1-2.2-4-4.4c-5.4-6.4-11.3-12.3-17.2-18.2q-2.7-2.7-5.4-5.4c-5.3-5.3-10.6-10.5-16.3-15.4-2.6-2.2-5-4.5-7.5-6.8-4.6-4.2-9.3-8.2-14.2-12.2-3.6-2.9-7-5.9-10.5-8.9-5.1-4.4-10.2-8.8-15.5-13.1q-5.8-4.7-11.5-9.4c-14.9-12.3-29.8-24.5-45.2-36.1q-6.9-5.3-13.7-10.8c-7-5.7-14.3-11.1-21.6-16.5-5.1-3.6-10.1-7.4-15.1-11.2-27.6-20.7-56.1-40.4-84.7-59.9q-3.2-2.2-6.4-4.4c-21.4-14.7-42.9-29.2-64.8-43.1q-1.1-0.7-2.2-1.4-1.1-0.7-2.3-1.5-1.1-0.7-2.2-1.4-2.4-1.5-4.8-3c-4.2-2.5-8.1-5.1-11.9-8.1-14.6-10.8-28.3-11.4-45.8-11.1-3.7 0-7.4 0-11.1 0q-10.4 0-20.9 0.1c-7.9 0.1-15.9 0.1-23.8 0.1q-24.5 0-49 0.3-0.3 0.9-0.6 1.9-0.4 1.2-0.8 2.4-0.4 1.2-0.8 2.4c-1 3-2.3 5.7-3.8 8.5q-0.8 1.7-1.7 3.4-0.9 1.7-1.8 3.5-1.9 3.8-3.8 7.6-0.5 0.9-1 1.9c-6 12-11.7 24.2-17.4 36.4q-0.5 1-1 2.1c-2.1 4.4-2.1 4.4-4.1 8.7-3.7 7.8-7.4 15.6-11.1 23.3q-0.5 1-1 2-2.2 4.5-4.4 9.1c-2.8 5.7-5.5 11.4-8.1 17.2q-0.7 1.7-1.4 3.4c-3.4 9.4-0.9 18.1 1.9 27.3 3.4 11.7 4.1 23.3 4.1 35.5q0.1 1.4 0.1 2.8c-0.1 13.1-2.5 25.6-5.9 38.2q-0.3 1-0.6 2c-3.2 11.8-7 23.2-11.8 34.4q-0.6 1.3-1.1 2.7c-13.1 30.7-33 67.6-60.9 87.3-7.9 3.1-17.2 3.6-25.1 0.3-4.3-2.2-6.8-5-8.9-9.3-0.6-8.3 0.5-15.9 2.5-24 0.4-1.7 0.4-1.7 0.8-3.4 6-24.6 13-49.4 22.6-72.9q1.9-4.7 3.7-9.5c11.7-29.9 23.9-59.7 37-89.1 7.5-15.8 7.5-15.8 6-32.7-5.5-12.5-14-23.8-22.6-34.4q-1.1-1.4-2.3-2.9c-6.2-7.7-13.2-14.8-20.2-21.9q-0.7-0.7-1.5-1.4c-5.9-6-12-11.6-18.5-16.8-2.5-2-4.9-4.2-7.3-6.4-4.4-4-8.9-7.6-13.6-11.2-5.3-4.1-10.4-8.3-15.6-12.5q-1.8-1.6-3.7-3c-2.3-1.9-2.3-1.9-4.5-4.2-9.9-9.1-20.7-7.9-33.5-7.6q-3.9 0-7.7 0-8.5 0-17 0.1-12.9 0.2-25.8 0.2-22.4 0.1-44.9 0.3-34 0.3-68 0.5-1.2 0-2.4 0-11.1 0.1-22.2 0.2-81.1 0.4-162.1 1-2.4 0-4.8 0-1.1 0-2.3 0-8.1 0.1-16.1 0.1-9.8 0.1-19.5 0.2-5 0-9.9 0-5.4 0.1-10.7 0.1c-1.6 0-1.6 0-3.1 0q-4.4 0.1-8.8 0.2-1.7 0-3.5 0.1-1.7 0-3.5 0.1-1.6 0.1-3.2 0.1c-3.7 0.9-4.5 2.3-6.5 5.5q-1.4 3.1-2.8 6.3-1.6 3.5-3.2 6.9-0.8 1.8-1.7 3.6c-2.4 5.2-5.3 10.2-8.2 15.2q-0.8 1.4-1.6 2.9c-22.3 39-47 76.7-75.8 111.3q-0.8 0.9-1.6 1.9c-16.8 20.1-38 45.3-65.7 48.5-3.3-0.5-5.1-1.4-7.7-3.4-1.9-3-2.3-5.5-2.4-9.1q0-1.2-0.1-2.6c1.3-9.3 5.9-17.1 11-24.9q0.9-1.4 1.9-2.9c13.4-20.5 28.2-39.8 44.2-58.3q4.5-5.3 9-10.8c4.1-5.1 8.4-9.9 12.8-14.6 4.2-4.6 8.2-9.2 12.2-13.9 6-7.1 12.2-13.9 18.5-20.7q5.2-5.5 10.1-11.1c3.5-4 7.1-7.8 10.7-11.7q6-6.5 11.9-13 2.1-2.3 4.2-4.4c-40.5-0.1-81 0-121.4 0.4-1.5 0.1-1.5 0.1-2.9 0.1q-20.8 0.2-41.6 0.5-25.2 0.3-50.5 0.6c-1.4 0-1.4 0-2.9 0-37.2 0.4-74.4 0.5-111.7 0.4-0.3 0.9-0.3 0.9-0.6 1.9q-0.4 1.2-0.8 2.4-0.4 1.2-0.8 2.5c-0.8 2.3-1.7 4.5-2.9 6.6q-0.4 1-0.9 2c-1 1.6-1 1.6-3 3.6-2.7 0.3-4.3 0.4-6.6-1-2.1-3.1-1.7-6.2-1.6-9.7q0-1 0.1-2.1 0-2.6 0.1-5.2-1 0-2.1 0-25.4 0.6-50.7 1.2-12.3 0.2-24.6 0.5-10.7 0.3-21.4 0.5-5.7 0.1-11.3 0.2-12.2 0.3-24.3 0.5-5.2 0.1-10.3 0.3-3 0-6 0.1-1.3 0-2.7 0.1c-4.1 0-6.1-0.1-9.6-2.3-2.6-2.7-3-3.6-3.3-7.4 0.3-4.3 1.3-5.7 4.3-8.7 3.1-1.5 6.4-1.4 9.8-1.5q1.2-0.1 2.4-0.2c9.7-0.4 19.4-0.7 29.1-0.9q1.5 0 3 0c24.3-0.5 48.5-0.5 72.7-0.5q8.7 0 17.4 0.1 16.8 0 33.6 0 0.2-1.6 0.5-3.3c0.4-3.2 1.1-6 2.2-9.1q0.5-1.4 1-3 0.6-1.6 1.2-3.2 0.6-1.7 1.2-3.5c8-22.5 16.7-44.8 25.9-66.9q-4.4 4.3-8.6 8.7c-14.1 14.6-14.1 14.6-23.4 19.3q-1 0.5-2.1 1.1c-5.4 2.4-11.1 2.7-16.9 1.9-7.6-3.7-10.4-9.4-13.2-17-1-3.7-1.4-7.2-1.8-11q-0.9 1.3-1.8 2.6c-6 8.5-12.3 16.6-19.2 24.4-1.2 1.4-1.2 1.4-2.4 2.8-6.8 7.3-16.1 14.3-26.5 14.9-6.6-0.7-11.4-3.6-15.9-8.3-7.3-9.1-7.1-20.3-6-31.4 2.7-21.8 11.9-51.8 28.8-66.9 4.3-3 5.9-2.7 11-2.1 3.6 1.6 4.8 2.7 7 6 0.9 7.2-1.2 11-5 17-12.9 20.5-21.1 40.5-20 65 25.2-16.1 41.4-44.4 57.2-69.2 4.3-6.7 8.8-13.6 14.8-18.8 4.1-0.7 5.8-0.1 9.4 2 2.6 3 2.6 3 2.9 6.6-1 4.8-3.7 8.4-6.3 12.3-5.6 8.7-9.9 18.3-13 28.1q-0.4 1.4-0.9 2.9c-2.5 8.7-4.3 18.4-0.2 26.9 1.7 3.2 1.7 3.2 4.1 4.2 10.5 0.9 18.4-4 26.3-10.5 13.7-11.9 28.2-26 34.9-43.1 2.9-7.2 5.9-14.2 9.1-21.2q3.4-7.6 6.8-15.2 0.8-1.8 1.6-3.6 1.6-3.6 3.1-7.1c2.1-4.7 4.2-9.3 6.5-13.9 1.9-3.3 1.9-3.3 1.9-7-2-5.6-5.4-7.8-10.4-10.7-11.9-5.3-26.8-3.6-39-0.4-4 1-7.8 1.7-11.8 0.7-3.6-3-4.8-4.9-5.6-9.6 0.8-4.4 2.2-5.6 5.6-8.4 3.2-0.9 3.2-0.9 6.9-1.3q1-0.1 2-0.2c7-0.7 13.9-0.7 21-0.6q2 0 4 0 8.5-0.1 17.1 0 5.2 0.1 10.5 0 2.9 0 5.9 0.1c6.2 0.1 6.2 0.1 11.5-2.7 1.3-2 2.2-4 3.1-6.3q0.7-1.4 1.5-2.7c0.6-1.3 0.6-1.3 1.2-2.5q0.6-1.4 1.3-2.9 0.8-1.4 1.5-3c5.6-11.2 11.6-22.2 17.9-33.1q2.4-4.2 4.8-8.5c23.4-40.7 23.4-40.7 36.8-46.3 4-0.5 5.7-0.2 9.2 1.8 2.7 2.1 4.5 3.7 5.2 7.1 0.1 6.5-1.7 10.8-4.8 16.3-0.7 1.2-0.7 1.2-1.4 2.5-3.7 6.7-7.8 13.2-12.1 19.6-1.5 2.3-2.9 4.6-4.4 7-5 8.2-10.4 16.3-15.8 24.4-0.5 0.8-0.5 0.8-1.1 1.7-3.4 5.1-6.8 10.2-10.3 15.2q-0.6 0.9-1.3 1.8-1.7 2.5-3.4 4.9c-1.9 2.6-1.9 2.6-2.8 5.7q1.3 0 2.6 0 12.1 0 24.2-0.1 6.2 0 12.4 0c16 0 32.1 0 48.1 0.4q1.6 0 3.2 0.1c14.4 0.5 14.4 0.5 18.5 4.6 0.5 5.2 0.5 5.2-1.1 7.8-2.9 1.8-5.5 2-8.9 2.2q-1-1-2-2 0-2 0-4c-9.8-0.8-19.6-1.2-29.4-1.2q-2.2 0-4.4 0-4.5 0-9 0-4.6 0-9.2 0-15-0.1-30 0.2c-1.8 0-1.8 0-3.6 0.1q-4.8 0.1-9.6 0.3-1.4 0.1-2.8 0.1c-3.8 0.3-6.1 0.7-9 3.4-1.9 2.3-3.5 4.6-5 7.1q-0.6 0.9-1.2 1.8c-2.5 4.1-4.7 8.4-7 12.7q-0.5 1-1.1 2c-6.3 12.2-9.1 23.4-10.4 37-0.6 5.4-2.5 10.4-4.3 15.5q-0.8 2.4-1.6 4.8c-5.4 16.5-12.3 32.4-19.4 48.2q-0.7 1.7-1.5 3.4c-6.5 14.5-13.5 28.7-20.6 42.9q-5.5 10.8-10.6 21.7-0.7 1.3-1.3 2.6-1.5 3.2-3 6.4 1.4 0 2.9 0 46.8-0.3 93.5-0.5 1.8 0 3.6 0c62.2-0.3 124.4-0.6 186.6-0.6q1 0 2 0 24.7 0.1 49.4 0.1 0.5-1.4 0.9-2.8c1.1-3.2 2.4-6.3 3.7-9.4 0.8-1.7 0.8-1.7 1.5-3.5q0.4-0.9 0.8-1.9c6.7-15.3 13-30.5 18.1-46.4q0.6-1.7 1.1-3.6 2-6.2 3.9-12.4 0.5-1.6 1-3.2 1.6-5.4 3.2-10.9c0.6-1.7 0.6-1.7 1.1-3.5q0.5-1.7 1-3.4 0.5-1.5 0.9-3c0.9-3.3 1.4-6.6 1.8-10-1.4 1.4-1.4 1.4-2.8 2.8q-5.1 5.2-10.3 10.4-2.2 2.2-4.4 4.4c-8.2 8.3-16.3 16.3-25.5 23.4q-1 0.7-1.9 1.5c-9.8 7.6-21.2 15.6-34 15.8q-1.5 0-3.1 0c-3.4-0.3-5.2-1.3-8-3.3-6.1-8.5-4.7-20.3-3.3-30.2 1.5-9 4-17.9 6.3-26.8-6.1 5-11.4 10.6-16.8 16.4-3.9 4.2-7.9 8.4-12 12.4-1.9 1.9-3.7 3.9-5.4 5.9-4 4.6-8.3 8.8-12.7 13.1-6 5.9-11.5 11.7-16.3 18.7-2.8 3.8-5.3 7-9.8 8.5-6.8 0.7-6.8 0.7-9.8-1-3.2-2.6-5-4.4-5.5-8.5-0.4-12 3.6-21.7 8.3-32.5q-0.8 0.8-1.6 1.6-2.1 2.1-4.3 4.3-2.3 2.3-4.5 4.6-1.3 1.2-2.6 2.5-0.9 0.9-1.9 1.9c-7.5 7.1-15.4 12.4-26 12.7-5.1-0.3-8.3-0.8-12.1-4.6-6-7.8-7.4-15.3-7-25-3.3 3.1-5.9 6.6-8.4 10.3-10.1 14.3-22.6 31.5-40.8 35.1-6.7 0.6-11.8-2.2-16.8-6.4-9.1-10.8-8.1-23.5-7-37 1.9-12 5.6-24.1 11-35q0.5-1.1 1.1-2.2c11.3-22.7 11.3-22.7 18.9-27.8 5.4-0.4 8.6-0.5 13 3 2.7 4.1 2.6 7.2 2 12-1.2 2.6-2.4 4.6-4 7-12.1 18.4-23 40.4-21 63q1 1 2 2 2.5-1.8 5.1-3.6 1.4-0.9 2.8-2c6.8-5.3 12-11.5 17-18.4q1-1.3 2-2.6c10.1-13.7 19.9-27.6 28.7-42.1 4.2-6.7 8.8-13.9 15.4-18.3 2.9-0.4 2.9-0.4 6 0 3.1 2.3 4.8 3.7 5.4 7.6-0.6 4.8-2.9 8.1-5.5 12.2-5.3 8.8-9.4 17.6-12.9 27.2q-0.5 1.4-1.1 2.9c-3.2 9.8-3.6 22.4 0.1 32.1 5.5 1.8 10.5 2 16-0.2 6.2-3.5 11.6-7.7 16.7-12.7 2.3-2.1 2.3-2.1 4.9-4.1 2.8-2.4 5.1-4.9 7.4-7.7q1.9-2.2 3.9-4.3c5.3-5.6 8.8-11.4 12.2-18.2q0.8-1.6 1.6-3.1c6-11.7 6-11.7 11.1-23.9 1.7-4.6 3.7-6.7 8.2-8.8 4.4-0.1 7 0.7 10.4 3.4 2.8 2.8 3.5 3.6 4 7.4-0.4 14.2-11.5 29.7-17.7 42q-1.7 3.4-3.4 6.8-4.1 8.2-8.3 16.4 1.2-1.2 2.3-2.4 2.6-2.5 5.1-5c5.6-5.5 10.8-11.1 15.8-17.1 8-9.4 16.3-18.6 24.8-27.5q0.9-0.9 1.8-1.9c20.3-21.4 20.3-21.4 31.2-22 3.6 0.4 5 0.9 8.2 2.9 2.2 3.7 2.2 6.8 1.8 11-0.9 3.3-0.9 3.3-2.3 6.6q-0.4 0.9-0.8 1.8c-3 7.2-6.5 14.1-9.9 21.1-3.7 7.7-7.1 15.5-10 23.5q-0.6 1.5-1.1 3.1c-0.9 2.9-1.1 5.2-1 8.3q0 1.3 0 2.6c0.1 1 0.1 1 0.1 2 17.7-0.4 31-10.1 43.8-21.3 2.8-2.3 5.6-4.6 8.4-6.8 8.2-6.7 15.5-14.3 22.8-21.9q0.7-0.8 1.5-1.5c5.7-5.9 7.3-10.5 8.1-18.6 0.7-5 2.8-7.5 6.6-10.8 4.1-1.6 7.6-1.2 11.8-0.1 3.6 2.2 5.5 4.1 7 8 0.5 7.9-1.5 15.7-3.3 23.3q-0.2 1.2-0.5 2.5c-3.4 13.6-8 26.9-12.6 40.1q-1.2 3.5-2.4 7-0.8 2.3-1.6 4.5c-0.3 1.1-0.3 1.1-0.7 2.1-1.2 3.5-2.5 7-3.9 10.5 4.1-0.8 6.3-2 8.8-5.2 3.5-4.1 7.3-8 11.2-11.9q1-0.9 1.9-1.9 4.1-4 8.1-8c9.6-9.4 9.6-9.4 18.6-19.4 1.9-2.2 4-4.1 6.1-6 6.5-6 10.6-12.2 14.7-20 5.4-10.3 13.2-20.9 23.6-26.6 5-1.2 8.6-0.8 13 1.8 2.9 3.2 3.8 5.1 4.6 9.5-1 6.1-5.1 9.4-9.5 13.5-13.8 12.9-27.4 35.6-28.3 54.8q0 4.7 0.2 9.4c5.7-0.5 10.3-1.6 15.4-4.3q1.1-0.5 2.1-1.1c12.5-6.6 23.7-15.5 34.5-24.6q2.7-2.2 5.5-4.4c4.8-4 9.4-8.1 14-12.3q3.1-2.8 6.2-5.5c4-3.5 7.9-7.1 11.7-10.7 1-0.9 1-0.9 2-1.8 2.9-2.7 5.7-5.4 8.4-8.2q1.1-1.3 2.3-2.5 1-1.1 2-2.2c1.9-1.4 1.9-1.4 4.6-1.1q1.2 0.3 2.3 0.7c-1.4 4.2-3.2 6.6-6.3 9.7-1.4 1.3-1.4 1.3-2.7 2.7q-1.5 1.5-3 2.9-1.5 1.5-3 3-3.2 3.2-6.4 6.3-4 4.1-8.1 8.1-3.8 3.9-7.7 7.7-0.8 0.8-1.5 1.5c-5.1 5-10.2 10-15.6 14.7-2.6 2.2-5 4.5-7.5 6.8-5.6 5.1-11.3 9.9-17.2 14.6q-0.8 0.6-1.6 1.3c-21.9 17.4-21.9 17.4-34.9 17.1-4.3-0.7-7.4-2.4-10.5-5.4-6.4-9-7.2-18.4-5.7-29.2 0.6-3.5 1.3-7 2-10.5 0.8-3.2 0.8-3.2 0.7-6.3q-2.5 2.5-5.1 5-0.7 0.7-1.4 1.4c-2.7 2.7-5.2 5.4-7.7 8.3-5.4 6.2-11.3 11.8-17.1 17.5-4.5 4.5-8.9 9.1-13.1 14-3.2 3.7-6.8 7.1-10.4 10.5q-2.6 2.6-5.2 5.3-0.8 0.8-1.7 1.7c-4.9 5.3-7.8 10.8-10.7 17.3q-0.7 1.4-1.4 2.9-1.6 3.6-3.2 7.1c61.5 0.1 122.9-0.1 184.4-0.4q12.2 0 24.3-0.1c74.1-0.4 148.2-0.8 222.3-1.5q-4.1-3.4-8.1-6.7-1.2-0.9-2.3-1.9-6.2-5.1-12.5-10.1c-4.7-3.9-9.1-7.9-13.6-12q-3.1-2.8-6.3-5.5c-13.7-12-27.5-24.7-39.2-38.8q-0.7-0.8-1.4-1.7c-32.3-38.4-49.5-80.8-45.1-131.5 5.5-53.9 31.1-105.4 62.5-148.8q0.8-1.2 1.7-2.3c6.8-9.5 13.7-18.8 21.3-27.7q0.7-0.8 1.4-1.6c5.8-6.9 11.7-13.7 17.8-20.3q3.8-4.1 7.4-8.3c3.2-3.7 6.7-7.1 10.2-10.6 2-2 3.8-4 5.6-6.1 6-7 12.6-13.4 19.6-19.3 2.3-2 4.4-4.1 6.5-6.3 3.4-3.4 6.8-6.6 10.4-9.7 2.4-2 4.6-4.1 6.9-6.2 4.3-3.9 8.8-7.6 13.3-11.2q3.9-3.2 7.6-6.4c5.8-5 11.7-9.7 17.7-14.3q4-3 7.9-6.1c8.5-6.7 17.1-13.2 25.9-19.4q2.7-1.9 5.4-3.8c58.3-41.8 121.9-80.1 188-108.5 3.2-1.3 6.4-2.8 9.5-4.3 8.5-4 17.1-7.8 25.8-11.4q1-0.5 2.1-0.9c9.4-4 18.8-7.9 28.3-11.7 1.4-0.6 1.4-0.6 2.7-1.1 9.6-3.8 19.3-7.1 29-10.5q1.3-0.4 2.6-0.9 7.6-2.6 15.3-5.3 2.6-0.9 5.2-1.8c12.5-4.3 25.1-8.3 37.9-12q1.9-0.6 3.8-1.1 12.1-3.5 24.2-6.9c1.4-0.4 1.4-0.4 2.9-0.8 45.1-12.5 91.5-20.3 138.1-24.2 1-0.1 1-0.1 2.1-0.2 36-3.1 71.8-2.4 107.8 1zm-109.8 22.9q-3.4 0.5-6.9 0.9c-19.5 2.2-38.8 4.9-58.1 8.8q-4.7 0.9-9.4 1.8c-10.6 2.1-21.1 4.3-31.6 6.8q-1.4 0.3-2.9 0.7c-15.6 3.8-31 8.3-46.4 12.9q-1.3 0.4-2.6 0.8c-15.6 4.7-30.9 9.9-46.1 15.5q-4.8 1.7-9.7 3.4c-36.6 12.6-72.5 28-107.4 44.7q-3.3 1.6-6.6 3.1c-11.7 5.6-23.3 11.3-34.7 17.5q-4.6 2.4-9.3 4.9c-38.8 20.5-76.3 43.5-112.4 68.5q-1.2 0.8-2.4 1.6c-10.3 7.3-20.5 14.7-30.6 22.4q-0.9 0.7-1.8 1.4-10.7 8.1-21.2 16.6-1.3 1-2.6 2.1c-6.6 5.4-13.2 10.9-19.7 16.5q-2.5 2.1-5.1 4.2c-7.8 6.6-15.3 13.5-22.7 20.6q-4.4 4-8.8 8.1c-5.8 5.2-11.4 10.7-17 16.3q-1 1-2.1 2.1c-3.9 3.9-7.7 7.9-11.3 12.2-2.8 3.1-5.7 6.2-8.6 9.2-5.6 6-10.9 12.2-16.1 18.7q-1.5 1.8-3 3.6c-8.1 9.8-15.7 20-23 30.4q-0.7 1-1.4 1.9c-6.6 9.6-12.5 19.5-18.2 29.6q-1.4 2.5-2.8 5c-12.4 21.5-23.2 44.5-29.6 68.5q-0.3 1-0.6 2c-7.8 27.9-9.1 57.8-2.4 86q0.3 1.5 0.7 3c6.8 28.9 24.5 53.1 44.2 74.7q2.7 3 5.3 6.1c7.3 8.4 15.4 16.4 23.9 23.6 2.3 1.9 4.5 3.9 6.7 6 4.3 3.9 8.8 7.6 13.3 11.2 4.2 3.5 8.3 7 12.5 10.5q0.8 0.7 1.6 1.4c1.8 1.5 1.8 1.5 3.7 3.5 6.7 6.6 12.6 7 21.6 7q2.7 0 5.4-0.1 2.8 0 5.7 0 7.7 0 15.4-0.1 8.1-0.1 16.1-0.1 15.3 0 30.6-0.1 17.4-0.1 34.8-0.2 35.7-0.1 71.5-0.4 4.6-9.5 9.3-19 1.6-3.2 3.1-6.4 2.3-4.6 4.6-9.3 0.7-1.4 1.4-2.9 0.7-1.3 1.4-2.7 0.5-1.2 1.1-2.4c2-4.3 3.4-7.5 3.1-12.3-6.5-3.5-13-5.8-20-8q-2.3-0.8-4.5-1.6c-12.6-4.1-23.5-5.2-36.6-3.5q-1 0-1.9 0.1c-1.6-1.6-1.3-3.3-1.4-5.6 0.1-5.6 1.6-9.3 5.4-13.4 8.1-6.5 16.8-8 27-7 3.6 0.6 7.2 1.3 10.7 2 13.1 2.6 25.2 4.4 37.3-2.1 7.3-4.9 10.7-12.2 14.5-19.9q0.5-1 1.1-2.1c4.7-9.5 9.4-19 14-28.6q0.7-1.5 1.5-3 9.7-19.7 19.2-39.6c4-8.4 8.2-16.7 12.4-25 3.8-7.7 7.5-15.4 11.2-23.2 3.6-7.4 7.2-14.7 10.9-22.1q4.8-9.5 9.3-19.1c5.3-11.2 10.9-22.4 16.4-33.5q2.3-4.6 4.6-9.2c5-9.9 10-19.8 15.2-29.6 4.8-9.1 9.5-18.3 14.2-27.5 5.6-11 11.2-21.9 17-32.8q5.4-10.3 10.7-20.6 8.5-16.5 17.3-32.8 6.2-11.5 12.1-23.1c4.7-9.1 9.7-18.1 14.7-27q5-8.7 9.6-17.6c5.4-10.4 11.3-20.4 17.2-30.4q3.8-6.5 7.5-13 10.6-18.5 21.8-36.7 2.2-3.5 4.4-7.1c4.8-7.7 9.7-15.2 15.2-22.4q1-1.4 2-2.9c2.9-3.9 4.9-6.6 9.4-8.7 5.4 0.9 8.8 3.9 12.6 7.6 2.7 4.1 2.6 7.2 2 12-0.9 2.8-2.2 5.2-3.7 7.7q-0.6 1.1-1.2 2.2-2 3.6-4.1 7.1-0.7 1.2-1.4 2.5-4.8 8.2-9.7 16.4c-20.6 34.5-40 69.8-58.5 105.5q-3.1 5.9-6.3 11.9-6.1 11.6-12.2 23.4-0.9 1.6-1.7 3.3-4.5 8.7-8.9 17.4-0.5 1.1-1.1 2.1-1.6 3.3-3.2 6.5-0.5 1-1 2-2.4 4.8-4.8 9.7-3.8 7.6-7.6 15.2-2.9 5.8-5.8 11.5-2.8 5.6-5.6 11.3-1 2.1-2.1 4.2c-3.3 6.7-6.7 13.5-10.3 20.1-8.3 15.7-16.2 31.6-24.1 47.5q-3.3 6.7-6.7 13.5-8.5 17-17.1 34.1-9.2 18.5-18.4 37-4 7.9-8 15.9-2.4 5-4.9 10-1.2 2.3-2.3 4.5c-4.3 8.6-8.7 17.2-13.2 25.7-3 5.6-5.8 11.2-8.6 16.9q-2.7 5.2-5.3 10.5-2.1 4.1-4.2 8.2-1 2.1-2 4.1-1.5 3-3 5.9-0.9 1.7-1.8 3.5c-1.3 2.5-1.3 2.5-1.2 4.7 5.6 0.3 9.9-0.6 15.2-2.4q1.1-0.4 2.3-0.8 3.9-1.3 7.7-2.5 2.7-0.9 5.4-1.8 6.9-2.3 13.8-4.6 5.9-2 11.7-3.9 6.5-2.2 13.1-4.4 12.5-4.2 25-8.3 1.5-0.4 2.9-0.9 7-2.3 14-4.5c8.6-2.8 17.1-5.6 25.5-8.8 5.4-2.1 10.8-4 16.3-5.7 5-1.7 10.1-3.3 15-5.4 6.5-2.6 13.3-4.7 20-6.9 6.1-2 12-4.2 17.9-6.8 3.6-1.4 7.2-2.8 10.8-4.2q1-0.4 2.1-0.8 2-0.8 4.1-1.5c42.5-16.1 84-34.9 123.2-57.8q1.6-0.9 3.2-1.9c23.6-13.7 46.6-28.2 68.8-44.1q2.4-1.7 4.7-3.4c9.3-6.6 18.4-13.5 27.3-20.6 1.3-1.1 1.3-1.1 2.7-2.1q3.7-3 7.3-5.9 1.3-1 2.6-2.1c10.8-8.8 21.4-17.9 31.7-27.4q3.4-3.2 6.9-6.2c3.5-3 6.6-6.1 9.8-9.4 1.8-1.7 3.7-3.4 5.6-5 8.5-7.4 16.6-15.5 23.8-24.1 1.8-2 3.6-3.8 5.5-5.6 3.9-3.9 7.3-8 10.7-12.2q3.1-3.8 6.3-7.5c12.1-14 22.2-29.4 31.7-45.2q1.7-2.8 3.5-5.6c5.1-8.4 9-17.5 12.9-26.5 1.2-2.6 2.4-5.2 3.7-7.8 3.6-7.8 5.9-16.1 8.3-24.4q0.3-1 0.6-2.1c10.9-37.6 9.7-79.7-9-114.6-18-31.5-54-47.7-87.6-57.3q-1.8-0.6-3.8-1.1c-38.2-11.3-77.5-14.3-117.2-14.2q-3.5 0-7 0c-21.7 0-43.3 0.4-64.9 3z"/>
	<path id="Layer" fill-rule="evenodd" class="s2" d="m835.1 0.2c5.3 1.1 7.5 3 10.7 7.2 1.5 3.2 1.5 5.1 1.2 8.6-1.2 3.1-1.2 3.1-2.9 6.4-0.5 0.9-0.5 0.9-1 1.8-4.6 8.8-9.8 17.2-15.1 25.6-2.1 3-2.1 3-3 6.2q1.2-0.1 2.5-0.2 1.7-0.2 3.5-0.3 1-0.1 2-0.2 5.6-0.5 11.3-1 11.7-0.9 23.4-2c46.8-4.1 93.8-8 140.7-10.1q4.9-0.2 9.7-0.5c34-1.7 68-1.9 102-2q5.3 0 10.5 0c25.5-0.1 50.8 0.2 76.2 1.7q1.7 0.1 3.4 0.2c17.3 1 34.5 2.5 51.6 5.1q3.5 0.5 7.1 1c58.1 8.7 58.1 8.7 83.1 23.3q1.8 1 3.7 2c15.2 8 25.1 18.4 30.3 35q0 1.5 0 3c-2.5-1-3.7-1.5-5.1-3.9-0.4-1.1-0.4-1.1-0.8-2.2-5.8-14.2-17.4-21.2-31.1-26.9-6.2-2.3-12.6-4.2-19-6q-1-0.3-2-0.6c-80.4-23.2-173.9-16.3-282-11.4-1.1 0.1-1.1 0.1-2.2 0.1-56.2 2.9-112.3 7.4-168.3 13q-9.9 0.9-19.8 1.9-6.8 0.6-13.6 1.3-3.2 0.3-6.5 0.5-4.4 0.5-8.8 0.9c-1.3 0.1-1.3 0.1-2.6 0.2-6.9 0.7-13 2.5-18.4 6.9-4 4.9-7.3 10-10.5 15.5q-1.6 2.7-3.1 5.4c-0.8 1.3-0.8 1.3-1.6 2.7-2.4 3.9-4.8 7.8-7.3 11.6-6.9 10.9-13.6 22-20.3 33.1q-4.3 7-8.5 13.9c-13.2 21.5-26.3 43.1-39.1 64.8q-2.5 4.2-5 8.4c-0.7 1.1-0.7 1.1-1.3 2.2-4.3 7.3-8.7 14.6-13.2 21.8-5.4 8.5-10.4 17.2-15.5 25.9q-6.2 10.6-12.5 21c-7.3 12.3-14.6 24.6-21.9 36.9q-0.9 1.5-1.8 3.1-5.6 9.4-11.2 18.9-0.7 1.1-1.3 2.3-9.2 15.4-18.1 31-2.6 4.4-5.2 8.9c-16.8 29.1-33.3 58.4-49.3 88q-3 5.7-6.2 11.4c-6.6 12.1-13.1 24.4-19.5 36.7q-2.5 4.9-5.1 9.8-2.5 4.6-4.9 9.3-1.4 2.5-2.7 5c-8.4 16-16.6 32.2-24.7 48.4q-2.6 5.2-5.2 10.5c-7.7 15.4-15.3 30.8-22.7 46.4q-2.2 4.6-4.4 9.2-0.7 1.4-1.4 2.9-7 14.6-14.2 29c-3.7 7.4-7.3 14.8-10.8 22.3-4.2 8.7-8.5 17.3-12.9 25.9-5.3 10.6-9 20.4-11.4 32q-0.3 1.6-0.7 3.3-0.7 3.3-1.3 6.6c-3 14.3-6.7 28.2-11 42.1q-0.6 2.1-1.3 4.2c-9.7 31.9-9.7 31.9-16 47-1.2 3-2.3 6.1-3.4 9.2-15.6 41.6-33.7 82.2-53.9 121.8q-2.1 4.2-4.2 8.3-6.9 13.9-14 27.8-0.6 1.1-1.2 2.3c-5 9.7-10.1 19.4-15.4 28.9q-4 7.2-7.7 14.6c-6.2 12.7-13.1 25.1-20.9 36.9q-0.5 0.9-1.1 1.9c-2.7 4.5-6.2 7.2-11.2 8.9-10.4 0.9-10.4 0.9-14.3-1.2-3.4-6.3-1.3-14 0.6-20.6q0.4-1.4 0.9-2.9c0.5-1.5 0.5-1.5 0.9-3.1 17.7-57.4 43.1-112.6 67.3-167.5q4.5-10.2 9-20.4 9.4-21.6 18.9-43.1 0.5-1.2 1-2.4c11-24.7 22-49.3 33.3-73.9q2.4-5.2 4.7-10.3c0.7-1.6 0.7-1.6 1.5-3.1q1.3-2.9 2.6-5.8 3.4-7.4 6.9-14.7c5.5-11.5 9.8-22.2 12-34.8q0.2-1.2 0.5-2.4c1.2-6.4 2.1-12.8 2.6-19.2q0.1-1.5 0.3-3c0.9-11.4 1-22.8 0.9-34.3q0-1.6 0-3.3c0-15.8-0.3-31.3-3.3-46.8q-0.3-1.4-0.5-2.8c-3.8-19.4-10-37.5-18.5-55.2q-0.5-1.1-1-2.2c-8.1-16.5-18.8-31.1-31-44.8-1.3-1.5-1.3-1.5-2.6-3-4.9-5.4-9.8-10.4-15.4-15q-1.7-1.4-3.4-2.9c-36.6-30.7-81.1-49-125.4-65.7-6.4-2.5-12.7-5-19.1-7.6-8.2-3.3-16.6-6.4-25-9.3-6.1-2.1-12.1-4.4-18.1-6.7q-6.1-2.5-12.4-4.8c-77.8-28.6-77.8-28.6-103.6-50q-1.2-1-2.5-2c-9.2-7.7-15.4-16.5-17-28.5-0.9-16.2 7.1-29.5 17.5-41.5 6.2-6.8 12.8-12.9 20-18.6q3.3-2.6 6.5-5.4c25.2-21 53.4-37.9 82.5-53q0.9-0.5 1.8-0.9c47.4-24.6 97.7-46.8 148.8-63 3.4-1 3.4-1 6.6-2.5 3.8-1.6 7.7-3 11.6-4.3 1.1-0.3 1.1-0.3 2.2-0.7q3.5-1.2 7.1-2.3 2.4-0.9 4.9-1.7c11.9-3.9 23.9-7.9 36-11.6q1.3-0.4 2.6-0.8c27.1-8.4 54.4-16.1 81.9-23.3q5.1-1.3 10.1-2.7c17.2-4.6 34.5-8.4 51.9-12.2q6.4-1.4 12.8-2.9 23.8-5.2 47.7-9.8 7.5-1.4 14.9-2.9c11.2-2.4 22.5-4.1 33.8-5.8q6.1-0.9 12.1-1.8 19.6-2.9 39.2-5.8 1.3-0.2 2.7-0.4c31.1-4.5 62.4-8.1 93.6-11.6q2.2-0.3 4.3-0.5c6.4-0.7 12.9-1.5 19.3-2.1q1.3-0.1 2.6-0.3 2.2-0.2 4.4-0.4c6.9-0.7 10.7-2.8 15.1-8.1 2.1-2.8 4.1-5.7 6-8.6q0.9-1.3 1.8-2.6 1.9-2.8 3.7-5.7 5-7.5 10.1-14.9 0.9-1.4 1.9-2.8c3-4.4 6-8.8 9.2-13.1q0.8-1.1 1.6-2.2c2-2 3-2.4 5.8-2.5zm-87.4 85.3q-1.9 0.3-3.8 0.5-5.2 0.7-10.3 1.3-3.2 0.5-6.4 0.9c-49.4 6.3-98.7 13.4-147.6 23.3q-4.2 0.8-8.5 1.7c-23.1 4.6-46.3 9.3-69.2 15.1q-6.4 1.6-12.9 3.1-5.5 1.3-11 2.6-1 0.2-2 0.5-7.2 1.7-14.3 3.4-2.4 0.6-4.8 1.2c-9.8 2.3-19.4 4.9-29.1 7.8-4.9 1.4-9.9 2.7-14.9 4q-12.2 3.1-24.3 6.7-1.4 0.4-2.8 0.8c-7.6 2.2-15.1 4.6-22.7 6.9q-3.1 1-6.3 2c-66.8 20.8-131.9 44.9-194.8 75.7q-1.3 0.6-2.7 1.3c-11.8 5.8-23.4 11.9-34.9 18.3q-2.3 1.4-4.7 2.7c-24.3 13.5-46.9 29.3-67.7 47.7q-1 0.8-1.9 1.7c-12.4 10.9-25.1 23.1-26.3 40.6-0.3 10-0.3 10 4.2 18.7 6.2 6.4 12.6 10.9 20.7 14.6q1.5 0.7 3.1 1.4c25.5 11.7 51.8 22.6 78.4 31.6 7.1 2.4 14.2 5.1 21.2 8q4.5 1.7 9.1 3.3c13.3 4.5 26.3 10 39.3 15.4q4.1 1.7 8.2 3.3c19 7.8 37.6 16.2 56 25.4q1.9 0.9 3.7 1.8 1.9 1 3.7 1.9c1.7 0.8 1.7 0.8 3.4 1.6 24.9 12.8 48.4 28.9 69.2 47.7 1 0.9 1 0.9 1.9 1.8 7.1 6.4 14 12.8 20.1 20.2q1.1 1.3 2.2 2.6c11.8 13.7 21.5 28.4 29.8 44.4q0.5 1 1.1 2c13.9 26.6 19.3 55 22.6 84.5 0.1 1.1 0.1 1.1 0.2 2.2q0.4 3 0.7 5.9c0.3 2.9 0.8 5.6 1.4 8.4 3.1-0.7 3.1-0.7 4.2-3q0.6-1.3 1.2-2.7c0.7-1.5 0.7-1.5 1.4-3q0.7-1.7 1.5-3.4 1.1-2.6 2.3-5.3 0.9-1.8 1.7-3.7c3.4-7.4 6.8-14.7 10.3-22.1q0.9-2.1 1.9-4.1c8.3-17.7 16.8-35.3 25.3-53q4.6-9.4 9.1-18.9 7.7-16 15.4-32 1.2-2.5 2.5-5 7.5-15.7 15.7-31.1 3.7-6.9 7.2-13.9 0.6-1.1 1.2-2.2 1.1-2.3 2.3-4.6c6.4-12.6 13-25.2 19.9-37.6 3.2-5.8 6.3-11.7 9.4-17.5 5.4-10.2 10.9-20.3 16.6-30.3q5.2-9.2 10.3-18.4c8.3-15 16.8-29.6 25.6-44.2q1.5-2.6 3.1-5.2c18-30.1 36.4-60.1 55-89.8q4.8-7.6 9.5-15.2c1-1.5 1-1.5 1.9-3q6-9.6 12-19.3 16.7-27 33.7-53.8 2.7-4.2 5.4-8.4c6.2-9.8 12.5-19.5 18.9-29.1q2.8-4.1 5.5-8.2c1.1-1.6 1.1-1.6 2.2-3.2q2.1-3.2 4.2-6.4 1-1.5 2-3 0.9-1.4 1.8-2.8c1.6-2.3 3.1-4.4 4.8-6.5 2.1-3.3 2.2-4.3 2-8.1-7.9-0.2-15.5 0.5-23.3 1.5z"/>
	<path id="Layer" class="s3" d="m2741.4 662.8q5.4 0 10.8 0c21.2-0.1 41.9 1.6 62.9 5q1.2 0.2 2.4 0.4c13 2.1 25.8 4.5 38.5 7.8q1.1 0.3 2.3 0.6c9.8 2.6 18.7 5.9 27.7 10.4q1.4 0.6 2.7 1.3c8.3 3.9 15.7 7.9 19.3 16.7 0.1 3.9-0.6 5.4-2.9 8.5-21 17.1-52.9 21.8-79 26-1.3 0.2-1.3 0.2-2.7 0.4-31.3 5.2-62.8 8.9-94.4 11.8q-3.2 0.3-6.5 0.6c-24 2.3-48.1 3.9-72.2 5.4q-4.7 0.3-9.5 0.6c-34.4 2-68.9 3.8-103.3 5.4q-5.4 0.3-10.7 0.5c-47.2 2.2-47.2 2.2-67.8 1.8 64.6-64.8 153.5-94.7 243-102 1.7-0.1 1.7-0.1 3.5-0.3 11.9-0.9 23.9-0.9 35.9-0.9z"/>
	<path id="Layer" class="s4" d="m1535.1 792.9q5.9 0 11.9 0 11.1 0 22.3 0 12.7 0 25.4 0 26.2 0.1 52.3 0.1-1.7 3.8-3.3 7.7-0.5 1-1 2.1-3.6 8.2-7.2 16.3c-0.5 1.1-0.5 1.1-1 2.3-4.8 10.5-9.7 20.9-14.7 31.4q-0.5 1.1-1 2.2c-3 6.2-3 6.2-4.4 9.2-4.2 8.9-8.3 17.7-12.2 26.8-1.2 2.9-2.5 5.4-4.2 8-2.9-0.3-3.9-0.9-5.9-3q-1.1-1.3-2.1-2.7-1.2-1.5-2.4-3-0.7-0.8-1.3-1.7c-7.8-9.8-16.2-18.7-25-27.5q-0.8-0.8-1.6-1.5c-5.7-5.8-11.5-11.4-17.7-16.6q-1.6-1.4-3.1-2.7c-7.3-6.2-14.6-12.1-22.2-17.9q-5.1-4-10.1-8-5.2-4.1-10.4-8.1-1.3-1-2.5-2-2.5-1.8-4.9-3.7-1.1-0.9-2.3-1.7-0.9-0.8-2-1.6c-1.5-1.3-1.5-1.3-2.5-3.3 17.7-1 35.4-1.1 53.1-1.1z"/>
	<path id="Layer" class="s5" d="m2305 579.8q1.2-0.1 2.5-0.1c9.3-0.1 17.3 2.4 24.2 8.9 3.3 3.4 3.3 3.4 4.3 5.4-0.5 4.3-2.1 7.7-4 11.6q-1 2-1.9 3.9-0.5 1.1-1 2.2c-5.1 10.4-10 20.9-14.5 31.6-13.8 32.8-13.8 32.8-24.2 45-1.8 2.2-3.6 4.5-5.3 6.9-8.1 10.7-17 20.9-26.1 30.8-1.1 1.2-1.1 1.2-2.2 2.4-7.6 7.9-14.6 13.2-25.8 13.6-4-6-2.2-13.7-1-20.5 5.9-27.1 16.1-52.7 27.3-78.1q0.7-1.6 1.5-3.3c5-11.3 11-21.6 18-31.8q2.1-3.2 4.2-6.4 1-1.5 2.1-3 4.5-6.8 9.1-13.7c3.8-5.8 6-5.4 12.8-5.4z"/>
	<path id="Layer" class="s4" d="m2387 835c1 1 1 1 1.3 3.2-0.4 3.5-1.6 5.5-3.5 8.5q-1 1.7-2 3.4-1.2 1.8-2.3 3.6-1.2 1.9-2.3 3.8-3.6 5.8-7.2 11.5-0.5 0.9-1.1 1.8c-22.3 35.4-46.1 70.8-74.6 101.7q-2.9 3.1-5.6 6.4c-24.8 28.4-24.8 28.4-38 29.3-2.7-0.2-2.7-0.2-3.7-1.2-2.6-11.6 4.7-23.1 10.6-32.6 7.3-11.1 15.4-21.5 24-31.7q3-3.7 6-7.4c4.6-5.6 9.3-11.1 14-16.6q2.1-2.6 4.3-5.1c5.8-6.9 11.8-13.6 17.9-20.1q4.7-5 9.3-10.1c7.6-8.4 15.7-16.5 23.7-24.5q3-3 5.9-6.1 4.4-4.4 8.7-8.7c1.4-1.4 1.4-1.4 2.7-2.8q1.2-1.2 2.5-2.5 1.1-1.1 2.2-2.2c2.6-1.9 4-2 7.2-1.6z"/>
	<path id="Layer" class="s6" d="m965 816c2 0.5 2 0.5 4 1-0.6 3.6-1.5 6.4-3.2 9.7q-0.7 1.3-1.4 2.7-0.8 1.4-1.6 2.9c-0.8 1.5-0.8 1.5-1.6 3.1-8.6 16.1-18 31.8-27.6 47.4q-0.9 1.5-1.9 3.1c-17.1 27.7-36.4 54.4-58.7 78.1q-1.1 1.2-2.2 2.4c-7.9 8.3-18.6 17.5-29.8 20.6q-2 0-4 0c-0.5-6.1 0.9-9.7 3.8-14.8q0.6-1.1 1.2-2.2c8.7-15.6 19.3-29.7 30.2-43.7q2.3-3 4.7-6 3.5-4.7 7.1-9.3 0.6-0.8 1.3-1.7c5.6-7.2 11.3-14.3 17.4-21.3q4.6-5.3 9-10.7c3.5-4.4 7.3-8.6 11.1-12.8 2.2-2.5 4.3-5.1 6.5-7.7 4.6-5.8 9.6-11.2 14.7-16.6q4.2-4.5 8.3-9.3c2.9-3.3 5.8-6.5 8.8-9.7 2-2.2 2-2.2 3.9-5.2z"/>
	<path id="Layer" class="s7" d="m1596 974q0.5 0 1 0c1.5 57.3-19.7 109.1-56 153q-2.5 2.5-5 5c0.6-7 2-13.4 3.9-20.2q0.5-1.6 1-3.3c6.9-23.8 15.2-46.7 25.1-69.5q0.7-1.7 1.5-3.4c5.8-13.4 11.8-26.6 18-39.8q0.4-0.9 0.9-1.9c3.1-6.7 6.3-13.3 9.6-19.9z"/>
	<path id="Layer" class="s4" d="m1710.5 737.7c4.6 0.4 7.8 2.1 11.8 4.2q1.2 0.6 2.4 1.3 3.9 2 7.7 4 2.7 1.4 5.3 2.7c12.2 6.4 24.2 12.9 36 19.8 3.8 2.1 7.5 4.2 11.3 6.3q0 0.5 0 1c-32.3 0.8-64.7 1.2-97 1 9.5-21.5 9.5-21.5 14.5-30.7q0.6-1.2 1.3-2.4c3.6-6.8 3.6-6.8 6.7-7.2z"/>
	<path id="Layer" class="s8" d="m2421 775c-1.1 3.5-2.3 6.7-4 10-32.8 0.2-65.5-0.1-98.3-0.5q-1.4 0-2.9 0-18.4-0.3-36.8-0.5 1-2.5 2-5 1.5 0 3.1-0.1c28.2-0.6 56.4-1.4 84.6-2.4q12.5-0.4 25-0.8 4.3-0.1 8.6-0.3 2.6-0.1 5.3-0.1 1.1-0.1 2.3-0.1c3.7-0.1 7.4-0.2 11.1-0.2z"/>
	<path id="Layer" class="s9" d="m2153.2 655.9q1.3 0.1 2.7 0.1 1 0 2.1 0c0.7 1.7 0.7 1.7 1 4-1.6 2.4-1.6 2.4-3.9 5.1q-1.2 1.4-2.5 2.9-1.3 1.5-2.6 3-2.2 2.6-4.3 5.3c-7.8 9.5-15.7 18.8-24.1 27.8q-0.8 0.9-1.7 1.8c-3.4 3.7-7 7-10.9 10.1 0.8-17.5 8.5-31.4 19-45 0.8-1.1 0.8-1.1 1.7-2.3 5.9-7.3 13.9-12.9 23.5-12.8z"/>
	<path id="Layer" class="s10" d="m1051.4 579.1c4.2 1.1 5.8 2.6 8.6 5.9 4.1 8.1-0.4 20-3 28-0.6 1.4-1.3 2.7-2 4-7.3-0.3-11.4-3.7-16.7-8.5-3-3.4-2.6-7.6-2.6-11.9 0.7-6.6 4.4-11.3 9.3-15.6 3-2 3-2 6.4-1.9z"/>
	<path id="Layer" class="s10" d="m1141.3 578.9c4.2 1.2 6 2.5 8.6 5.9 3.4 6.7 1.1 14.8-1.1 21.7q-0.4 1.2-0.8 2.5c-0.3 1.1-0.3 1.1-0.7 2.2-0.7 1.9-0.7 1.9-2.3 4.8-3 1.1-4.4 1.3-7.3-0.1-10.2-7.3-10.2-7.3-11.7-11.9-0.7-6.9 0-12.2 4-18 6.2-7 6.2-7 11.3-7.1z"/>
	<path id="Layer" class="s11" d="m2334 637c1 2 1 2 0.6 3.9q-0.4 1.2-0.9 2.4-0.4 1.4-0.9 2.8-0.5 1.4-1 3-0.6 1.5-1.1 3.1c-4.3 11.9-9.4 23.3-14.7 34.8q-0.8 1.8-1.7 3.6c-7.6 16.7-15.6 33.3-23.9 49.7q-2.9 5.6-5.7 11.3-1.4 2.7-2.7 5.4c-1.1-3.4-0.9-3.8 0.4-6.9q0.5-1.2 1.1-2.4 0.5-1.3 1.1-2.6 0.6-1.3 1.2-2.7 1.9-4.3 3.8-8.7 1.3-3 2.7-6 2.6-6.1 5.2-12.1 3.2-7.3 6.4-14.6c4.7-11.1 9.5-22.1 15-32.8 3.6-7.1 6.8-14.4 10.2-21.7q0.7-1.6 1.5-3.3 0.6-1.4 1.3-3c1.1-2.2 1.1-2.2 2.1-3.2z"/>
	<path id="Layer" class="s12" d="m703 638c1.4 4.3-0.3 7.5-1.8 11.6q-0.4 1.3-0.9 2.6c-10.6 29-24.6 56.4-38.4 83.9q-2.4 5-4.9 9.9-1.5 3-3 6c-1.5-4.4 0.5-7.3 2.3-11.3q0.6-1.3 1.1-2.6 1.8-4.1 3.6-8.2 1.2-2.9 2.5-5.8c10.2-23.4 20.7-46.7 31.9-69.7 2.6-5.4 5.1-10.9 7.6-16.4z"/>
	<path id="Layer" class="s13" d="m2050 649c-0.1 8.9-3.5 14.2-9.5 20.6-3.8 3.5-10.1 7.4-15.5 7.4 0.3-9 4.3-15.8 10.9-21.9 4-3.3 8.7-6.1 14.1-6.1z"/>
	<path id="Layer" class="s14" d="m2260 780q0 1.5 0 3c-35.6 0-71.3 0-108 0q0-0.5 0-1 1 0 1.9 0 12.3-0.2 24.6-0.4c2-0.1 2-0.1 4-0.1 16.2-0.3 32.4-0.6 48.6-1.2q14.4-0.5 28.9-0.3z"/>
	<path id="Layer" class="s15" d="m2344 575q0.5 1 1 2c-1 2.6-1 2.6-2.4 5.6q-0.7 1.5-1.5 3.1-0.5 1.1-1.1 2.3c-0.6-0.6-0.6-0.6-1.3-1.2-4.3-3.9-8.4-6.4-13.7-8.8q0-1 0-2c6.3-0.6 12.6-1.1 19-1z"/>
	<path id="Layer" class="s16" d="m714 575c-0.5 4.6-1.8 8-4 12-3.7-1.7-6.8-4-10-6.6-1.9-1.4-3.8-2.4-6-3.4q0-0.5 0-1c13.6-1.1 13.6-1.1 20-1z"/>
	<path id="Layer" class="s17" d="m663 729q1 1 2 2-2.4 4.7-4.9 9.4-0.7 1.3-1.4 2.7-0.6 1.2-1.3 2.5-0.6 1.2-1.3 2.4c-1.1 2-1.1 2-3.1 4 0.7-4.9 2.6-9.2 4.4-13.8q0.5-1.1 1-2.3 0.4-1.1 0.9-2.3 0.4-1 0.8-2c0.9-1.6 0.9-1.6 2.9-2.6z"/>
</svg>